G04 #@! TF.GenerationSoftware,KiCad,Pcbnew,(5.1.2)-2*
G04 #@! TF.CreationDate,2019-08-07T20:06:56+08:00*
G04 #@! TF.ProjectId,pillf4,70696c6c-6634-42e6-9b69-6361645f7063,rev?*
G04 #@! TF.SameCoordinates,PXffeaaef8PYff89ca48*
G04 #@! TF.FileFunction,Legend,Top*
G04 #@! TF.FilePolarity,Positive*
%FSLAX46Y46*%
G04 Gerber Fmt 4.6, Leading zero omitted, Abs format (unit mm)*
G04 Created by KiCad (PCBNEW (5.1.2)-2) date 2019-08-07 20:06:56*
%MOMM*%
%LPD*%
G04 APERTURE LIST*
%ADD10C,0.160000*%
%ADD11C,0.120000*%
G04 APERTURE END LIST*
D10*
X19547000Y-11288428D02*
X19647000Y-11327476D01*
X19680333Y-11366523D01*
X19713666Y-11444619D01*
X19713666Y-11561761D01*
X19680333Y-11639857D01*
X19647000Y-11678904D01*
X19580333Y-11717952D01*
X19313666Y-11717952D01*
X19313666Y-10897952D01*
X19547000Y-10897952D01*
X19613666Y-10937000D01*
X19647000Y-10976047D01*
X19680333Y-11054142D01*
X19680333Y-11132238D01*
X19647000Y-11210333D01*
X19613666Y-11249380D01*
X19547000Y-11288428D01*
X19313666Y-11288428D01*
X20347000Y-11717952D02*
X20013666Y-11717952D01*
X20013666Y-10897952D01*
X20547000Y-11483666D02*
X20880333Y-11483666D01*
X20480333Y-11717952D02*
X20713666Y-10897952D01*
X20947000Y-11717952D01*
X21580333Y-11639857D02*
X21547000Y-11678904D01*
X21447000Y-11717952D01*
X21380333Y-11717952D01*
X21280333Y-11678904D01*
X21213666Y-11600809D01*
X21180333Y-11522714D01*
X21147000Y-11366523D01*
X21147000Y-11249380D01*
X21180333Y-11093190D01*
X21213666Y-11015095D01*
X21280333Y-10937000D01*
X21380333Y-10897952D01*
X21447000Y-10897952D01*
X21547000Y-10937000D01*
X21580333Y-10976047D01*
X21880333Y-11717952D02*
X21880333Y-10897952D01*
X22280333Y-11717952D02*
X21980333Y-11249380D01*
X22280333Y-10897952D02*
X21880333Y-11366523D01*
X23113666Y-11717952D02*
X23113666Y-10897952D01*
X23380333Y-10897952D01*
X23447000Y-10937000D01*
X23480333Y-10976047D01*
X23513666Y-11054142D01*
X23513666Y-11171285D01*
X23480333Y-11249380D01*
X23447000Y-11288428D01*
X23380333Y-11327476D01*
X23113666Y-11327476D01*
X23813666Y-11717952D02*
X23813666Y-10897952D01*
X24480333Y-11717952D02*
X24147000Y-11717952D01*
X24147000Y-10897952D01*
X25047000Y-11717952D02*
X24713666Y-11717952D01*
X24713666Y-10897952D01*
X25747000Y-11171285D02*
X25913666Y-11717952D01*
X26080333Y-11171285D01*
X26713666Y-11717952D02*
X26313666Y-11717952D01*
X26513666Y-11717952D02*
X26513666Y-10897952D01*
X26447000Y-11015095D01*
X26380333Y-11093190D01*
X26313666Y-11132238D01*
X27013666Y-11639857D02*
X27047000Y-11678904D01*
X27013666Y-11717952D01*
X26980333Y-11678904D01*
X27013666Y-11639857D01*
X27013666Y-11717952D01*
X27480333Y-10897952D02*
X27547000Y-10897952D01*
X27613666Y-10937000D01*
X27647000Y-10976047D01*
X27680333Y-11054142D01*
X27713666Y-11210333D01*
X27713666Y-11405571D01*
X27680333Y-11561761D01*
X27647000Y-11639857D01*
X27613666Y-11678904D01*
X27547000Y-11717952D01*
X27480333Y-11717952D01*
X27413666Y-11678904D01*
X27380333Y-11639857D01*
X27347000Y-11561761D01*
X27313666Y-11405571D01*
X27313666Y-11210333D01*
X27347000Y-11054142D01*
X27380333Y-10976047D01*
X27413666Y-10937000D01*
X27480333Y-10897952D01*
X1580333Y-12163000D02*
X1513666Y-12123952D01*
X1413666Y-12123952D01*
X1313667Y-12163000D01*
X1247000Y-12241095D01*
X1213667Y-12319190D01*
X1180334Y-12475380D01*
X1180334Y-12592523D01*
X1213667Y-12748714D01*
X1247000Y-12826809D01*
X1313667Y-12904904D01*
X1413666Y-12943952D01*
X1480333Y-12943952D01*
X1580333Y-12904904D01*
X1613666Y-12865857D01*
X1613666Y-12592523D01*
X1480333Y-12592523D01*
X3070333Y-12123952D02*
X3503666Y-12123952D01*
X3270333Y-12436333D01*
X3370333Y-12436333D01*
X3437000Y-12475380D01*
X3470333Y-12514428D01*
X3503666Y-12592523D01*
X3503666Y-12787761D01*
X3470333Y-12865857D01*
X3437000Y-12904904D01*
X3370333Y-12943952D01*
X3170333Y-12943952D01*
X3103666Y-12904904D01*
X3070333Y-12865857D01*
X3703666Y-12123952D02*
X3937000Y-12943952D01*
X4170333Y-12123952D01*
X4337000Y-12123952D02*
X4770333Y-12123952D01*
X4537000Y-12436333D01*
X4637000Y-12436333D01*
X4703666Y-12475380D01*
X4737000Y-12514428D01*
X4770333Y-12592523D01*
X4770333Y-12787761D01*
X4737000Y-12865857D01*
X4703666Y-12904904D01*
X4637000Y-12943952D01*
X4437000Y-12943952D01*
X4370333Y-12904904D01*
X4337000Y-12865857D01*
X5860333Y-12514428D02*
X5960333Y-12553476D01*
X5993666Y-12592523D01*
X6027000Y-12670619D01*
X6027000Y-12787761D01*
X5993666Y-12865857D01*
X5960333Y-12904904D01*
X5893666Y-12943952D01*
X5627000Y-12943952D01*
X5627000Y-12123952D01*
X5860333Y-12123952D01*
X5927000Y-12163000D01*
X5960333Y-12202047D01*
X5993666Y-12280142D01*
X5993666Y-12358238D01*
X5960333Y-12436333D01*
X5927000Y-12475380D01*
X5860333Y-12514428D01*
X5627000Y-12514428D01*
X6693666Y-12943952D02*
X6293666Y-12943952D01*
X6493666Y-12943952D02*
X6493666Y-12123952D01*
X6427000Y-12241095D01*
X6360333Y-12319190D01*
X6293666Y-12358238D01*
X7360333Y-12943952D02*
X6960333Y-12943952D01*
X7160333Y-12943952D02*
X7160333Y-12123952D01*
X7093666Y-12241095D01*
X7027000Y-12319190D01*
X6960333Y-12358238D01*
X8400333Y-12514428D02*
X8500333Y-12553476D01*
X8533666Y-12592523D01*
X8567000Y-12670619D01*
X8567000Y-12787761D01*
X8533666Y-12865857D01*
X8500333Y-12904904D01*
X8433666Y-12943952D01*
X8167000Y-12943952D01*
X8167000Y-12123952D01*
X8400333Y-12123952D01*
X8467000Y-12163000D01*
X8500333Y-12202047D01*
X8533666Y-12280142D01*
X8533666Y-12358238D01*
X8500333Y-12436333D01*
X8467000Y-12475380D01*
X8400333Y-12514428D01*
X8167000Y-12514428D01*
X9233666Y-12943952D02*
X8833666Y-12943952D01*
X9033666Y-12943952D02*
X9033666Y-12123952D01*
X8967000Y-12241095D01*
X8900333Y-12319190D01*
X8833666Y-12358238D01*
X9667000Y-12123952D02*
X9733666Y-12123952D01*
X9800333Y-12163000D01*
X9833666Y-12202047D01*
X9867000Y-12280142D01*
X9900333Y-12436333D01*
X9900333Y-12631571D01*
X9867000Y-12787761D01*
X9833666Y-12865857D01*
X9800333Y-12904904D01*
X9733666Y-12943952D01*
X9667000Y-12943952D01*
X9600333Y-12904904D01*
X9567000Y-12865857D01*
X9533666Y-12787761D01*
X9500333Y-12631571D01*
X9500333Y-12436333D01*
X9533666Y-12280142D01*
X9567000Y-12202047D01*
X9600333Y-12163000D01*
X9667000Y-12123952D01*
X11273666Y-12514428D02*
X11373666Y-12553476D01*
X11407000Y-12592523D01*
X11440333Y-12670619D01*
X11440333Y-12787761D01*
X11407000Y-12865857D01*
X11373666Y-12904904D01*
X11307000Y-12943952D01*
X11040333Y-12943952D01*
X11040333Y-12123952D01*
X11273666Y-12123952D01*
X11340333Y-12163000D01*
X11373666Y-12202047D01*
X11407000Y-12280142D01*
X11407000Y-12358238D01*
X11373666Y-12436333D01*
X11340333Y-12475380D01*
X11273666Y-12514428D01*
X11040333Y-12514428D01*
X11707000Y-12202047D02*
X11740333Y-12163000D01*
X11807000Y-12123952D01*
X11973666Y-12123952D01*
X12040333Y-12163000D01*
X12073666Y-12202047D01*
X12107000Y-12280142D01*
X12107000Y-12358238D01*
X12073666Y-12475380D01*
X11673666Y-12943952D01*
X12107000Y-12943952D01*
X13813666Y-12514428D02*
X13913666Y-12553476D01*
X13947000Y-12592523D01*
X13980333Y-12670619D01*
X13980333Y-12787761D01*
X13947000Y-12865857D01*
X13913666Y-12904904D01*
X13847000Y-12943952D01*
X13580333Y-12943952D01*
X13580333Y-12123952D01*
X13813666Y-12123952D01*
X13880333Y-12163000D01*
X13913666Y-12202047D01*
X13947000Y-12280142D01*
X13947000Y-12358238D01*
X13913666Y-12436333D01*
X13880333Y-12475380D01*
X13813666Y-12514428D01*
X13580333Y-12514428D01*
X14647000Y-12943952D02*
X14247000Y-12943952D01*
X14447000Y-12943952D02*
X14447000Y-12123952D01*
X14380333Y-12241095D01*
X14313666Y-12319190D01*
X14247000Y-12358238D01*
X16353666Y-12514428D02*
X16453666Y-12553476D01*
X16487000Y-12592523D01*
X16520333Y-12670619D01*
X16520333Y-12787761D01*
X16487000Y-12865857D01*
X16453666Y-12904904D01*
X16387000Y-12943952D01*
X16120333Y-12943952D01*
X16120333Y-12123952D01*
X16353666Y-12123952D01*
X16420333Y-12163000D01*
X16453666Y-12202047D01*
X16487000Y-12280142D01*
X16487000Y-12358238D01*
X16453666Y-12436333D01*
X16420333Y-12475380D01*
X16353666Y-12514428D01*
X16120333Y-12514428D01*
X16953666Y-12123952D02*
X17020333Y-12123952D01*
X17087000Y-12163000D01*
X17120333Y-12202047D01*
X17153666Y-12280142D01*
X17187000Y-12436333D01*
X17187000Y-12631571D01*
X17153666Y-12787761D01*
X17120333Y-12865857D01*
X17087000Y-12904904D01*
X17020333Y-12943952D01*
X16953666Y-12943952D01*
X16887000Y-12904904D01*
X16853666Y-12865857D01*
X16820333Y-12787761D01*
X16787000Y-12631571D01*
X16787000Y-12436333D01*
X16820333Y-12280142D01*
X16853666Y-12202047D01*
X16887000Y-12163000D01*
X16953666Y-12123952D01*
X18677000Y-12709666D02*
X19010333Y-12709666D01*
X18610333Y-12943952D02*
X18843666Y-12123952D01*
X19077000Y-12943952D01*
X19243666Y-12123952D02*
X19710333Y-12123952D01*
X19410333Y-12943952D01*
X21217000Y-12709666D02*
X21550333Y-12709666D01*
X21150333Y-12943952D02*
X21383666Y-12123952D01*
X21617000Y-12943952D01*
X22150333Y-12123952D02*
X22017000Y-12123952D01*
X21950333Y-12163000D01*
X21917000Y-12202047D01*
X21850333Y-12319190D01*
X21817000Y-12475380D01*
X21817000Y-12787761D01*
X21850333Y-12865857D01*
X21883666Y-12904904D01*
X21950333Y-12943952D01*
X22083666Y-12943952D01*
X22150333Y-12904904D01*
X22183666Y-12865857D01*
X22217000Y-12787761D01*
X22217000Y-12592523D01*
X22183666Y-12514428D01*
X22150333Y-12475380D01*
X22083666Y-12436333D01*
X21950333Y-12436333D01*
X21883666Y-12475380D01*
X21850333Y-12514428D01*
X21817000Y-12592523D01*
X23757000Y-12709666D02*
X24090333Y-12709666D01*
X23690333Y-12943952D02*
X23923666Y-12123952D01*
X24157000Y-12943952D01*
X24723666Y-12123952D02*
X24390333Y-12123952D01*
X24357000Y-12514428D01*
X24390333Y-12475380D01*
X24457000Y-12436333D01*
X24623666Y-12436333D01*
X24690333Y-12475380D01*
X24723666Y-12514428D01*
X24757000Y-12592523D01*
X24757000Y-12787761D01*
X24723666Y-12865857D01*
X24690333Y-12904904D01*
X24623666Y-12943952D01*
X24457000Y-12943952D01*
X24390333Y-12904904D01*
X24357000Y-12865857D01*
X26297000Y-12709666D02*
X26630333Y-12709666D01*
X26230333Y-12943952D02*
X26463666Y-12123952D01*
X26697000Y-12943952D01*
X27230333Y-12397285D02*
X27230333Y-12943952D01*
X27063666Y-12084904D02*
X26897000Y-12670619D01*
X27330333Y-12670619D01*
X28837000Y-12709666D02*
X29170333Y-12709666D01*
X28770333Y-12943952D02*
X29003666Y-12123952D01*
X29237000Y-12943952D01*
X29403666Y-12123952D02*
X29837000Y-12123952D01*
X29603666Y-12436333D01*
X29703666Y-12436333D01*
X29770333Y-12475380D01*
X29803666Y-12514428D01*
X29837000Y-12592523D01*
X29837000Y-12787761D01*
X29803666Y-12865857D01*
X29770333Y-12904904D01*
X29703666Y-12943952D01*
X29503666Y-12943952D01*
X29437000Y-12904904D01*
X29403666Y-12865857D01*
X31377000Y-12709666D02*
X31710333Y-12709666D01*
X31310333Y-12943952D02*
X31543666Y-12123952D01*
X31777000Y-12943952D01*
X31977000Y-12202047D02*
X32010333Y-12163000D01*
X32077000Y-12123952D01*
X32243666Y-12123952D01*
X32310333Y-12163000D01*
X32343666Y-12202047D01*
X32377000Y-12280142D01*
X32377000Y-12358238D01*
X32343666Y-12475380D01*
X31943666Y-12943952D01*
X32377000Y-12943952D01*
X33917000Y-12709666D02*
X34250333Y-12709666D01*
X33850333Y-12943952D02*
X34083666Y-12123952D01*
X34317000Y-12943952D01*
X34917000Y-12943952D02*
X34517000Y-12943952D01*
X34717000Y-12943952D02*
X34717000Y-12123952D01*
X34650333Y-12241095D01*
X34583666Y-12319190D01*
X34517000Y-12358238D01*
X36457000Y-12709666D02*
X36790333Y-12709666D01*
X36390333Y-12943952D02*
X36623666Y-12123952D01*
X36857000Y-12943952D01*
X37223666Y-12123952D02*
X37290333Y-12123952D01*
X37357000Y-12163000D01*
X37390333Y-12202047D01*
X37423666Y-12280142D01*
X37457000Y-12436333D01*
X37457000Y-12631571D01*
X37423666Y-12787761D01*
X37390333Y-12865857D01*
X37357000Y-12904904D01*
X37290333Y-12943952D01*
X37223666Y-12943952D01*
X37157000Y-12904904D01*
X37123666Y-12865857D01*
X37090333Y-12787761D01*
X37057000Y-12631571D01*
X37057000Y-12436333D01*
X37090333Y-12280142D01*
X37123666Y-12202047D01*
X37157000Y-12163000D01*
X37223666Y-12123952D01*
X38397000Y-12397285D02*
X38397000Y-12943952D01*
X38397000Y-12475380D02*
X38430333Y-12436333D01*
X38497000Y-12397285D01*
X38597000Y-12397285D01*
X38663666Y-12436333D01*
X38697000Y-12514428D01*
X38697000Y-12943952D01*
X39430333Y-12943952D02*
X39197000Y-12553476D01*
X39030333Y-12943952D02*
X39030333Y-12123952D01*
X39297000Y-12123952D01*
X39363666Y-12163000D01*
X39397000Y-12202047D01*
X39430333Y-12280142D01*
X39430333Y-12397285D01*
X39397000Y-12475380D01*
X39363666Y-12514428D01*
X39297000Y-12553476D01*
X39030333Y-12553476D01*
X39697000Y-12904904D02*
X39797000Y-12943952D01*
X39963666Y-12943952D01*
X40030333Y-12904904D01*
X40063666Y-12865857D01*
X40097000Y-12787761D01*
X40097000Y-12709666D01*
X40063666Y-12631571D01*
X40030333Y-12592523D01*
X39963666Y-12553476D01*
X39830333Y-12514428D01*
X39763666Y-12475380D01*
X39730333Y-12436333D01*
X39697000Y-12358238D01*
X39697000Y-12280142D01*
X39730333Y-12202047D01*
X39763666Y-12163000D01*
X39830333Y-12123952D01*
X39997000Y-12123952D01*
X40097000Y-12163000D01*
X40297000Y-12123952D02*
X40697000Y-12123952D01*
X40497000Y-12943952D02*
X40497000Y-12123952D01*
X41503666Y-12943952D02*
X41503666Y-12123952D01*
X41503666Y-12514428D02*
X41903666Y-12514428D01*
X41903666Y-12943952D02*
X41903666Y-12123952D01*
X42603666Y-12943952D02*
X42203666Y-12943952D01*
X42403666Y-12943952D02*
X42403666Y-12123952D01*
X42337000Y-12241095D01*
X42270333Y-12319190D01*
X42203666Y-12358238D01*
X44043666Y-12943952D02*
X44043666Y-12123952D01*
X44043666Y-12514428D02*
X44443666Y-12514428D01*
X44443666Y-12943952D02*
X44443666Y-12123952D01*
X44910333Y-12123952D02*
X44977000Y-12123952D01*
X45043666Y-12163000D01*
X45077000Y-12202047D01*
X45110333Y-12280142D01*
X45143666Y-12436333D01*
X45143666Y-12631571D01*
X45110333Y-12787761D01*
X45077000Y-12865857D01*
X45043666Y-12904904D01*
X44977000Y-12943952D01*
X44910333Y-12943952D01*
X44843666Y-12904904D01*
X44810333Y-12865857D01*
X44777000Y-12787761D01*
X44743666Y-12631571D01*
X44743666Y-12436333D01*
X44777000Y-12280142D01*
X44810333Y-12202047D01*
X44843666Y-12163000D01*
X44910333Y-12123952D01*
X46667000Y-12865857D02*
X46633666Y-12904904D01*
X46533666Y-12943952D01*
X46467000Y-12943952D01*
X46367000Y-12904904D01*
X46300333Y-12826809D01*
X46267000Y-12748714D01*
X46233666Y-12592523D01*
X46233666Y-12475380D01*
X46267000Y-12319190D01*
X46300333Y-12241095D01*
X46367000Y-12163000D01*
X46467000Y-12123952D01*
X46533666Y-12123952D01*
X46633666Y-12163000D01*
X46667000Y-12202047D01*
X47333666Y-12943952D02*
X46933666Y-12943952D01*
X47133666Y-12943952D02*
X47133666Y-12123952D01*
X47067000Y-12241095D01*
X47000333Y-12319190D01*
X46933666Y-12358238D01*
X47967000Y-12123952D02*
X47633666Y-12123952D01*
X47600333Y-12514428D01*
X47633666Y-12475380D01*
X47700333Y-12436333D01*
X47867000Y-12436333D01*
X47933666Y-12475380D01*
X47967000Y-12514428D01*
X48000333Y-12592523D01*
X48000333Y-12787761D01*
X47967000Y-12865857D01*
X47933666Y-12904904D01*
X47867000Y-12943952D01*
X47700333Y-12943952D01*
X47633666Y-12904904D01*
X47600333Y-12865857D01*
X49207000Y-12865857D02*
X49173666Y-12904904D01*
X49073666Y-12943952D01*
X49007000Y-12943952D01*
X48907000Y-12904904D01*
X48840333Y-12826809D01*
X48807000Y-12748714D01*
X48773666Y-12592523D01*
X48773666Y-12475380D01*
X48807000Y-12319190D01*
X48840333Y-12241095D01*
X48907000Y-12163000D01*
X49007000Y-12123952D01*
X49073666Y-12123952D01*
X49173666Y-12163000D01*
X49207000Y-12202047D01*
X49873666Y-12943952D02*
X49473666Y-12943952D01*
X49673666Y-12943952D02*
X49673666Y-12123952D01*
X49607000Y-12241095D01*
X49540333Y-12319190D01*
X49473666Y-12358238D01*
X50473666Y-12397285D02*
X50473666Y-12943952D01*
X50307000Y-12084904D02*
X50140333Y-12670619D01*
X50573666Y-12670619D01*
X51747000Y-12865857D02*
X51713666Y-12904904D01*
X51613666Y-12943952D01*
X51547000Y-12943952D01*
X51447000Y-12904904D01*
X51380333Y-12826809D01*
X51347000Y-12748714D01*
X51313666Y-12592523D01*
X51313666Y-12475380D01*
X51347000Y-12319190D01*
X51380333Y-12241095D01*
X51447000Y-12163000D01*
X51547000Y-12123952D01*
X51613666Y-12123952D01*
X51713666Y-12163000D01*
X51747000Y-12202047D01*
X52413666Y-12943952D02*
X52013666Y-12943952D01*
X52213666Y-12943952D02*
X52213666Y-12123952D01*
X52147000Y-12241095D01*
X52080333Y-12319190D01*
X52013666Y-12358238D01*
X52647000Y-12123952D02*
X53080333Y-12123952D01*
X52847000Y-12436333D01*
X52947000Y-12436333D01*
X53013666Y-12475380D01*
X53047000Y-12514428D01*
X53080333Y-12592523D01*
X53080333Y-12787761D01*
X53047000Y-12865857D01*
X53013666Y-12904904D01*
X52947000Y-12943952D01*
X52747000Y-12943952D01*
X52680333Y-12904904D01*
X52647000Y-12865857D01*
X54220333Y-12514428D02*
X54320333Y-12553476D01*
X54353666Y-12592523D01*
X54387000Y-12670619D01*
X54387000Y-12787761D01*
X54353666Y-12865857D01*
X54320333Y-12904904D01*
X54253666Y-12943952D01*
X53987000Y-12943952D01*
X53987000Y-12123952D01*
X54220333Y-12123952D01*
X54287000Y-12163000D01*
X54320333Y-12202047D01*
X54353666Y-12280142D01*
X54353666Y-12358238D01*
X54320333Y-12436333D01*
X54287000Y-12475380D01*
X54220333Y-12514428D01*
X53987000Y-12514428D01*
X54653666Y-12709666D02*
X54987000Y-12709666D01*
X54587000Y-12943952D02*
X54820333Y-12123952D01*
X55053666Y-12943952D01*
X55187000Y-12123952D02*
X55587000Y-12123952D01*
X55387000Y-12943952D02*
X55387000Y-12123952D01*
X57460333Y-12163000D02*
X57393666Y-12123952D01*
X57293666Y-12123952D01*
X57193666Y-12163000D01*
X57127000Y-12241095D01*
X57093666Y-12319190D01*
X57060333Y-12475380D01*
X57060333Y-12592523D01*
X57093666Y-12748714D01*
X57127000Y-12826809D01*
X57193666Y-12904904D01*
X57293666Y-12943952D01*
X57360333Y-12943952D01*
X57460333Y-12904904D01*
X57493666Y-12865857D01*
X57493666Y-12592523D01*
X57360333Y-12592523D01*
X59683666Y-12123952D02*
X59350333Y-12123952D01*
X59317000Y-12514428D01*
X59350333Y-12475380D01*
X59417000Y-12436333D01*
X59583666Y-12436333D01*
X59650333Y-12475380D01*
X59683666Y-12514428D01*
X59717000Y-12592523D01*
X59717000Y-12787761D01*
X59683666Y-12865857D01*
X59650333Y-12904904D01*
X59583666Y-12943952D01*
X59417000Y-12943952D01*
X59350333Y-12904904D01*
X59317000Y-12865857D01*
X59917000Y-12123952D02*
X60150333Y-12943952D01*
X60383666Y-12123952D01*
X60000333Y-2511000D02*
X59933666Y-2471953D01*
X59833666Y-2471953D01*
X59733666Y-2511000D01*
X59667000Y-2589096D01*
X59633666Y-2667191D01*
X59600333Y-2823381D01*
X59600333Y-2940524D01*
X59633666Y-3096715D01*
X59667000Y-3174810D01*
X59733666Y-3252905D01*
X59833666Y-3291953D01*
X59900333Y-3291953D01*
X60000333Y-3252905D01*
X60033666Y-3213858D01*
X60033666Y-2940524D01*
X59900333Y-2940524D01*
X56427000Y-3252905D02*
X56527000Y-3291953D01*
X56693666Y-3291953D01*
X56760333Y-3252905D01*
X56793666Y-3213858D01*
X56827000Y-3135762D01*
X56827000Y-3057667D01*
X56793666Y-2979572D01*
X56760333Y-2940524D01*
X56693666Y-2901477D01*
X56560333Y-2862429D01*
X56493666Y-2823381D01*
X56460333Y-2784334D01*
X56427000Y-2706239D01*
X56427000Y-2628143D01*
X56460333Y-2550048D01*
X56493666Y-2511000D01*
X56560333Y-2471953D01*
X56727000Y-2471953D01*
X56827000Y-2511000D01*
X57127000Y-3291953D02*
X57127000Y-2471953D01*
X57293666Y-2471953D01*
X57393666Y-2511000D01*
X57460333Y-2589096D01*
X57493666Y-2667191D01*
X57527000Y-2823381D01*
X57527000Y-2940524D01*
X57493666Y-3096715D01*
X57460333Y-3174810D01*
X57393666Y-3252905D01*
X57293666Y-3291953D01*
X57127000Y-3291953D01*
X57793666Y-3057667D02*
X58127000Y-3057667D01*
X57727000Y-3291953D02*
X57960333Y-2471953D01*
X58193666Y-3291953D01*
X53903666Y-3252905D02*
X54003666Y-3291953D01*
X54170333Y-3291953D01*
X54237000Y-3252905D01*
X54270333Y-3213858D01*
X54303666Y-3135762D01*
X54303666Y-3057667D01*
X54270333Y-2979572D01*
X54237000Y-2940524D01*
X54170333Y-2901477D01*
X54037000Y-2862429D01*
X53970333Y-2823381D01*
X53937000Y-2784334D01*
X53903666Y-2706239D01*
X53903666Y-2628143D01*
X53937000Y-2550048D01*
X53970333Y-2511000D01*
X54037000Y-2471953D01*
X54203666Y-2471953D01*
X54303666Y-2511000D01*
X55003666Y-3213858D02*
X54970333Y-3252905D01*
X54870333Y-3291953D01*
X54803666Y-3291953D01*
X54703666Y-3252905D01*
X54637000Y-3174810D01*
X54603666Y-3096715D01*
X54570333Y-2940524D01*
X54570333Y-2823381D01*
X54603666Y-2667191D01*
X54637000Y-2589096D01*
X54703666Y-2511000D01*
X54803666Y-2471953D01*
X54870333Y-2471953D01*
X54970333Y-2511000D01*
X55003666Y-2550048D01*
X55637000Y-3291953D02*
X55303666Y-3291953D01*
X55303666Y-2471953D01*
X51913666Y-2862429D02*
X52013666Y-2901477D01*
X52047000Y-2940524D01*
X52080333Y-3018620D01*
X52080333Y-3135762D01*
X52047000Y-3213858D01*
X52013666Y-3252905D01*
X51947000Y-3291953D01*
X51680333Y-3291953D01*
X51680333Y-2471953D01*
X51913666Y-2471953D01*
X51980333Y-2511000D01*
X52013666Y-2550048D01*
X52047000Y-2628143D01*
X52047000Y-2706239D01*
X52013666Y-2784334D01*
X51980333Y-2823381D01*
X51913666Y-2862429D01*
X51680333Y-2862429D01*
X52413666Y-3291953D02*
X52547000Y-3291953D01*
X52613666Y-3252905D01*
X52647000Y-3213858D01*
X52713666Y-3096715D01*
X52747000Y-2940524D01*
X52747000Y-2628143D01*
X52713666Y-2550048D01*
X52680333Y-2511000D01*
X52613666Y-2471953D01*
X52480333Y-2471953D01*
X52413666Y-2511000D01*
X52380333Y-2550048D01*
X52347000Y-2628143D01*
X52347000Y-2823381D01*
X52380333Y-2901477D01*
X52413666Y-2940524D01*
X52480333Y-2979572D01*
X52613666Y-2979572D01*
X52680333Y-2940524D01*
X52713666Y-2901477D01*
X52747000Y-2823381D01*
X49373666Y-2862429D02*
X49473666Y-2901477D01*
X49507000Y-2940524D01*
X49540333Y-3018620D01*
X49540333Y-3135762D01*
X49507000Y-3213858D01*
X49473666Y-3252905D01*
X49407000Y-3291953D01*
X49140333Y-3291953D01*
X49140333Y-2471953D01*
X49373666Y-2471953D01*
X49440333Y-2511000D01*
X49473666Y-2550048D01*
X49507000Y-2628143D01*
X49507000Y-2706239D01*
X49473666Y-2784334D01*
X49440333Y-2823381D01*
X49373666Y-2862429D01*
X49140333Y-2862429D01*
X49940333Y-2823381D02*
X49873666Y-2784334D01*
X49840333Y-2745286D01*
X49807000Y-2667191D01*
X49807000Y-2628143D01*
X49840333Y-2550048D01*
X49873666Y-2511000D01*
X49940333Y-2471953D01*
X50073666Y-2471953D01*
X50140333Y-2511000D01*
X50173666Y-2550048D01*
X50207000Y-2628143D01*
X50207000Y-2667191D01*
X50173666Y-2745286D01*
X50140333Y-2784334D01*
X50073666Y-2823381D01*
X49940333Y-2823381D01*
X49873666Y-2862429D01*
X49840333Y-2901477D01*
X49807000Y-2979572D01*
X49807000Y-3135762D01*
X49840333Y-3213858D01*
X49873666Y-3252905D01*
X49940333Y-3291953D01*
X50073666Y-3291953D01*
X50140333Y-3252905D01*
X50173666Y-3213858D01*
X50207000Y-3135762D01*
X50207000Y-2979572D01*
X50173666Y-2901477D01*
X50140333Y-2862429D01*
X50073666Y-2823381D01*
X46167000Y-2862429D02*
X46267000Y-2901477D01*
X46300333Y-2940524D01*
X46333666Y-3018620D01*
X46333666Y-3135762D01*
X46300333Y-3213858D01*
X46267000Y-3252905D01*
X46200333Y-3291953D01*
X45933666Y-3291953D01*
X45933666Y-2471953D01*
X46167000Y-2471953D01*
X46233666Y-2511000D01*
X46267000Y-2550048D01*
X46300333Y-2628143D01*
X46300333Y-2706239D01*
X46267000Y-2784334D01*
X46233666Y-2823381D01*
X46167000Y-2862429D01*
X45933666Y-2862429D01*
X46767000Y-2471953D02*
X46900333Y-2471953D01*
X46967000Y-2511000D01*
X47033666Y-2589096D01*
X47067000Y-2745286D01*
X47067000Y-3018620D01*
X47033666Y-3174810D01*
X46967000Y-3252905D01*
X46900333Y-3291953D01*
X46767000Y-3291953D01*
X46700333Y-3252905D01*
X46633666Y-3174810D01*
X46600333Y-3018620D01*
X46600333Y-2745286D01*
X46633666Y-2589096D01*
X46700333Y-2511000D01*
X46767000Y-2471953D01*
X47500333Y-2471953D02*
X47633666Y-2471953D01*
X47700333Y-2511000D01*
X47767000Y-2589096D01*
X47800333Y-2745286D01*
X47800333Y-3018620D01*
X47767000Y-3174810D01*
X47700333Y-3252905D01*
X47633666Y-3291953D01*
X47500333Y-3291953D01*
X47433666Y-3252905D01*
X47367000Y-3174810D01*
X47333666Y-3018620D01*
X47333666Y-2745286D01*
X47367000Y-2589096D01*
X47433666Y-2511000D01*
X47500333Y-2471953D01*
X48000333Y-2471953D02*
X48400333Y-2471953D01*
X48200333Y-3291953D02*
X48200333Y-2471953D01*
X44293666Y-2862429D02*
X44393666Y-2901477D01*
X44427000Y-2940524D01*
X44460333Y-3018620D01*
X44460333Y-3135762D01*
X44427000Y-3213858D01*
X44393666Y-3252905D01*
X44327000Y-3291953D01*
X44060333Y-3291953D01*
X44060333Y-2471953D01*
X44293666Y-2471953D01*
X44360333Y-2511000D01*
X44393666Y-2550048D01*
X44427000Y-2628143D01*
X44427000Y-2706239D01*
X44393666Y-2784334D01*
X44360333Y-2823381D01*
X44293666Y-2862429D01*
X44060333Y-2862429D01*
X44693666Y-2471953D02*
X45160333Y-2471953D01*
X44860333Y-3291953D01*
X41753666Y-2862429D02*
X41853666Y-2901477D01*
X41887000Y-2940524D01*
X41920333Y-3018620D01*
X41920333Y-3135762D01*
X41887000Y-3213858D01*
X41853666Y-3252905D01*
X41787000Y-3291953D01*
X41520333Y-3291953D01*
X41520333Y-2471953D01*
X41753666Y-2471953D01*
X41820333Y-2511000D01*
X41853666Y-2550048D01*
X41887000Y-2628143D01*
X41887000Y-2706239D01*
X41853666Y-2784334D01*
X41820333Y-2823381D01*
X41753666Y-2862429D01*
X41520333Y-2862429D01*
X42520333Y-2471953D02*
X42387000Y-2471953D01*
X42320333Y-2511000D01*
X42287000Y-2550048D01*
X42220333Y-2667191D01*
X42187000Y-2823381D01*
X42187000Y-3135762D01*
X42220333Y-3213858D01*
X42253666Y-3252905D01*
X42320333Y-3291953D01*
X42453666Y-3291953D01*
X42520333Y-3252905D01*
X42553666Y-3213858D01*
X42587000Y-3135762D01*
X42587000Y-2940524D01*
X42553666Y-2862429D01*
X42520333Y-2823381D01*
X42453666Y-2784334D01*
X42320333Y-2784334D01*
X42253666Y-2823381D01*
X42220333Y-2862429D01*
X42187000Y-2940524D01*
X39213666Y-2862429D02*
X39313666Y-2901477D01*
X39347000Y-2940524D01*
X39380333Y-3018620D01*
X39380333Y-3135762D01*
X39347000Y-3213858D01*
X39313666Y-3252905D01*
X39247000Y-3291953D01*
X38980333Y-3291953D01*
X38980333Y-2471953D01*
X39213666Y-2471953D01*
X39280333Y-2511000D01*
X39313666Y-2550048D01*
X39347000Y-2628143D01*
X39347000Y-2706239D01*
X39313666Y-2784334D01*
X39280333Y-2823381D01*
X39213666Y-2862429D01*
X38980333Y-2862429D01*
X40013666Y-2471953D02*
X39680333Y-2471953D01*
X39647000Y-2862429D01*
X39680333Y-2823381D01*
X39747000Y-2784334D01*
X39913666Y-2784334D01*
X39980333Y-2823381D01*
X40013666Y-2862429D01*
X40047000Y-2940524D01*
X40047000Y-3135762D01*
X40013666Y-3213858D01*
X39980333Y-3252905D01*
X39913666Y-3291953D01*
X39747000Y-3291953D01*
X39680333Y-3252905D01*
X39647000Y-3213858D01*
X36673666Y-2862429D02*
X36773666Y-2901477D01*
X36807000Y-2940524D01*
X36840333Y-3018620D01*
X36840333Y-3135762D01*
X36807000Y-3213858D01*
X36773666Y-3252905D01*
X36707000Y-3291953D01*
X36440333Y-3291953D01*
X36440333Y-2471953D01*
X36673666Y-2471953D01*
X36740333Y-2511000D01*
X36773666Y-2550048D01*
X36807000Y-2628143D01*
X36807000Y-2706239D01*
X36773666Y-2784334D01*
X36740333Y-2823381D01*
X36673666Y-2862429D01*
X36440333Y-2862429D01*
X37440333Y-2745286D02*
X37440333Y-3291953D01*
X37273666Y-2432905D02*
X37107000Y-3018620D01*
X37540333Y-3018620D01*
X34133666Y-2862429D02*
X34233666Y-2901477D01*
X34267000Y-2940524D01*
X34300333Y-3018620D01*
X34300333Y-3135762D01*
X34267000Y-3213858D01*
X34233666Y-3252905D01*
X34167000Y-3291953D01*
X33900333Y-3291953D01*
X33900333Y-2471953D01*
X34133666Y-2471953D01*
X34200333Y-2511000D01*
X34233666Y-2550048D01*
X34267000Y-2628143D01*
X34267000Y-2706239D01*
X34233666Y-2784334D01*
X34200333Y-2823381D01*
X34133666Y-2862429D01*
X33900333Y-2862429D01*
X34533666Y-2471953D02*
X34967000Y-2471953D01*
X34733666Y-2784334D01*
X34833666Y-2784334D01*
X34900333Y-2823381D01*
X34933666Y-2862429D01*
X34967000Y-2940524D01*
X34967000Y-3135762D01*
X34933666Y-3213858D01*
X34900333Y-3252905D01*
X34833666Y-3291953D01*
X34633666Y-3291953D01*
X34567000Y-3252905D01*
X34533666Y-3213858D01*
X31043666Y-3057667D02*
X31377000Y-3057667D01*
X30977000Y-3291953D02*
X31210333Y-2471953D01*
X31443666Y-3291953D01*
X32043666Y-3291953D02*
X31643666Y-3291953D01*
X31843666Y-3291953D02*
X31843666Y-2471953D01*
X31777000Y-2589096D01*
X31710333Y-2667191D01*
X31643666Y-2706239D01*
X32677000Y-2471953D02*
X32343666Y-2471953D01*
X32310333Y-2862429D01*
X32343666Y-2823381D01*
X32410333Y-2784334D01*
X32577000Y-2784334D01*
X32643666Y-2823381D01*
X32677000Y-2862429D01*
X32710333Y-2940524D01*
X32710333Y-3135762D01*
X32677000Y-3213858D01*
X32643666Y-3252905D01*
X32577000Y-3291953D01*
X32410333Y-3291953D01*
X32343666Y-3252905D01*
X32310333Y-3213858D01*
X28503666Y-3057667D02*
X28837000Y-3057667D01*
X28437000Y-3291953D02*
X28670333Y-2471953D01*
X28903666Y-3291953D01*
X29503666Y-3291953D02*
X29103666Y-3291953D01*
X29303666Y-3291953D02*
X29303666Y-2471953D01*
X29237000Y-2589096D01*
X29170333Y-2667191D01*
X29103666Y-2706239D01*
X30103666Y-2745286D02*
X30103666Y-3291953D01*
X29937000Y-2432905D02*
X29770333Y-3018620D01*
X30203666Y-3018620D01*
X25963666Y-3057667D02*
X26297000Y-3057667D01*
X25897000Y-3291953D02*
X26130333Y-2471953D01*
X26363666Y-3291953D01*
X26963666Y-3291953D02*
X26563666Y-3291953D01*
X26763666Y-3291953D02*
X26763666Y-2471953D01*
X26697000Y-2589096D01*
X26630333Y-2667191D01*
X26563666Y-2706239D01*
X27197000Y-2471953D02*
X27630333Y-2471953D01*
X27397000Y-2784334D01*
X27497000Y-2784334D01*
X27563666Y-2823381D01*
X27597000Y-2862429D01*
X27630333Y-2940524D01*
X27630333Y-3135762D01*
X27597000Y-3213858D01*
X27563666Y-3252905D01*
X27497000Y-3291953D01*
X27297000Y-3291953D01*
X27230333Y-3252905D01*
X27197000Y-3213858D01*
X23423666Y-3057667D02*
X23757000Y-3057667D01*
X23357000Y-3291953D02*
X23590333Y-2471953D01*
X23823666Y-3291953D01*
X24423666Y-3291953D02*
X24023666Y-3291953D01*
X24223666Y-3291953D02*
X24223666Y-2471953D01*
X24157000Y-2589096D01*
X24090333Y-2667191D01*
X24023666Y-2706239D01*
X24690333Y-2550048D02*
X24723666Y-2511000D01*
X24790333Y-2471953D01*
X24957000Y-2471953D01*
X25023666Y-2511000D01*
X25057000Y-2550048D01*
X25090333Y-2628143D01*
X25090333Y-2706239D01*
X25057000Y-2823381D01*
X24657000Y-3291953D01*
X25090333Y-3291953D01*
X20883666Y-3057667D02*
X21217000Y-3057667D01*
X20817000Y-3291953D02*
X21050333Y-2471953D01*
X21283666Y-3291953D01*
X21883666Y-3291953D02*
X21483666Y-3291953D01*
X21683666Y-3291953D02*
X21683666Y-2471953D01*
X21617000Y-2589096D01*
X21550333Y-2667191D01*
X21483666Y-2706239D01*
X22550333Y-3291953D02*
X22150333Y-3291953D01*
X22350333Y-3291953D02*
X22350333Y-2471953D01*
X22283666Y-2589096D01*
X22217000Y-2667191D01*
X22150333Y-2706239D01*
X18343666Y-3057667D02*
X18677000Y-3057667D01*
X18277000Y-3291953D02*
X18510333Y-2471953D01*
X18743666Y-3291953D01*
X19343666Y-3291953D02*
X18943666Y-3291953D01*
X19143666Y-3291953D02*
X19143666Y-2471953D01*
X19077000Y-2589096D01*
X19010333Y-2667191D01*
X18943666Y-2706239D01*
X19777000Y-2471953D02*
X19843666Y-2471953D01*
X19910333Y-2511000D01*
X19943666Y-2550048D01*
X19977000Y-2628143D01*
X20010333Y-2784334D01*
X20010333Y-2979572D01*
X19977000Y-3135762D01*
X19943666Y-3213858D01*
X19910333Y-3252905D01*
X19843666Y-3291953D01*
X19777000Y-3291953D01*
X19710333Y-3252905D01*
X19677000Y-3213858D01*
X19643666Y-3135762D01*
X19610333Y-2979572D01*
X19610333Y-2784334D01*
X19643666Y-2628143D01*
X19677000Y-2550048D01*
X19710333Y-2511000D01*
X19777000Y-2471953D01*
X16137000Y-3057667D02*
X16470333Y-3057667D01*
X16070333Y-3291953D02*
X16303666Y-2471953D01*
X16537000Y-3291953D01*
X16803666Y-3291953D02*
X16937000Y-3291953D01*
X17003666Y-3252905D01*
X17037000Y-3213858D01*
X17103666Y-3096715D01*
X17137000Y-2940524D01*
X17137000Y-2628143D01*
X17103666Y-2550048D01*
X17070333Y-2511000D01*
X17003666Y-2471953D01*
X16870333Y-2471953D01*
X16803666Y-2511000D01*
X16770333Y-2550048D01*
X16737000Y-2628143D01*
X16737000Y-2823381D01*
X16770333Y-2901477D01*
X16803666Y-2940524D01*
X16870333Y-2979572D01*
X17003666Y-2979572D01*
X17070333Y-2940524D01*
X17103666Y-2901477D01*
X17137000Y-2823381D01*
X13597000Y-3057667D02*
X13930333Y-3057667D01*
X13530333Y-3291953D02*
X13763666Y-2471953D01*
X13997000Y-3291953D01*
X14330333Y-2823381D02*
X14263666Y-2784334D01*
X14230333Y-2745286D01*
X14197000Y-2667191D01*
X14197000Y-2628143D01*
X14230333Y-2550048D01*
X14263666Y-2511000D01*
X14330333Y-2471953D01*
X14463666Y-2471953D01*
X14530333Y-2511000D01*
X14563666Y-2550048D01*
X14597000Y-2628143D01*
X14597000Y-2667191D01*
X14563666Y-2745286D01*
X14530333Y-2784334D01*
X14463666Y-2823381D01*
X14330333Y-2823381D01*
X14263666Y-2862429D01*
X14230333Y-2901477D01*
X14197000Y-2979572D01*
X14197000Y-3135762D01*
X14230333Y-3213858D01*
X14263666Y-3252905D01*
X14330333Y-3291953D01*
X14463666Y-3291953D01*
X14530333Y-3252905D01*
X14563666Y-3213858D01*
X14597000Y-3135762D01*
X14597000Y-2979572D01*
X14563666Y-2901477D01*
X14530333Y-2862429D01*
X14463666Y-2823381D01*
X10940333Y-2862429D02*
X11040333Y-2901477D01*
X11073666Y-2940524D01*
X11107000Y-3018620D01*
X11107000Y-3135762D01*
X11073666Y-3213858D01*
X11040333Y-3252905D01*
X10973666Y-3291953D01*
X10707000Y-3291953D01*
X10707000Y-2471953D01*
X10940333Y-2471953D01*
X11007000Y-2511000D01*
X11040333Y-2550048D01*
X11073666Y-2628143D01*
X11073666Y-2706239D01*
X11040333Y-2784334D01*
X11007000Y-2823381D01*
X10940333Y-2862429D01*
X10707000Y-2862429D01*
X11773666Y-3291953D02*
X11373666Y-3291953D01*
X11573666Y-3291953D02*
X11573666Y-2471953D01*
X11507000Y-2589096D01*
X11440333Y-2667191D01*
X11373666Y-2706239D01*
X12407000Y-2471953D02*
X12073666Y-2471953D01*
X12040333Y-2862429D01*
X12073666Y-2823381D01*
X12140333Y-2784334D01*
X12307000Y-2784334D01*
X12373666Y-2823381D01*
X12407000Y-2862429D01*
X12440333Y-2940524D01*
X12440333Y-3135762D01*
X12407000Y-3213858D01*
X12373666Y-3252905D01*
X12307000Y-3291953D01*
X12140333Y-3291953D01*
X12073666Y-3252905D01*
X12040333Y-3213858D01*
X8400333Y-2862429D02*
X8500333Y-2901477D01*
X8533666Y-2940524D01*
X8567000Y-3018620D01*
X8567000Y-3135762D01*
X8533666Y-3213858D01*
X8500333Y-3252905D01*
X8433666Y-3291953D01*
X8167000Y-3291953D01*
X8167000Y-2471953D01*
X8400333Y-2471953D01*
X8467000Y-2511000D01*
X8500333Y-2550048D01*
X8533666Y-2628143D01*
X8533666Y-2706239D01*
X8500333Y-2784334D01*
X8467000Y-2823381D01*
X8400333Y-2862429D01*
X8167000Y-2862429D01*
X9233666Y-3291953D02*
X8833666Y-3291953D01*
X9033666Y-3291953D02*
X9033666Y-2471953D01*
X8967000Y-2589096D01*
X8900333Y-2667191D01*
X8833666Y-2706239D01*
X9833666Y-2745286D02*
X9833666Y-3291953D01*
X9667000Y-2432905D02*
X9500333Y-3018620D01*
X9933666Y-3018620D01*
X5860333Y-2862429D02*
X5960333Y-2901477D01*
X5993666Y-2940524D01*
X6027000Y-3018620D01*
X6027000Y-3135762D01*
X5993666Y-3213858D01*
X5960333Y-3252905D01*
X5893666Y-3291953D01*
X5627000Y-3291953D01*
X5627000Y-2471953D01*
X5860333Y-2471953D01*
X5927000Y-2511000D01*
X5960333Y-2550048D01*
X5993666Y-2628143D01*
X5993666Y-2706239D01*
X5960333Y-2784334D01*
X5927000Y-2823381D01*
X5860333Y-2862429D01*
X5627000Y-2862429D01*
X6693666Y-3291953D02*
X6293666Y-3291953D01*
X6493666Y-3291953D02*
X6493666Y-2471953D01*
X6427000Y-2589096D01*
X6360333Y-2667191D01*
X6293666Y-2706239D01*
X6927000Y-2471953D02*
X7360333Y-2471953D01*
X7127000Y-2784334D01*
X7227000Y-2784334D01*
X7293666Y-2823381D01*
X7327000Y-2862429D01*
X7360333Y-2940524D01*
X7360333Y-3135762D01*
X7327000Y-3213858D01*
X7293666Y-3252905D01*
X7227000Y-3291953D01*
X7027000Y-3291953D01*
X6960333Y-3252905D01*
X6927000Y-3213858D01*
X3320333Y-2862429D02*
X3420333Y-2901477D01*
X3453666Y-2940524D01*
X3487000Y-3018620D01*
X3487000Y-3135762D01*
X3453666Y-3213858D01*
X3420333Y-3252905D01*
X3353666Y-3291953D01*
X3087000Y-3291953D01*
X3087000Y-2471953D01*
X3320333Y-2471953D01*
X3387000Y-2511000D01*
X3420333Y-2550048D01*
X3453666Y-2628143D01*
X3453666Y-2706239D01*
X3420333Y-2784334D01*
X3387000Y-2823381D01*
X3320333Y-2862429D01*
X3087000Y-2862429D01*
X4153666Y-3291953D02*
X3753666Y-3291953D01*
X3953666Y-3291953D02*
X3953666Y-2471953D01*
X3887000Y-2589096D01*
X3820333Y-2667191D01*
X3753666Y-2706239D01*
X4420333Y-2550048D02*
X4453666Y-2511000D01*
X4520333Y-2471953D01*
X4687000Y-2471953D01*
X4753666Y-2511000D01*
X4787000Y-2550048D01*
X4820333Y-2628143D01*
X4820333Y-2706239D01*
X4787000Y-2823381D01*
X4387000Y-3291953D01*
X4820333Y-3291953D01*
X1263667Y-2471953D02*
X930334Y-2471953D01*
X897001Y-2862429D01*
X930334Y-2823381D01*
X997001Y-2784334D01*
X1163667Y-2784334D01*
X1230334Y-2823381D01*
X1263667Y-2862429D01*
X1297000Y-2940524D01*
X1297000Y-3135762D01*
X1263667Y-3213858D01*
X1230334Y-3252905D01*
X1163667Y-3291953D01*
X997001Y-3291953D01*
X930334Y-3252905D01*
X897001Y-3213858D01*
X1497000Y-2471953D02*
X1730333Y-3291953D01*
X1963666Y-2471953D01*
X1263667Y-2471953D02*
X930334Y-2471953D01*
X897001Y-2862429D01*
X930334Y-2823381D01*
X997001Y-2784334D01*
X1163667Y-2784334D01*
X1230334Y-2823381D01*
X1263667Y-2862429D01*
X1297000Y-2940524D01*
X1297000Y-3135762D01*
X1263667Y-3213858D01*
X1230334Y-3252905D01*
X1163667Y-3291953D01*
X997001Y-3291953D01*
X930334Y-3252905D01*
X897001Y-3213858D01*
X1497000Y-2471953D02*
X1730333Y-3291953D01*
X1963666Y-2471953D01*
D11*
X20447000Y-8887000D02*
X19947000Y-8887000D01*
X20447000Y-6607000D02*
X19947000Y-6607000D01*
X18227330Y-9477223D02*
X16611591Y-11092962D01*
X19266777Y-10516670D02*
X18227330Y-9477223D01*
X17651038Y-12132409D02*
X19266777Y-10516670D01*
X55732000Y-6332000D02*
X55732000Y-4047000D01*
X54262000Y-6332000D02*
X55732000Y-6332000D01*
X54262000Y-4047000D02*
X54262000Y-6332000D01*
X19266777Y-5077330D02*
X17651038Y-3461591D01*
X18227330Y-6116777D02*
X19266777Y-5077330D01*
X16611591Y-4501038D02*
X18227330Y-6116777D01*
X36747000Y-9897000D02*
X34047000Y-9897000D01*
X36747000Y-12197000D02*
X36747000Y-9897000D01*
X56084500Y-9447000D02*
X56534500Y-9447000D01*
X56084500Y-9447000D02*
X56084500Y-8997000D01*
X56634500Y-3847000D02*
X56634500Y-4297000D01*
X58484500Y-3847000D02*
X56634500Y-3847000D01*
X61034500Y-11647000D02*
X60784500Y-11647000D01*
X61034500Y-3847000D02*
X60784500Y-3847000D01*
X58484500Y-11647000D02*
X56634500Y-11647000D01*
X56634500Y-11647000D02*
X56634500Y-11197000D01*
X31293489Y-10909733D02*
X31523694Y-10679528D01*
X30572240Y-10188484D02*
X30802445Y-9958279D01*
X46762000Y-4137000D02*
X46287000Y-4137000D01*
X53507000Y-11357000D02*
X53507000Y-10882000D01*
X53032000Y-11357000D02*
X53507000Y-11357000D01*
X46287000Y-11357000D02*
X46287000Y-10882000D01*
X46762000Y-11357000D02*
X46287000Y-11357000D01*
X53507000Y-4137000D02*
X53507000Y-4612000D01*
X53032000Y-4137000D02*
X53507000Y-4137000D01*
X36747000Y-3295000D02*
X34047000Y-3295000D01*
X36747000Y-5595000D02*
X36747000Y-3295000D01*
X5109500Y-6047000D02*
X4659500Y-6047000D01*
X5109500Y-6047000D02*
X5109500Y-6497000D01*
X4559500Y-11647000D02*
X4559500Y-11197000D01*
X2709500Y-11647000D02*
X4559500Y-11647000D01*
X159500Y-3847000D02*
X409500Y-3847000D01*
X159500Y-11647000D02*
X409500Y-11647000D01*
X2709500Y-3847000D02*
X4559500Y-3847000D01*
X4559500Y-3847000D02*
X4559500Y-4297000D01*
X39159779Y-3737000D02*
X38834221Y-3737000D01*
X39159779Y-4757000D02*
X38834221Y-4757000D01*
X39159779Y-5337000D02*
X38834221Y-5337000D01*
X39159779Y-6357000D02*
X38834221Y-6357000D01*
X38834221Y-10257000D02*
X39159779Y-10257000D01*
X38834221Y-9237000D02*
X39159779Y-9237000D01*
X38834221Y-11857000D02*
X39159779Y-11857000D01*
X38834221Y-10837000D02*
X39159779Y-10837000D01*
X22187000Y-4784221D02*
X22187000Y-5109779D01*
X23207000Y-4784221D02*
X23207000Y-5109779D01*
X28521630Y-9618868D02*
X28751835Y-9849073D01*
X29242879Y-8897619D02*
X29473084Y-9127824D01*
X32994476Y-7766248D02*
X32764271Y-7996453D01*
X33715725Y-8487497D02*
X33485520Y-8717702D01*
X32655065Y-5945843D02*
X32424860Y-5715638D01*
X31933816Y-6667092D02*
X31703611Y-6436887D01*
X29883206Y-4654978D02*
X29653001Y-4885183D01*
X30604455Y-5376227D02*
X30374250Y-5606432D01*
X28182219Y-7798463D02*
X28412424Y-7568258D01*
X27460970Y-7077214D02*
X27691175Y-6847009D01*
M02*
