G04 #@! TF.GenerationSoftware,KiCad,Pcbnew,(5.1.2)-2*
G04 #@! TF.CreationDate,2019-08-07T20:06:56+08:00*
G04 #@! TF.ProjectId,pillf4,70696c6c-6634-42e6-9b69-6361645f7063,rev?*
G04 #@! TF.SameCoordinates,PXffeaaef8PYff89ca48*
G04 #@! TF.FileFunction,Legend,Bot*
G04 #@! TF.FilePolarity,Positive*
%FSLAX46Y46*%
G04 Gerber Fmt 4.6, Leading zero omitted, Abs format (unit mm)*
G04 Created by KiCad (PCBNEW (5.1.2)-2) date 2019-08-07 20:06:56*
%MOMM*%
%LPD*%
G04 APERTURE LIST*
%ADD10C,0.160000*%
%ADD11C,0.100000*%
%ADD12C,0.010000*%
%ADD13C,0.150000*%
%ADD14C,0.120000*%
G04 APERTURE END LIST*
D10*
X46047000Y-11288428D02*
X45947000Y-11327476D01*
X45913666Y-11366523D01*
X45880333Y-11444619D01*
X45880333Y-11561761D01*
X45913666Y-11639857D01*
X45947000Y-11678904D01*
X46013666Y-11717952D01*
X46280333Y-11717952D01*
X46280333Y-10897952D01*
X46047000Y-10897952D01*
X45980333Y-10937000D01*
X45947000Y-10976047D01*
X45913666Y-11054142D01*
X45913666Y-11132238D01*
X45947000Y-11210333D01*
X45980333Y-11249380D01*
X46047000Y-11288428D01*
X46280333Y-11288428D01*
X45247000Y-11717952D02*
X45580333Y-11717952D01*
X45580333Y-10897952D01*
X45047000Y-11483666D02*
X44713666Y-11483666D01*
X45113666Y-11717952D02*
X44880333Y-10897952D01*
X44647000Y-11717952D01*
X44013666Y-11639857D02*
X44047000Y-11678904D01*
X44147000Y-11717952D01*
X44213666Y-11717952D01*
X44313666Y-11678904D01*
X44380333Y-11600809D01*
X44413666Y-11522714D01*
X44447000Y-11366523D01*
X44447000Y-11249380D01*
X44413666Y-11093190D01*
X44380333Y-11015095D01*
X44313666Y-10937000D01*
X44213666Y-10897952D01*
X44147000Y-10897952D01*
X44047000Y-10937000D01*
X44013666Y-10976047D01*
X43713666Y-11717952D02*
X43713666Y-10897952D01*
X43313666Y-11717952D02*
X43613666Y-11249380D01*
X43313666Y-10897952D02*
X43713666Y-11366523D01*
X42480333Y-11717952D02*
X42480333Y-10897952D01*
X42213666Y-10897952D01*
X42147000Y-10937000D01*
X42113666Y-10976047D01*
X42080333Y-11054142D01*
X42080333Y-11171285D01*
X42113666Y-11249380D01*
X42147000Y-11288428D01*
X42213666Y-11327476D01*
X42480333Y-11327476D01*
X41780333Y-11717952D02*
X41780333Y-10897952D01*
X41113666Y-11717952D02*
X41447000Y-11717952D01*
X41447000Y-10897952D01*
X40547000Y-11717952D02*
X40880333Y-11717952D01*
X40880333Y-10897952D01*
X39847000Y-11171285D02*
X39680333Y-11717952D01*
X39513666Y-11171285D01*
X38880333Y-11717952D02*
X39280333Y-11717952D01*
X39080333Y-11717952D02*
X39080333Y-10897952D01*
X39147000Y-11015095D01*
X39213666Y-11093190D01*
X39280333Y-11132238D01*
X38580333Y-11639857D02*
X38547000Y-11678904D01*
X38580333Y-11717952D01*
X38613666Y-11678904D01*
X38580333Y-11639857D01*
X38580333Y-11717952D01*
X38113666Y-10897952D02*
X38047000Y-10897952D01*
X37980333Y-10937000D01*
X37947000Y-10976047D01*
X37913666Y-11054142D01*
X37880333Y-11210333D01*
X37880333Y-11405571D01*
X37913666Y-11561761D01*
X37947000Y-11639857D01*
X37980333Y-11678904D01*
X38047000Y-11717952D01*
X38113666Y-11717952D01*
X38180333Y-11678904D01*
X38213666Y-11639857D01*
X38247000Y-11561761D01*
X38280333Y-11405571D01*
X38280333Y-11210333D01*
X38247000Y-11054142D01*
X38213666Y-10976047D01*
X38180333Y-10937000D01*
X38113666Y-10897952D01*
X55943333Y-4942953D02*
X55943333Y-4122953D01*
X55476666Y-4122953D02*
X55343333Y-4122953D01*
X55276666Y-4162000D01*
X55210000Y-4240096D01*
X55176666Y-4396286D01*
X55176666Y-4669620D01*
X55210000Y-4825810D01*
X55276666Y-4903905D01*
X55343333Y-4942953D01*
X55476666Y-4942953D01*
X55543333Y-4903905D01*
X55610000Y-4825810D01*
X55643333Y-4669620D01*
X55643333Y-4396286D01*
X55610000Y-4240096D01*
X55543333Y-4162000D01*
X55476666Y-4122953D01*
X53943333Y-4864858D02*
X53976666Y-4903905D01*
X54076666Y-4942953D01*
X54143333Y-4942953D01*
X54243333Y-4903905D01*
X54310000Y-4825810D01*
X54343333Y-4747715D01*
X54376666Y-4591524D01*
X54376666Y-4474381D01*
X54343333Y-4318191D01*
X54310000Y-4240096D01*
X54243333Y-4162000D01*
X54143333Y-4122953D01*
X54076666Y-4122953D01*
X53976666Y-4162000D01*
X53943333Y-4201048D01*
X53643333Y-4942953D02*
X53643333Y-4122953D01*
X53243333Y-4942953D02*
X53543333Y-4474381D01*
X53243333Y-4122953D02*
X53643333Y-4591524D01*
X51599333Y-10980952D02*
X51599333Y-11566666D01*
X51632666Y-11683809D01*
X51699333Y-11761904D01*
X51799333Y-11800952D01*
X51866000Y-11800952D01*
X51366000Y-10980952D02*
X50966000Y-10980952D01*
X51166000Y-11800952D02*
X51166000Y-10980952D01*
X50766000Y-11566666D02*
X50432666Y-11566666D01*
X50832666Y-11800952D02*
X50599333Y-10980952D01*
X50366000Y-11800952D01*
X49766000Y-11020000D02*
X49832666Y-10980952D01*
X49932666Y-10980952D01*
X50032666Y-11020000D01*
X50099333Y-11098095D01*
X50132666Y-11176190D01*
X50166000Y-11332380D01*
X50166000Y-11449523D01*
X50132666Y-11605714D01*
X50099333Y-11683809D01*
X50032666Y-11761904D01*
X49932666Y-11800952D01*
X49866000Y-11800952D01*
X49766000Y-11761904D01*
X49732666Y-11722857D01*
X49732666Y-11449523D01*
X49866000Y-11449523D01*
X8767000Y-9787428D02*
X8667000Y-9826476D01*
X8633666Y-9865523D01*
X8600333Y-9943619D01*
X8600333Y-10060761D01*
X8633666Y-10138857D01*
X8667000Y-10177904D01*
X8733666Y-10216952D01*
X9000333Y-10216952D01*
X9000333Y-9396952D01*
X8767000Y-9396952D01*
X8700333Y-9436000D01*
X8667000Y-9475047D01*
X8633666Y-9553142D01*
X8633666Y-9631238D01*
X8667000Y-9709333D01*
X8700333Y-9748380D01*
X8767000Y-9787428D01*
X9000333Y-9787428D01*
X8333666Y-9475047D02*
X8300333Y-9436000D01*
X8233666Y-9396952D01*
X8067000Y-9396952D01*
X8000333Y-9436000D01*
X7967000Y-9475047D01*
X7933666Y-9553142D01*
X7933666Y-9631238D01*
X7967000Y-9748380D01*
X8367000Y-10216952D01*
X7933666Y-10216952D01*
X9067000Y-10786952D02*
X8633666Y-10786952D01*
X8867000Y-11099333D01*
X8767000Y-11099333D01*
X8700333Y-11138380D01*
X8667000Y-11177428D01*
X8633666Y-11255523D01*
X8633666Y-11450761D01*
X8667000Y-11528857D01*
X8700333Y-11567904D01*
X8767000Y-11606952D01*
X8967000Y-11606952D01*
X9033666Y-11567904D01*
X9067000Y-11528857D01*
X8433666Y-10786952D02*
X8200333Y-11606952D01*
X7967000Y-10786952D01*
X7800333Y-10786952D02*
X7367000Y-10786952D01*
X7600333Y-11099333D01*
X7500333Y-11099333D01*
X7433666Y-11138380D01*
X7400333Y-11177428D01*
X7367000Y-11255523D01*
X7367000Y-11450761D01*
X7400333Y-11528857D01*
X7433666Y-11567904D01*
X7500333Y-11606952D01*
X7700333Y-11606952D01*
X7767000Y-11567904D01*
X7800333Y-11528857D01*
X38658000Y-6729953D02*
X38224666Y-6729953D01*
X38458000Y-7042334D01*
X38358000Y-7042334D01*
X38291333Y-7081381D01*
X38258000Y-7120429D01*
X38224666Y-7198524D01*
X38224666Y-7393762D01*
X38258000Y-7471858D01*
X38291333Y-7510905D01*
X38358000Y-7549953D01*
X38558000Y-7549953D01*
X38624666Y-7510905D01*
X38658000Y-7471858D01*
X38024666Y-6729953D02*
X37791333Y-7549953D01*
X37558000Y-6729953D01*
X37391333Y-6729953D02*
X36958000Y-6729953D01*
X37191333Y-7042334D01*
X37091333Y-7042334D01*
X37024666Y-7081381D01*
X36991333Y-7120429D01*
X36958000Y-7198524D01*
X36958000Y-7393762D01*
X36991333Y-7471858D01*
X37024666Y-7510905D01*
X37091333Y-7549953D01*
X37291333Y-7549953D01*
X37358000Y-7510905D01*
X37391333Y-7471858D01*
X38358000Y-8510428D02*
X38258000Y-8549476D01*
X38224666Y-8588523D01*
X38191333Y-8666619D01*
X38191333Y-8783761D01*
X38224666Y-8861857D01*
X38258000Y-8900904D01*
X38324666Y-8939952D01*
X38591333Y-8939952D01*
X38591333Y-8119952D01*
X38358000Y-8119952D01*
X38291333Y-8159000D01*
X38258000Y-8198047D01*
X38224666Y-8276142D01*
X38224666Y-8354238D01*
X38258000Y-8432333D01*
X38291333Y-8471380D01*
X38358000Y-8510428D01*
X38591333Y-8510428D01*
X37924666Y-8705666D02*
X37591333Y-8705666D01*
X37991333Y-8939952D02*
X37758000Y-8119952D01*
X37524666Y-8939952D01*
X37391333Y-8119952D02*
X36991333Y-8119952D01*
X37191333Y-8939952D02*
X37191333Y-8119952D01*
X24726333Y-4959858D02*
X24759666Y-4998905D01*
X24859666Y-5037953D01*
X24926333Y-5037953D01*
X25026333Y-4998905D01*
X25093000Y-4920810D01*
X25126333Y-4842715D01*
X25159666Y-4686524D01*
X25159666Y-4569381D01*
X25126333Y-4413191D01*
X25093000Y-4335096D01*
X25026333Y-4257000D01*
X24926333Y-4217953D01*
X24859666Y-4217953D01*
X24759666Y-4257000D01*
X24726333Y-4296048D01*
X24059666Y-5037953D02*
X24459666Y-5037953D01*
X24259666Y-5037953D02*
X24259666Y-4217953D01*
X24326333Y-4335096D01*
X24393000Y-4413191D01*
X24459666Y-4452239D01*
X23826333Y-4217953D02*
X23393000Y-4217953D01*
X23626333Y-4530334D01*
X23526333Y-4530334D01*
X23459666Y-4569381D01*
X23426333Y-4608429D01*
X23393000Y-4686524D01*
X23393000Y-4881762D01*
X23426333Y-4959858D01*
X23459666Y-4998905D01*
X23526333Y-5037953D01*
X23726333Y-5037953D01*
X23793000Y-4998905D01*
X23826333Y-4959858D01*
X24726333Y-6349858D02*
X24759666Y-6388905D01*
X24859666Y-6427953D01*
X24926333Y-6427953D01*
X25026333Y-6388905D01*
X25093000Y-6310810D01*
X25126333Y-6232715D01*
X25159666Y-6076524D01*
X25159666Y-5959381D01*
X25126333Y-5803191D01*
X25093000Y-5725096D01*
X25026333Y-5647000D01*
X24926333Y-5607953D01*
X24859666Y-5607953D01*
X24759666Y-5647000D01*
X24726333Y-5686048D01*
X24059666Y-6427953D02*
X24459666Y-6427953D01*
X24259666Y-6427953D02*
X24259666Y-5607953D01*
X24326333Y-5725096D01*
X24393000Y-5803191D01*
X24459666Y-5842239D01*
X23426333Y-5607953D02*
X23759666Y-5607953D01*
X23793000Y-5998429D01*
X23759666Y-5959381D01*
X23693000Y-5920334D01*
X23526333Y-5920334D01*
X23459666Y-5959381D01*
X23426333Y-5998429D01*
X23393000Y-6076524D01*
X23393000Y-6271762D01*
X23426333Y-6349858D01*
X23459666Y-6388905D01*
X23526333Y-6427953D01*
X23693000Y-6427953D01*
X23759666Y-6388905D01*
X23793000Y-6349858D01*
X25126333Y-7817952D02*
X25126333Y-6997953D01*
X25126333Y-7388429D02*
X24726333Y-7388429D01*
X24726333Y-7817952D02*
X24726333Y-6997953D01*
X24026333Y-7817952D02*
X24426333Y-7817952D01*
X24226333Y-7817952D02*
X24226333Y-6997953D01*
X24293000Y-7115096D01*
X24359666Y-7193191D01*
X24426333Y-7232239D01*
X25159666Y-8973666D02*
X24826333Y-8973666D01*
X25226333Y-9207952D02*
X24993000Y-8387952D01*
X24759666Y-9207952D01*
X24393000Y-8387952D02*
X24326333Y-8387952D01*
X24259666Y-8427000D01*
X24226333Y-8466047D01*
X24193000Y-8544142D01*
X24159666Y-8700333D01*
X24159666Y-8895571D01*
X24193000Y-9051761D01*
X24226333Y-9129857D01*
X24259666Y-9168904D01*
X24326333Y-9207952D01*
X24393000Y-9207952D01*
X24459666Y-9168904D01*
X24493000Y-9129857D01*
X24526333Y-9051761D01*
X24559666Y-8895571D01*
X24559666Y-8700333D01*
X24526333Y-8544142D01*
X24493000Y-8466047D01*
X24459666Y-8427000D01*
X24393000Y-8387952D01*
X24893000Y-10168428D02*
X24793000Y-10207476D01*
X24759666Y-10246523D01*
X24726333Y-10324619D01*
X24726333Y-10441761D01*
X24759666Y-10519857D01*
X24793000Y-10558904D01*
X24859666Y-10597952D01*
X25126333Y-10597952D01*
X25126333Y-9777952D01*
X24893000Y-9777952D01*
X24826333Y-9817000D01*
X24793000Y-9856047D01*
X24759666Y-9934142D01*
X24759666Y-10012238D01*
X24793000Y-10090333D01*
X24826333Y-10129380D01*
X24893000Y-10168428D01*
X25126333Y-10168428D01*
X24459666Y-9856047D02*
X24426333Y-9817000D01*
X24359666Y-9777952D01*
X24193000Y-9777952D01*
X24126333Y-9817000D01*
X24093000Y-9856047D01*
X24059666Y-9934142D01*
X24059666Y-10012238D01*
X24093000Y-10129380D01*
X24493000Y-10597952D01*
X24059666Y-10597952D01*
X21700333Y-4217953D02*
X21700333Y-4881762D01*
X21667000Y-4959858D01*
X21633666Y-4998905D01*
X21567000Y-5037953D01*
X21433666Y-5037953D01*
X21367000Y-4998905D01*
X21333666Y-4959858D01*
X21300333Y-4881762D01*
X21300333Y-4217953D01*
X20200333Y-4608429D02*
X20100333Y-4647477D01*
X20067000Y-4686524D01*
X20033666Y-4764620D01*
X20033666Y-4881762D01*
X20067000Y-4959858D01*
X20100333Y-4998905D01*
X20167000Y-5037953D01*
X20433666Y-5037953D01*
X20433666Y-4217953D01*
X20200333Y-4217953D01*
X20133666Y-4257000D01*
X20100333Y-4296048D01*
X20067000Y-4374143D01*
X20067000Y-4452239D01*
X20100333Y-4530334D01*
X20133666Y-4569381D01*
X20200333Y-4608429D01*
X20433666Y-4608429D01*
X19767000Y-4296048D02*
X19733666Y-4257000D01*
X19667000Y-4217953D01*
X19500333Y-4217953D01*
X19433666Y-4257000D01*
X19400333Y-4296048D01*
X19367000Y-4374143D01*
X19367000Y-4452239D01*
X19400333Y-4569381D01*
X19800333Y-5037953D01*
X19367000Y-5037953D01*
X18567000Y-4178905D02*
X19167000Y-5233191D01*
X18367000Y-4803667D02*
X18033666Y-4803667D01*
X18433666Y-5037953D02*
X18200333Y-4217953D01*
X17967000Y-5037953D01*
X17600333Y-4217953D02*
X17533666Y-4217953D01*
X17467000Y-4257000D01*
X17433666Y-4296048D01*
X17400333Y-4374143D01*
X17367000Y-4530334D01*
X17367000Y-4725572D01*
X17400333Y-4881762D01*
X17433666Y-4959858D01*
X17467000Y-4998905D01*
X17533666Y-5037953D01*
X17600333Y-5037953D01*
X17667000Y-4998905D01*
X17700333Y-4959858D01*
X17733666Y-4881762D01*
X17767000Y-4725572D01*
X17767000Y-4530334D01*
X17733666Y-4374143D01*
X17700333Y-4296048D01*
X17667000Y-4257000D01*
X17600333Y-4217953D01*
X21700333Y-6427953D02*
X21700333Y-5607953D01*
X21533666Y-5607953D01*
X21433666Y-5647000D01*
X21367000Y-5725096D01*
X21333666Y-5803191D01*
X21300333Y-5959381D01*
X21300333Y-6076524D01*
X21333666Y-6232715D01*
X21367000Y-6310810D01*
X21433666Y-6388905D01*
X21533666Y-6427953D01*
X21700333Y-6427953D01*
X20233666Y-5998429D02*
X20133666Y-6037477D01*
X20100333Y-6076524D01*
X20067000Y-6154620D01*
X20067000Y-6271762D01*
X20100333Y-6349858D01*
X20133666Y-6388905D01*
X20200333Y-6427953D01*
X20467000Y-6427953D01*
X20467000Y-5607953D01*
X20233666Y-5607953D01*
X20167000Y-5647000D01*
X20133666Y-5686048D01*
X20100333Y-5764143D01*
X20100333Y-5842239D01*
X20133666Y-5920334D01*
X20167000Y-5959381D01*
X20233666Y-5998429D01*
X20467000Y-5998429D01*
X19633666Y-5607953D02*
X19500333Y-5607953D01*
X19433666Y-5647000D01*
X19367000Y-5725096D01*
X19333666Y-5881286D01*
X19333666Y-6154620D01*
X19367000Y-6310810D01*
X19433666Y-6388905D01*
X19500333Y-6427953D01*
X19633666Y-6427953D01*
X19700333Y-6388905D01*
X19767000Y-6310810D01*
X19800333Y-6154620D01*
X19800333Y-5881286D01*
X19767000Y-5725096D01*
X19700333Y-5647000D01*
X19633666Y-5607953D01*
X18900333Y-5607953D02*
X18767000Y-5607953D01*
X18700333Y-5647000D01*
X18633666Y-5725096D01*
X18600333Y-5881286D01*
X18600333Y-6154620D01*
X18633666Y-6310810D01*
X18700333Y-6388905D01*
X18767000Y-6427953D01*
X18900333Y-6427953D01*
X18967000Y-6388905D01*
X19033666Y-6310810D01*
X19067000Y-6154620D01*
X19067000Y-5881286D01*
X19033666Y-5725096D01*
X18967000Y-5647000D01*
X18900333Y-5607953D01*
X18400333Y-5607953D02*
X18000333Y-5607953D01*
X18200333Y-6427953D02*
X18200333Y-5607953D01*
X21367000Y-7817952D02*
X21700333Y-7817952D01*
X21700333Y-6997953D01*
X20200333Y-7739858D02*
X20233666Y-7778904D01*
X20333666Y-7817952D01*
X20400333Y-7817952D01*
X20500333Y-7778904D01*
X20567000Y-7700810D01*
X20600333Y-7622715D01*
X20633666Y-7466524D01*
X20633666Y-7349381D01*
X20600333Y-7193191D01*
X20567000Y-7115096D01*
X20500333Y-7037000D01*
X20400333Y-6997953D01*
X20333666Y-6997953D01*
X20233666Y-7037000D01*
X20200333Y-7076048D01*
X19533666Y-7817952D02*
X19933666Y-7817952D01*
X19733666Y-7817952D02*
X19733666Y-6997953D01*
X19800333Y-7115096D01*
X19867000Y-7193191D01*
X19933666Y-7232239D01*
X18900333Y-6997953D02*
X19233666Y-6997953D01*
X19267000Y-7388429D01*
X19233666Y-7349381D01*
X19167000Y-7310334D01*
X19000333Y-7310334D01*
X18933666Y-7349381D01*
X18900333Y-7388429D01*
X18867000Y-7466524D01*
X18867000Y-7661762D01*
X18900333Y-7739858D01*
X18933666Y-7778904D01*
X19000333Y-7817952D01*
X19167000Y-7817952D01*
X19233666Y-7778904D01*
X19267000Y-7739858D01*
X21300333Y-9207952D02*
X21533666Y-8817476D01*
X21700333Y-9207952D02*
X21700333Y-8387952D01*
X21433666Y-8387952D01*
X21367000Y-8427000D01*
X21333666Y-8466047D01*
X21300333Y-8544142D01*
X21300333Y-8661285D01*
X21333666Y-8739380D01*
X21367000Y-8778428D01*
X21433666Y-8817476D01*
X21700333Y-8817476D01*
X20467000Y-9207952D02*
X20467000Y-8387952D01*
X20467000Y-8778428D02*
X20067000Y-8778428D01*
X20067000Y-9207952D02*
X20067000Y-8387952D01*
X19367000Y-9207952D02*
X19767000Y-9207952D01*
X19567000Y-9207952D02*
X19567000Y-8387952D01*
X19633666Y-8505095D01*
X19700333Y-8583190D01*
X19767000Y-8622238D01*
X21300333Y-10519857D02*
X21333666Y-10558904D01*
X21433666Y-10597952D01*
X21500333Y-10597952D01*
X21600333Y-10558904D01*
X21667000Y-10480809D01*
X21700333Y-10402714D01*
X21733666Y-10246523D01*
X21733666Y-10129380D01*
X21700333Y-9973190D01*
X21667000Y-9895095D01*
X21600333Y-9817000D01*
X21500333Y-9777952D01*
X21433666Y-9777952D01*
X21333666Y-9817000D01*
X21300333Y-9856047D01*
X20067000Y-10519857D02*
X20100333Y-10558904D01*
X20200333Y-10597952D01*
X20267000Y-10597952D01*
X20367000Y-10558904D01*
X20433666Y-10480809D01*
X20467000Y-10402714D01*
X20500333Y-10246523D01*
X20500333Y-10129380D01*
X20467000Y-9973190D01*
X20433666Y-9895095D01*
X20367000Y-9817000D01*
X20267000Y-9777952D01*
X20200333Y-9777952D01*
X20100333Y-9817000D01*
X20067000Y-9856047D01*
X19400333Y-10597952D02*
X19800333Y-10597952D01*
X19600333Y-10597952D02*
X19600333Y-9777952D01*
X19667000Y-9895095D01*
X19733666Y-9973190D01*
X19800333Y-10012238D01*
X19167000Y-9777952D02*
X18733666Y-9777952D01*
X18967000Y-10090333D01*
X18867000Y-10090333D01*
X18800333Y-10129380D01*
X18767000Y-10168428D01*
X18733666Y-10246523D01*
X18733666Y-10441761D01*
X18767000Y-10519857D01*
X18800333Y-10558904D01*
X18867000Y-10597952D01*
X19067000Y-10597952D01*
X19133666Y-10558904D01*
X19167000Y-10519857D01*
D11*
G36*
X16523556Y-2720444D02*
G01*
X9284556Y-2720444D01*
X9284556Y-2733266D01*
X10356651Y-2733266D01*
X11621590Y-2735547D01*
X12886530Y-2737828D01*
X12366126Y-3258409D01*
X11845933Y-3778778D01*
X11859976Y-3778778D01*
X12381944Y-3256667D01*
X12481902Y-3156684D01*
X12575584Y-3062984D01*
X12661142Y-2977414D01*
X12736731Y-2901822D01*
X12800501Y-2838053D01*
X12850607Y-2787956D01*
X12885201Y-2753377D01*
X12902436Y-2736165D01*
X12904056Y-2734556D01*
X12907605Y-2738096D01*
X12921849Y-2738096D01*
X14186654Y-2735623D01*
X15451460Y-2733150D01*
X15444056Y-3771722D01*
X14703222Y-3775356D01*
X14005416Y-3778778D01*
X15465222Y-3778778D01*
X15465222Y-2734556D01*
X16509444Y-2734556D01*
X16509444Y-3778778D01*
X15465222Y-3778778D01*
X14005416Y-3778778D01*
X13962389Y-3778989D01*
X13442119Y-3258543D01*
X12921849Y-2738096D01*
X12907605Y-2738096D01*
X12913752Y-2744227D01*
X12941554Y-2772012D01*
X12985615Y-2816061D01*
X13044087Y-2874528D01*
X13115122Y-2945565D01*
X13196875Y-3027327D01*
X13287497Y-3117964D01*
X13385141Y-3215630D01*
X13426167Y-3256667D01*
X13948135Y-3778778D01*
X11859976Y-3778778D01*
X11845933Y-3778778D01*
X11845722Y-3778989D01*
X11104889Y-3775356D01*
X10364056Y-3771722D01*
X10360353Y-3252494D01*
X10356651Y-2733266D01*
X9284556Y-2733266D01*
X9284556Y-3778778D01*
X9298667Y-3778778D01*
X9298667Y-2734556D01*
X10342889Y-2734556D01*
X10342889Y-3778778D01*
X9298667Y-3778778D01*
X9284556Y-3778778D01*
X9284556Y-3792540D01*
X9297377Y-3792540D01*
X9346326Y-3792889D01*
X10357000Y-3792889D01*
X11090778Y-3792889D01*
X13976602Y-3792889D01*
X15451111Y-3792889D01*
X15451111Y-4526667D01*
X15451044Y-4667598D01*
X15450853Y-4799638D01*
X15450549Y-4920167D01*
X15450146Y-5026565D01*
X15449657Y-5116211D01*
X15449094Y-5186487D01*
X15448469Y-5234772D01*
X15447797Y-5258446D01*
X15447532Y-5260444D01*
X15437229Y-5250720D01*
X15408548Y-5222587D01*
X15363056Y-5177603D01*
X15302320Y-5117329D01*
X15227907Y-5043324D01*
X15141383Y-4957146D01*
X15044314Y-4860355D01*
X14938267Y-4754510D01*
X14824810Y-4641171D01*
X14710278Y-4526667D01*
X13976602Y-3792889D01*
X11090778Y-3792889D01*
X11231709Y-3792956D01*
X11363749Y-3793147D01*
X11484278Y-3793451D01*
X11590676Y-3793854D01*
X11680322Y-3794343D01*
X11750598Y-3794906D01*
X11798883Y-3795531D01*
X11822557Y-3796203D01*
X11824556Y-3796468D01*
X11814831Y-3806771D01*
X11786698Y-3835452D01*
X11741714Y-3880944D01*
X11681440Y-3941680D01*
X11607435Y-4016093D01*
X11521257Y-4102617D01*
X11424466Y-4199686D01*
X11328492Y-4295844D01*
X11356717Y-4295844D01*
X11370560Y-4277666D01*
X11402313Y-4242602D01*
X11452650Y-4189891D01*
X11522249Y-4118768D01*
X11569335Y-4071173D01*
X11843282Y-3795060D01*
X13964851Y-3795060D01*
X14217473Y-4047974D01*
X14303688Y-4134828D01*
X14369873Y-4202764D01*
X14416458Y-4252299D01*
X14443875Y-4283953D01*
X14452556Y-4298245D01*
X14442932Y-4295692D01*
X14415433Y-4276814D01*
X14394808Y-4261177D01*
X14283813Y-4183878D01*
X14152439Y-4106406D01*
X14008233Y-4032665D01*
X13858744Y-3966561D01*
X13735902Y-3920237D01*
X13654162Y-3893913D01*
X13566285Y-3868750D01*
X13478374Y-3846189D01*
X13396534Y-3827671D01*
X13326868Y-3814635D01*
X13275482Y-3808523D01*
X13261672Y-3808329D01*
X13260712Y-3811157D01*
X13283422Y-3817808D01*
X13325673Y-3827237D01*
X13373814Y-3836649D01*
X13432912Y-3849121D01*
X13503077Y-3866227D01*
X13578772Y-3886346D01*
X13654459Y-3907855D01*
X13724601Y-3929132D01*
X13783659Y-3948555D01*
X13826096Y-3964502D01*
X13845987Y-3974967D01*
X13835548Y-3981973D01*
X13818317Y-3990444D01*
X13893045Y-3990444D01*
X13907545Y-3996387D01*
X13941607Y-4012427D01*
X13989627Y-4035883D01*
X14028955Y-4055484D01*
X14142112Y-4115264D01*
X14248694Y-4177158D01*
X14341415Y-4236783D01*
X14396055Y-4276276D01*
X14429547Y-4298728D01*
X14454728Y-4309483D01*
X14461484Y-4309087D01*
X14478989Y-4312359D01*
X14493484Y-4325739D01*
X14505376Y-4342138D01*
X14498494Y-4339790D01*
X14484500Y-4329933D01*
X14480915Y-4328900D01*
X14495517Y-4343570D01*
X14525301Y-4371007D01*
X14540944Y-4385036D01*
X14716825Y-4553854D01*
X14874676Y-4730069D01*
X14924799Y-4796119D01*
X14946289Y-4796119D01*
X14948633Y-4793035D01*
X14967264Y-4807338D01*
X15002910Y-4839675D01*
X15056300Y-4890694D01*
X15128163Y-4961042D01*
X15173913Y-5006309D01*
X15451111Y-5281340D01*
X15451110Y-5281754D01*
X15465222Y-5281754D01*
X15465222Y-4546729D01*
X15465398Y-4405304D01*
X15465902Y-4272468D01*
X15466701Y-4150885D01*
X15467761Y-4043216D01*
X15469049Y-3952124D01*
X15470531Y-3880272D01*
X15472174Y-3830323D01*
X15473943Y-3804937D01*
X15474630Y-3802296D01*
X15490425Y-3800144D01*
X15531234Y-3798165D01*
X15593846Y-3796417D01*
X15675052Y-3794958D01*
X15771644Y-3793845D01*
X15880412Y-3793136D01*
X15997385Y-3792889D01*
X16510733Y-3792889D01*
X16508453Y-5057654D01*
X16506172Y-6322419D01*
X15985697Y-5802087D01*
X15465222Y-5281754D01*
X15451110Y-5281754D01*
X15449782Y-5648364D01*
X15448453Y-6015389D01*
X15421332Y-5869447D01*
X15364480Y-5633851D01*
X15282565Y-5398641D01*
X15178191Y-5169763D01*
X15053964Y-4953159D01*
X14959503Y-4815944D01*
X14946289Y-4796119D01*
X14924799Y-4796119D01*
X15010494Y-4909042D01*
X15065755Y-4993077D01*
X15092326Y-5037671D01*
X15123216Y-5092647D01*
X15155759Y-5152842D01*
X15187289Y-5213097D01*
X15215140Y-5268248D01*
X15236647Y-5313135D01*
X15249144Y-5342597D01*
X15250908Y-5351560D01*
X15237351Y-5347111D01*
X15200681Y-5332909D01*
X15143806Y-5310137D01*
X15069630Y-5279977D01*
X14981060Y-5243609D01*
X14881002Y-5202216D01*
X14772362Y-5156981D01*
X14767629Y-5155003D01*
X14288758Y-4954942D01*
X14145280Y-4610276D01*
X14103095Y-4508970D01*
X14061053Y-4408058D01*
X14021427Y-4312995D01*
X13986491Y-4229235D01*
X13958520Y-4162233D01*
X13944219Y-4128028D01*
X13921255Y-4071812D01*
X13903893Y-4026691D01*
X13894117Y-3997996D01*
X13893045Y-3990444D01*
X13818317Y-3990444D01*
X13802496Y-3998221D01*
X13750321Y-4022225D01*
X13682516Y-4052501D01*
X13602570Y-4087564D01*
X13513976Y-4125930D01*
X13420224Y-4166112D01*
X13324806Y-4206627D01*
X13231212Y-4245989D01*
X13142933Y-4282713D01*
X13063462Y-4315316D01*
X12996288Y-4342311D01*
X12944903Y-4362214D01*
X12912799Y-4373540D01*
X12904056Y-4375603D01*
X12885578Y-4370291D01*
X12845665Y-4355490D01*
X12787808Y-4332687D01*
X12715499Y-4303364D01*
X12632229Y-4269007D01*
X12541489Y-4231101D01*
X12446771Y-4191129D01*
X12351565Y-4150576D01*
X12259364Y-4110927D01*
X12173658Y-4073666D01*
X12097939Y-4040277D01*
X12035698Y-4012246D01*
X11990427Y-3991057D01*
X11965617Y-3978193D01*
X11962034Y-3975057D01*
X11983537Y-3963896D01*
X12026933Y-3947718D01*
X12086686Y-3928144D01*
X12157258Y-3906799D01*
X12233114Y-3885304D01*
X12308716Y-3865282D01*
X12378528Y-3848356D01*
X12434297Y-3836649D01*
X12489900Y-3825678D01*
X12529468Y-3816601D01*
X12548872Y-3810460D01*
X12546439Y-3808329D01*
X12503862Y-3811339D01*
X12440616Y-3821839D01*
X12362802Y-3838386D01*
X12276524Y-3859543D01*
X12187885Y-3883867D01*
X12102987Y-3909920D01*
X12072113Y-3920270D01*
X11829108Y-4018475D01*
X11595748Y-4141487D01*
X11380056Y-4284589D01*
X11360108Y-4297897D01*
X11356717Y-4295844D01*
X11328492Y-4295844D01*
X11318621Y-4305733D01*
X11205282Y-4419190D01*
X11090778Y-4533722D01*
X10357000Y-5267398D01*
X10357000Y-3792889D01*
X9346326Y-3792889D01*
X10335833Y-3799944D01*
X10339467Y-4540778D01*
X10343100Y-5281611D01*
X10342835Y-5281876D01*
X10357000Y-5281876D01*
X10628503Y-5010105D01*
X10699944Y-4938728D01*
X10764626Y-4874362D01*
X10819947Y-4819576D01*
X10863306Y-4776936D01*
X10892102Y-4749010D01*
X10903734Y-4738366D01*
X10903827Y-4738333D01*
X10897960Y-4748836D01*
X10879010Y-4776834D01*
X10850579Y-4817059D01*
X10838671Y-4833583D01*
X10693345Y-5056584D01*
X10571805Y-5290583D01*
X10547537Y-5351477D01*
X10557192Y-5351477D01*
X10560712Y-5337758D01*
X10575350Y-5304681D01*
X10598400Y-5257499D01*
X10627158Y-5201460D01*
X10658920Y-5141814D01*
X10690980Y-5083812D01*
X10720635Y-5032703D01*
X10725878Y-5024034D01*
X10864321Y-4819978D01*
X11022063Y-4628519D01*
X11195223Y-4453629D01*
X11379924Y-4299284D01*
X11542333Y-4187683D01*
X11582749Y-4163669D01*
X11635635Y-4133739D01*
X11695589Y-4100771D01*
X11757213Y-4067641D01*
X11815105Y-4037223D01*
X11863865Y-4012394D01*
X11898094Y-3996030D01*
X11911820Y-3990918D01*
X11910716Y-4002775D01*
X11900231Y-4035232D01*
X11882215Y-4082996D01*
X11863892Y-4128028D01*
X11842206Y-4179916D01*
X11811950Y-4252413D01*
X11775396Y-4340069D01*
X11734817Y-4437436D01*
X11692482Y-4539064D01*
X11662672Y-4610661D01*
X11522197Y-4948110D01*
X11554994Y-4948110D01*
X11556278Y-4930668D01*
X11563521Y-4902183D01*
X11577634Y-4860091D01*
X11599525Y-4801827D01*
X11630103Y-4724827D01*
X11670277Y-4626526D01*
X11709461Y-4531969D01*
X11752743Y-4427995D01*
X11793813Y-4329459D01*
X11831068Y-4240193D01*
X11862906Y-4164032D01*
X11887724Y-4104811D01*
X11903923Y-4066364D01*
X11907478Y-4058014D01*
X11935945Y-3991603D01*
X12067222Y-4046804D01*
X12117859Y-4067990D01*
X12189090Y-4097642D01*
X12275414Y-4133479D01*
X12371330Y-4173219D01*
X12471339Y-4214579D01*
X12533512Y-4240253D01*
X12624009Y-4277914D01*
X12705248Y-4312329D01*
X12773772Y-4341984D01*
X12826123Y-4365364D01*
X12858842Y-4380956D01*
X12868486Y-4386933D01*
X12939660Y-4386933D01*
X12952289Y-4379120D01*
X12987558Y-4362380D01*
X13041872Y-4338191D01*
X13111639Y-4308034D01*
X13193263Y-4273385D01*
X13283152Y-4235724D01*
X13377709Y-4196529D01*
X13473343Y-4157279D01*
X13566458Y-4119452D01*
X13653460Y-4084527D01*
X13730756Y-4053982D01*
X13794752Y-4029297D01*
X13841852Y-4011949D01*
X13868464Y-4003417D01*
X13873016Y-4002959D01*
X13880440Y-4017570D01*
X13897350Y-4055255D01*
X13922455Y-4113002D01*
X13954466Y-4187799D01*
X13992094Y-4276635D01*
X14034049Y-4376499D01*
X14074100Y-4472494D01*
X14118516Y-4579467D01*
X14159293Y-4678013D01*
X14195206Y-4765146D01*
X14225030Y-4837881D01*
X14247541Y-4893232D01*
X14261514Y-4928213D01*
X14265778Y-4939814D01*
X14253163Y-4935824D01*
X14216947Y-4921952D01*
X14159573Y-4899190D01*
X14083484Y-4868528D01*
X13991123Y-4830956D01*
X13884932Y-4787466D01*
X13767354Y-4739049D01*
X13640833Y-4686696D01*
X13602556Y-4670809D01*
X13473785Y-4617167D01*
X13353273Y-4566648D01*
X13243467Y-4520302D01*
X13146814Y-4479176D01*
X13065762Y-4444320D01*
X13002759Y-4416780D01*
X12960253Y-4397606D01*
X12940692Y-4387845D01*
X12939660Y-4386933D01*
X12868486Y-4386933D01*
X12868651Y-4387035D01*
X12856039Y-4393943D01*
X12819795Y-4410547D01*
X12762380Y-4435793D01*
X12686256Y-4468628D01*
X12593887Y-4507997D01*
X12487733Y-4552848D01*
X12370258Y-4602126D01*
X12243922Y-4654779D01*
X12212396Y-4667867D01*
X12084502Y-4721061D01*
X11965032Y-4771017D01*
X11856425Y-4816696D01*
X11761117Y-4857062D01*
X11681546Y-4891077D01*
X11620148Y-4917703D01*
X11579360Y-4935901D01*
X11561619Y-4944636D01*
X11561069Y-4945218D01*
X11574684Y-4940946D01*
X11611830Y-4926771D01*
X11670011Y-4903705D01*
X11746732Y-4872762D01*
X11839500Y-4834953D01*
X11945818Y-4791293D01*
X12063192Y-4742795D01*
X12189127Y-4690471D01*
X12213923Y-4680136D01*
X12342404Y-4626816D01*
X12463819Y-4576922D01*
X12575521Y-4531510D01*
X12674861Y-4491631D01*
X12759190Y-4458341D01*
X12825859Y-4432692D01*
X12872220Y-4415739D01*
X12895625Y-4408536D01*
X12897000Y-4408361D01*
X12916532Y-4413189D01*
X12958183Y-4427558D01*
X13019016Y-4450255D01*
X13096093Y-4480064D01*
X13186478Y-4515772D01*
X13287235Y-4556163D01*
X13395426Y-4600024D01*
X13508114Y-4646140D01*
X13622364Y-4693296D01*
X13735237Y-4740278D01*
X13843798Y-4785872D01*
X13945109Y-4828862D01*
X14036234Y-4868035D01*
X14114236Y-4902176D01*
X14176178Y-4930071D01*
X14219124Y-4950504D01*
X14240135Y-4962262D01*
X14241630Y-4964420D01*
X14225820Y-4972518D01*
X14187859Y-4989616D01*
X14131706Y-5014000D01*
X14061321Y-5043961D01*
X13980663Y-5077786D01*
X13948278Y-5091240D01*
X13850526Y-5131759D01*
X13748115Y-5174229D01*
X13648700Y-5215474D01*
X13559939Y-5252317D01*
X13489486Y-5281582D01*
X13488655Y-5281928D01*
X13311255Y-5355664D01*
X13115619Y-4884988D01*
X13070688Y-4777353D01*
X13029114Y-4678652D01*
X12992133Y-4591750D01*
X12960980Y-4519512D01*
X12936892Y-4464805D01*
X12921104Y-4430495D01*
X12914866Y-4419430D01*
X12918911Y-4433167D01*
X12932694Y-4469958D01*
X12955027Y-4526837D01*
X12984719Y-4600835D01*
X13020582Y-4688988D01*
X13061426Y-4788328D01*
X13102129Y-4886453D01*
X13146338Y-4993689D01*
X13186313Y-5092770D01*
X13220904Y-5180678D01*
X13248960Y-5254399D01*
X13269333Y-5310915D01*
X13280871Y-5347212D01*
X13282727Y-5360125D01*
X13269611Y-5367516D01*
X13327724Y-5367516D01*
X13328670Y-5363062D01*
X13344226Y-5356675D01*
X13382776Y-5340601D01*
X13441300Y-5316106D01*
X13516783Y-5284454D01*
X13606205Y-5246911D01*
X13706550Y-5204743D01*
X13807167Y-5162426D01*
X13914466Y-5117283D01*
X14013211Y-5075744D01*
X14100464Y-5039042D01*
X14173292Y-5008413D01*
X14228757Y-4985091D01*
X14263926Y-4970311D01*
X14275860Y-4965307D01*
X14272577Y-4976255D01*
X14260894Y-5005639D01*
X14250171Y-5031101D01*
X14237616Y-5060792D01*
X14215846Y-5112719D01*
X14186459Y-5183052D01*
X14151052Y-5267961D01*
X14111224Y-5363613D01*
X14068574Y-5466179D01*
X14051468Y-5507351D01*
X14009608Y-5607952D01*
X13971207Y-5699896D01*
X13937598Y-5780015D01*
X13910115Y-5845143D01*
X13890092Y-5892115D01*
X13878863Y-5917763D01*
X13876962Y-5921603D01*
X13863074Y-5918239D01*
X13827802Y-5905661D01*
X13775765Y-5885622D01*
X13711580Y-5859876D01*
X13676185Y-5845333D01*
X13479928Y-5764072D01*
X13397884Y-5565924D01*
X13370311Y-5497117D01*
X13348385Y-5438061D01*
X13333668Y-5393334D01*
X13327724Y-5367516D01*
X13269611Y-5367516D01*
X13266002Y-5369549D01*
X13228211Y-5387311D01*
X13174436Y-5411124D01*
X13109758Y-5438702D01*
X13087500Y-5447985D01*
X12904056Y-5524078D01*
X12720641Y-5448030D01*
X12653538Y-5419738D01*
X12595704Y-5394468D01*
X12552223Y-5374510D01*
X12528177Y-5362150D01*
X12525414Y-5360170D01*
X12527916Y-5344863D01*
X12540299Y-5306594D01*
X12561412Y-5248381D01*
X12590105Y-5173239D01*
X12625229Y-5084184D01*
X12665635Y-4984234D01*
X12705982Y-4886453D01*
X12750340Y-4779478D01*
X12790804Y-4680978D01*
X12826186Y-4593919D01*
X12855296Y-4521267D01*
X12876945Y-4465989D01*
X12889943Y-4431051D01*
X12893245Y-4419430D01*
X12886865Y-4430790D01*
X12870963Y-4465377D01*
X12846777Y-4520326D01*
X12815542Y-4592770D01*
X12778492Y-4679845D01*
X12736865Y-4778685D01*
X12692421Y-4885157D01*
X12496716Y-5356002D01*
X12439330Y-5331548D01*
X12412001Y-5320068D01*
X12362358Y-5299381D01*
X12294172Y-5271053D01*
X12211214Y-5236648D01*
X12117256Y-5197731D01*
X12016068Y-5155867D01*
X11979778Y-5140864D01*
X11879170Y-5098971D01*
X11786545Y-5059814D01*
X11705257Y-5024858D01*
X11638659Y-4995565D01*
X11590104Y-4973400D01*
X11562945Y-4959827D01*
X11558761Y-4957073D01*
X11554994Y-4948110D01*
X11522197Y-4948110D01*
X11519033Y-4955710D01*
X11479354Y-4972255D01*
X11537347Y-4972255D01*
X11539109Y-4969174D01*
X11554145Y-4975907D01*
X11592247Y-4992175D01*
X11650405Y-5016715D01*
X11725610Y-5048264D01*
X11814853Y-5085559D01*
X11915124Y-5127339D01*
X12015162Y-5168914D01*
X12122679Y-5213615D01*
X12221703Y-5254922D01*
X12309272Y-5291588D01*
X12382424Y-5322367D01*
X12438193Y-5346012D01*
X12473618Y-5361276D01*
X12485714Y-5366863D01*
X12482350Y-5380814D01*
X12469769Y-5416143D01*
X12449727Y-5468226D01*
X12423978Y-5532440D01*
X12409444Y-5567815D01*
X12339053Y-5737821D01*
X12357636Y-5737821D01*
X12357696Y-5737444D01*
X12366198Y-5707037D01*
X12383057Y-5661447D01*
X12405744Y-5606227D01*
X12431728Y-5546926D01*
X12458478Y-5489097D01*
X12483466Y-5438290D01*
X12504160Y-5400056D01*
X12518030Y-5379947D01*
X12521392Y-5378298D01*
X12540269Y-5386203D01*
X12579057Y-5402487D01*
X12631651Y-5424586D01*
X12678278Y-5444188D01*
X12740044Y-5470049D01*
X12795381Y-5493017D01*
X12837097Y-5510117D01*
X12854667Y-5517129D01*
X12864169Y-5522685D01*
X12863870Y-5529931D01*
X12851027Y-5540340D01*
X12822893Y-5555383D01*
X12776724Y-5576532D01*
X12709775Y-5605259D01*
X12621833Y-5641986D01*
X12542524Y-5675210D01*
X12473987Y-5704529D01*
X12419791Y-5728365D01*
X12383509Y-5745137D01*
X12368711Y-5753268D01*
X12368984Y-5753786D01*
X12386352Y-5748766D01*
X12425292Y-5734487D01*
X12481377Y-5712668D01*
X12550181Y-5685030D01*
X12621833Y-5655556D01*
X12697904Y-5624100D01*
X12764754Y-5596781D01*
X12818123Y-5575314D01*
X12853751Y-5561413D01*
X12867274Y-5556778D01*
X12861282Y-5566032D01*
X12838978Y-5591084D01*
X12804099Y-5627869D01*
X12769647Y-5663016D01*
X12664972Y-5768444D01*
X12678940Y-5768444D01*
X12791167Y-5655556D01*
X12835814Y-5610700D01*
X12872162Y-5574287D01*
X12896217Y-5550311D01*
X12904056Y-5542667D01*
X12913612Y-5552015D01*
X12918387Y-5556778D01*
X12940837Y-5556778D01*
X12955763Y-5561943D01*
X12992459Y-5576297D01*
X13046667Y-5598124D01*
X13114125Y-5625711D01*
X13186278Y-5655556D01*
X13262947Y-5687069D01*
X13331022Y-5714364D01*
X13386076Y-5735722D01*
X13423683Y-5749424D01*
X13439127Y-5753786D01*
X13431419Y-5748523D01*
X13401171Y-5734131D01*
X13351950Y-5712189D01*
X13287328Y-5684282D01*
X13210873Y-5651990D01*
X13186278Y-5641732D01*
X13096662Y-5604324D01*
X13030386Y-5576080D01*
X12984687Y-5555443D01*
X12956798Y-5540855D01*
X12943954Y-5530759D01*
X12943389Y-5523597D01*
X12952338Y-5517812D01*
X12960500Y-5514584D01*
X12990985Y-5502473D01*
X13039760Y-5482164D01*
X13099281Y-5456826D01*
X13143944Y-5437514D01*
X13201994Y-5412465D01*
X13250211Y-5392076D01*
X13282904Y-5378728D01*
X13294109Y-5374709D01*
X13302625Y-5386431D01*
X13319523Y-5419485D01*
X13342510Y-5469075D01*
X13369294Y-5530406D01*
X13374802Y-5543417D01*
X13402028Y-5609128D01*
X13425140Y-5666924D01*
X13441902Y-5711071D01*
X13450079Y-5735833D01*
X13450415Y-5737444D01*
X13449203Y-5748066D01*
X13438320Y-5755310D01*
X13413162Y-5760025D01*
X13369127Y-5763058D01*
X13301611Y-5765259D01*
X13299167Y-5765321D01*
X13143944Y-5769254D01*
X13038464Y-5663016D01*
X12996213Y-5619772D01*
X12963548Y-5585008D01*
X12944207Y-5562788D01*
X12940837Y-5556778D01*
X12918387Y-5556778D01*
X12939060Y-5577398D01*
X12976406Y-5614823D01*
X13016944Y-5655556D01*
X13129171Y-5768444D01*
X12678940Y-5768444D01*
X12664972Y-5768444D01*
X12664167Y-5769254D01*
X12508944Y-5765321D01*
X12440650Y-5763132D01*
X12395975Y-5760136D01*
X12370316Y-5755485D01*
X12359071Y-5748329D01*
X12357636Y-5737821D01*
X12339053Y-5737821D01*
X12328183Y-5764072D01*
X12283542Y-5782556D01*
X12346667Y-5782556D01*
X12494833Y-5782556D01*
X13160192Y-5782556D01*
X13461444Y-5782556D01*
X13461444Y-6085321D01*
X13344291Y-5968777D01*
X13297717Y-5923828D01*
X13258171Y-5888250D01*
X13229907Y-5865696D01*
X13217291Y-5859727D01*
X13213098Y-5859911D01*
X13214629Y-5857686D01*
X13211056Y-5842049D01*
X13192612Y-5817089D01*
X13191003Y-5815352D01*
X13160192Y-5782556D01*
X12494833Y-5782556D01*
X12555659Y-5782891D01*
X12604384Y-5783797D01*
X12635177Y-5785126D01*
X12643000Y-5786336D01*
X12633558Y-5797070D01*
X12607560Y-5824101D01*
X12568496Y-5863863D01*
X12519855Y-5912787D01*
X12494833Y-5937778D01*
X12346667Y-6085440D01*
X12346667Y-5782556D01*
X12283542Y-5782556D01*
X12131926Y-5845333D01*
X12063380Y-5873284D01*
X12004659Y-5896411D01*
X11960383Y-5912959D01*
X11935169Y-5921173D01*
X11931149Y-5921603D01*
X11924826Y-5907826D01*
X11909041Y-5871139D01*
X11885129Y-5814710D01*
X11854421Y-5741704D01*
X11818254Y-5655288D01*
X11777960Y-5558628D01*
X11756643Y-5507351D01*
X11713305Y-5403081D01*
X11672148Y-5304186D01*
X11634774Y-5214506D01*
X11602784Y-5137881D01*
X11577780Y-5078149D01*
X11561363Y-5039150D01*
X11557636Y-5030390D01*
X11543349Y-4994037D01*
X11537347Y-4972255D01*
X11479354Y-4972255D01*
X11040322Y-5155317D01*
X10931386Y-5200601D01*
X10830912Y-5242100D01*
X10741808Y-5278634D01*
X10666983Y-5309021D01*
X10609344Y-5332082D01*
X10571798Y-5346636D01*
X10557254Y-5351501D01*
X10557192Y-5351477D01*
X10547537Y-5351477D01*
X10475365Y-5532565D01*
X10405342Y-5779511D01*
X10386779Y-5869447D01*
X10359658Y-6015389D01*
X10358329Y-5648632D01*
X10357000Y-5281876D01*
X10342835Y-5281876D01*
X9822520Y-5802015D01*
X9301939Y-6322419D01*
X9299658Y-5057479D01*
X9297377Y-3792540D01*
X9284556Y-3792540D01*
X9284556Y-6340087D01*
X9298666Y-6340087D01*
X9817178Y-5821432D01*
X9916895Y-5721755D01*
X10010446Y-5628372D01*
X10095962Y-5543138D01*
X10171576Y-5467909D01*
X10235420Y-5404541D01*
X10285626Y-5354888D01*
X10320326Y-5320807D01*
X10337653Y-5304152D01*
X10339290Y-5302778D01*
X10339873Y-5316522D01*
X10340426Y-5356289D01*
X10340943Y-5419878D01*
X10341416Y-5505089D01*
X10341836Y-5609723D01*
X10342196Y-5731579D01*
X10342490Y-5868458D01*
X10342708Y-6018159D01*
X10342843Y-6178483D01*
X10342889Y-6343401D01*
X10342889Y-6361053D01*
X10363048Y-6361053D01*
X10365461Y-6204765D01*
X10374741Y-6056124D01*
X10390891Y-5923772D01*
X10396701Y-5890510D01*
X10414408Y-5806180D01*
X10436053Y-5717623D01*
X10460073Y-5629925D01*
X10484900Y-5548173D01*
X10508969Y-5477454D01*
X10530713Y-5422854D01*
X10548567Y-5389459D01*
X10552357Y-5384900D01*
X10568771Y-5375704D01*
X10607613Y-5357243D01*
X10665248Y-5331072D01*
X10738040Y-5298748D01*
X10822351Y-5261826D01*
X10914546Y-5221861D01*
X11010987Y-5180408D01*
X11108039Y-5139022D01*
X11202064Y-5099260D01*
X11289427Y-5062676D01*
X11366490Y-5030826D01*
X11429618Y-5005266D01*
X11475173Y-4987549D01*
X11499520Y-4979233D01*
X11501800Y-4978809D01*
X11517113Y-4987843D01*
X11524406Y-4995861D01*
X11533689Y-5013665D01*
X11551890Y-5053504D01*
X11577231Y-5111298D01*
X11607931Y-5182968D01*
X11642210Y-5264433D01*
X11655229Y-5295722D01*
X11695794Y-5393492D01*
X11738316Y-5495947D01*
X11779613Y-5595426D01*
X11816506Y-5684265D01*
X11845814Y-5754805D01*
X11846155Y-5755625D01*
X11920008Y-5933306D01*
X11899883Y-5941652D01*
X11943108Y-5941652D01*
X11943253Y-5941377D01*
X11960348Y-5931758D01*
X11997166Y-5915043D01*
X12047927Y-5893523D01*
X12106852Y-5869487D01*
X12168162Y-5845225D01*
X12226078Y-5823028D01*
X12274822Y-5805185D01*
X12308613Y-5793985D01*
X12321495Y-5791496D01*
X12326014Y-5807565D01*
X12329641Y-5845730D01*
X12331948Y-5899867D01*
X12332556Y-5949547D01*
X12332556Y-6100762D01*
X12226722Y-6205889D01*
X12183573Y-6248064D01*
X12148908Y-6280640D01*
X12126799Y-6299874D01*
X12120889Y-6303163D01*
X12126054Y-6288237D01*
X12140408Y-6251541D01*
X12162235Y-6197333D01*
X12189822Y-6129875D01*
X12219667Y-6057722D01*
X12251180Y-5981053D01*
X12278475Y-5912978D01*
X12299833Y-5857924D01*
X12313535Y-5820317D01*
X12317897Y-5804873D01*
X12312643Y-5812583D01*
X12298274Y-5842840D01*
X12276369Y-5892073D01*
X12248508Y-5956711D01*
X12216271Y-6033183D01*
X12206056Y-6057722D01*
X12166965Y-6150691D01*
X12136799Y-6219434D01*
X12114458Y-6266111D01*
X12098848Y-6292880D01*
X12088871Y-6301899D01*
X12084141Y-6297611D01*
X12074707Y-6274034D01*
X12056841Y-6230619D01*
X12033094Y-6173529D01*
X12006017Y-6108923D01*
X12005670Y-6108099D01*
X11980239Y-6046254D01*
X11960052Y-5994471D01*
X11947033Y-5957890D01*
X11943108Y-5941652D01*
X11899883Y-5941652D01*
X11449131Y-6128576D01*
X11341455Y-6173422D01*
X11242714Y-6214917D01*
X11155776Y-6251829D01*
X11083507Y-6282923D01*
X11028774Y-6306968D01*
X10994444Y-6322729D01*
X10983367Y-6328959D01*
X10997107Y-6324924D01*
X11033910Y-6311170D01*
X11090809Y-6288884D01*
X11164837Y-6259253D01*
X11253026Y-6223463D01*
X11352409Y-6182702D01*
X11450716Y-6142023D01*
X11558001Y-6097893D01*
X11657116Y-6057976D01*
X11745046Y-6023423D01*
X11818776Y-5995380D01*
X11875291Y-5974997D01*
X11911577Y-5963423D01*
X11924478Y-5961515D01*
X11933812Y-5978148D01*
X11951495Y-6015853D01*
X11975249Y-6069560D01*
X12002794Y-6134195D01*
X12012096Y-6156500D01*
X12088189Y-6339944D01*
X12087922Y-6340588D01*
X12106759Y-6340588D01*
X12215798Y-6230905D01*
X12260098Y-6186676D01*
X12296476Y-6150982D01*
X12320741Y-6127895D01*
X12328697Y-6121222D01*
X12330010Y-6134539D01*
X12330488Y-6150217D01*
X12347661Y-6150217D01*
X12357215Y-6100470D01*
X12384584Y-6062022D01*
X12414821Y-6032420D01*
X12427998Y-6024284D01*
X12423700Y-6037660D01*
X12410588Y-6059060D01*
X12389048Y-6098075D01*
X12368978Y-6143645D01*
X12367626Y-6147254D01*
X12348655Y-6198833D01*
X12347661Y-6150217D01*
X12330488Y-6150217D01*
X12331132Y-6171314D01*
X12331979Y-6226784D01*
X12332468Y-6296184D01*
X12332556Y-6343141D01*
X12332556Y-6372723D01*
X12348994Y-6372723D01*
X12354811Y-6256777D01*
X12384625Y-6145164D01*
X12436435Y-6041806D01*
X12508239Y-5950627D01*
X12598035Y-5875548D01*
X12703819Y-5820493D01*
X12711998Y-5817407D01*
X12738535Y-5805654D01*
X12744393Y-5798516D01*
X12740352Y-5797661D01*
X12715799Y-5803402D01*
X12677010Y-5819213D01*
X12648629Y-5833213D01*
X12579500Y-5869760D01*
X12619256Y-5827922D01*
X12659011Y-5786083D01*
X12904203Y-5786083D01*
X12992885Y-5786217D01*
X13057772Y-5786975D01*
X13103291Y-5788893D01*
X13133868Y-5792508D01*
X13153931Y-5798356D01*
X13167906Y-5806973D01*
X13180220Y-5818896D01*
X13180879Y-5819597D01*
X13201186Y-5842641D01*
X13203426Y-5851077D01*
X13185403Y-5845220D01*
X13144919Y-5825386D01*
X13143944Y-5824889D01*
X13104940Y-5807616D01*
X13073742Y-5798255D01*
X13066877Y-5797661D01*
X13064393Y-5802284D01*
X13084087Y-5812695D01*
X13096113Y-5817407D01*
X13205575Y-5872275D01*
X13298954Y-5949282D01*
X13350233Y-6015389D01*
X13371352Y-6015389D01*
X13416398Y-6056835D01*
X13447755Y-6092536D01*
X13450469Y-6100762D01*
X13475556Y-6100762D01*
X13475556Y-5951066D01*
X13476312Y-5888789D01*
X13478356Y-5837487D01*
X13481352Y-5803406D01*
X13484062Y-5792864D01*
X13488816Y-5789572D01*
X13497030Y-5789210D01*
X13512541Y-5793146D01*
X13539183Y-5802747D01*
X13580793Y-5819381D01*
X13641206Y-5844414D01*
X13712743Y-5874382D01*
X13778147Y-5903268D01*
X13827847Y-5928147D01*
X13858136Y-5947014D01*
X13865734Y-5957198D01*
X13857815Y-5976111D01*
X13841519Y-6014930D01*
X13819411Y-6067547D01*
X13799812Y-6114167D01*
X13773951Y-6175933D01*
X13750983Y-6231270D01*
X13733883Y-6272986D01*
X13726871Y-6290556D01*
X13721315Y-6300058D01*
X13714069Y-6299759D01*
X13703660Y-6286916D01*
X13688617Y-6258782D01*
X13667468Y-6212613D01*
X13638741Y-6145664D01*
X13602014Y-6057722D01*
X13568790Y-5978413D01*
X13539471Y-5909876D01*
X13515635Y-5855680D01*
X13498863Y-5819398D01*
X13490732Y-5804600D01*
X13490214Y-5804873D01*
X13495234Y-5822241D01*
X13509513Y-5861181D01*
X13531332Y-5917266D01*
X13558970Y-5986070D01*
X13588444Y-6057722D01*
X13619900Y-6133793D01*
X13647219Y-6200643D01*
X13668686Y-6254012D01*
X13682587Y-6289640D01*
X13687222Y-6303163D01*
X13677972Y-6297176D01*
X13652934Y-6274878D01*
X13616182Y-6240011D01*
X13581389Y-6205889D01*
X13475556Y-6100762D01*
X13450469Y-6100762D01*
X13459741Y-6128859D01*
X13460450Y-6148557D01*
X13459456Y-6198833D01*
X13440485Y-6147254D01*
X13420509Y-6100683D01*
X13397818Y-6057779D01*
X13396434Y-6055532D01*
X13371352Y-6015389D01*
X13350233Y-6015389D01*
X13373921Y-6045925D01*
X13428143Y-6159699D01*
X13435724Y-6182452D01*
X13458195Y-6299748D01*
X13456757Y-6343141D01*
X13475556Y-6343141D01*
X13475787Y-6267603D01*
X13476427Y-6203100D01*
X13477391Y-6154396D01*
X13478598Y-6126255D01*
X13479414Y-6121222D01*
X13490284Y-6130590D01*
X13516781Y-6155981D01*
X13554716Y-6193323D01*
X13592313Y-6230905D01*
X13700711Y-6339944D01*
X13719922Y-6339944D01*
X13795970Y-6156530D01*
X13824262Y-6089427D01*
X13849532Y-6031593D01*
X13869490Y-5988112D01*
X13881850Y-5964066D01*
X13883830Y-5961303D01*
X13899137Y-5963805D01*
X13937406Y-5976188D01*
X13995619Y-5997301D01*
X14070761Y-6025994D01*
X14159816Y-6061118D01*
X14259766Y-6101524D01*
X14357547Y-6141871D01*
X14464522Y-6186229D01*
X14563022Y-6226693D01*
X14650081Y-6262075D01*
X14722733Y-6291185D01*
X14778011Y-6312834D01*
X14812949Y-6325832D01*
X14824570Y-6329134D01*
X14813210Y-6322753D01*
X14778624Y-6306852D01*
X14723677Y-6282667D01*
X14651236Y-6251433D01*
X14564166Y-6214386D01*
X14465334Y-6172761D01*
X14359012Y-6128381D01*
X13888336Y-5932745D01*
X13962072Y-5755345D01*
X13991210Y-5685215D01*
X14027981Y-5596669D01*
X14069208Y-5497362D01*
X14111712Y-5394949D01*
X14152317Y-5297083D01*
X14152882Y-5295722D01*
X14195169Y-5194335D01*
X14228330Y-5116332D01*
X14253709Y-5058889D01*
X14272651Y-5019181D01*
X14286501Y-4994384D01*
X14296602Y-4981674D01*
X14304040Y-4978222D01*
X14318140Y-4983449D01*
X14355302Y-4998313D01*
X14412538Y-5021589D01*
X14486860Y-5052055D01*
X14575281Y-5088485D01*
X14674814Y-5129656D01*
X14771506Y-5169784D01*
X14879524Y-5215065D01*
X14979863Y-5257862D01*
X15069379Y-5296777D01*
X15144924Y-5330412D01*
X15203353Y-5357369D01*
X15241519Y-5376250D01*
X15255754Y-5384979D01*
X15272374Y-5412056D01*
X15293269Y-5461650D01*
X15316872Y-5528664D01*
X15341615Y-5608004D01*
X15365933Y-5694574D01*
X15388259Y-5783279D01*
X15407026Y-5869024D01*
X15411186Y-5890510D01*
X15429310Y-6017690D01*
X15440546Y-6163499D01*
X15444895Y-6319198D01*
X15444504Y-6343401D01*
X15465222Y-6343401D01*
X15465270Y-6174818D01*
X15465407Y-6014706D01*
X15465627Y-5865266D01*
X15465922Y-5728698D01*
X15466284Y-5607201D01*
X15466705Y-5502975D01*
X15467179Y-5418221D01*
X15467697Y-5355137D01*
X15468251Y-5315926D01*
X15468821Y-5302778D01*
X15479188Y-5312456D01*
X15507626Y-5340252D01*
X15552265Y-5384313D01*
X15611239Y-5442781D01*
X15682680Y-5513802D01*
X15764721Y-5595520D01*
X15855492Y-5686079D01*
X15953127Y-5783625D01*
X15990933Y-5821432D01*
X16509445Y-6340087D01*
X15987334Y-6862055D01*
X15465222Y-7384024D01*
X15465222Y-6343401D01*
X15444504Y-6343401D01*
X15442357Y-6476045D01*
X15432932Y-6625302D01*
X15416620Y-6758229D01*
X15411186Y-6789379D01*
X15397520Y-6854667D01*
X15379567Y-6929622D01*
X15358873Y-7008890D01*
X15336985Y-7087114D01*
X15315448Y-7158942D01*
X15295810Y-7219017D01*
X15279616Y-7261986D01*
X15268943Y-7281966D01*
X15261954Y-7271507D01*
X15245723Y-7238435D01*
X15221734Y-7186241D01*
X15191473Y-7118418D01*
X15156422Y-7038455D01*
X15118068Y-6949844D01*
X15077894Y-6856078D01*
X15037385Y-6760646D01*
X14998027Y-6667041D01*
X14961303Y-6578753D01*
X14928698Y-6499274D01*
X14901696Y-6432096D01*
X14881783Y-6380709D01*
X14870443Y-6348605D01*
X14868368Y-6339944D01*
X14873582Y-6324072D01*
X14888493Y-6285215D01*
X14911874Y-6226410D01*
X14942497Y-6150694D01*
X14979134Y-6061104D01*
X15020559Y-5960677D01*
X15061551Y-5862024D01*
X15106045Y-5754831D01*
X15146649Y-5656106D01*
X15182173Y-5568810D01*
X15211429Y-5495901D01*
X15233228Y-5440339D01*
X15246384Y-5405084D01*
X15249820Y-5393116D01*
X15243449Y-5404465D01*
X15227610Y-5439015D01*
X15203554Y-5493860D01*
X15172529Y-5566092D01*
X15135787Y-5652805D01*
X15094575Y-5751092D01*
X15055110Y-5846043D01*
X15010815Y-5952485D01*
X14969714Y-6050187D01*
X14933082Y-6136193D01*
X14902197Y-6207551D01*
X14878337Y-6261306D01*
X14862778Y-6294504D01*
X14856965Y-6304368D01*
X14850057Y-6291791D01*
X14833454Y-6255579D01*
X14808209Y-6198195D01*
X14775376Y-6122101D01*
X14736008Y-6029756D01*
X14691159Y-5923623D01*
X14641883Y-5806163D01*
X14589232Y-5679837D01*
X14576133Y-5648285D01*
X14522939Y-5520391D01*
X14472983Y-5400921D01*
X14427304Y-5292314D01*
X14386938Y-5197006D01*
X14352923Y-5117435D01*
X14326297Y-5056037D01*
X14308099Y-5015249D01*
X14299364Y-4997508D01*
X14298782Y-4996958D01*
X14303054Y-5010573D01*
X14317229Y-5047719D01*
X14340295Y-5105900D01*
X14371238Y-5182621D01*
X14409047Y-5275389D01*
X14452707Y-5381707D01*
X14501205Y-5499081D01*
X14553529Y-5625016D01*
X14563864Y-5649812D01*
X14617184Y-5778293D01*
X14667078Y-5899708D01*
X14712490Y-6011410D01*
X14752369Y-6110750D01*
X14785659Y-6195079D01*
X14811308Y-6261748D01*
X14828261Y-6308109D01*
X14835464Y-6331514D01*
X14835639Y-6332889D01*
X14830811Y-6352444D01*
X14816440Y-6394116D01*
X14793739Y-6454967D01*
X14763925Y-6532060D01*
X14728210Y-6622459D01*
X14687811Y-6723227D01*
X14643941Y-6831426D01*
X14597817Y-6944120D01*
X14550651Y-7058371D01*
X14503660Y-7171244D01*
X14458058Y-7279800D01*
X14415059Y-7381104D01*
X14375879Y-7472217D01*
X14341732Y-7550204D01*
X14313833Y-7612127D01*
X14293396Y-7655049D01*
X14281637Y-7676034D01*
X14279483Y-7677519D01*
X14271798Y-7662153D01*
X14254788Y-7623945D01*
X14229845Y-7566162D01*
X14198363Y-7492068D01*
X14161734Y-7404929D01*
X14121351Y-7308013D01*
X14103211Y-7264222D01*
X14060670Y-7161404D01*
X14020532Y-7064500D01*
X13984362Y-6977279D01*
X13953725Y-6903514D01*
X13930188Y-6846976D01*
X13915314Y-6811435D01*
X13912452Y-6804670D01*
X13887998Y-6747284D01*
X14358843Y-6551579D01*
X14466498Y-6506639D01*
X14565220Y-6465057D01*
X14652144Y-6428067D01*
X14724405Y-6396905D01*
X14779137Y-6372806D01*
X14813475Y-6357007D01*
X14824570Y-6350755D01*
X14810833Y-6354800D01*
X14774042Y-6368583D01*
X14717163Y-6390916D01*
X14643165Y-6420608D01*
X14555012Y-6456471D01*
X14455672Y-6497315D01*
X14357547Y-6538018D01*
X14250311Y-6582227D01*
X14151230Y-6622202D01*
X14063322Y-6656793D01*
X13989601Y-6684849D01*
X13933085Y-6705222D01*
X13896788Y-6716760D01*
X13883875Y-6718616D01*
X13874451Y-6701891D01*
X13856689Y-6664100D01*
X13832876Y-6610325D01*
X13805298Y-6545647D01*
X13796015Y-6523389D01*
X13719922Y-6339944D01*
X13700711Y-6339944D01*
X13701352Y-6340588D01*
X13475556Y-6565060D01*
X13475556Y-6343141D01*
X13456757Y-6343141D01*
X13454301Y-6417189D01*
X13425576Y-6530681D01*
X13373557Y-6636128D01*
X13351124Y-6664500D01*
X13374764Y-6664500D01*
X13411049Y-6595371D01*
X13431798Y-6552667D01*
X13445968Y-6517531D01*
X13449592Y-6503648D01*
X13452411Y-6500415D01*
X13456584Y-6520622D01*
X13457705Y-6529115D01*
X13457413Y-6565179D01*
X13442553Y-6595235D01*
X13419162Y-6620837D01*
X13374764Y-6664500D01*
X13351124Y-6664500D01*
X13299779Y-6729435D01*
X13205779Y-6806506D01*
X13200389Y-6809979D01*
X13092262Y-6863318D01*
X12979779Y-6890914D01*
X12866457Y-6894123D01*
X12755813Y-6874303D01*
X12651363Y-6832813D01*
X12556625Y-6771010D01*
X12475116Y-6690252D01*
X12410352Y-6591896D01*
X12369179Y-6489078D01*
X12348994Y-6372723D01*
X12332556Y-6372723D01*
X12332556Y-6531332D01*
X12347661Y-6531332D01*
X12348655Y-6481056D01*
X12367626Y-6532635D01*
X12387602Y-6579206D01*
X12410293Y-6622110D01*
X12411677Y-6624357D01*
X12436759Y-6664500D01*
X12391713Y-6623054D01*
X12360356Y-6587353D01*
X12348370Y-6551030D01*
X12347661Y-6531332D01*
X12332556Y-6531332D01*
X12332556Y-6565060D01*
X12219657Y-6452824D01*
X12106759Y-6340588D01*
X12087922Y-6340588D01*
X12012141Y-6523359D01*
X11983870Y-6590434D01*
X11958649Y-6648216D01*
X11938759Y-6691629D01*
X11926479Y-6715601D01*
X11924523Y-6718344D01*
X11909268Y-6715796D01*
X11871040Y-6703393D01*
X11812853Y-6682284D01*
X11737722Y-6653617D01*
X11648663Y-6618539D01*
X11548690Y-6578201D01*
X11450716Y-6537866D01*
X11343683Y-6493593D01*
X11245128Y-6453204D01*
X11158016Y-6417887D01*
X11085316Y-6388829D01*
X11029995Y-6367215D01*
X10995019Y-6354234D01*
X10983367Y-6350930D01*
X10994732Y-6357299D01*
X11029332Y-6373170D01*
X11084301Y-6397309D01*
X11156772Y-6428485D01*
X11243878Y-6465463D01*
X11342754Y-6507010D01*
X11449303Y-6551384D01*
X11884800Y-6731983D01*
X11950394Y-6731983D01*
X11955341Y-6704380D01*
X11970803Y-6658376D01*
X11997688Y-6590885D01*
X12005579Y-6572005D01*
X12032696Y-6507305D01*
X12056510Y-6450044D01*
X12074473Y-6406377D01*
X12084039Y-6382458D01*
X12084107Y-6382278D01*
X12090346Y-6378265D01*
X12101293Y-6390379D01*
X12118060Y-6420807D01*
X12141764Y-6471733D01*
X12173519Y-6545343D01*
X12201363Y-6612086D01*
X12233598Y-6691452D01*
X12261069Y-6761782D01*
X12282275Y-6819001D01*
X12295712Y-6859034D01*
X12299880Y-6877804D01*
X12299589Y-6878559D01*
X12284850Y-6876169D01*
X12250128Y-6865046D01*
X12201401Y-6847521D01*
X12144648Y-6825923D01*
X12085849Y-6802584D01*
X12030983Y-6779834D01*
X11986029Y-6760003D01*
X11956967Y-6745422D01*
X11955057Y-6744275D01*
X11950394Y-6731983D01*
X11884800Y-6731983D01*
X11920352Y-6746726D01*
X11895779Y-6804391D01*
X11884265Y-6831791D01*
X11863543Y-6881502D01*
X11835179Y-6949748D01*
X11800739Y-7032756D01*
X11761790Y-7126751D01*
X11719899Y-7227960D01*
X11704900Y-7264222D01*
X11663333Y-7364334D01*
X11624923Y-7456070D01*
X11591060Y-7536163D01*
X11563140Y-7601349D01*
X11542554Y-7648360D01*
X11530695Y-7673931D01*
X11528628Y-7677519D01*
X11521241Y-7667543D01*
X11504621Y-7634285D01*
X11479983Y-7580685D01*
X11448541Y-7509678D01*
X11411511Y-7424201D01*
X11370108Y-7327192D01*
X11325545Y-7221587D01*
X11279038Y-7110323D01*
X11231802Y-6996338D01*
X11185051Y-6882567D01*
X11139999Y-6771949D01*
X11097863Y-6667419D01*
X11059856Y-6571916D01*
X11027193Y-6488375D01*
X11001089Y-6419734D01*
X10982759Y-6368929D01*
X10973417Y-6338898D01*
X10972472Y-6332889D01*
X10978110Y-6313186D01*
X10993656Y-6270126D01*
X11018057Y-6206358D01*
X11050260Y-6124529D01*
X11089210Y-6027289D01*
X11133854Y-5917286D01*
X11183137Y-5797169D01*
X11236007Y-5669586D01*
X11244247Y-5649812D01*
X11297186Y-5522527D01*
X11346493Y-5403326D01*
X11391154Y-5294706D01*
X11430157Y-5199160D01*
X11462489Y-5119184D01*
X11487136Y-5057273D01*
X11503086Y-5015921D01*
X11509325Y-4997623D01*
X11509329Y-4996958D01*
X11503110Y-5008586D01*
X11487169Y-5043868D01*
X11462543Y-5100366D01*
X11430270Y-5175643D01*
X11391388Y-5267263D01*
X11346933Y-5372789D01*
X11297944Y-5489784D01*
X11245459Y-5615810D01*
X11231978Y-5648285D01*
X11178671Y-5776383D01*
X11128483Y-5896209D01*
X11082469Y-6005302D01*
X11041681Y-6101201D01*
X11007174Y-6181444D01*
X10980000Y-6243571D01*
X10961214Y-6285119D01*
X10951870Y-6303628D01*
X10951146Y-6304368D01*
X10943961Y-6291732D01*
X10927348Y-6255936D01*
X10902586Y-6199935D01*
X10870952Y-6126681D01*
X10833722Y-6039130D01*
X10792174Y-5940236D01*
X10753001Y-5846043D01*
X10708860Y-5739894D01*
X10668076Y-5642728D01*
X10631896Y-5557454D01*
X10601571Y-5486978D01*
X10578351Y-5434206D01*
X10563485Y-5402047D01*
X10558291Y-5393116D01*
X10562348Y-5406845D01*
X10576153Y-5443632D01*
X10598518Y-5500516D01*
X10628256Y-5574539D01*
X10664178Y-5662740D01*
X10705095Y-5762160D01*
X10746560Y-5862024D01*
X10791286Y-5969697D01*
X10832346Y-6069308D01*
X10868512Y-6157820D01*
X10898559Y-6232196D01*
X10921257Y-6289399D01*
X10935379Y-6326392D01*
X10939743Y-6339944D01*
X10934417Y-6358444D01*
X10919605Y-6398375D01*
X10896791Y-6456247D01*
X10867459Y-6528568D01*
X10833095Y-6611847D01*
X10795182Y-6702592D01*
X10755206Y-6797313D01*
X10714650Y-6892517D01*
X10675000Y-6984715D01*
X10637741Y-7070413D01*
X10604356Y-7146122D01*
X10576330Y-7208349D01*
X10555148Y-7253604D01*
X10542295Y-7278395D01*
X10539168Y-7281966D01*
X10527593Y-7259866D01*
X10511130Y-7215644D01*
X10491326Y-7154655D01*
X10469727Y-7082257D01*
X10447879Y-7003805D01*
X10427328Y-6924658D01*
X10409620Y-6850170D01*
X10396986Y-6789379D01*
X10378813Y-6662001D01*
X10367500Y-6516345D01*
X10363048Y-6361053D01*
X10342889Y-6361053D01*
X10342889Y-7384024D01*
X9820777Y-6862055D01*
X9298666Y-6340087D01*
X9284556Y-6340087D01*
X9284556Y-8887349D01*
X9297377Y-8887349D01*
X9299658Y-7622410D01*
X9301939Y-6357470D01*
X9822520Y-6877874D01*
X10343100Y-7398278D01*
X10343099Y-7398572D01*
X10357000Y-7398572D01*
X10359658Y-6664500D01*
X10386649Y-6809703D01*
X10403221Y-6887703D01*
X10425643Y-6978361D01*
X10450349Y-7067730D01*
X10464198Y-7113092D01*
X10520327Y-7266688D01*
X10535654Y-7301307D01*
X10562908Y-7301307D01*
X10568726Y-7283929D01*
X10583900Y-7244756D01*
X10606929Y-7187365D01*
X10636315Y-7115336D01*
X10670556Y-7032248D01*
X10708151Y-6941679D01*
X10747601Y-6847210D01*
X10787406Y-6752417D01*
X10826064Y-6660881D01*
X10862077Y-6576181D01*
X10893942Y-6501895D01*
X10920161Y-6441603D01*
X10939232Y-6398884D01*
X10949656Y-6377315D01*
X10951044Y-6375409D01*
X10957930Y-6388009D01*
X10974528Y-6424250D01*
X10999790Y-6481685D01*
X11032669Y-6557864D01*
X11072116Y-6650340D01*
X11117082Y-6756663D01*
X11166520Y-6874385D01*
X11219380Y-7001059D01*
X11234920Y-7038444D01*
X11288182Y-7167078D01*
X11337718Y-7287466D01*
X11382545Y-7397167D01*
X11421683Y-7493743D01*
X11454148Y-7574755D01*
X11478961Y-7637764D01*
X11495137Y-7680330D01*
X11501697Y-7700014D01*
X11501654Y-7701094D01*
X11484187Y-7695471D01*
X11444974Y-7680318D01*
X11387553Y-7657142D01*
X11315462Y-7627449D01*
X11232240Y-7592748D01*
X11141424Y-7554544D01*
X11046554Y-7514344D01*
X10951166Y-7473655D01*
X10858800Y-7433985D01*
X10772994Y-7396839D01*
X10697285Y-7363725D01*
X10635212Y-7336149D01*
X10590313Y-7315619D01*
X10566127Y-7303641D01*
X10562908Y-7301307D01*
X10535654Y-7301307D01*
X10545139Y-7322729D01*
X10555038Y-7322729D01*
X10692380Y-7380259D01*
X10744224Y-7401923D01*
X10816686Y-7432128D01*
X10904315Y-7468606D01*
X11001659Y-7509088D01*
X11103267Y-7551305D01*
X11174577Y-7580911D01*
X11489310Y-7711530D01*
X11529772Y-7711530D01*
X11531816Y-7707268D01*
X11538896Y-7691666D01*
X11555494Y-7653017D01*
X11580335Y-7594350D01*
X11612145Y-7518696D01*
X11649650Y-7429085D01*
X11691576Y-7328546D01*
X11733025Y-7228838D01*
X11777735Y-7121308D01*
X11819062Y-7022261D01*
X11855757Y-6934661D01*
X11886572Y-6861473D01*
X11910258Y-6805662D01*
X11925569Y-6770194D01*
X11931201Y-6758060D01*
X11945255Y-6761300D01*
X11980384Y-6773805D01*
X12031721Y-6793731D01*
X12094398Y-6819231D01*
X12113773Y-6827309D01*
X12192495Y-6859265D01*
X12248678Y-6879484D01*
X12285054Y-6888797D01*
X12304350Y-6888037D01*
X12306955Y-6886245D01*
X12309608Y-6871829D01*
X12303116Y-6840961D01*
X12286718Y-6791298D01*
X12259652Y-6720497D01*
X12227136Y-6640607D01*
X12195696Y-6564552D01*
X12167761Y-6496637D01*
X12145245Y-6441539D01*
X12130059Y-6403932D01*
X12124384Y-6389333D01*
X12130546Y-6389769D01*
X12152914Y-6407138D01*
X12187807Y-6438346D01*
X12224769Y-6473647D01*
X12332556Y-6579127D01*
X12332556Y-6730342D01*
X12331078Y-6805190D01*
X12326824Y-6858405D01*
X12320058Y-6887244D01*
X12316938Y-6891209D01*
X12313686Y-6897333D01*
X12346667Y-6897333D01*
X12346667Y-6594449D01*
X12494833Y-6742111D01*
X12546751Y-6794093D01*
X12559747Y-6807241D01*
X12579500Y-6807241D01*
X12619643Y-6832323D01*
X12661503Y-6854817D01*
X12708517Y-6875311D01*
X12711365Y-6876374D01*
X12762944Y-6895345D01*
X13045167Y-6895345D01*
X13098257Y-6875851D01*
X13141647Y-6857255D01*
X13178590Y-6837158D01*
X13182536Y-6834512D01*
X13211317Y-6816133D01*
X13218780Y-6816247D01*
X13204925Y-6834854D01*
X13186278Y-6855000D01*
X13148447Y-6885646D01*
X13107991Y-6896160D01*
X13095443Y-6896339D01*
X13045167Y-6895345D01*
X12762944Y-6895345D01*
X12712668Y-6896339D01*
X12671975Y-6891005D01*
X12637570Y-6869023D01*
X12620946Y-6852287D01*
X12579500Y-6807241D01*
X12559747Y-6807241D01*
X12590723Y-6838579D01*
X12623260Y-6872002D01*
X12640872Y-6890794D01*
X12643000Y-6893553D01*
X12629861Y-6895105D01*
X12594330Y-6896348D01*
X12542237Y-6897134D01*
X12494833Y-6897333D01*
X13158560Y-6897333D01*
X13306222Y-6749167D01*
X13358204Y-6697249D01*
X13402690Y-6653277D01*
X13436113Y-6620740D01*
X13454905Y-6603128D01*
X13457664Y-6601000D01*
X13459216Y-6614139D01*
X13460459Y-6649670D01*
X13461245Y-6701763D01*
X13461444Y-6749167D01*
X13461444Y-6897333D01*
X13158560Y-6897333D01*
X12494833Y-6897333D01*
X12346667Y-6897333D01*
X12313686Y-6897333D01*
X12309882Y-6904493D01*
X12315127Y-6909681D01*
X12323298Y-6922505D01*
X12355607Y-6922505D01*
X12371676Y-6917986D01*
X12409841Y-6914359D01*
X12463978Y-6912052D01*
X12513658Y-6911444D01*
X12664873Y-6911444D01*
X12678940Y-6911444D01*
X12900859Y-6911444D01*
X12976397Y-6911676D01*
X13040900Y-6912316D01*
X13089604Y-6913280D01*
X13117745Y-6914487D01*
X13122778Y-6915303D01*
X13113410Y-6926173D01*
X13088019Y-6952670D01*
X13050677Y-6990605D01*
X13013095Y-7028202D01*
X12917626Y-7123111D01*
X12940837Y-7123111D01*
X12946824Y-7113861D01*
X12969122Y-7088823D01*
X13003989Y-7052071D01*
X13038111Y-7017278D01*
X13143238Y-6911444D01*
X13294453Y-6911444D01*
X13356836Y-6912416D01*
X13408050Y-6915043D01*
X13441972Y-6918899D01*
X13452504Y-6922505D01*
X13449330Y-6937693D01*
X13437431Y-6973086D01*
X13419096Y-7022904D01*
X13396616Y-7081369D01*
X13372280Y-7142701D01*
X13348378Y-7201122D01*
X13327201Y-7250852D01*
X13311038Y-7286112D01*
X13302623Y-7300747D01*
X13288328Y-7297673D01*
X13253259Y-7285345D01*
X13202556Y-7265686D01*
X13141358Y-7240621D01*
X13135901Y-7238330D01*
X13071241Y-7211228D01*
X13014019Y-7187424D01*
X12970397Y-7169469D01*
X12946535Y-7159914D01*
X12946389Y-7159859D01*
X12942527Y-7153665D01*
X12954654Y-7142732D01*
X12984929Y-7125964D01*
X13035509Y-7102264D01*
X13108554Y-7070535D01*
X13186278Y-7037944D01*
X13265585Y-7004709D01*
X13334121Y-6975379D01*
X13388316Y-6951535D01*
X13424600Y-6934756D01*
X13439400Y-6926621D01*
X13439127Y-6926103D01*
X13421759Y-6931123D01*
X13382819Y-6945402D01*
X13326734Y-6967221D01*
X13257930Y-6994859D01*
X13186278Y-7024333D01*
X13110207Y-7055789D01*
X13043357Y-7083108D01*
X12989988Y-7104575D01*
X12954360Y-7118476D01*
X12940837Y-7123111D01*
X12917626Y-7123111D01*
X12903412Y-7137241D01*
X12791176Y-7024343D01*
X12678940Y-6911444D01*
X12664873Y-6911444D01*
X12770000Y-7017278D01*
X12812175Y-7060427D01*
X12844751Y-7095092D01*
X12863985Y-7117201D01*
X12867274Y-7123111D01*
X12852348Y-7117946D01*
X12815652Y-7103592D01*
X12761444Y-7081765D01*
X12693986Y-7054178D01*
X12621833Y-7024333D01*
X12545164Y-6992820D01*
X12477089Y-6965525D01*
X12422035Y-6944167D01*
X12384428Y-6930465D01*
X12368984Y-6926103D01*
X12376694Y-6931357D01*
X12406951Y-6945726D01*
X12456184Y-6967631D01*
X12520822Y-6995492D01*
X12597294Y-7027729D01*
X12621833Y-7037944D01*
X12714802Y-7077035D01*
X12783545Y-7107201D01*
X12830222Y-7129542D01*
X12856991Y-7145152D01*
X12866010Y-7155129D01*
X12861722Y-7159859D01*
X12838145Y-7169293D01*
X12794730Y-7187159D01*
X12737640Y-7210906D01*
X12673034Y-7237983D01*
X12672210Y-7238330D01*
X12610365Y-7263761D01*
X12558582Y-7283948D01*
X12522001Y-7296967D01*
X12505763Y-7300892D01*
X12505488Y-7300747D01*
X12495869Y-7283652D01*
X12479154Y-7246834D01*
X12457634Y-7196073D01*
X12433598Y-7137148D01*
X12409336Y-7075838D01*
X12387139Y-7017922D01*
X12369296Y-6969178D01*
X12358096Y-6935387D01*
X12355607Y-6922505D01*
X12323298Y-6922505D01*
X12324692Y-6924692D01*
X12341999Y-6959800D01*
X12364741Y-7009549D01*
X12390606Y-7068484D01*
X12417286Y-7131148D01*
X12442471Y-7192087D01*
X12463851Y-7245845D01*
X12479117Y-7286966D01*
X12485959Y-7309995D01*
X12485831Y-7312908D01*
X12472071Y-7319241D01*
X12435197Y-7335117D01*
X12378174Y-7359290D01*
X12303967Y-7390512D01*
X12215538Y-7427536D01*
X12115854Y-7469114D01*
X12015162Y-7510975D01*
X11907236Y-7555846D01*
X11807446Y-7597471D01*
X11718821Y-7634575D01*
X11644391Y-7665884D01*
X11587186Y-7690124D01*
X11550236Y-7706021D01*
X11536732Y-7712184D01*
X11529772Y-7711530D01*
X11489310Y-7711530D01*
X11519432Y-7724031D01*
X11524347Y-7735820D01*
X11555528Y-7735820D01*
X11557400Y-7724593D01*
X11558934Y-7722642D01*
X11576247Y-7713083D01*
X11616340Y-7694325D01*
X11675862Y-7667831D01*
X11751463Y-7635064D01*
X11839791Y-7597484D01*
X11937494Y-7556556D01*
X11979778Y-7539025D01*
X12082616Y-7496494D01*
X12179556Y-7456358D01*
X12266822Y-7420184D01*
X12340641Y-7389536D01*
X12397237Y-7365982D01*
X12432836Y-7351087D01*
X12439609Y-7348221D01*
X12497274Y-7323648D01*
X12692616Y-7794697D01*
X12737470Y-7902394D01*
X12778973Y-8001155D01*
X12815894Y-8088115D01*
X12846998Y-8160408D01*
X12871053Y-8215167D01*
X12886826Y-8249526D01*
X12893070Y-8260633D01*
X12889035Y-8246893D01*
X12875281Y-8210090D01*
X12852995Y-8153191D01*
X12823364Y-8079163D01*
X12787574Y-7990974D01*
X12746813Y-7891591D01*
X12706134Y-7793284D01*
X12662004Y-7685997D01*
X12622090Y-7586878D01*
X12587540Y-7498942D01*
X12559502Y-7425205D01*
X12539125Y-7368681D01*
X12527557Y-7332386D01*
X12525656Y-7319477D01*
X12542302Y-7310128D01*
X12580020Y-7292435D01*
X12633736Y-7268679D01*
X12698378Y-7241139D01*
X12720641Y-7231859D01*
X12904056Y-7155811D01*
X13087500Y-7231904D01*
X13154575Y-7260185D01*
X13212355Y-7285408D01*
X13255767Y-7305295D01*
X13270298Y-7312734D01*
X13322280Y-7312734D01*
X13325137Y-7298445D01*
X13337333Y-7263903D01*
X13356559Y-7214557D01*
X13380506Y-7155860D01*
X13406865Y-7093263D01*
X13433328Y-7032219D01*
X13457585Y-6978178D01*
X13477327Y-6936594D01*
X13490245Y-6912916D01*
X13492984Y-6909681D01*
X13497468Y-6896723D01*
X13491173Y-6891209D01*
X13483530Y-6872187D01*
X13478302Y-6827801D01*
X13475761Y-6760830D01*
X13475556Y-6731027D01*
X13475556Y-6580497D01*
X13577098Y-6478272D01*
X13619704Y-6436153D01*
X13654380Y-6403332D01*
X13676785Y-6383829D01*
X13682869Y-6380277D01*
X13679063Y-6393991D01*
X13665932Y-6429599D01*
X13645087Y-6482978D01*
X13618139Y-6550004D01*
X13586699Y-6626554D01*
X13586291Y-6627539D01*
X13548266Y-6720991D01*
X13521479Y-6791230D01*
X13505163Y-6840584D01*
X13498550Y-6871382D01*
X13499706Y-6878631D01*
X13508594Y-6878631D01*
X13511120Y-6863611D01*
X13523097Y-6826704D01*
X13543020Y-6772032D01*
X13569380Y-6703713D01*
X13600671Y-6625870D01*
X13604306Y-6617005D01*
X13636644Y-6539291D01*
X13665489Y-6471812D01*
X13689126Y-6418432D01*
X13705839Y-6383013D01*
X13713913Y-6369419D01*
X13714228Y-6369445D01*
X13721511Y-6383855D01*
X13737442Y-6419432D01*
X13759878Y-6471270D01*
X13786673Y-6534460D01*
X13795057Y-6554457D01*
X13826708Y-6632433D01*
X13846772Y-6687780D01*
X13856076Y-6723216D01*
X13855447Y-6741458D01*
X13852841Y-6744407D01*
X13825961Y-6758209D01*
X13782519Y-6777534D01*
X13728498Y-6800050D01*
X13669879Y-6823424D01*
X13612643Y-6845325D01*
X13562772Y-6863420D01*
X13526247Y-6875378D01*
X13509049Y-6878865D01*
X13508594Y-6878631D01*
X13499706Y-6878631D01*
X13500874Y-6885952D01*
X13501085Y-6886174D01*
X13516143Y-6889556D01*
X13547259Y-6883207D01*
X13597233Y-6866273D01*
X13668868Y-6837901D01*
X13694338Y-6827309D01*
X13759369Y-6800552D01*
X13814454Y-6778840D01*
X13854727Y-6764018D01*
X13875320Y-6757933D01*
X13876910Y-6758060D01*
X13883268Y-6771846D01*
X13899169Y-6808745D01*
X13923363Y-6865792D01*
X13954604Y-6940020D01*
X13991642Y-7028466D01*
X14033230Y-7128163D01*
X14075086Y-7228838D01*
X14119890Y-7336635D01*
X14161380Y-7436191D01*
X14198292Y-7524495D01*
X14229364Y-7598537D01*
X14253333Y-7655309D01*
X14268936Y-7691802D01*
X14273189Y-7701254D01*
X14306457Y-7701254D01*
X14310005Y-7688724D01*
X14323459Y-7652597D01*
X14345837Y-7595312D01*
X14376157Y-7519309D01*
X14413438Y-7427030D01*
X14456698Y-7320912D01*
X14504954Y-7203397D01*
X14557224Y-7076924D01*
X14573191Y-7038444D01*
X14626834Y-6909669D01*
X14677354Y-6789147D01*
X14723701Y-6679327D01*
X14764827Y-6582657D01*
X14799683Y-6501586D01*
X14827223Y-6438561D01*
X14846396Y-6396033D01*
X14856155Y-6376448D01*
X14857067Y-6375409D01*
X14864225Y-6388020D01*
X14880802Y-6423793D01*
X14905522Y-6479773D01*
X14937108Y-6553003D01*
X14974285Y-6640530D01*
X15015776Y-6739397D01*
X15054703Y-6833095D01*
X15098736Y-6939946D01*
X15139086Y-7038591D01*
X15174532Y-7125987D01*
X15203852Y-7199093D01*
X15225826Y-7254865D01*
X15239231Y-7290261D01*
X15242975Y-7302102D01*
X15230374Y-7309294D01*
X15195266Y-7325807D01*
X15141205Y-7350129D01*
X15071744Y-7380744D01*
X14990434Y-7416138D01*
X14900830Y-7454798D01*
X14806484Y-7495208D01*
X14710948Y-7535856D01*
X14617775Y-7575225D01*
X14530519Y-7611803D01*
X14452732Y-7644075D01*
X14387966Y-7670527D01*
X14339775Y-7689645D01*
X14311711Y-7699913D01*
X14306457Y-7701254D01*
X14273189Y-7701254D01*
X14274826Y-7704891D01*
X14267040Y-7705819D01*
X14240118Y-7697081D01*
X14213610Y-7686364D01*
X14183734Y-7673731D01*
X14131629Y-7651885D01*
X14061133Y-7622428D01*
X13976087Y-7586962D01*
X13880329Y-7547089D01*
X13777698Y-7504412D01*
X13736649Y-7487357D01*
X13636040Y-7445492D01*
X13544084Y-7407079D01*
X13463947Y-7373454D01*
X13398798Y-7345950D01*
X13351803Y-7325903D01*
X13326131Y-7314648D01*
X13322280Y-7312734D01*
X13270298Y-7312734D01*
X13279739Y-7317567D01*
X13282485Y-7319522D01*
X13279930Y-7334766D01*
X13267521Y-7372985D01*
X13246407Y-7431162D01*
X13217735Y-7506285D01*
X13182655Y-7595338D01*
X13142314Y-7695307D01*
X13101977Y-7793284D01*
X13057704Y-7900317D01*
X13017315Y-7998872D01*
X12981998Y-8085984D01*
X12952940Y-8158684D01*
X12931326Y-8214005D01*
X12918345Y-8248981D01*
X12915041Y-8260633D01*
X12921410Y-8249268D01*
X12937281Y-8214669D01*
X12961420Y-8159702D01*
X12992594Y-8087235D01*
X13029570Y-8000133D01*
X13071114Y-7901265D01*
X13115424Y-7794869D01*
X13310694Y-7323992D01*
X13488375Y-7397845D01*
X13558615Y-7427018D01*
X13647267Y-7463806D01*
X13746666Y-7505028D01*
X13849147Y-7547507D01*
X13947044Y-7588063D01*
X13948278Y-7588574D01*
X14032421Y-7623847D01*
X14108317Y-7656473D01*
X14171860Y-7684621D01*
X14218944Y-7706460D01*
X14245462Y-7720159D01*
X14249177Y-7722740D01*
X14252507Y-7731466D01*
X14250874Y-7748975D01*
X14243426Y-7777610D01*
X14229314Y-7819718D01*
X14207686Y-7877642D01*
X14177692Y-7953728D01*
X14138482Y-8050321D01*
X14089204Y-8169767D01*
X14071997Y-8211209D01*
X14026833Y-8319139D01*
X13984758Y-8418306D01*
X13947046Y-8505809D01*
X13914972Y-8578750D01*
X13889811Y-8634229D01*
X13872838Y-8669347D01*
X13865370Y-8681212D01*
X13848102Y-8675460D01*
X13809020Y-8660333D01*
X13751704Y-8637335D01*
X13679735Y-8607966D01*
X13596690Y-8573728D01*
X13506150Y-8536123D01*
X13411695Y-8496652D01*
X13316904Y-8456818D01*
X13225357Y-8418121D01*
X13140634Y-8382065D01*
X13066313Y-8350149D01*
X13005975Y-8323877D01*
X12963199Y-8304749D01*
X12941566Y-8294267D01*
X12939632Y-8292854D01*
X12952209Y-8285946D01*
X12988421Y-8269343D01*
X13045805Y-8244098D01*
X13121899Y-8211265D01*
X13214244Y-8171897D01*
X13320377Y-8127048D01*
X13437837Y-8077772D01*
X13564163Y-8025121D01*
X13595715Y-8012022D01*
X13723609Y-7958828D01*
X13843079Y-7908872D01*
X13951686Y-7863193D01*
X14046994Y-7822827D01*
X14126565Y-7788812D01*
X14187963Y-7762186D01*
X14228751Y-7743988D01*
X14246492Y-7735253D01*
X14247042Y-7734671D01*
X14233424Y-7738937D01*
X14196273Y-7753097D01*
X14138082Y-7776138D01*
X14061348Y-7807049D01*
X13968567Y-7844817D01*
X13862233Y-7888430D01*
X13744843Y-7936877D01*
X13618892Y-7989145D01*
X13594188Y-7999429D01*
X13465855Y-8052711D01*
X13344751Y-8102665D01*
X13233502Y-8148230D01*
X13134737Y-8188347D01*
X13051082Y-8221953D01*
X12985164Y-8247989D01*
X12939611Y-8265393D01*
X12917049Y-8273104D01*
X12915780Y-8273363D01*
X12897072Y-8268882D01*
X12854954Y-8254462D01*
X12792024Y-8231119D01*
X12710880Y-8199869D01*
X12614120Y-8161730D01*
X12504344Y-8117716D01*
X12384150Y-8068845D01*
X12256136Y-8016132D01*
X12225696Y-8003503D01*
X12097203Y-7950258D01*
X11976780Y-7900624D01*
X11866900Y-7855603D01*
X11770039Y-7816196D01*
X11688671Y-7783403D01*
X11625271Y-7758226D01*
X11582313Y-7741667D01*
X11562272Y-7734726D01*
X11561118Y-7734622D01*
X11572737Y-7740850D01*
X11608009Y-7756800D01*
X11664498Y-7781434D01*
X11739768Y-7813714D01*
X11831382Y-7852602D01*
X11936902Y-7897061D01*
X12053893Y-7946053D01*
X12179917Y-7998539D01*
X12212396Y-8012022D01*
X12340498Y-8065330D01*
X12460332Y-8115519D01*
X12569436Y-8161534D01*
X12665349Y-8202321D01*
X12745608Y-8236829D01*
X12807752Y-8264002D01*
X12849318Y-8282787D01*
X12867846Y-8292131D01*
X12868591Y-8292854D01*
X12856099Y-8299572D01*
X12821082Y-8315514D01*
X12767118Y-8339179D01*
X12697785Y-8369068D01*
X12616662Y-8403678D01*
X12527329Y-8441510D01*
X12433365Y-8481063D01*
X12338347Y-8520837D01*
X12245856Y-8559330D01*
X12159469Y-8595042D01*
X12082767Y-8626472D01*
X12019327Y-8652120D01*
X11972729Y-8670484D01*
X11946551Y-8680065D01*
X11942689Y-8681092D01*
X11935011Y-8668827D01*
X11917894Y-8633351D01*
X11892610Y-8577563D01*
X11860435Y-8504361D01*
X11822643Y-8416644D01*
X11780508Y-8317311D01*
X11736114Y-8211209D01*
X11683601Y-8084341D01*
X11641413Y-7981040D01*
X11608698Y-7898956D01*
X11584603Y-7835741D01*
X11568278Y-7789046D01*
X11558870Y-7756522D01*
X11555528Y-7735820D01*
X11524347Y-7735820D01*
X11719233Y-8203210D01*
X11764533Y-8312213D01*
X11806034Y-8412770D01*
X11842557Y-8501971D01*
X11872923Y-8576909D01*
X11895954Y-8634674D01*
X11910473Y-8672358D01*
X11915301Y-8687052D01*
X11915273Y-8687124D01*
X11900852Y-8684136D01*
X11866792Y-8669029D01*
X11817609Y-8644282D01*
X11757815Y-8612373D01*
X11691928Y-8575781D01*
X11624460Y-8536985D01*
X11559928Y-8498464D01*
X11502845Y-8462696D01*
X11484221Y-8450459D01*
X11271205Y-8291763D01*
X11078801Y-8114236D01*
X10907798Y-7918658D01*
X10803800Y-7775245D01*
X10740586Y-7677071D01*
X10680854Y-7577139D01*
X10628664Y-7482607D01*
X10588073Y-7400630D01*
X10576681Y-7374614D01*
X10555038Y-7322729D01*
X10545139Y-7322729D01*
X10591799Y-7428111D01*
X10673168Y-7586105D01*
X10758987Y-7729412D01*
X10771827Y-7748827D01*
X10808174Y-7803733D01*
X10837887Y-7850005D01*
X10857863Y-7882710D01*
X10865000Y-7896847D01*
X10855495Y-7889825D01*
X10828736Y-7865315D01*
X10787358Y-7825855D01*
X10733994Y-7773979D01*
X10671278Y-7712225D01*
X10611000Y-7652278D01*
X10357000Y-7398572D01*
X10343099Y-7398572D01*
X10339467Y-8139111D01*
X10335833Y-8879944D01*
X9816605Y-8883647D01*
X9346327Y-8887000D01*
X10357000Y-8887000D01*
X10357000Y-7412683D01*
X10611000Y-7666389D01*
X10679678Y-7734532D01*
X10741312Y-7794816D01*
X10793276Y-7844740D01*
X10832939Y-7881804D01*
X10857672Y-7903508D01*
X10865000Y-7907931D01*
X10873604Y-7905270D01*
X10886011Y-7913204D01*
X10900673Y-7931942D01*
X10900886Y-7940571D01*
X10908549Y-7953059D01*
X10933482Y-7982200D01*
X10972805Y-8024888D01*
X11023638Y-8078015D01*
X11083104Y-8138473D01*
X11098597Y-8153985D01*
X11159792Y-8214581D01*
X11213640Y-8266967D01*
X11257206Y-8308366D01*
X11287557Y-8336000D01*
X11301759Y-8347093D01*
X11302444Y-8346910D01*
X11312872Y-8349673D01*
X11340682Y-8366157D01*
X11380669Y-8393170D01*
X11397694Y-8405329D01*
X11620695Y-8550655D01*
X11854694Y-8672195D01*
X11936620Y-8704846D01*
X11962048Y-8704846D01*
X11972137Y-8697383D01*
X12005540Y-8680494D01*
X12059446Y-8655433D01*
X12131046Y-8623453D01*
X12217530Y-8585810D01*
X12316088Y-8543758D01*
X12423910Y-8498550D01*
X12427715Y-8496969D01*
X12904056Y-8299031D01*
X13080444Y-8372266D01*
X13148281Y-8400440D01*
X13235051Y-8436492D01*
X13333634Y-8477461D01*
X13436904Y-8520388D01*
X13537738Y-8562311D01*
X13556766Y-8570223D01*
X13641432Y-8606022D01*
X13715924Y-8638659D01*
X13776758Y-8666513D01*
X13818100Y-8686808D01*
X13892523Y-8686808D01*
X13896976Y-8673244D01*
X13911165Y-8636563D01*
X13933907Y-8579672D01*
X13964024Y-8505480D01*
X14000333Y-8416894D01*
X14041655Y-8316824D01*
X14086808Y-8208177D01*
X14088639Y-8203784D01*
X14288202Y-7725179D01*
X14767351Y-7525001D01*
X14876323Y-7479616D01*
X14976836Y-7438024D01*
X15065986Y-7401407D01*
X15140867Y-7370945D01*
X15198575Y-7347822D01*
X15236204Y-7333218D01*
X15250848Y-7328315D01*
X15250919Y-7328341D01*
X15246976Y-7341587D01*
X15232743Y-7374248D01*
X15210786Y-7420612D01*
X15196420Y-7449734D01*
X15061410Y-7690193D01*
X14922363Y-7888229D01*
X14945896Y-7888229D01*
X14948391Y-7878487D01*
X14967811Y-7850270D01*
X14981028Y-7832845D01*
X15073595Y-7698455D01*
X15161912Y-7542880D01*
X15242974Y-7373127D01*
X15313776Y-7196208D01*
X15371310Y-7019129D01*
X15412572Y-6848902D01*
X15419701Y-6809950D01*
X15444056Y-6667012D01*
X15451600Y-7397502D01*
X15450430Y-7398674D01*
X15464967Y-7398674D01*
X15983606Y-6879893D01*
X16083285Y-6780221D01*
X16176738Y-6686841D01*
X16262105Y-6601605D01*
X16337527Y-6526370D01*
X16401142Y-6462988D01*
X16451092Y-6413313D01*
X16485515Y-6379201D01*
X16502552Y-6362504D01*
X16504078Y-6361111D01*
X16504375Y-6374889D01*
X16504712Y-6414893D01*
X16505080Y-6479125D01*
X16505475Y-6565589D01*
X16505888Y-6672288D01*
X16506313Y-6797225D01*
X16506744Y-6938404D01*
X16507173Y-7093826D01*
X16507594Y-7261497D01*
X16507999Y-7439418D01*
X16508380Y-7624230D01*
X16510850Y-8887349D01*
X15991564Y-8883647D01*
X15472278Y-8879944D01*
X15468622Y-8139309D01*
X15464967Y-7398674D01*
X15450430Y-7398674D01*
X15201545Y-7647847D01*
X15113307Y-7735609D01*
X15044030Y-7803186D01*
X14993308Y-7850921D01*
X14960733Y-7879155D01*
X14945896Y-7888229D01*
X14922363Y-7888229D01*
X14906812Y-7910376D01*
X14732346Y-8110584D01*
X14537737Y-8291123D01*
X14322707Y-8452295D01*
X14219966Y-8518122D01*
X14170801Y-8546997D01*
X14113725Y-8578802D01*
X14053988Y-8610833D01*
X13996839Y-8640385D01*
X13947529Y-8664754D01*
X13911307Y-8681234D01*
X13893423Y-8687122D01*
X13892523Y-8686808D01*
X13818100Y-8686808D01*
X13820449Y-8687961D01*
X13843512Y-8701381D01*
X13846044Y-8704865D01*
X13823955Y-8716429D01*
X13779744Y-8732882D01*
X13718768Y-8752677D01*
X13646385Y-8774268D01*
X13567951Y-8796110D01*
X13488823Y-8816657D01*
X13414359Y-8834361D01*
X13353490Y-8847014D01*
X13226112Y-8865187D01*
X13080456Y-8876500D01*
X12925164Y-8880952D01*
X12768876Y-8878539D01*
X12620235Y-8869259D01*
X12487883Y-8853109D01*
X12454621Y-8847299D01*
X12389262Y-8833545D01*
X12314271Y-8815522D01*
X12234995Y-8794776D01*
X12156783Y-8772853D01*
X12084983Y-8751300D01*
X12024943Y-8731665D01*
X11982010Y-8715492D01*
X11962048Y-8704846D01*
X11936620Y-8704846D01*
X12096676Y-8768635D01*
X12343622Y-8838658D01*
X12433558Y-8857221D01*
X12579500Y-8884342D01*
X13228611Y-8884342D01*
X13374553Y-8857221D01*
X13622552Y-8797074D01*
X13866677Y-8710035D01*
X14103911Y-8597420D01*
X14331237Y-8460543D01*
X14410417Y-8405329D01*
X14453619Y-8375200D01*
X14486593Y-8354403D01*
X14504132Y-8346135D01*
X14505667Y-8346910D01*
X14515108Y-8340654D01*
X14541476Y-8317120D01*
X14581839Y-8279085D01*
X14633266Y-8229323D01*
X14692823Y-8170609D01*
X14709781Y-8153719D01*
X14770885Y-8092125D01*
X14824056Y-8037378D01*
X14866431Y-7992523D01*
X14895145Y-7960604D01*
X14907335Y-7944668D01*
X14907459Y-7943533D01*
X14908822Y-7929331D01*
X14923088Y-7912362D01*
X14939180Y-7904736D01*
X14942108Y-7905658D01*
X14954376Y-7897793D01*
X14983639Y-7872448D01*
X15027092Y-7832253D01*
X15081932Y-7779841D01*
X15145353Y-7717842D01*
X15197886Y-7665614D01*
X15265734Y-7597824D01*
X15326707Y-7537179D01*
X15378068Y-7486375D01*
X15417081Y-7448113D01*
X15441011Y-7425090D01*
X15447432Y-7419444D01*
X15448139Y-7433119D01*
X15448801Y-7472396D01*
X15449405Y-7534655D01*
X15449938Y-7617277D01*
X15450388Y-7717642D01*
X15450740Y-7833129D01*
X15450982Y-7961120D01*
X15451101Y-8098994D01*
X15451111Y-8153222D01*
X15451111Y-8887000D01*
X13976779Y-8887000D01*
X14244750Y-8615361D01*
X14512722Y-8343722D01*
X13962124Y-8887000D01*
X13595368Y-8885671D01*
X13228611Y-8884342D01*
X12579500Y-8884342D01*
X12212743Y-8885671D01*
X11845987Y-8887000D01*
X11295389Y-8343722D01*
X11563361Y-8615361D01*
X11831332Y-8887000D01*
X10357000Y-8887000D01*
X9346327Y-8887000D01*
X9297377Y-8887349D01*
X9284556Y-8887349D01*
X9284556Y-9945333D01*
X9298667Y-9945333D01*
X9298667Y-8901111D01*
X10342889Y-8901111D01*
X10342889Y-9433274D01*
X10357000Y-9433274D01*
X10357250Y-9315586D01*
X10357962Y-9206884D01*
X10359077Y-9110379D01*
X10360538Y-9029280D01*
X10362288Y-8966795D01*
X10364268Y-8926133D01*
X10366407Y-8910519D01*
X10381928Y-8908711D01*
X10423009Y-8907017D01*
X10486987Y-8905471D01*
X10571199Y-8904107D01*
X10672984Y-8902957D01*
X10789678Y-8902057D01*
X10918620Y-8901438D01*
X11057146Y-8901136D01*
X11110840Y-8901111D01*
X11845865Y-8901111D01*
X11859976Y-8901111D01*
X12900599Y-8901111D01*
X13069182Y-8901159D01*
X13229294Y-8901296D01*
X13378734Y-8901516D01*
X13515302Y-8901811D01*
X13636799Y-8902173D01*
X13741025Y-8902594D01*
X13825779Y-8903068D01*
X13888863Y-8903586D01*
X13928074Y-8904140D01*
X13941222Y-8904710D01*
X13931544Y-8915077D01*
X13903748Y-8943515D01*
X13859687Y-8988154D01*
X13801219Y-9047128D01*
X13730198Y-9118569D01*
X13648480Y-9200610D01*
X13557921Y-9291381D01*
X13460375Y-9389016D01*
X13422568Y-9426822D01*
X12907187Y-9942061D01*
X12921581Y-9942061D01*
X13441985Y-9421480D01*
X13962389Y-8900900D01*
X14703222Y-8904533D01*
X15444056Y-8908167D01*
X15451450Y-9945333D01*
X15465222Y-9945333D01*
X15465222Y-8901111D01*
X16509444Y-8901111D01*
X16509444Y-9945333D01*
X15465222Y-9945333D01*
X15451450Y-9945333D01*
X15451460Y-9946623D01*
X14186521Y-9944342D01*
X12921581Y-9942061D01*
X12907187Y-9942061D01*
X12903913Y-9945334D01*
X12381945Y-9423223D01*
X11859976Y-8901111D01*
X11845865Y-8901111D01*
X12366198Y-9421586D01*
X12886530Y-9942061D01*
X11621765Y-9944342D01*
X10357000Y-9946622D01*
X10357000Y-9433274D01*
X10342889Y-9433274D01*
X10342889Y-9945333D01*
X9298667Y-9945333D01*
X9284556Y-9945333D01*
X9284556Y-9959444D01*
X16523556Y-9959444D01*
X16523556Y-2720444D01*
X16523556Y-2720444D01*
G37*
X16523556Y-2720444D02*
X9284556Y-2720444D01*
X9284556Y-2733266D01*
X10356651Y-2733266D01*
X11621590Y-2735547D01*
X12886530Y-2737828D01*
X12366126Y-3258409D01*
X11845933Y-3778778D01*
X11859976Y-3778778D01*
X12381944Y-3256667D01*
X12481902Y-3156684D01*
X12575584Y-3062984D01*
X12661142Y-2977414D01*
X12736731Y-2901822D01*
X12800501Y-2838053D01*
X12850607Y-2787956D01*
X12885201Y-2753377D01*
X12902436Y-2736165D01*
X12904056Y-2734556D01*
X12907605Y-2738096D01*
X12921849Y-2738096D01*
X14186654Y-2735623D01*
X15451460Y-2733150D01*
X15444056Y-3771722D01*
X14703222Y-3775356D01*
X14005416Y-3778778D01*
X15465222Y-3778778D01*
X15465222Y-2734556D01*
X16509444Y-2734556D01*
X16509444Y-3778778D01*
X15465222Y-3778778D01*
X14005416Y-3778778D01*
X13962389Y-3778989D01*
X13442119Y-3258543D01*
X12921849Y-2738096D01*
X12907605Y-2738096D01*
X12913752Y-2744227D01*
X12941554Y-2772012D01*
X12985615Y-2816061D01*
X13044087Y-2874528D01*
X13115122Y-2945565D01*
X13196875Y-3027327D01*
X13287497Y-3117964D01*
X13385141Y-3215630D01*
X13426167Y-3256667D01*
X13948135Y-3778778D01*
X11859976Y-3778778D01*
X11845933Y-3778778D01*
X11845722Y-3778989D01*
X11104889Y-3775356D01*
X10364056Y-3771722D01*
X10360353Y-3252494D01*
X10356651Y-2733266D01*
X9284556Y-2733266D01*
X9284556Y-3778778D01*
X9298667Y-3778778D01*
X9298667Y-2734556D01*
X10342889Y-2734556D01*
X10342889Y-3778778D01*
X9298667Y-3778778D01*
X9284556Y-3778778D01*
X9284556Y-3792540D01*
X9297377Y-3792540D01*
X9346326Y-3792889D01*
X10357000Y-3792889D01*
X11090778Y-3792889D01*
X13976602Y-3792889D01*
X15451111Y-3792889D01*
X15451111Y-4526667D01*
X15451044Y-4667598D01*
X15450853Y-4799638D01*
X15450549Y-4920167D01*
X15450146Y-5026565D01*
X15449657Y-5116211D01*
X15449094Y-5186487D01*
X15448469Y-5234772D01*
X15447797Y-5258446D01*
X15447532Y-5260444D01*
X15437229Y-5250720D01*
X15408548Y-5222587D01*
X15363056Y-5177603D01*
X15302320Y-5117329D01*
X15227907Y-5043324D01*
X15141383Y-4957146D01*
X15044314Y-4860355D01*
X14938267Y-4754510D01*
X14824810Y-4641171D01*
X14710278Y-4526667D01*
X13976602Y-3792889D01*
X11090778Y-3792889D01*
X11231709Y-3792956D01*
X11363749Y-3793147D01*
X11484278Y-3793451D01*
X11590676Y-3793854D01*
X11680322Y-3794343D01*
X11750598Y-3794906D01*
X11798883Y-3795531D01*
X11822557Y-3796203D01*
X11824556Y-3796468D01*
X11814831Y-3806771D01*
X11786698Y-3835452D01*
X11741714Y-3880944D01*
X11681440Y-3941680D01*
X11607435Y-4016093D01*
X11521257Y-4102617D01*
X11424466Y-4199686D01*
X11328492Y-4295844D01*
X11356717Y-4295844D01*
X11370560Y-4277666D01*
X11402313Y-4242602D01*
X11452650Y-4189891D01*
X11522249Y-4118768D01*
X11569335Y-4071173D01*
X11843282Y-3795060D01*
X13964851Y-3795060D01*
X14217473Y-4047974D01*
X14303688Y-4134828D01*
X14369873Y-4202764D01*
X14416458Y-4252299D01*
X14443875Y-4283953D01*
X14452556Y-4298245D01*
X14442932Y-4295692D01*
X14415433Y-4276814D01*
X14394808Y-4261177D01*
X14283813Y-4183878D01*
X14152439Y-4106406D01*
X14008233Y-4032665D01*
X13858744Y-3966561D01*
X13735902Y-3920237D01*
X13654162Y-3893913D01*
X13566285Y-3868750D01*
X13478374Y-3846189D01*
X13396534Y-3827671D01*
X13326868Y-3814635D01*
X13275482Y-3808523D01*
X13261672Y-3808329D01*
X13260712Y-3811157D01*
X13283422Y-3817808D01*
X13325673Y-3827237D01*
X13373814Y-3836649D01*
X13432912Y-3849121D01*
X13503077Y-3866227D01*
X13578772Y-3886346D01*
X13654459Y-3907855D01*
X13724601Y-3929132D01*
X13783659Y-3948555D01*
X13826096Y-3964502D01*
X13845987Y-3974967D01*
X13835548Y-3981973D01*
X13818317Y-3990444D01*
X13893045Y-3990444D01*
X13907545Y-3996387D01*
X13941607Y-4012427D01*
X13989627Y-4035883D01*
X14028955Y-4055484D01*
X14142112Y-4115264D01*
X14248694Y-4177158D01*
X14341415Y-4236783D01*
X14396055Y-4276276D01*
X14429547Y-4298728D01*
X14454728Y-4309483D01*
X14461484Y-4309087D01*
X14478989Y-4312359D01*
X14493484Y-4325739D01*
X14505376Y-4342138D01*
X14498494Y-4339790D01*
X14484500Y-4329933D01*
X14480915Y-4328900D01*
X14495517Y-4343570D01*
X14525301Y-4371007D01*
X14540944Y-4385036D01*
X14716825Y-4553854D01*
X14874676Y-4730069D01*
X14924799Y-4796119D01*
X14946289Y-4796119D01*
X14948633Y-4793035D01*
X14967264Y-4807338D01*
X15002910Y-4839675D01*
X15056300Y-4890694D01*
X15128163Y-4961042D01*
X15173913Y-5006309D01*
X15451111Y-5281340D01*
X15451110Y-5281754D01*
X15465222Y-5281754D01*
X15465222Y-4546729D01*
X15465398Y-4405304D01*
X15465902Y-4272468D01*
X15466701Y-4150885D01*
X15467761Y-4043216D01*
X15469049Y-3952124D01*
X15470531Y-3880272D01*
X15472174Y-3830323D01*
X15473943Y-3804937D01*
X15474630Y-3802296D01*
X15490425Y-3800144D01*
X15531234Y-3798165D01*
X15593846Y-3796417D01*
X15675052Y-3794958D01*
X15771644Y-3793845D01*
X15880412Y-3793136D01*
X15997385Y-3792889D01*
X16510733Y-3792889D01*
X16508453Y-5057654D01*
X16506172Y-6322419D01*
X15985697Y-5802087D01*
X15465222Y-5281754D01*
X15451110Y-5281754D01*
X15449782Y-5648364D01*
X15448453Y-6015389D01*
X15421332Y-5869447D01*
X15364480Y-5633851D01*
X15282565Y-5398641D01*
X15178191Y-5169763D01*
X15053964Y-4953159D01*
X14959503Y-4815944D01*
X14946289Y-4796119D01*
X14924799Y-4796119D01*
X15010494Y-4909042D01*
X15065755Y-4993077D01*
X15092326Y-5037671D01*
X15123216Y-5092647D01*
X15155759Y-5152842D01*
X15187289Y-5213097D01*
X15215140Y-5268248D01*
X15236647Y-5313135D01*
X15249144Y-5342597D01*
X15250908Y-5351560D01*
X15237351Y-5347111D01*
X15200681Y-5332909D01*
X15143806Y-5310137D01*
X15069630Y-5279977D01*
X14981060Y-5243609D01*
X14881002Y-5202216D01*
X14772362Y-5156981D01*
X14767629Y-5155003D01*
X14288758Y-4954942D01*
X14145280Y-4610276D01*
X14103095Y-4508970D01*
X14061053Y-4408058D01*
X14021427Y-4312995D01*
X13986491Y-4229235D01*
X13958520Y-4162233D01*
X13944219Y-4128028D01*
X13921255Y-4071812D01*
X13903893Y-4026691D01*
X13894117Y-3997996D01*
X13893045Y-3990444D01*
X13818317Y-3990444D01*
X13802496Y-3998221D01*
X13750321Y-4022225D01*
X13682516Y-4052501D01*
X13602570Y-4087564D01*
X13513976Y-4125930D01*
X13420224Y-4166112D01*
X13324806Y-4206627D01*
X13231212Y-4245989D01*
X13142933Y-4282713D01*
X13063462Y-4315316D01*
X12996288Y-4342311D01*
X12944903Y-4362214D01*
X12912799Y-4373540D01*
X12904056Y-4375603D01*
X12885578Y-4370291D01*
X12845665Y-4355490D01*
X12787808Y-4332687D01*
X12715499Y-4303364D01*
X12632229Y-4269007D01*
X12541489Y-4231101D01*
X12446771Y-4191129D01*
X12351565Y-4150576D01*
X12259364Y-4110927D01*
X12173658Y-4073666D01*
X12097939Y-4040277D01*
X12035698Y-4012246D01*
X11990427Y-3991057D01*
X11965617Y-3978193D01*
X11962034Y-3975057D01*
X11983537Y-3963896D01*
X12026933Y-3947718D01*
X12086686Y-3928144D01*
X12157258Y-3906799D01*
X12233114Y-3885304D01*
X12308716Y-3865282D01*
X12378528Y-3848356D01*
X12434297Y-3836649D01*
X12489900Y-3825678D01*
X12529468Y-3816601D01*
X12548872Y-3810460D01*
X12546439Y-3808329D01*
X12503862Y-3811339D01*
X12440616Y-3821839D01*
X12362802Y-3838386D01*
X12276524Y-3859543D01*
X12187885Y-3883867D01*
X12102987Y-3909920D01*
X12072113Y-3920270D01*
X11829108Y-4018475D01*
X11595748Y-4141487D01*
X11380056Y-4284589D01*
X11360108Y-4297897D01*
X11356717Y-4295844D01*
X11328492Y-4295844D01*
X11318621Y-4305733D01*
X11205282Y-4419190D01*
X11090778Y-4533722D01*
X10357000Y-5267398D01*
X10357000Y-3792889D01*
X9346326Y-3792889D01*
X10335833Y-3799944D01*
X10339467Y-4540778D01*
X10343100Y-5281611D01*
X10342835Y-5281876D01*
X10357000Y-5281876D01*
X10628503Y-5010105D01*
X10699944Y-4938728D01*
X10764626Y-4874362D01*
X10819947Y-4819576D01*
X10863306Y-4776936D01*
X10892102Y-4749010D01*
X10903734Y-4738366D01*
X10903827Y-4738333D01*
X10897960Y-4748836D01*
X10879010Y-4776834D01*
X10850579Y-4817059D01*
X10838671Y-4833583D01*
X10693345Y-5056584D01*
X10571805Y-5290583D01*
X10547537Y-5351477D01*
X10557192Y-5351477D01*
X10560712Y-5337758D01*
X10575350Y-5304681D01*
X10598400Y-5257499D01*
X10627158Y-5201460D01*
X10658920Y-5141814D01*
X10690980Y-5083812D01*
X10720635Y-5032703D01*
X10725878Y-5024034D01*
X10864321Y-4819978D01*
X11022063Y-4628519D01*
X11195223Y-4453629D01*
X11379924Y-4299284D01*
X11542333Y-4187683D01*
X11582749Y-4163669D01*
X11635635Y-4133739D01*
X11695589Y-4100771D01*
X11757213Y-4067641D01*
X11815105Y-4037223D01*
X11863865Y-4012394D01*
X11898094Y-3996030D01*
X11911820Y-3990918D01*
X11910716Y-4002775D01*
X11900231Y-4035232D01*
X11882215Y-4082996D01*
X11863892Y-4128028D01*
X11842206Y-4179916D01*
X11811950Y-4252413D01*
X11775396Y-4340069D01*
X11734817Y-4437436D01*
X11692482Y-4539064D01*
X11662672Y-4610661D01*
X11522197Y-4948110D01*
X11554994Y-4948110D01*
X11556278Y-4930668D01*
X11563521Y-4902183D01*
X11577634Y-4860091D01*
X11599525Y-4801827D01*
X11630103Y-4724827D01*
X11670277Y-4626526D01*
X11709461Y-4531969D01*
X11752743Y-4427995D01*
X11793813Y-4329459D01*
X11831068Y-4240193D01*
X11862906Y-4164032D01*
X11887724Y-4104811D01*
X11903923Y-4066364D01*
X11907478Y-4058014D01*
X11935945Y-3991603D01*
X12067222Y-4046804D01*
X12117859Y-4067990D01*
X12189090Y-4097642D01*
X12275414Y-4133479D01*
X12371330Y-4173219D01*
X12471339Y-4214579D01*
X12533512Y-4240253D01*
X12624009Y-4277914D01*
X12705248Y-4312329D01*
X12773772Y-4341984D01*
X12826123Y-4365364D01*
X12858842Y-4380956D01*
X12868486Y-4386933D01*
X12939660Y-4386933D01*
X12952289Y-4379120D01*
X12987558Y-4362380D01*
X13041872Y-4338191D01*
X13111639Y-4308034D01*
X13193263Y-4273385D01*
X13283152Y-4235724D01*
X13377709Y-4196529D01*
X13473343Y-4157279D01*
X13566458Y-4119452D01*
X13653460Y-4084527D01*
X13730756Y-4053982D01*
X13794752Y-4029297D01*
X13841852Y-4011949D01*
X13868464Y-4003417D01*
X13873016Y-4002959D01*
X13880440Y-4017570D01*
X13897350Y-4055255D01*
X13922455Y-4113002D01*
X13954466Y-4187799D01*
X13992094Y-4276635D01*
X14034049Y-4376499D01*
X14074100Y-4472494D01*
X14118516Y-4579467D01*
X14159293Y-4678013D01*
X14195206Y-4765146D01*
X14225030Y-4837881D01*
X14247541Y-4893232D01*
X14261514Y-4928213D01*
X14265778Y-4939814D01*
X14253163Y-4935824D01*
X14216947Y-4921952D01*
X14159573Y-4899190D01*
X14083484Y-4868528D01*
X13991123Y-4830956D01*
X13884932Y-4787466D01*
X13767354Y-4739049D01*
X13640833Y-4686696D01*
X13602556Y-4670809D01*
X13473785Y-4617167D01*
X13353273Y-4566648D01*
X13243467Y-4520302D01*
X13146814Y-4479176D01*
X13065762Y-4444320D01*
X13002759Y-4416780D01*
X12960253Y-4397606D01*
X12940692Y-4387845D01*
X12939660Y-4386933D01*
X12868486Y-4386933D01*
X12868651Y-4387035D01*
X12856039Y-4393943D01*
X12819795Y-4410547D01*
X12762380Y-4435793D01*
X12686256Y-4468628D01*
X12593887Y-4507997D01*
X12487733Y-4552848D01*
X12370258Y-4602126D01*
X12243922Y-4654779D01*
X12212396Y-4667867D01*
X12084502Y-4721061D01*
X11965032Y-4771017D01*
X11856425Y-4816696D01*
X11761117Y-4857062D01*
X11681546Y-4891077D01*
X11620148Y-4917703D01*
X11579360Y-4935901D01*
X11561619Y-4944636D01*
X11561069Y-4945218D01*
X11574684Y-4940946D01*
X11611830Y-4926771D01*
X11670011Y-4903705D01*
X11746732Y-4872762D01*
X11839500Y-4834953D01*
X11945818Y-4791293D01*
X12063192Y-4742795D01*
X12189127Y-4690471D01*
X12213923Y-4680136D01*
X12342404Y-4626816D01*
X12463819Y-4576922D01*
X12575521Y-4531510D01*
X12674861Y-4491631D01*
X12759190Y-4458341D01*
X12825859Y-4432692D01*
X12872220Y-4415739D01*
X12895625Y-4408536D01*
X12897000Y-4408361D01*
X12916532Y-4413189D01*
X12958183Y-4427558D01*
X13019016Y-4450255D01*
X13096093Y-4480064D01*
X13186478Y-4515772D01*
X13287235Y-4556163D01*
X13395426Y-4600024D01*
X13508114Y-4646140D01*
X13622364Y-4693296D01*
X13735237Y-4740278D01*
X13843798Y-4785872D01*
X13945109Y-4828862D01*
X14036234Y-4868035D01*
X14114236Y-4902176D01*
X14176178Y-4930071D01*
X14219124Y-4950504D01*
X14240135Y-4962262D01*
X14241630Y-4964420D01*
X14225820Y-4972518D01*
X14187859Y-4989616D01*
X14131706Y-5014000D01*
X14061321Y-5043961D01*
X13980663Y-5077786D01*
X13948278Y-5091240D01*
X13850526Y-5131759D01*
X13748115Y-5174229D01*
X13648700Y-5215474D01*
X13559939Y-5252317D01*
X13489486Y-5281582D01*
X13488655Y-5281928D01*
X13311255Y-5355664D01*
X13115619Y-4884988D01*
X13070688Y-4777353D01*
X13029114Y-4678652D01*
X12992133Y-4591750D01*
X12960980Y-4519512D01*
X12936892Y-4464805D01*
X12921104Y-4430495D01*
X12914866Y-4419430D01*
X12918911Y-4433167D01*
X12932694Y-4469958D01*
X12955027Y-4526837D01*
X12984719Y-4600835D01*
X13020582Y-4688988D01*
X13061426Y-4788328D01*
X13102129Y-4886453D01*
X13146338Y-4993689D01*
X13186313Y-5092770D01*
X13220904Y-5180678D01*
X13248960Y-5254399D01*
X13269333Y-5310915D01*
X13280871Y-5347212D01*
X13282727Y-5360125D01*
X13269611Y-5367516D01*
X13327724Y-5367516D01*
X13328670Y-5363062D01*
X13344226Y-5356675D01*
X13382776Y-5340601D01*
X13441300Y-5316106D01*
X13516783Y-5284454D01*
X13606205Y-5246911D01*
X13706550Y-5204743D01*
X13807167Y-5162426D01*
X13914466Y-5117283D01*
X14013211Y-5075744D01*
X14100464Y-5039042D01*
X14173292Y-5008413D01*
X14228757Y-4985091D01*
X14263926Y-4970311D01*
X14275860Y-4965307D01*
X14272577Y-4976255D01*
X14260894Y-5005639D01*
X14250171Y-5031101D01*
X14237616Y-5060792D01*
X14215846Y-5112719D01*
X14186459Y-5183052D01*
X14151052Y-5267961D01*
X14111224Y-5363613D01*
X14068574Y-5466179D01*
X14051468Y-5507351D01*
X14009608Y-5607952D01*
X13971207Y-5699896D01*
X13937598Y-5780015D01*
X13910115Y-5845143D01*
X13890092Y-5892115D01*
X13878863Y-5917763D01*
X13876962Y-5921603D01*
X13863074Y-5918239D01*
X13827802Y-5905661D01*
X13775765Y-5885622D01*
X13711580Y-5859876D01*
X13676185Y-5845333D01*
X13479928Y-5764072D01*
X13397884Y-5565924D01*
X13370311Y-5497117D01*
X13348385Y-5438061D01*
X13333668Y-5393334D01*
X13327724Y-5367516D01*
X13269611Y-5367516D01*
X13266002Y-5369549D01*
X13228211Y-5387311D01*
X13174436Y-5411124D01*
X13109758Y-5438702D01*
X13087500Y-5447985D01*
X12904056Y-5524078D01*
X12720641Y-5448030D01*
X12653538Y-5419738D01*
X12595704Y-5394468D01*
X12552223Y-5374510D01*
X12528177Y-5362150D01*
X12525414Y-5360170D01*
X12527916Y-5344863D01*
X12540299Y-5306594D01*
X12561412Y-5248381D01*
X12590105Y-5173239D01*
X12625229Y-5084184D01*
X12665635Y-4984234D01*
X12705982Y-4886453D01*
X12750340Y-4779478D01*
X12790804Y-4680978D01*
X12826186Y-4593919D01*
X12855296Y-4521267D01*
X12876945Y-4465989D01*
X12889943Y-4431051D01*
X12893245Y-4419430D01*
X12886865Y-4430790D01*
X12870963Y-4465377D01*
X12846777Y-4520326D01*
X12815542Y-4592770D01*
X12778492Y-4679845D01*
X12736865Y-4778685D01*
X12692421Y-4885157D01*
X12496716Y-5356002D01*
X12439330Y-5331548D01*
X12412001Y-5320068D01*
X12362358Y-5299381D01*
X12294172Y-5271053D01*
X12211214Y-5236648D01*
X12117256Y-5197731D01*
X12016068Y-5155867D01*
X11979778Y-5140864D01*
X11879170Y-5098971D01*
X11786545Y-5059814D01*
X11705257Y-5024858D01*
X11638659Y-4995565D01*
X11590104Y-4973400D01*
X11562945Y-4959827D01*
X11558761Y-4957073D01*
X11554994Y-4948110D01*
X11522197Y-4948110D01*
X11519033Y-4955710D01*
X11479354Y-4972255D01*
X11537347Y-4972255D01*
X11539109Y-4969174D01*
X11554145Y-4975907D01*
X11592247Y-4992175D01*
X11650405Y-5016715D01*
X11725610Y-5048264D01*
X11814853Y-5085559D01*
X11915124Y-5127339D01*
X12015162Y-5168914D01*
X12122679Y-5213615D01*
X12221703Y-5254922D01*
X12309272Y-5291588D01*
X12382424Y-5322367D01*
X12438193Y-5346012D01*
X12473618Y-5361276D01*
X12485714Y-5366863D01*
X12482350Y-5380814D01*
X12469769Y-5416143D01*
X12449727Y-5468226D01*
X12423978Y-5532440D01*
X12409444Y-5567815D01*
X12339053Y-5737821D01*
X12357636Y-5737821D01*
X12357696Y-5737444D01*
X12366198Y-5707037D01*
X12383057Y-5661447D01*
X12405744Y-5606227D01*
X12431728Y-5546926D01*
X12458478Y-5489097D01*
X12483466Y-5438290D01*
X12504160Y-5400056D01*
X12518030Y-5379947D01*
X12521392Y-5378298D01*
X12540269Y-5386203D01*
X12579057Y-5402487D01*
X12631651Y-5424586D01*
X12678278Y-5444188D01*
X12740044Y-5470049D01*
X12795381Y-5493017D01*
X12837097Y-5510117D01*
X12854667Y-5517129D01*
X12864169Y-5522685D01*
X12863870Y-5529931D01*
X12851027Y-5540340D01*
X12822893Y-5555383D01*
X12776724Y-5576532D01*
X12709775Y-5605259D01*
X12621833Y-5641986D01*
X12542524Y-5675210D01*
X12473987Y-5704529D01*
X12419791Y-5728365D01*
X12383509Y-5745137D01*
X12368711Y-5753268D01*
X12368984Y-5753786D01*
X12386352Y-5748766D01*
X12425292Y-5734487D01*
X12481377Y-5712668D01*
X12550181Y-5685030D01*
X12621833Y-5655556D01*
X12697904Y-5624100D01*
X12764754Y-5596781D01*
X12818123Y-5575314D01*
X12853751Y-5561413D01*
X12867274Y-5556778D01*
X12861282Y-5566032D01*
X12838978Y-5591084D01*
X12804099Y-5627869D01*
X12769647Y-5663016D01*
X12664972Y-5768444D01*
X12678940Y-5768444D01*
X12791167Y-5655556D01*
X12835814Y-5610700D01*
X12872162Y-5574287D01*
X12896217Y-5550311D01*
X12904056Y-5542667D01*
X12913612Y-5552015D01*
X12918387Y-5556778D01*
X12940837Y-5556778D01*
X12955763Y-5561943D01*
X12992459Y-5576297D01*
X13046667Y-5598124D01*
X13114125Y-5625711D01*
X13186278Y-5655556D01*
X13262947Y-5687069D01*
X13331022Y-5714364D01*
X13386076Y-5735722D01*
X13423683Y-5749424D01*
X13439127Y-5753786D01*
X13431419Y-5748523D01*
X13401171Y-5734131D01*
X13351950Y-5712189D01*
X13287328Y-5684282D01*
X13210873Y-5651990D01*
X13186278Y-5641732D01*
X13096662Y-5604324D01*
X13030386Y-5576080D01*
X12984687Y-5555443D01*
X12956798Y-5540855D01*
X12943954Y-5530759D01*
X12943389Y-5523597D01*
X12952338Y-5517812D01*
X12960500Y-5514584D01*
X12990985Y-5502473D01*
X13039760Y-5482164D01*
X13099281Y-5456826D01*
X13143944Y-5437514D01*
X13201994Y-5412465D01*
X13250211Y-5392076D01*
X13282904Y-5378728D01*
X13294109Y-5374709D01*
X13302625Y-5386431D01*
X13319523Y-5419485D01*
X13342510Y-5469075D01*
X13369294Y-5530406D01*
X13374802Y-5543417D01*
X13402028Y-5609128D01*
X13425140Y-5666924D01*
X13441902Y-5711071D01*
X13450079Y-5735833D01*
X13450415Y-5737444D01*
X13449203Y-5748066D01*
X13438320Y-5755310D01*
X13413162Y-5760025D01*
X13369127Y-5763058D01*
X13301611Y-5765259D01*
X13299167Y-5765321D01*
X13143944Y-5769254D01*
X13038464Y-5663016D01*
X12996213Y-5619772D01*
X12963548Y-5585008D01*
X12944207Y-5562788D01*
X12940837Y-5556778D01*
X12918387Y-5556778D01*
X12939060Y-5577398D01*
X12976406Y-5614823D01*
X13016944Y-5655556D01*
X13129171Y-5768444D01*
X12678940Y-5768444D01*
X12664972Y-5768444D01*
X12664167Y-5769254D01*
X12508944Y-5765321D01*
X12440650Y-5763132D01*
X12395975Y-5760136D01*
X12370316Y-5755485D01*
X12359071Y-5748329D01*
X12357636Y-5737821D01*
X12339053Y-5737821D01*
X12328183Y-5764072D01*
X12283542Y-5782556D01*
X12346667Y-5782556D01*
X12494833Y-5782556D01*
X13160192Y-5782556D01*
X13461444Y-5782556D01*
X13461444Y-6085321D01*
X13344291Y-5968777D01*
X13297717Y-5923828D01*
X13258171Y-5888250D01*
X13229907Y-5865696D01*
X13217291Y-5859727D01*
X13213098Y-5859911D01*
X13214629Y-5857686D01*
X13211056Y-5842049D01*
X13192612Y-5817089D01*
X13191003Y-5815352D01*
X13160192Y-5782556D01*
X12494833Y-5782556D01*
X12555659Y-5782891D01*
X12604384Y-5783797D01*
X12635177Y-5785126D01*
X12643000Y-5786336D01*
X12633558Y-5797070D01*
X12607560Y-5824101D01*
X12568496Y-5863863D01*
X12519855Y-5912787D01*
X12494833Y-5937778D01*
X12346667Y-6085440D01*
X12346667Y-5782556D01*
X12283542Y-5782556D01*
X12131926Y-5845333D01*
X12063380Y-5873284D01*
X12004659Y-5896411D01*
X11960383Y-5912959D01*
X11935169Y-5921173D01*
X11931149Y-5921603D01*
X11924826Y-5907826D01*
X11909041Y-5871139D01*
X11885129Y-5814710D01*
X11854421Y-5741704D01*
X11818254Y-5655288D01*
X11777960Y-5558628D01*
X11756643Y-5507351D01*
X11713305Y-5403081D01*
X11672148Y-5304186D01*
X11634774Y-5214506D01*
X11602784Y-5137881D01*
X11577780Y-5078149D01*
X11561363Y-5039150D01*
X11557636Y-5030390D01*
X11543349Y-4994037D01*
X11537347Y-4972255D01*
X11479354Y-4972255D01*
X11040322Y-5155317D01*
X10931386Y-5200601D01*
X10830912Y-5242100D01*
X10741808Y-5278634D01*
X10666983Y-5309021D01*
X10609344Y-5332082D01*
X10571798Y-5346636D01*
X10557254Y-5351501D01*
X10557192Y-5351477D01*
X10547537Y-5351477D01*
X10475365Y-5532565D01*
X10405342Y-5779511D01*
X10386779Y-5869447D01*
X10359658Y-6015389D01*
X10358329Y-5648632D01*
X10357000Y-5281876D01*
X10342835Y-5281876D01*
X9822520Y-5802015D01*
X9301939Y-6322419D01*
X9299658Y-5057479D01*
X9297377Y-3792540D01*
X9284556Y-3792540D01*
X9284556Y-6340087D01*
X9298666Y-6340087D01*
X9817178Y-5821432D01*
X9916895Y-5721755D01*
X10010446Y-5628372D01*
X10095962Y-5543138D01*
X10171576Y-5467909D01*
X10235420Y-5404541D01*
X10285626Y-5354888D01*
X10320326Y-5320807D01*
X10337653Y-5304152D01*
X10339290Y-5302778D01*
X10339873Y-5316522D01*
X10340426Y-5356289D01*
X10340943Y-5419878D01*
X10341416Y-5505089D01*
X10341836Y-5609723D01*
X10342196Y-5731579D01*
X10342490Y-5868458D01*
X10342708Y-6018159D01*
X10342843Y-6178483D01*
X10342889Y-6343401D01*
X10342889Y-6361053D01*
X10363048Y-6361053D01*
X10365461Y-6204765D01*
X10374741Y-6056124D01*
X10390891Y-5923772D01*
X10396701Y-5890510D01*
X10414408Y-5806180D01*
X10436053Y-5717623D01*
X10460073Y-5629925D01*
X10484900Y-5548173D01*
X10508969Y-5477454D01*
X10530713Y-5422854D01*
X10548567Y-5389459D01*
X10552357Y-5384900D01*
X10568771Y-5375704D01*
X10607613Y-5357243D01*
X10665248Y-5331072D01*
X10738040Y-5298748D01*
X10822351Y-5261826D01*
X10914546Y-5221861D01*
X11010987Y-5180408D01*
X11108039Y-5139022D01*
X11202064Y-5099260D01*
X11289427Y-5062676D01*
X11366490Y-5030826D01*
X11429618Y-5005266D01*
X11475173Y-4987549D01*
X11499520Y-4979233D01*
X11501800Y-4978809D01*
X11517113Y-4987843D01*
X11524406Y-4995861D01*
X11533689Y-5013665D01*
X11551890Y-5053504D01*
X11577231Y-5111298D01*
X11607931Y-5182968D01*
X11642210Y-5264433D01*
X11655229Y-5295722D01*
X11695794Y-5393492D01*
X11738316Y-5495947D01*
X11779613Y-5595426D01*
X11816506Y-5684265D01*
X11845814Y-5754805D01*
X11846155Y-5755625D01*
X11920008Y-5933306D01*
X11899883Y-5941652D01*
X11943108Y-5941652D01*
X11943253Y-5941377D01*
X11960348Y-5931758D01*
X11997166Y-5915043D01*
X12047927Y-5893523D01*
X12106852Y-5869487D01*
X12168162Y-5845225D01*
X12226078Y-5823028D01*
X12274822Y-5805185D01*
X12308613Y-5793985D01*
X12321495Y-5791496D01*
X12326014Y-5807565D01*
X12329641Y-5845730D01*
X12331948Y-5899867D01*
X12332556Y-5949547D01*
X12332556Y-6100762D01*
X12226722Y-6205889D01*
X12183573Y-6248064D01*
X12148908Y-6280640D01*
X12126799Y-6299874D01*
X12120889Y-6303163D01*
X12126054Y-6288237D01*
X12140408Y-6251541D01*
X12162235Y-6197333D01*
X12189822Y-6129875D01*
X12219667Y-6057722D01*
X12251180Y-5981053D01*
X12278475Y-5912978D01*
X12299833Y-5857924D01*
X12313535Y-5820317D01*
X12317897Y-5804873D01*
X12312643Y-5812583D01*
X12298274Y-5842840D01*
X12276369Y-5892073D01*
X12248508Y-5956711D01*
X12216271Y-6033183D01*
X12206056Y-6057722D01*
X12166965Y-6150691D01*
X12136799Y-6219434D01*
X12114458Y-6266111D01*
X12098848Y-6292880D01*
X12088871Y-6301899D01*
X12084141Y-6297611D01*
X12074707Y-6274034D01*
X12056841Y-6230619D01*
X12033094Y-6173529D01*
X12006017Y-6108923D01*
X12005670Y-6108099D01*
X11980239Y-6046254D01*
X11960052Y-5994471D01*
X11947033Y-5957890D01*
X11943108Y-5941652D01*
X11899883Y-5941652D01*
X11449131Y-6128576D01*
X11341455Y-6173422D01*
X11242714Y-6214917D01*
X11155776Y-6251829D01*
X11083507Y-6282923D01*
X11028774Y-6306968D01*
X10994444Y-6322729D01*
X10983367Y-6328959D01*
X10997107Y-6324924D01*
X11033910Y-6311170D01*
X11090809Y-6288884D01*
X11164837Y-6259253D01*
X11253026Y-6223463D01*
X11352409Y-6182702D01*
X11450716Y-6142023D01*
X11558001Y-6097893D01*
X11657116Y-6057976D01*
X11745046Y-6023423D01*
X11818776Y-5995380D01*
X11875291Y-5974997D01*
X11911577Y-5963423D01*
X11924478Y-5961515D01*
X11933812Y-5978148D01*
X11951495Y-6015853D01*
X11975249Y-6069560D01*
X12002794Y-6134195D01*
X12012096Y-6156500D01*
X12088189Y-6339944D01*
X12087922Y-6340588D01*
X12106759Y-6340588D01*
X12215798Y-6230905D01*
X12260098Y-6186676D01*
X12296476Y-6150982D01*
X12320741Y-6127895D01*
X12328697Y-6121222D01*
X12330010Y-6134539D01*
X12330488Y-6150217D01*
X12347661Y-6150217D01*
X12357215Y-6100470D01*
X12384584Y-6062022D01*
X12414821Y-6032420D01*
X12427998Y-6024284D01*
X12423700Y-6037660D01*
X12410588Y-6059060D01*
X12389048Y-6098075D01*
X12368978Y-6143645D01*
X12367626Y-6147254D01*
X12348655Y-6198833D01*
X12347661Y-6150217D01*
X12330488Y-6150217D01*
X12331132Y-6171314D01*
X12331979Y-6226784D01*
X12332468Y-6296184D01*
X12332556Y-6343141D01*
X12332556Y-6372723D01*
X12348994Y-6372723D01*
X12354811Y-6256777D01*
X12384625Y-6145164D01*
X12436435Y-6041806D01*
X12508239Y-5950627D01*
X12598035Y-5875548D01*
X12703819Y-5820493D01*
X12711998Y-5817407D01*
X12738535Y-5805654D01*
X12744393Y-5798516D01*
X12740352Y-5797661D01*
X12715799Y-5803402D01*
X12677010Y-5819213D01*
X12648629Y-5833213D01*
X12579500Y-5869760D01*
X12619256Y-5827922D01*
X12659011Y-5786083D01*
X12904203Y-5786083D01*
X12992885Y-5786217D01*
X13057772Y-5786975D01*
X13103291Y-5788893D01*
X13133868Y-5792508D01*
X13153931Y-5798356D01*
X13167906Y-5806973D01*
X13180220Y-5818896D01*
X13180879Y-5819597D01*
X13201186Y-5842641D01*
X13203426Y-5851077D01*
X13185403Y-5845220D01*
X13144919Y-5825386D01*
X13143944Y-5824889D01*
X13104940Y-5807616D01*
X13073742Y-5798255D01*
X13066877Y-5797661D01*
X13064393Y-5802284D01*
X13084087Y-5812695D01*
X13096113Y-5817407D01*
X13205575Y-5872275D01*
X13298954Y-5949282D01*
X13350233Y-6015389D01*
X13371352Y-6015389D01*
X13416398Y-6056835D01*
X13447755Y-6092536D01*
X13450469Y-6100762D01*
X13475556Y-6100762D01*
X13475556Y-5951066D01*
X13476312Y-5888789D01*
X13478356Y-5837487D01*
X13481352Y-5803406D01*
X13484062Y-5792864D01*
X13488816Y-5789572D01*
X13497030Y-5789210D01*
X13512541Y-5793146D01*
X13539183Y-5802747D01*
X13580793Y-5819381D01*
X13641206Y-5844414D01*
X13712743Y-5874382D01*
X13778147Y-5903268D01*
X13827847Y-5928147D01*
X13858136Y-5947014D01*
X13865734Y-5957198D01*
X13857815Y-5976111D01*
X13841519Y-6014930D01*
X13819411Y-6067547D01*
X13799812Y-6114167D01*
X13773951Y-6175933D01*
X13750983Y-6231270D01*
X13733883Y-6272986D01*
X13726871Y-6290556D01*
X13721315Y-6300058D01*
X13714069Y-6299759D01*
X13703660Y-6286916D01*
X13688617Y-6258782D01*
X13667468Y-6212613D01*
X13638741Y-6145664D01*
X13602014Y-6057722D01*
X13568790Y-5978413D01*
X13539471Y-5909876D01*
X13515635Y-5855680D01*
X13498863Y-5819398D01*
X13490732Y-5804600D01*
X13490214Y-5804873D01*
X13495234Y-5822241D01*
X13509513Y-5861181D01*
X13531332Y-5917266D01*
X13558970Y-5986070D01*
X13588444Y-6057722D01*
X13619900Y-6133793D01*
X13647219Y-6200643D01*
X13668686Y-6254012D01*
X13682587Y-6289640D01*
X13687222Y-6303163D01*
X13677972Y-6297176D01*
X13652934Y-6274878D01*
X13616182Y-6240011D01*
X13581389Y-6205889D01*
X13475556Y-6100762D01*
X13450469Y-6100762D01*
X13459741Y-6128859D01*
X13460450Y-6148557D01*
X13459456Y-6198833D01*
X13440485Y-6147254D01*
X13420509Y-6100683D01*
X13397818Y-6057779D01*
X13396434Y-6055532D01*
X13371352Y-6015389D01*
X13350233Y-6015389D01*
X13373921Y-6045925D01*
X13428143Y-6159699D01*
X13435724Y-6182452D01*
X13458195Y-6299748D01*
X13456757Y-6343141D01*
X13475556Y-6343141D01*
X13475787Y-6267603D01*
X13476427Y-6203100D01*
X13477391Y-6154396D01*
X13478598Y-6126255D01*
X13479414Y-6121222D01*
X13490284Y-6130590D01*
X13516781Y-6155981D01*
X13554716Y-6193323D01*
X13592313Y-6230905D01*
X13700711Y-6339944D01*
X13719922Y-6339944D01*
X13795970Y-6156530D01*
X13824262Y-6089427D01*
X13849532Y-6031593D01*
X13869490Y-5988112D01*
X13881850Y-5964066D01*
X13883830Y-5961303D01*
X13899137Y-5963805D01*
X13937406Y-5976188D01*
X13995619Y-5997301D01*
X14070761Y-6025994D01*
X14159816Y-6061118D01*
X14259766Y-6101524D01*
X14357547Y-6141871D01*
X14464522Y-6186229D01*
X14563022Y-6226693D01*
X14650081Y-6262075D01*
X14722733Y-6291185D01*
X14778011Y-6312834D01*
X14812949Y-6325832D01*
X14824570Y-6329134D01*
X14813210Y-6322753D01*
X14778624Y-6306852D01*
X14723677Y-6282667D01*
X14651236Y-6251433D01*
X14564166Y-6214386D01*
X14465334Y-6172761D01*
X14359012Y-6128381D01*
X13888336Y-5932745D01*
X13962072Y-5755345D01*
X13991210Y-5685215D01*
X14027981Y-5596669D01*
X14069208Y-5497362D01*
X14111712Y-5394949D01*
X14152317Y-5297083D01*
X14152882Y-5295722D01*
X14195169Y-5194335D01*
X14228330Y-5116332D01*
X14253709Y-5058889D01*
X14272651Y-5019181D01*
X14286501Y-4994384D01*
X14296602Y-4981674D01*
X14304040Y-4978222D01*
X14318140Y-4983449D01*
X14355302Y-4998313D01*
X14412538Y-5021589D01*
X14486860Y-5052055D01*
X14575281Y-5088485D01*
X14674814Y-5129656D01*
X14771506Y-5169784D01*
X14879524Y-5215065D01*
X14979863Y-5257862D01*
X15069379Y-5296777D01*
X15144924Y-5330412D01*
X15203353Y-5357369D01*
X15241519Y-5376250D01*
X15255754Y-5384979D01*
X15272374Y-5412056D01*
X15293269Y-5461650D01*
X15316872Y-5528664D01*
X15341615Y-5608004D01*
X15365933Y-5694574D01*
X15388259Y-5783279D01*
X15407026Y-5869024D01*
X15411186Y-5890510D01*
X15429310Y-6017690D01*
X15440546Y-6163499D01*
X15444895Y-6319198D01*
X15444504Y-6343401D01*
X15465222Y-6343401D01*
X15465270Y-6174818D01*
X15465407Y-6014706D01*
X15465627Y-5865266D01*
X15465922Y-5728698D01*
X15466284Y-5607201D01*
X15466705Y-5502975D01*
X15467179Y-5418221D01*
X15467697Y-5355137D01*
X15468251Y-5315926D01*
X15468821Y-5302778D01*
X15479188Y-5312456D01*
X15507626Y-5340252D01*
X15552265Y-5384313D01*
X15611239Y-5442781D01*
X15682680Y-5513802D01*
X15764721Y-5595520D01*
X15855492Y-5686079D01*
X15953127Y-5783625D01*
X15990933Y-5821432D01*
X16509445Y-6340087D01*
X15987334Y-6862055D01*
X15465222Y-7384024D01*
X15465222Y-6343401D01*
X15444504Y-6343401D01*
X15442357Y-6476045D01*
X15432932Y-6625302D01*
X15416620Y-6758229D01*
X15411186Y-6789379D01*
X15397520Y-6854667D01*
X15379567Y-6929622D01*
X15358873Y-7008890D01*
X15336985Y-7087114D01*
X15315448Y-7158942D01*
X15295810Y-7219017D01*
X15279616Y-7261986D01*
X15268943Y-7281966D01*
X15261954Y-7271507D01*
X15245723Y-7238435D01*
X15221734Y-7186241D01*
X15191473Y-7118418D01*
X15156422Y-7038455D01*
X15118068Y-6949844D01*
X15077894Y-6856078D01*
X15037385Y-6760646D01*
X14998027Y-6667041D01*
X14961303Y-6578753D01*
X14928698Y-6499274D01*
X14901696Y-6432096D01*
X14881783Y-6380709D01*
X14870443Y-6348605D01*
X14868368Y-6339944D01*
X14873582Y-6324072D01*
X14888493Y-6285215D01*
X14911874Y-6226410D01*
X14942497Y-6150694D01*
X14979134Y-6061104D01*
X15020559Y-5960677D01*
X15061551Y-5862024D01*
X15106045Y-5754831D01*
X15146649Y-5656106D01*
X15182173Y-5568810D01*
X15211429Y-5495901D01*
X15233228Y-5440339D01*
X15246384Y-5405084D01*
X15249820Y-5393116D01*
X15243449Y-5404465D01*
X15227610Y-5439015D01*
X15203554Y-5493860D01*
X15172529Y-5566092D01*
X15135787Y-5652805D01*
X15094575Y-5751092D01*
X15055110Y-5846043D01*
X15010815Y-5952485D01*
X14969714Y-6050187D01*
X14933082Y-6136193D01*
X14902197Y-6207551D01*
X14878337Y-6261306D01*
X14862778Y-6294504D01*
X14856965Y-6304368D01*
X14850057Y-6291791D01*
X14833454Y-6255579D01*
X14808209Y-6198195D01*
X14775376Y-6122101D01*
X14736008Y-6029756D01*
X14691159Y-5923623D01*
X14641883Y-5806163D01*
X14589232Y-5679837D01*
X14576133Y-5648285D01*
X14522939Y-5520391D01*
X14472983Y-5400921D01*
X14427304Y-5292314D01*
X14386938Y-5197006D01*
X14352923Y-5117435D01*
X14326297Y-5056037D01*
X14308099Y-5015249D01*
X14299364Y-4997508D01*
X14298782Y-4996958D01*
X14303054Y-5010573D01*
X14317229Y-5047719D01*
X14340295Y-5105900D01*
X14371238Y-5182621D01*
X14409047Y-5275389D01*
X14452707Y-5381707D01*
X14501205Y-5499081D01*
X14553529Y-5625016D01*
X14563864Y-5649812D01*
X14617184Y-5778293D01*
X14667078Y-5899708D01*
X14712490Y-6011410D01*
X14752369Y-6110750D01*
X14785659Y-6195079D01*
X14811308Y-6261748D01*
X14828261Y-6308109D01*
X14835464Y-6331514D01*
X14835639Y-6332889D01*
X14830811Y-6352444D01*
X14816440Y-6394116D01*
X14793739Y-6454967D01*
X14763925Y-6532060D01*
X14728210Y-6622459D01*
X14687811Y-6723227D01*
X14643941Y-6831426D01*
X14597817Y-6944120D01*
X14550651Y-7058371D01*
X14503660Y-7171244D01*
X14458058Y-7279800D01*
X14415059Y-7381104D01*
X14375879Y-7472217D01*
X14341732Y-7550204D01*
X14313833Y-7612127D01*
X14293396Y-7655049D01*
X14281637Y-7676034D01*
X14279483Y-7677519D01*
X14271798Y-7662153D01*
X14254788Y-7623945D01*
X14229845Y-7566162D01*
X14198363Y-7492068D01*
X14161734Y-7404929D01*
X14121351Y-7308013D01*
X14103211Y-7264222D01*
X14060670Y-7161404D01*
X14020532Y-7064500D01*
X13984362Y-6977279D01*
X13953725Y-6903514D01*
X13930188Y-6846976D01*
X13915314Y-6811435D01*
X13912452Y-6804670D01*
X13887998Y-6747284D01*
X14358843Y-6551579D01*
X14466498Y-6506639D01*
X14565220Y-6465057D01*
X14652144Y-6428067D01*
X14724405Y-6396905D01*
X14779137Y-6372806D01*
X14813475Y-6357007D01*
X14824570Y-6350755D01*
X14810833Y-6354800D01*
X14774042Y-6368583D01*
X14717163Y-6390916D01*
X14643165Y-6420608D01*
X14555012Y-6456471D01*
X14455672Y-6497315D01*
X14357547Y-6538018D01*
X14250311Y-6582227D01*
X14151230Y-6622202D01*
X14063322Y-6656793D01*
X13989601Y-6684849D01*
X13933085Y-6705222D01*
X13896788Y-6716760D01*
X13883875Y-6718616D01*
X13874451Y-6701891D01*
X13856689Y-6664100D01*
X13832876Y-6610325D01*
X13805298Y-6545647D01*
X13796015Y-6523389D01*
X13719922Y-6339944D01*
X13700711Y-6339944D01*
X13701352Y-6340588D01*
X13475556Y-6565060D01*
X13475556Y-6343141D01*
X13456757Y-6343141D01*
X13454301Y-6417189D01*
X13425576Y-6530681D01*
X13373557Y-6636128D01*
X13351124Y-6664500D01*
X13374764Y-6664500D01*
X13411049Y-6595371D01*
X13431798Y-6552667D01*
X13445968Y-6517531D01*
X13449592Y-6503648D01*
X13452411Y-6500415D01*
X13456584Y-6520622D01*
X13457705Y-6529115D01*
X13457413Y-6565179D01*
X13442553Y-6595235D01*
X13419162Y-6620837D01*
X13374764Y-6664500D01*
X13351124Y-6664500D01*
X13299779Y-6729435D01*
X13205779Y-6806506D01*
X13200389Y-6809979D01*
X13092262Y-6863318D01*
X12979779Y-6890914D01*
X12866457Y-6894123D01*
X12755813Y-6874303D01*
X12651363Y-6832813D01*
X12556625Y-6771010D01*
X12475116Y-6690252D01*
X12410352Y-6591896D01*
X12369179Y-6489078D01*
X12348994Y-6372723D01*
X12332556Y-6372723D01*
X12332556Y-6531332D01*
X12347661Y-6531332D01*
X12348655Y-6481056D01*
X12367626Y-6532635D01*
X12387602Y-6579206D01*
X12410293Y-6622110D01*
X12411677Y-6624357D01*
X12436759Y-6664500D01*
X12391713Y-6623054D01*
X12360356Y-6587353D01*
X12348370Y-6551030D01*
X12347661Y-6531332D01*
X12332556Y-6531332D01*
X12332556Y-6565060D01*
X12219657Y-6452824D01*
X12106759Y-6340588D01*
X12087922Y-6340588D01*
X12012141Y-6523359D01*
X11983870Y-6590434D01*
X11958649Y-6648216D01*
X11938759Y-6691629D01*
X11926479Y-6715601D01*
X11924523Y-6718344D01*
X11909268Y-6715796D01*
X11871040Y-6703393D01*
X11812853Y-6682284D01*
X11737722Y-6653617D01*
X11648663Y-6618539D01*
X11548690Y-6578201D01*
X11450716Y-6537866D01*
X11343683Y-6493593D01*
X11245128Y-6453204D01*
X11158016Y-6417887D01*
X11085316Y-6388829D01*
X11029995Y-6367215D01*
X10995019Y-6354234D01*
X10983367Y-6350930D01*
X10994732Y-6357299D01*
X11029332Y-6373170D01*
X11084301Y-6397309D01*
X11156772Y-6428485D01*
X11243878Y-6465463D01*
X11342754Y-6507010D01*
X11449303Y-6551384D01*
X11884800Y-6731983D01*
X11950394Y-6731983D01*
X11955341Y-6704380D01*
X11970803Y-6658376D01*
X11997688Y-6590885D01*
X12005579Y-6572005D01*
X12032696Y-6507305D01*
X12056510Y-6450044D01*
X12074473Y-6406377D01*
X12084039Y-6382458D01*
X12084107Y-6382278D01*
X12090346Y-6378265D01*
X12101293Y-6390379D01*
X12118060Y-6420807D01*
X12141764Y-6471733D01*
X12173519Y-6545343D01*
X12201363Y-6612086D01*
X12233598Y-6691452D01*
X12261069Y-6761782D01*
X12282275Y-6819001D01*
X12295712Y-6859034D01*
X12299880Y-6877804D01*
X12299589Y-6878559D01*
X12284850Y-6876169D01*
X12250128Y-6865046D01*
X12201401Y-6847521D01*
X12144648Y-6825923D01*
X12085849Y-6802584D01*
X12030983Y-6779834D01*
X11986029Y-6760003D01*
X11956967Y-6745422D01*
X11955057Y-6744275D01*
X11950394Y-6731983D01*
X11884800Y-6731983D01*
X11920352Y-6746726D01*
X11895779Y-6804391D01*
X11884265Y-6831791D01*
X11863543Y-6881502D01*
X11835179Y-6949748D01*
X11800739Y-7032756D01*
X11761790Y-7126751D01*
X11719899Y-7227960D01*
X11704900Y-7264222D01*
X11663333Y-7364334D01*
X11624923Y-7456070D01*
X11591060Y-7536163D01*
X11563140Y-7601349D01*
X11542554Y-7648360D01*
X11530695Y-7673931D01*
X11528628Y-7677519D01*
X11521241Y-7667543D01*
X11504621Y-7634285D01*
X11479983Y-7580685D01*
X11448541Y-7509678D01*
X11411511Y-7424201D01*
X11370108Y-7327192D01*
X11325545Y-7221587D01*
X11279038Y-7110323D01*
X11231802Y-6996338D01*
X11185051Y-6882567D01*
X11139999Y-6771949D01*
X11097863Y-6667419D01*
X11059856Y-6571916D01*
X11027193Y-6488375D01*
X11001089Y-6419734D01*
X10982759Y-6368929D01*
X10973417Y-6338898D01*
X10972472Y-6332889D01*
X10978110Y-6313186D01*
X10993656Y-6270126D01*
X11018057Y-6206358D01*
X11050260Y-6124529D01*
X11089210Y-6027289D01*
X11133854Y-5917286D01*
X11183137Y-5797169D01*
X11236007Y-5669586D01*
X11244247Y-5649812D01*
X11297186Y-5522527D01*
X11346493Y-5403326D01*
X11391154Y-5294706D01*
X11430157Y-5199160D01*
X11462489Y-5119184D01*
X11487136Y-5057273D01*
X11503086Y-5015921D01*
X11509325Y-4997623D01*
X11509329Y-4996958D01*
X11503110Y-5008586D01*
X11487169Y-5043868D01*
X11462543Y-5100366D01*
X11430270Y-5175643D01*
X11391388Y-5267263D01*
X11346933Y-5372789D01*
X11297944Y-5489784D01*
X11245459Y-5615810D01*
X11231978Y-5648285D01*
X11178671Y-5776383D01*
X11128483Y-5896209D01*
X11082469Y-6005302D01*
X11041681Y-6101201D01*
X11007174Y-6181444D01*
X10980000Y-6243571D01*
X10961214Y-6285119D01*
X10951870Y-6303628D01*
X10951146Y-6304368D01*
X10943961Y-6291732D01*
X10927348Y-6255936D01*
X10902586Y-6199935D01*
X10870952Y-6126681D01*
X10833722Y-6039130D01*
X10792174Y-5940236D01*
X10753001Y-5846043D01*
X10708860Y-5739894D01*
X10668076Y-5642728D01*
X10631896Y-5557454D01*
X10601571Y-5486978D01*
X10578351Y-5434206D01*
X10563485Y-5402047D01*
X10558291Y-5393116D01*
X10562348Y-5406845D01*
X10576153Y-5443632D01*
X10598518Y-5500516D01*
X10628256Y-5574539D01*
X10664178Y-5662740D01*
X10705095Y-5762160D01*
X10746560Y-5862024D01*
X10791286Y-5969697D01*
X10832346Y-6069308D01*
X10868512Y-6157820D01*
X10898559Y-6232196D01*
X10921257Y-6289399D01*
X10935379Y-6326392D01*
X10939743Y-6339944D01*
X10934417Y-6358444D01*
X10919605Y-6398375D01*
X10896791Y-6456247D01*
X10867459Y-6528568D01*
X10833095Y-6611847D01*
X10795182Y-6702592D01*
X10755206Y-6797313D01*
X10714650Y-6892517D01*
X10675000Y-6984715D01*
X10637741Y-7070413D01*
X10604356Y-7146122D01*
X10576330Y-7208349D01*
X10555148Y-7253604D01*
X10542295Y-7278395D01*
X10539168Y-7281966D01*
X10527593Y-7259866D01*
X10511130Y-7215644D01*
X10491326Y-7154655D01*
X10469727Y-7082257D01*
X10447879Y-7003805D01*
X10427328Y-6924658D01*
X10409620Y-6850170D01*
X10396986Y-6789379D01*
X10378813Y-6662001D01*
X10367500Y-6516345D01*
X10363048Y-6361053D01*
X10342889Y-6361053D01*
X10342889Y-7384024D01*
X9820777Y-6862055D01*
X9298666Y-6340087D01*
X9284556Y-6340087D01*
X9284556Y-8887349D01*
X9297377Y-8887349D01*
X9299658Y-7622410D01*
X9301939Y-6357470D01*
X9822520Y-6877874D01*
X10343100Y-7398278D01*
X10343099Y-7398572D01*
X10357000Y-7398572D01*
X10359658Y-6664500D01*
X10386649Y-6809703D01*
X10403221Y-6887703D01*
X10425643Y-6978361D01*
X10450349Y-7067730D01*
X10464198Y-7113092D01*
X10520327Y-7266688D01*
X10535654Y-7301307D01*
X10562908Y-7301307D01*
X10568726Y-7283929D01*
X10583900Y-7244756D01*
X10606929Y-7187365D01*
X10636315Y-7115336D01*
X10670556Y-7032248D01*
X10708151Y-6941679D01*
X10747601Y-6847210D01*
X10787406Y-6752417D01*
X10826064Y-6660881D01*
X10862077Y-6576181D01*
X10893942Y-6501895D01*
X10920161Y-6441603D01*
X10939232Y-6398884D01*
X10949656Y-6377315D01*
X10951044Y-6375409D01*
X10957930Y-6388009D01*
X10974528Y-6424250D01*
X10999790Y-6481685D01*
X11032669Y-6557864D01*
X11072116Y-6650340D01*
X11117082Y-6756663D01*
X11166520Y-6874385D01*
X11219380Y-7001059D01*
X11234920Y-7038444D01*
X11288182Y-7167078D01*
X11337718Y-7287466D01*
X11382545Y-7397167D01*
X11421683Y-7493743D01*
X11454148Y-7574755D01*
X11478961Y-7637764D01*
X11495137Y-7680330D01*
X11501697Y-7700014D01*
X11501654Y-7701094D01*
X11484187Y-7695471D01*
X11444974Y-7680318D01*
X11387553Y-7657142D01*
X11315462Y-7627449D01*
X11232240Y-7592748D01*
X11141424Y-7554544D01*
X11046554Y-7514344D01*
X10951166Y-7473655D01*
X10858800Y-7433985D01*
X10772994Y-7396839D01*
X10697285Y-7363725D01*
X10635212Y-7336149D01*
X10590313Y-7315619D01*
X10566127Y-7303641D01*
X10562908Y-7301307D01*
X10535654Y-7301307D01*
X10545139Y-7322729D01*
X10555038Y-7322729D01*
X10692380Y-7380259D01*
X10744224Y-7401923D01*
X10816686Y-7432128D01*
X10904315Y-7468606D01*
X11001659Y-7509088D01*
X11103267Y-7551305D01*
X11174577Y-7580911D01*
X11489310Y-7711530D01*
X11529772Y-7711530D01*
X11531816Y-7707268D01*
X11538896Y-7691666D01*
X11555494Y-7653017D01*
X11580335Y-7594350D01*
X11612145Y-7518696D01*
X11649650Y-7429085D01*
X11691576Y-7328546D01*
X11733025Y-7228838D01*
X11777735Y-7121308D01*
X11819062Y-7022261D01*
X11855757Y-6934661D01*
X11886572Y-6861473D01*
X11910258Y-6805662D01*
X11925569Y-6770194D01*
X11931201Y-6758060D01*
X11945255Y-6761300D01*
X11980384Y-6773805D01*
X12031721Y-6793731D01*
X12094398Y-6819231D01*
X12113773Y-6827309D01*
X12192495Y-6859265D01*
X12248678Y-6879484D01*
X12285054Y-6888797D01*
X12304350Y-6888037D01*
X12306955Y-6886245D01*
X12309608Y-6871829D01*
X12303116Y-6840961D01*
X12286718Y-6791298D01*
X12259652Y-6720497D01*
X12227136Y-6640607D01*
X12195696Y-6564552D01*
X12167761Y-6496637D01*
X12145245Y-6441539D01*
X12130059Y-6403932D01*
X12124384Y-6389333D01*
X12130546Y-6389769D01*
X12152914Y-6407138D01*
X12187807Y-6438346D01*
X12224769Y-6473647D01*
X12332556Y-6579127D01*
X12332556Y-6730342D01*
X12331078Y-6805190D01*
X12326824Y-6858405D01*
X12320058Y-6887244D01*
X12316938Y-6891209D01*
X12313686Y-6897333D01*
X12346667Y-6897333D01*
X12346667Y-6594449D01*
X12494833Y-6742111D01*
X12546751Y-6794093D01*
X12559747Y-6807241D01*
X12579500Y-6807241D01*
X12619643Y-6832323D01*
X12661503Y-6854817D01*
X12708517Y-6875311D01*
X12711365Y-6876374D01*
X12762944Y-6895345D01*
X13045167Y-6895345D01*
X13098257Y-6875851D01*
X13141647Y-6857255D01*
X13178590Y-6837158D01*
X13182536Y-6834512D01*
X13211317Y-6816133D01*
X13218780Y-6816247D01*
X13204925Y-6834854D01*
X13186278Y-6855000D01*
X13148447Y-6885646D01*
X13107991Y-6896160D01*
X13095443Y-6896339D01*
X13045167Y-6895345D01*
X12762944Y-6895345D01*
X12712668Y-6896339D01*
X12671975Y-6891005D01*
X12637570Y-6869023D01*
X12620946Y-6852287D01*
X12579500Y-6807241D01*
X12559747Y-6807241D01*
X12590723Y-6838579D01*
X12623260Y-6872002D01*
X12640872Y-6890794D01*
X12643000Y-6893553D01*
X12629861Y-6895105D01*
X12594330Y-6896348D01*
X12542237Y-6897134D01*
X12494833Y-6897333D01*
X13158560Y-6897333D01*
X13306222Y-6749167D01*
X13358204Y-6697249D01*
X13402690Y-6653277D01*
X13436113Y-6620740D01*
X13454905Y-6603128D01*
X13457664Y-6601000D01*
X13459216Y-6614139D01*
X13460459Y-6649670D01*
X13461245Y-6701763D01*
X13461444Y-6749167D01*
X13461444Y-6897333D01*
X13158560Y-6897333D01*
X12494833Y-6897333D01*
X12346667Y-6897333D01*
X12313686Y-6897333D01*
X12309882Y-6904493D01*
X12315127Y-6909681D01*
X12323298Y-6922505D01*
X12355607Y-6922505D01*
X12371676Y-6917986D01*
X12409841Y-6914359D01*
X12463978Y-6912052D01*
X12513658Y-6911444D01*
X12664873Y-6911444D01*
X12678940Y-6911444D01*
X12900859Y-6911444D01*
X12976397Y-6911676D01*
X13040900Y-6912316D01*
X13089604Y-6913280D01*
X13117745Y-6914487D01*
X13122778Y-6915303D01*
X13113410Y-6926173D01*
X13088019Y-6952670D01*
X13050677Y-6990605D01*
X13013095Y-7028202D01*
X12917626Y-7123111D01*
X12940837Y-7123111D01*
X12946824Y-7113861D01*
X12969122Y-7088823D01*
X13003989Y-7052071D01*
X13038111Y-7017278D01*
X13143238Y-6911444D01*
X13294453Y-6911444D01*
X13356836Y-6912416D01*
X13408050Y-6915043D01*
X13441972Y-6918899D01*
X13452504Y-6922505D01*
X13449330Y-6937693D01*
X13437431Y-6973086D01*
X13419096Y-7022904D01*
X13396616Y-7081369D01*
X13372280Y-7142701D01*
X13348378Y-7201122D01*
X13327201Y-7250852D01*
X13311038Y-7286112D01*
X13302623Y-7300747D01*
X13288328Y-7297673D01*
X13253259Y-7285345D01*
X13202556Y-7265686D01*
X13141358Y-7240621D01*
X13135901Y-7238330D01*
X13071241Y-7211228D01*
X13014019Y-7187424D01*
X12970397Y-7169469D01*
X12946535Y-7159914D01*
X12946389Y-7159859D01*
X12942527Y-7153665D01*
X12954654Y-7142732D01*
X12984929Y-7125964D01*
X13035509Y-7102264D01*
X13108554Y-7070535D01*
X13186278Y-7037944D01*
X13265585Y-7004709D01*
X13334121Y-6975379D01*
X13388316Y-6951535D01*
X13424600Y-6934756D01*
X13439400Y-6926621D01*
X13439127Y-6926103D01*
X13421759Y-6931123D01*
X13382819Y-6945402D01*
X13326734Y-6967221D01*
X13257930Y-6994859D01*
X13186278Y-7024333D01*
X13110207Y-7055789D01*
X13043357Y-7083108D01*
X12989988Y-7104575D01*
X12954360Y-7118476D01*
X12940837Y-7123111D01*
X12917626Y-7123111D01*
X12903412Y-7137241D01*
X12791176Y-7024343D01*
X12678940Y-6911444D01*
X12664873Y-6911444D01*
X12770000Y-7017278D01*
X12812175Y-7060427D01*
X12844751Y-7095092D01*
X12863985Y-7117201D01*
X12867274Y-7123111D01*
X12852348Y-7117946D01*
X12815652Y-7103592D01*
X12761444Y-7081765D01*
X12693986Y-7054178D01*
X12621833Y-7024333D01*
X12545164Y-6992820D01*
X12477089Y-6965525D01*
X12422035Y-6944167D01*
X12384428Y-6930465D01*
X12368984Y-6926103D01*
X12376694Y-6931357D01*
X12406951Y-6945726D01*
X12456184Y-6967631D01*
X12520822Y-6995492D01*
X12597294Y-7027729D01*
X12621833Y-7037944D01*
X12714802Y-7077035D01*
X12783545Y-7107201D01*
X12830222Y-7129542D01*
X12856991Y-7145152D01*
X12866010Y-7155129D01*
X12861722Y-7159859D01*
X12838145Y-7169293D01*
X12794730Y-7187159D01*
X12737640Y-7210906D01*
X12673034Y-7237983D01*
X12672210Y-7238330D01*
X12610365Y-7263761D01*
X12558582Y-7283948D01*
X12522001Y-7296967D01*
X12505763Y-7300892D01*
X12505488Y-7300747D01*
X12495869Y-7283652D01*
X12479154Y-7246834D01*
X12457634Y-7196073D01*
X12433598Y-7137148D01*
X12409336Y-7075838D01*
X12387139Y-7017922D01*
X12369296Y-6969178D01*
X12358096Y-6935387D01*
X12355607Y-6922505D01*
X12323298Y-6922505D01*
X12324692Y-6924692D01*
X12341999Y-6959800D01*
X12364741Y-7009549D01*
X12390606Y-7068484D01*
X12417286Y-7131148D01*
X12442471Y-7192087D01*
X12463851Y-7245845D01*
X12479117Y-7286966D01*
X12485959Y-7309995D01*
X12485831Y-7312908D01*
X12472071Y-7319241D01*
X12435197Y-7335117D01*
X12378174Y-7359290D01*
X12303967Y-7390512D01*
X12215538Y-7427536D01*
X12115854Y-7469114D01*
X12015162Y-7510975D01*
X11907236Y-7555846D01*
X11807446Y-7597471D01*
X11718821Y-7634575D01*
X11644391Y-7665884D01*
X11587186Y-7690124D01*
X11550236Y-7706021D01*
X11536732Y-7712184D01*
X11529772Y-7711530D01*
X11489310Y-7711530D01*
X11519432Y-7724031D01*
X11524347Y-7735820D01*
X11555528Y-7735820D01*
X11557400Y-7724593D01*
X11558934Y-7722642D01*
X11576247Y-7713083D01*
X11616340Y-7694325D01*
X11675862Y-7667831D01*
X11751463Y-7635064D01*
X11839791Y-7597484D01*
X11937494Y-7556556D01*
X11979778Y-7539025D01*
X12082616Y-7496494D01*
X12179556Y-7456358D01*
X12266822Y-7420184D01*
X12340641Y-7389536D01*
X12397237Y-7365982D01*
X12432836Y-7351087D01*
X12439609Y-7348221D01*
X12497274Y-7323648D01*
X12692616Y-7794697D01*
X12737470Y-7902394D01*
X12778973Y-8001155D01*
X12815894Y-8088115D01*
X12846998Y-8160408D01*
X12871053Y-8215167D01*
X12886826Y-8249526D01*
X12893070Y-8260633D01*
X12889035Y-8246893D01*
X12875281Y-8210090D01*
X12852995Y-8153191D01*
X12823364Y-8079163D01*
X12787574Y-7990974D01*
X12746813Y-7891591D01*
X12706134Y-7793284D01*
X12662004Y-7685997D01*
X12622090Y-7586878D01*
X12587540Y-7498942D01*
X12559502Y-7425205D01*
X12539125Y-7368681D01*
X12527557Y-7332386D01*
X12525656Y-7319477D01*
X12542302Y-7310128D01*
X12580020Y-7292435D01*
X12633736Y-7268679D01*
X12698378Y-7241139D01*
X12720641Y-7231859D01*
X12904056Y-7155811D01*
X13087500Y-7231904D01*
X13154575Y-7260185D01*
X13212355Y-7285408D01*
X13255767Y-7305295D01*
X13270298Y-7312734D01*
X13322280Y-7312734D01*
X13325137Y-7298445D01*
X13337333Y-7263903D01*
X13356559Y-7214557D01*
X13380506Y-7155860D01*
X13406865Y-7093263D01*
X13433328Y-7032219D01*
X13457585Y-6978178D01*
X13477327Y-6936594D01*
X13490245Y-6912916D01*
X13492984Y-6909681D01*
X13497468Y-6896723D01*
X13491173Y-6891209D01*
X13483530Y-6872187D01*
X13478302Y-6827801D01*
X13475761Y-6760830D01*
X13475556Y-6731027D01*
X13475556Y-6580497D01*
X13577098Y-6478272D01*
X13619704Y-6436153D01*
X13654380Y-6403332D01*
X13676785Y-6383829D01*
X13682869Y-6380277D01*
X13679063Y-6393991D01*
X13665932Y-6429599D01*
X13645087Y-6482978D01*
X13618139Y-6550004D01*
X13586699Y-6626554D01*
X13586291Y-6627539D01*
X13548266Y-6720991D01*
X13521479Y-6791230D01*
X13505163Y-6840584D01*
X13498550Y-6871382D01*
X13499706Y-6878631D01*
X13508594Y-6878631D01*
X13511120Y-6863611D01*
X13523097Y-6826704D01*
X13543020Y-6772032D01*
X13569380Y-6703713D01*
X13600671Y-6625870D01*
X13604306Y-6617005D01*
X13636644Y-6539291D01*
X13665489Y-6471812D01*
X13689126Y-6418432D01*
X13705839Y-6383013D01*
X13713913Y-6369419D01*
X13714228Y-6369445D01*
X13721511Y-6383855D01*
X13737442Y-6419432D01*
X13759878Y-6471270D01*
X13786673Y-6534460D01*
X13795057Y-6554457D01*
X13826708Y-6632433D01*
X13846772Y-6687780D01*
X13856076Y-6723216D01*
X13855447Y-6741458D01*
X13852841Y-6744407D01*
X13825961Y-6758209D01*
X13782519Y-6777534D01*
X13728498Y-6800050D01*
X13669879Y-6823424D01*
X13612643Y-6845325D01*
X13562772Y-6863420D01*
X13526247Y-6875378D01*
X13509049Y-6878865D01*
X13508594Y-6878631D01*
X13499706Y-6878631D01*
X13500874Y-6885952D01*
X13501085Y-6886174D01*
X13516143Y-6889556D01*
X13547259Y-6883207D01*
X13597233Y-6866273D01*
X13668868Y-6837901D01*
X13694338Y-6827309D01*
X13759369Y-6800552D01*
X13814454Y-6778840D01*
X13854727Y-6764018D01*
X13875320Y-6757933D01*
X13876910Y-6758060D01*
X13883268Y-6771846D01*
X13899169Y-6808745D01*
X13923363Y-6865792D01*
X13954604Y-6940020D01*
X13991642Y-7028466D01*
X14033230Y-7128163D01*
X14075086Y-7228838D01*
X14119890Y-7336635D01*
X14161380Y-7436191D01*
X14198292Y-7524495D01*
X14229364Y-7598537D01*
X14253333Y-7655309D01*
X14268936Y-7691802D01*
X14273189Y-7701254D01*
X14306457Y-7701254D01*
X14310005Y-7688724D01*
X14323459Y-7652597D01*
X14345837Y-7595312D01*
X14376157Y-7519309D01*
X14413438Y-7427030D01*
X14456698Y-7320912D01*
X14504954Y-7203397D01*
X14557224Y-7076924D01*
X14573191Y-7038444D01*
X14626834Y-6909669D01*
X14677354Y-6789147D01*
X14723701Y-6679327D01*
X14764827Y-6582657D01*
X14799683Y-6501586D01*
X14827223Y-6438561D01*
X14846396Y-6396033D01*
X14856155Y-6376448D01*
X14857067Y-6375409D01*
X14864225Y-6388020D01*
X14880802Y-6423793D01*
X14905522Y-6479773D01*
X14937108Y-6553003D01*
X14974285Y-6640530D01*
X15015776Y-6739397D01*
X15054703Y-6833095D01*
X15098736Y-6939946D01*
X15139086Y-7038591D01*
X15174532Y-7125987D01*
X15203852Y-7199093D01*
X15225826Y-7254865D01*
X15239231Y-7290261D01*
X15242975Y-7302102D01*
X15230374Y-7309294D01*
X15195266Y-7325807D01*
X15141205Y-7350129D01*
X15071744Y-7380744D01*
X14990434Y-7416138D01*
X14900830Y-7454798D01*
X14806484Y-7495208D01*
X14710948Y-7535856D01*
X14617775Y-7575225D01*
X14530519Y-7611803D01*
X14452732Y-7644075D01*
X14387966Y-7670527D01*
X14339775Y-7689645D01*
X14311711Y-7699913D01*
X14306457Y-7701254D01*
X14273189Y-7701254D01*
X14274826Y-7704891D01*
X14267040Y-7705819D01*
X14240118Y-7697081D01*
X14213610Y-7686364D01*
X14183734Y-7673731D01*
X14131629Y-7651885D01*
X14061133Y-7622428D01*
X13976087Y-7586962D01*
X13880329Y-7547089D01*
X13777698Y-7504412D01*
X13736649Y-7487357D01*
X13636040Y-7445492D01*
X13544084Y-7407079D01*
X13463947Y-7373454D01*
X13398798Y-7345950D01*
X13351803Y-7325903D01*
X13326131Y-7314648D01*
X13322280Y-7312734D01*
X13270298Y-7312734D01*
X13279739Y-7317567D01*
X13282485Y-7319522D01*
X13279930Y-7334766D01*
X13267521Y-7372985D01*
X13246407Y-7431162D01*
X13217735Y-7506285D01*
X13182655Y-7595338D01*
X13142314Y-7695307D01*
X13101977Y-7793284D01*
X13057704Y-7900317D01*
X13017315Y-7998872D01*
X12981998Y-8085984D01*
X12952940Y-8158684D01*
X12931326Y-8214005D01*
X12918345Y-8248981D01*
X12915041Y-8260633D01*
X12921410Y-8249268D01*
X12937281Y-8214669D01*
X12961420Y-8159702D01*
X12992594Y-8087235D01*
X13029570Y-8000133D01*
X13071114Y-7901265D01*
X13115424Y-7794869D01*
X13310694Y-7323992D01*
X13488375Y-7397845D01*
X13558615Y-7427018D01*
X13647267Y-7463806D01*
X13746666Y-7505028D01*
X13849147Y-7547507D01*
X13947044Y-7588063D01*
X13948278Y-7588574D01*
X14032421Y-7623847D01*
X14108317Y-7656473D01*
X14171860Y-7684621D01*
X14218944Y-7706460D01*
X14245462Y-7720159D01*
X14249177Y-7722740D01*
X14252507Y-7731466D01*
X14250874Y-7748975D01*
X14243426Y-7777610D01*
X14229314Y-7819718D01*
X14207686Y-7877642D01*
X14177692Y-7953728D01*
X14138482Y-8050321D01*
X14089204Y-8169767D01*
X14071997Y-8211209D01*
X14026833Y-8319139D01*
X13984758Y-8418306D01*
X13947046Y-8505809D01*
X13914972Y-8578750D01*
X13889811Y-8634229D01*
X13872838Y-8669347D01*
X13865370Y-8681212D01*
X13848102Y-8675460D01*
X13809020Y-8660333D01*
X13751704Y-8637335D01*
X13679735Y-8607966D01*
X13596690Y-8573728D01*
X13506150Y-8536123D01*
X13411695Y-8496652D01*
X13316904Y-8456818D01*
X13225357Y-8418121D01*
X13140634Y-8382065D01*
X13066313Y-8350149D01*
X13005975Y-8323877D01*
X12963199Y-8304749D01*
X12941566Y-8294267D01*
X12939632Y-8292854D01*
X12952209Y-8285946D01*
X12988421Y-8269343D01*
X13045805Y-8244098D01*
X13121899Y-8211265D01*
X13214244Y-8171897D01*
X13320377Y-8127048D01*
X13437837Y-8077772D01*
X13564163Y-8025121D01*
X13595715Y-8012022D01*
X13723609Y-7958828D01*
X13843079Y-7908872D01*
X13951686Y-7863193D01*
X14046994Y-7822827D01*
X14126565Y-7788812D01*
X14187963Y-7762186D01*
X14228751Y-7743988D01*
X14246492Y-7735253D01*
X14247042Y-7734671D01*
X14233424Y-7738937D01*
X14196273Y-7753097D01*
X14138082Y-7776138D01*
X14061348Y-7807049D01*
X13968567Y-7844817D01*
X13862233Y-7888430D01*
X13744843Y-7936877D01*
X13618892Y-7989145D01*
X13594188Y-7999429D01*
X13465855Y-8052711D01*
X13344751Y-8102665D01*
X13233502Y-8148230D01*
X13134737Y-8188347D01*
X13051082Y-8221953D01*
X12985164Y-8247989D01*
X12939611Y-8265393D01*
X12917049Y-8273104D01*
X12915780Y-8273363D01*
X12897072Y-8268882D01*
X12854954Y-8254462D01*
X12792024Y-8231119D01*
X12710880Y-8199869D01*
X12614120Y-8161730D01*
X12504344Y-8117716D01*
X12384150Y-8068845D01*
X12256136Y-8016132D01*
X12225696Y-8003503D01*
X12097203Y-7950258D01*
X11976780Y-7900624D01*
X11866900Y-7855603D01*
X11770039Y-7816196D01*
X11688671Y-7783403D01*
X11625271Y-7758226D01*
X11582313Y-7741667D01*
X11562272Y-7734726D01*
X11561118Y-7734622D01*
X11572737Y-7740850D01*
X11608009Y-7756800D01*
X11664498Y-7781434D01*
X11739768Y-7813714D01*
X11831382Y-7852602D01*
X11936902Y-7897061D01*
X12053893Y-7946053D01*
X12179917Y-7998539D01*
X12212396Y-8012022D01*
X12340498Y-8065330D01*
X12460332Y-8115519D01*
X12569436Y-8161534D01*
X12665349Y-8202321D01*
X12745608Y-8236829D01*
X12807752Y-8264002D01*
X12849318Y-8282787D01*
X12867846Y-8292131D01*
X12868591Y-8292854D01*
X12856099Y-8299572D01*
X12821082Y-8315514D01*
X12767118Y-8339179D01*
X12697785Y-8369068D01*
X12616662Y-8403678D01*
X12527329Y-8441510D01*
X12433365Y-8481063D01*
X12338347Y-8520837D01*
X12245856Y-8559330D01*
X12159469Y-8595042D01*
X12082767Y-8626472D01*
X12019327Y-8652120D01*
X11972729Y-8670484D01*
X11946551Y-8680065D01*
X11942689Y-8681092D01*
X11935011Y-8668827D01*
X11917894Y-8633351D01*
X11892610Y-8577563D01*
X11860435Y-8504361D01*
X11822643Y-8416644D01*
X11780508Y-8317311D01*
X11736114Y-8211209D01*
X11683601Y-8084341D01*
X11641413Y-7981040D01*
X11608698Y-7898956D01*
X11584603Y-7835741D01*
X11568278Y-7789046D01*
X11558870Y-7756522D01*
X11555528Y-7735820D01*
X11524347Y-7735820D01*
X11719233Y-8203210D01*
X11764533Y-8312213D01*
X11806034Y-8412770D01*
X11842557Y-8501971D01*
X11872923Y-8576909D01*
X11895954Y-8634674D01*
X11910473Y-8672358D01*
X11915301Y-8687052D01*
X11915273Y-8687124D01*
X11900852Y-8684136D01*
X11866792Y-8669029D01*
X11817609Y-8644282D01*
X11757815Y-8612373D01*
X11691928Y-8575781D01*
X11624460Y-8536985D01*
X11559928Y-8498464D01*
X11502845Y-8462696D01*
X11484221Y-8450459D01*
X11271205Y-8291763D01*
X11078801Y-8114236D01*
X10907798Y-7918658D01*
X10803800Y-7775245D01*
X10740586Y-7677071D01*
X10680854Y-7577139D01*
X10628664Y-7482607D01*
X10588073Y-7400630D01*
X10576681Y-7374614D01*
X10555038Y-7322729D01*
X10545139Y-7322729D01*
X10591799Y-7428111D01*
X10673168Y-7586105D01*
X10758987Y-7729412D01*
X10771827Y-7748827D01*
X10808174Y-7803733D01*
X10837887Y-7850005D01*
X10857863Y-7882710D01*
X10865000Y-7896847D01*
X10855495Y-7889825D01*
X10828736Y-7865315D01*
X10787358Y-7825855D01*
X10733994Y-7773979D01*
X10671278Y-7712225D01*
X10611000Y-7652278D01*
X10357000Y-7398572D01*
X10343099Y-7398572D01*
X10339467Y-8139111D01*
X10335833Y-8879944D01*
X9816605Y-8883647D01*
X9346327Y-8887000D01*
X10357000Y-8887000D01*
X10357000Y-7412683D01*
X10611000Y-7666389D01*
X10679678Y-7734532D01*
X10741312Y-7794816D01*
X10793276Y-7844740D01*
X10832939Y-7881804D01*
X10857672Y-7903508D01*
X10865000Y-7907931D01*
X10873604Y-7905270D01*
X10886011Y-7913204D01*
X10900673Y-7931942D01*
X10900886Y-7940571D01*
X10908549Y-7953059D01*
X10933482Y-7982200D01*
X10972805Y-8024888D01*
X11023638Y-8078015D01*
X11083104Y-8138473D01*
X11098597Y-8153985D01*
X11159792Y-8214581D01*
X11213640Y-8266967D01*
X11257206Y-8308366D01*
X11287557Y-8336000D01*
X11301759Y-8347093D01*
X11302444Y-8346910D01*
X11312872Y-8349673D01*
X11340682Y-8366157D01*
X11380669Y-8393170D01*
X11397694Y-8405329D01*
X11620695Y-8550655D01*
X11854694Y-8672195D01*
X11936620Y-8704846D01*
X11962048Y-8704846D01*
X11972137Y-8697383D01*
X12005540Y-8680494D01*
X12059446Y-8655433D01*
X12131046Y-8623453D01*
X12217530Y-8585810D01*
X12316088Y-8543758D01*
X12423910Y-8498550D01*
X12427715Y-8496969D01*
X12904056Y-8299031D01*
X13080444Y-8372266D01*
X13148281Y-8400440D01*
X13235051Y-8436492D01*
X13333634Y-8477461D01*
X13436904Y-8520388D01*
X13537738Y-8562311D01*
X13556766Y-8570223D01*
X13641432Y-8606022D01*
X13715924Y-8638659D01*
X13776758Y-8666513D01*
X13818100Y-8686808D01*
X13892523Y-8686808D01*
X13896976Y-8673244D01*
X13911165Y-8636563D01*
X13933907Y-8579672D01*
X13964024Y-8505480D01*
X14000333Y-8416894D01*
X14041655Y-8316824D01*
X14086808Y-8208177D01*
X14088639Y-8203784D01*
X14288202Y-7725179D01*
X14767351Y-7525001D01*
X14876323Y-7479616D01*
X14976836Y-7438024D01*
X15065986Y-7401407D01*
X15140867Y-7370945D01*
X15198575Y-7347822D01*
X15236204Y-7333218D01*
X15250848Y-7328315D01*
X15250919Y-7328341D01*
X15246976Y-7341587D01*
X15232743Y-7374248D01*
X15210786Y-7420612D01*
X15196420Y-7449734D01*
X15061410Y-7690193D01*
X14922363Y-7888229D01*
X14945896Y-7888229D01*
X14948391Y-7878487D01*
X14967811Y-7850270D01*
X14981028Y-7832845D01*
X15073595Y-7698455D01*
X15161912Y-7542880D01*
X15242974Y-7373127D01*
X15313776Y-7196208D01*
X15371310Y-7019129D01*
X15412572Y-6848902D01*
X15419701Y-6809950D01*
X15444056Y-6667012D01*
X15451600Y-7397502D01*
X15450430Y-7398674D01*
X15464967Y-7398674D01*
X15983606Y-6879893D01*
X16083285Y-6780221D01*
X16176738Y-6686841D01*
X16262105Y-6601605D01*
X16337527Y-6526370D01*
X16401142Y-6462988D01*
X16451092Y-6413313D01*
X16485515Y-6379201D01*
X16502552Y-6362504D01*
X16504078Y-6361111D01*
X16504375Y-6374889D01*
X16504712Y-6414893D01*
X16505080Y-6479125D01*
X16505475Y-6565589D01*
X16505888Y-6672288D01*
X16506313Y-6797225D01*
X16506744Y-6938404D01*
X16507173Y-7093826D01*
X16507594Y-7261497D01*
X16507999Y-7439418D01*
X16508380Y-7624230D01*
X16510850Y-8887349D01*
X15991564Y-8883647D01*
X15472278Y-8879944D01*
X15468622Y-8139309D01*
X15464967Y-7398674D01*
X15450430Y-7398674D01*
X15201545Y-7647847D01*
X15113307Y-7735609D01*
X15044030Y-7803186D01*
X14993308Y-7850921D01*
X14960733Y-7879155D01*
X14945896Y-7888229D01*
X14922363Y-7888229D01*
X14906812Y-7910376D01*
X14732346Y-8110584D01*
X14537737Y-8291123D01*
X14322707Y-8452295D01*
X14219966Y-8518122D01*
X14170801Y-8546997D01*
X14113725Y-8578802D01*
X14053988Y-8610833D01*
X13996839Y-8640385D01*
X13947529Y-8664754D01*
X13911307Y-8681234D01*
X13893423Y-8687122D01*
X13892523Y-8686808D01*
X13818100Y-8686808D01*
X13820449Y-8687961D01*
X13843512Y-8701381D01*
X13846044Y-8704865D01*
X13823955Y-8716429D01*
X13779744Y-8732882D01*
X13718768Y-8752677D01*
X13646385Y-8774268D01*
X13567951Y-8796110D01*
X13488823Y-8816657D01*
X13414359Y-8834361D01*
X13353490Y-8847014D01*
X13226112Y-8865187D01*
X13080456Y-8876500D01*
X12925164Y-8880952D01*
X12768876Y-8878539D01*
X12620235Y-8869259D01*
X12487883Y-8853109D01*
X12454621Y-8847299D01*
X12389262Y-8833545D01*
X12314271Y-8815522D01*
X12234995Y-8794776D01*
X12156783Y-8772853D01*
X12084983Y-8751300D01*
X12024943Y-8731665D01*
X11982010Y-8715492D01*
X11962048Y-8704846D01*
X11936620Y-8704846D01*
X12096676Y-8768635D01*
X12343622Y-8838658D01*
X12433558Y-8857221D01*
X12579500Y-8884342D01*
X13228611Y-8884342D01*
X13374553Y-8857221D01*
X13622552Y-8797074D01*
X13866677Y-8710035D01*
X14103911Y-8597420D01*
X14331237Y-8460543D01*
X14410417Y-8405329D01*
X14453619Y-8375200D01*
X14486593Y-8354403D01*
X14504132Y-8346135D01*
X14505667Y-8346910D01*
X14515108Y-8340654D01*
X14541476Y-8317120D01*
X14581839Y-8279085D01*
X14633266Y-8229323D01*
X14692823Y-8170609D01*
X14709781Y-8153719D01*
X14770885Y-8092125D01*
X14824056Y-8037378D01*
X14866431Y-7992523D01*
X14895145Y-7960604D01*
X14907335Y-7944668D01*
X14907459Y-7943533D01*
X14908822Y-7929331D01*
X14923088Y-7912362D01*
X14939180Y-7904736D01*
X14942108Y-7905658D01*
X14954376Y-7897793D01*
X14983639Y-7872448D01*
X15027092Y-7832253D01*
X15081932Y-7779841D01*
X15145353Y-7717842D01*
X15197886Y-7665614D01*
X15265734Y-7597824D01*
X15326707Y-7537179D01*
X15378068Y-7486375D01*
X15417081Y-7448113D01*
X15441011Y-7425090D01*
X15447432Y-7419444D01*
X15448139Y-7433119D01*
X15448801Y-7472396D01*
X15449405Y-7534655D01*
X15449938Y-7617277D01*
X15450388Y-7717642D01*
X15450740Y-7833129D01*
X15450982Y-7961120D01*
X15451101Y-8098994D01*
X15451111Y-8153222D01*
X15451111Y-8887000D01*
X13976779Y-8887000D01*
X14244750Y-8615361D01*
X14512722Y-8343722D01*
X13962124Y-8887000D01*
X13595368Y-8885671D01*
X13228611Y-8884342D01*
X12579500Y-8884342D01*
X12212743Y-8885671D01*
X11845987Y-8887000D01*
X11295389Y-8343722D01*
X11563361Y-8615361D01*
X11831332Y-8887000D01*
X10357000Y-8887000D01*
X9346327Y-8887000D01*
X9297377Y-8887349D01*
X9284556Y-8887349D01*
X9284556Y-9945333D01*
X9298667Y-9945333D01*
X9298667Y-8901111D01*
X10342889Y-8901111D01*
X10342889Y-9433274D01*
X10357000Y-9433274D01*
X10357250Y-9315586D01*
X10357962Y-9206884D01*
X10359077Y-9110379D01*
X10360538Y-9029280D01*
X10362288Y-8966795D01*
X10364268Y-8926133D01*
X10366407Y-8910519D01*
X10381928Y-8908711D01*
X10423009Y-8907017D01*
X10486987Y-8905471D01*
X10571199Y-8904107D01*
X10672984Y-8902957D01*
X10789678Y-8902057D01*
X10918620Y-8901438D01*
X11057146Y-8901136D01*
X11110840Y-8901111D01*
X11845865Y-8901111D01*
X11859976Y-8901111D01*
X12900599Y-8901111D01*
X13069182Y-8901159D01*
X13229294Y-8901296D01*
X13378734Y-8901516D01*
X13515302Y-8901811D01*
X13636799Y-8902173D01*
X13741025Y-8902594D01*
X13825779Y-8903068D01*
X13888863Y-8903586D01*
X13928074Y-8904140D01*
X13941222Y-8904710D01*
X13931544Y-8915077D01*
X13903748Y-8943515D01*
X13859687Y-8988154D01*
X13801219Y-9047128D01*
X13730198Y-9118569D01*
X13648480Y-9200610D01*
X13557921Y-9291381D01*
X13460375Y-9389016D01*
X13422568Y-9426822D01*
X12907187Y-9942061D01*
X12921581Y-9942061D01*
X13441985Y-9421480D01*
X13962389Y-8900900D01*
X14703222Y-8904533D01*
X15444056Y-8908167D01*
X15451450Y-9945333D01*
X15465222Y-9945333D01*
X15465222Y-8901111D01*
X16509444Y-8901111D01*
X16509444Y-9945333D01*
X15465222Y-9945333D01*
X15451450Y-9945333D01*
X15451460Y-9946623D01*
X14186521Y-9944342D01*
X12921581Y-9942061D01*
X12907187Y-9942061D01*
X12903913Y-9945334D01*
X12381945Y-9423223D01*
X11859976Y-8901111D01*
X11845865Y-8901111D01*
X12366198Y-9421586D01*
X12886530Y-9942061D01*
X11621765Y-9944342D01*
X10357000Y-9946622D01*
X10357000Y-9433274D01*
X10342889Y-9433274D01*
X10342889Y-9945333D01*
X9298667Y-9945333D01*
X9284556Y-9945333D01*
X9284556Y-9959444D01*
X16523556Y-9959444D01*
X16523556Y-2720444D01*
G36*
X10484000Y-3663342D02*
G01*
X10741760Y-3456302D01*
X11005154Y-3276486D01*
X11275666Y-3123202D01*
X11554783Y-2995757D01*
X11843989Y-2893460D01*
X12144770Y-2815619D01*
X12403111Y-2769257D01*
X12451192Y-2761454D01*
X12476812Y-2755542D01*
X12477808Y-2752126D01*
X12466611Y-2751527D01*
X12425809Y-2753921D01*
X12368246Y-2760477D01*
X12304853Y-2769902D01*
X12290222Y-2772406D01*
X12003839Y-2834356D01*
X11727711Y-2918266D01*
X11455051Y-3026350D01*
X11323611Y-3087370D01*
X11103395Y-3204255D01*
X10889401Y-3337144D01*
X10688359Y-3481457D01*
X10506997Y-3632611D01*
X10462833Y-3673473D01*
X10364056Y-3767060D01*
X10484000Y-3663342D01*
X10484000Y-3663342D01*
G37*
X10484000Y-3663342D02*
X10741760Y-3456302D01*
X11005154Y-3276486D01*
X11275666Y-3123202D01*
X11554783Y-2995757D01*
X11843989Y-2893460D01*
X12144770Y-2815619D01*
X12403111Y-2769257D01*
X12451192Y-2761454D01*
X12476812Y-2755542D01*
X12477808Y-2752126D01*
X12466611Y-2751527D01*
X12425809Y-2753921D01*
X12368246Y-2760477D01*
X12304853Y-2769902D01*
X12290222Y-2772406D01*
X12003839Y-2834356D01*
X11727711Y-2918266D01*
X11455051Y-3026350D01*
X11323611Y-3087370D01*
X11103395Y-3204255D01*
X10889401Y-3337144D01*
X10688359Y-3481457D01*
X10506997Y-3632611D01*
X10462833Y-3673473D01*
X10364056Y-3767060D01*
X10484000Y-3663342D01*
G36*
X15407513Y-3732776D02*
G01*
X15380966Y-3707322D01*
X15345278Y-3673473D01*
X15145000Y-3500588D01*
X14922930Y-3339463D01*
X14683995Y-3192771D01*
X14433122Y-3063186D01*
X14175237Y-2953379D01*
X13915269Y-2866025D01*
X13799752Y-2834960D01*
X13690238Y-2809147D01*
X13585923Y-2786975D01*
X13491624Y-2769307D01*
X13412158Y-2757007D01*
X13352341Y-2750937D01*
X13329068Y-2750588D01*
X13302669Y-2752359D01*
X13303190Y-2754876D01*
X13320333Y-2757888D01*
X13529560Y-2792595D01*
X13716540Y-2830103D01*
X13887232Y-2872183D01*
X14047593Y-2920604D01*
X14203580Y-2977139D01*
X14361151Y-3043556D01*
X14498611Y-3108044D01*
X14716862Y-3224023D01*
X14926862Y-3355699D01*
X15134400Y-3506958D01*
X15321313Y-3660844D01*
X15373117Y-3705625D01*
X15404286Y-3732295D01*
X15415519Y-3741223D01*
X15407513Y-3732776D01*
X15407513Y-3732776D01*
G37*
X15407513Y-3732776D02*
X15380966Y-3707322D01*
X15345278Y-3673473D01*
X15145000Y-3500588D01*
X14922930Y-3339463D01*
X14683995Y-3192771D01*
X14433122Y-3063186D01*
X14175237Y-2953379D01*
X13915269Y-2866025D01*
X13799752Y-2834960D01*
X13690238Y-2809147D01*
X13585923Y-2786975D01*
X13491624Y-2769307D01*
X13412158Y-2757007D01*
X13352341Y-2750937D01*
X13329068Y-2750588D01*
X13302669Y-2752359D01*
X13303190Y-2754876D01*
X13320333Y-2757888D01*
X13529560Y-2792595D01*
X13716540Y-2830103D01*
X13887232Y-2872183D01*
X14047593Y-2920604D01*
X14203580Y-2977139D01*
X14361151Y-3043556D01*
X14498611Y-3108044D01*
X14716862Y-3224023D01*
X14926862Y-3355699D01*
X15134400Y-3506958D01*
X15321313Y-3660844D01*
X15373117Y-3705625D01*
X15404286Y-3732295D01*
X15415519Y-3741223D01*
X15407513Y-3732776D01*
G36*
X9323679Y-5936463D02*
G01*
X9324967Y-5914932D01*
X9328213Y-5880954D01*
X9335193Y-5828651D01*
X9344608Y-5767466D01*
X9348256Y-5745598D01*
X9415911Y-5431708D01*
X9510023Y-5127221D01*
X9630106Y-4833146D01*
X9775673Y-4550494D01*
X9946235Y-4280277D01*
X10141305Y-4023504D01*
X10227304Y-3923417D01*
X10268130Y-3876860D01*
X10300061Y-3839163D01*
X10319608Y-3814530D01*
X10323817Y-3807000D01*
X10312172Y-3816899D01*
X10286005Y-3843734D01*
X10249394Y-3883215D01*
X10213193Y-3923417D01*
X10011169Y-4170691D01*
X9832338Y-4431787D01*
X9677701Y-4704846D01*
X9548260Y-4988012D01*
X9445015Y-5279428D01*
X9404792Y-5422722D01*
X9380437Y-5522640D01*
X9358756Y-5621475D01*
X9340585Y-5714467D01*
X9326757Y-5796858D01*
X9318108Y-5863887D01*
X9315471Y-5910795D01*
X9316677Y-5925263D01*
X9321139Y-5943704D01*
X9323679Y-5936463D01*
X9323679Y-5936463D01*
G37*
X9323679Y-5936463D02*
X9324967Y-5914932D01*
X9328213Y-5880954D01*
X9335193Y-5828651D01*
X9344608Y-5767466D01*
X9348256Y-5745598D01*
X9415911Y-5431708D01*
X9510023Y-5127221D01*
X9630106Y-4833146D01*
X9775673Y-4550494D01*
X9946235Y-4280277D01*
X10141305Y-4023504D01*
X10227304Y-3923417D01*
X10268130Y-3876860D01*
X10300061Y-3839163D01*
X10319608Y-3814530D01*
X10323817Y-3807000D01*
X10312172Y-3816899D01*
X10286005Y-3843734D01*
X10249394Y-3883215D01*
X10213193Y-3923417D01*
X10011169Y-4170691D01*
X9832338Y-4431787D01*
X9677701Y-4704846D01*
X9548260Y-4988012D01*
X9445015Y-5279428D01*
X9404792Y-5422722D01*
X9380437Y-5522640D01*
X9358756Y-5621475D01*
X9340585Y-5714467D01*
X9326757Y-5796858D01*
X9318108Y-5863887D01*
X9315471Y-5910795D01*
X9316677Y-5925263D01*
X9321139Y-5943704D01*
X9323679Y-5936463D01*
G36*
X16493787Y-5915570D02*
G01*
X16491095Y-5860928D01*
X16480811Y-5784605D01*
X16464125Y-5691741D01*
X16442225Y-5587474D01*
X16416301Y-5476946D01*
X16387543Y-5365297D01*
X16357140Y-5257665D01*
X16326280Y-5159192D01*
X16304186Y-5096145D01*
X16263461Y-4994307D01*
X16212418Y-4878741D01*
X16154965Y-4757433D01*
X16095007Y-4638368D01*
X16036451Y-4529533D01*
X15983205Y-4438913D01*
X15980715Y-4434944D01*
X15915983Y-4337156D01*
X15840285Y-4230899D01*
X15759222Y-4123494D01*
X15678396Y-4022264D01*
X15603408Y-3934529D01*
X15570527Y-3898722D01*
X15476940Y-3799944D01*
X15580658Y-3919889D01*
X15787698Y-4177649D01*
X15967514Y-4441043D01*
X16120798Y-4711555D01*
X16248243Y-4990672D01*
X16350540Y-5279878D01*
X16428381Y-5580659D01*
X16474743Y-5839000D01*
X16482504Y-5886799D01*
X16488855Y-5915842D01*
X16492891Y-5922494D01*
X16493787Y-5915570D01*
X16493787Y-5915570D01*
G37*
X16493787Y-5915570D02*
X16491095Y-5860928D01*
X16480811Y-5784605D01*
X16464125Y-5691741D01*
X16442225Y-5587474D01*
X16416301Y-5476946D01*
X16387543Y-5365297D01*
X16357140Y-5257665D01*
X16326280Y-5159192D01*
X16304186Y-5096145D01*
X16263461Y-4994307D01*
X16212418Y-4878741D01*
X16154965Y-4757433D01*
X16095007Y-4638368D01*
X16036451Y-4529533D01*
X15983205Y-4438913D01*
X15980715Y-4434944D01*
X15915983Y-4337156D01*
X15840285Y-4230899D01*
X15759222Y-4123494D01*
X15678396Y-4022264D01*
X15603408Y-3934529D01*
X15570527Y-3898722D01*
X15476940Y-3799944D01*
X15580658Y-3919889D01*
X15787698Y-4177649D01*
X15967514Y-4441043D01*
X16120798Y-4711555D01*
X16248243Y-4990672D01*
X16350540Y-5279878D01*
X16428381Y-5580659D01*
X16474743Y-5839000D01*
X16482504Y-5886799D01*
X16488855Y-5915842D01*
X16492891Y-5922494D01*
X16493787Y-5915570D01*
G36*
X10227453Y-8760000D02*
G01*
X10029609Y-8514787D01*
X9858009Y-8266411D01*
X9710674Y-8011570D01*
X9585625Y-7746962D01*
X9518437Y-7576598D01*
X9475909Y-7454569D01*
X9439355Y-7335473D01*
X9407300Y-7213148D01*
X9378267Y-7081429D01*
X9350781Y-6934155D01*
X9323366Y-6765162D01*
X9321999Y-6756222D01*
X9318217Y-6736468D01*
X9315992Y-6742662D01*
X9314699Y-6764957D01*
X9316851Y-6811167D01*
X9325632Y-6879601D01*
X9340155Y-6965281D01*
X9359531Y-7063229D01*
X9382873Y-7168467D01*
X9397716Y-7230226D01*
X9475379Y-7493788D01*
X9576877Y-7756705D01*
X9699615Y-8014184D01*
X9840998Y-8261433D01*
X9998428Y-8493658D01*
X10169312Y-8706069D01*
X10237777Y-8781167D01*
X10331171Y-8879944D01*
X10227453Y-8760000D01*
X10227453Y-8760000D01*
G37*
X10227453Y-8760000D02*
X10029609Y-8514787D01*
X9858009Y-8266411D01*
X9710674Y-8011570D01*
X9585625Y-7746962D01*
X9518437Y-7576598D01*
X9475909Y-7454569D01*
X9439355Y-7335473D01*
X9407300Y-7213148D01*
X9378267Y-7081429D01*
X9350781Y-6934155D01*
X9323366Y-6765162D01*
X9321999Y-6756222D01*
X9318217Y-6736468D01*
X9315992Y-6742662D01*
X9314699Y-6764957D01*
X9316851Y-6811167D01*
X9325632Y-6879601D01*
X9340155Y-6965281D01*
X9359531Y-7063229D01*
X9382873Y-7168467D01*
X9397716Y-7230226D01*
X9475379Y-7493788D01*
X9576877Y-7756705D01*
X9699615Y-8014184D01*
X9840998Y-8261433D01*
X9998428Y-8493658D01*
X10169312Y-8706069D01*
X10237777Y-8781167D01*
X10331171Y-8879944D01*
X10227453Y-8760000D01*
G36*
X15511224Y-8843402D02*
G01*
X15536678Y-8816855D01*
X15570527Y-8781167D01*
X15754833Y-8567227D01*
X15923254Y-8332338D01*
X16074113Y-8079937D01*
X16205730Y-7813463D01*
X16316428Y-7536353D01*
X16404526Y-7252045D01*
X16468347Y-6963975D01*
X16474011Y-6931015D01*
X16483509Y-6867196D01*
X16489849Y-6810733D01*
X16492265Y-6769385D01*
X16491434Y-6754626D01*
X16486972Y-6736185D01*
X16484432Y-6743426D01*
X16483144Y-6764957D01*
X16475684Y-6842206D01*
X16459917Y-6940045D01*
X16437251Y-7052564D01*
X16409095Y-7173856D01*
X16376854Y-7298011D01*
X16341938Y-7419122D01*
X16305754Y-7531281D01*
X16289913Y-7575948D01*
X16177037Y-7849934D01*
X16043257Y-8111444D01*
X15886541Y-8363876D01*
X15704856Y-8610628D01*
X15583156Y-8757202D01*
X15538375Y-8809006D01*
X15511705Y-8840175D01*
X15502777Y-8851408D01*
X15511224Y-8843402D01*
X15511224Y-8843402D01*
G37*
X15511224Y-8843402D02*
X15536678Y-8816855D01*
X15570527Y-8781167D01*
X15754833Y-8567227D01*
X15923254Y-8332338D01*
X16074113Y-8079937D01*
X16205730Y-7813463D01*
X16316428Y-7536353D01*
X16404526Y-7252045D01*
X16468347Y-6963975D01*
X16474011Y-6931015D01*
X16483509Y-6867196D01*
X16489849Y-6810733D01*
X16492265Y-6769385D01*
X16491434Y-6754626D01*
X16486972Y-6736185D01*
X16484432Y-6743426D01*
X16483144Y-6764957D01*
X16475684Y-6842206D01*
X16459917Y-6940045D01*
X16437251Y-7052564D01*
X16409095Y-7173856D01*
X16376854Y-7298011D01*
X16341938Y-7419122D01*
X16305754Y-7531281D01*
X16289913Y-7575948D01*
X16177037Y-7849934D01*
X16043257Y-8111444D01*
X15886541Y-8363876D01*
X15704856Y-8610628D01*
X15583156Y-8757202D01*
X15538375Y-8809006D01*
X15511705Y-8840175D01*
X15502777Y-8851408D01*
X15511224Y-8843402D01*
D12*
G36*
X10888795Y-7932441D02*
G01*
X10886167Y-7927444D01*
X10872871Y-7913968D01*
X10870390Y-7913333D01*
X10869427Y-7922448D01*
X10872056Y-7927444D01*
X10885351Y-7940921D01*
X10887832Y-7941556D01*
X10888795Y-7932441D01*
X10888795Y-7932441D01*
G37*
X10888795Y-7932441D02*
X10886167Y-7927444D01*
X10872871Y-7913968D01*
X10870390Y-7913333D01*
X10869427Y-7922448D01*
X10872056Y-7927444D01*
X10885351Y-7940921D01*
X10887832Y-7941556D01*
X10888795Y-7932441D01*
G36*
X14926820Y-7935848D02*
G01*
X14941969Y-7921639D01*
X14938861Y-7913471D01*
X14936888Y-7913333D01*
X14924953Y-7923356D01*
X14920597Y-7929625D01*
X14918934Y-7939281D01*
X14926820Y-7935848D01*
X14926820Y-7935848D01*
G37*
X14926820Y-7935848D02*
X14941969Y-7921639D01*
X14938861Y-7913471D01*
X14936888Y-7913333D01*
X14924953Y-7923356D01*
X14920597Y-7929625D01*
X14918934Y-7939281D01*
X14926820Y-7935848D01*
D11*
G36*
X12505442Y-9927530D02*
G01*
X12504921Y-9925013D01*
X12487778Y-9922001D01*
X12317563Y-9894551D01*
X12169369Y-9867103D01*
X12037033Y-9838180D01*
X11914391Y-9806307D01*
X11795280Y-9770008D01*
X11673539Y-9727807D01*
X11667402Y-9725563D01*
X11395083Y-9613335D01*
X11134577Y-9480047D01*
X10882583Y-9323720D01*
X10635798Y-9142376D01*
X10484000Y-9016547D01*
X10364056Y-8912829D01*
X10462833Y-9006223D01*
X10666385Y-9181571D01*
X10891588Y-9344461D01*
X11133649Y-9492296D01*
X11387776Y-9622482D01*
X11649176Y-9732422D01*
X11913058Y-9819521D01*
X12013774Y-9846284D01*
X12120947Y-9871501D01*
X12223687Y-9893262D01*
X12317017Y-9910679D01*
X12395957Y-9922864D01*
X12455530Y-9928928D01*
X12479043Y-9929301D01*
X12505442Y-9927530D01*
X12505442Y-9927530D01*
G37*
X12505442Y-9927530D02*
X12504921Y-9925013D01*
X12487778Y-9922001D01*
X12317563Y-9894551D01*
X12169369Y-9867103D01*
X12037033Y-9838180D01*
X11914391Y-9806307D01*
X11795280Y-9770008D01*
X11673539Y-9727807D01*
X11667402Y-9725563D01*
X11395083Y-9613335D01*
X11134577Y-9480047D01*
X10882583Y-9323720D01*
X10635798Y-9142376D01*
X10484000Y-9016547D01*
X10364056Y-8912829D01*
X10462833Y-9006223D01*
X10666385Y-9181571D01*
X10891588Y-9344461D01*
X11133649Y-9492296D01*
X11387776Y-9622482D01*
X11649176Y-9732422D01*
X11913058Y-9819521D01*
X12013774Y-9846284D01*
X12120947Y-9871501D01*
X12223687Y-9893262D01*
X12317017Y-9910679D01*
X12395957Y-9922864D01*
X12455530Y-9928928D01*
X12479043Y-9929301D01*
X12505442Y-9927530D01*
G36*
X13375666Y-9927130D02*
G01*
X13444632Y-9918241D01*
X13531150Y-9903497D01*
X13630403Y-9883761D01*
X13737574Y-9859897D01*
X13799752Y-9844929D01*
X14075748Y-9763117D01*
X14350044Y-9655416D01*
X14618149Y-9524018D01*
X14875570Y-9371117D01*
X15109159Y-9205608D01*
X15160780Y-9164721D01*
X15216891Y-9118545D01*
X15273726Y-9070403D01*
X15327516Y-9023617D01*
X15374495Y-8981511D01*
X15410895Y-8947406D01*
X15432948Y-8924625D01*
X15437000Y-8916489D01*
X15424162Y-8925387D01*
X15395829Y-8949209D01*
X15357109Y-8983595D01*
X15338222Y-9000833D01*
X15150346Y-9160188D01*
X14942894Y-9311955D01*
X14724457Y-9450289D01*
X14503629Y-9569348D01*
X14498611Y-9571803D01*
X14335196Y-9647856D01*
X14178314Y-9712549D01*
X14022014Y-9767652D01*
X13860345Y-9814932D01*
X13687355Y-9856159D01*
X13497091Y-9893102D01*
X13320333Y-9922001D01*
X13300579Y-9925783D01*
X13306773Y-9928008D01*
X13329068Y-9929301D01*
X13375666Y-9927130D01*
X13375666Y-9927130D01*
G37*
X13375666Y-9927130D02*
X13444632Y-9918241D01*
X13531150Y-9903497D01*
X13630403Y-9883761D01*
X13737574Y-9859897D01*
X13799752Y-9844929D01*
X14075748Y-9763117D01*
X14350044Y-9655416D01*
X14618149Y-9524018D01*
X14875570Y-9371117D01*
X15109159Y-9205608D01*
X15160780Y-9164721D01*
X15216891Y-9118545D01*
X15273726Y-9070403D01*
X15327516Y-9023617D01*
X15374495Y-8981511D01*
X15410895Y-8947406D01*
X15432948Y-8924625D01*
X15437000Y-8916489D01*
X15424162Y-8925387D01*
X15395829Y-8949209D01*
X15357109Y-8983595D01*
X15338222Y-9000833D01*
X15150346Y-9160188D01*
X14942894Y-9311955D01*
X14724457Y-9450289D01*
X14503629Y-9569348D01*
X14498611Y-9571803D01*
X14335196Y-9647856D01*
X14178314Y-9712549D01*
X14022014Y-9767652D01*
X13860345Y-9814932D01*
X13687355Y-9856159D01*
X13497091Y-9893102D01*
X13320333Y-9922001D01*
X13300579Y-9925783D01*
X13306773Y-9928008D01*
X13329068Y-9929301D01*
X13375666Y-9927130D01*
D13*
X40277000Y-5847000D02*
X40277000Y-8827000D01*
X42517000Y-6667000D02*
X42517000Y-8827000D01*
D14*
X59247000Y-3302000D02*
G75*
G03X59247000Y-3302000I-700000J0D01*
G01*
X4377000Y-10147000D02*
X4377000Y-8947000D01*
X377000Y-10147000D02*
X4377000Y-10147000D01*
X4377000Y-5347000D02*
X1677000Y-5347000D01*
X4377000Y-6547000D02*
X4377000Y-5347000D01*
X45522000Y-6572000D02*
X45522000Y-7922000D01*
X47272000Y-6572000D02*
X47272000Y-7922000D01*
X35366435Y-7411124D02*
X35702311Y-7747000D01*
X25491689Y-7747000D02*
X25827565Y-7411124D01*
X25827565Y-8082876D02*
X25491689Y-7747000D01*
X30597000Y-12852311D02*
X30932876Y-12516435D01*
X30261124Y-12516435D02*
X30597000Y-12852311D01*
X30597000Y-2641689D02*
X30261124Y-2977565D01*
X30932876Y-2977565D02*
X30597000Y-2641689D01*
X56707000Y-3302000D02*
G75*
G03X56707000Y-3302000I-700000J0D01*
G01*
X54167000Y-3302000D02*
G75*
G03X54167000Y-3302000I-700000J0D01*
G01*
X50557000Y-6797000D02*
X50557000Y-7297000D01*
X52837000Y-6797000D02*
X52837000Y-7297000D01*
X9782000Y-10672000D02*
X9782000Y-11172000D01*
X12062000Y-10672000D02*
X12062000Y-11172000D01*
X50137000Y-7297000D02*
X50137000Y-6797000D01*
X47857000Y-7297000D02*
X47857000Y-6797000D01*
X17247000Y-11387000D02*
X17747000Y-11387000D01*
X17247000Y-9107000D02*
X17747000Y-9107000D01*
X17747000Y-6607000D02*
X17247000Y-6607000D01*
X17747000Y-8887000D02*
X17247000Y-8887000D01*
X61147000Y-2727000D02*
X61147000Y-1397000D01*
X59817000Y-2727000D02*
X61147000Y-2727000D01*
X58547000Y-2727000D02*
X58547000Y-67000D01*
X58547000Y-67000D02*
X67000Y-67000D01*
X58547000Y-2727000D02*
X67000Y-2727000D01*
X67000Y-2727000D02*
X67000Y-67000D01*
X67000Y-12767000D02*
X67000Y-14097000D01*
X1397000Y-12767000D02*
X67000Y-12767000D01*
X2667000Y-12767000D02*
X2667000Y-15427000D01*
X2667000Y-15427000D02*
X61147000Y-15427000D01*
X2667000Y-12767000D02*
X61147000Y-12767000D01*
X61147000Y-12767000D02*
X61147000Y-15427000D01*
X5199064Y-12657000D02*
X3994936Y-12657000D01*
X5199064Y-10837000D02*
X3994936Y-10837000D01*
X5199064Y-4657000D02*
X3994936Y-4657000D01*
X5199064Y-2837000D02*
X3994936Y-2837000D01*
M02*
