M48
; DRILL file {KiCad (5.1.2)-2} date 2019/8/7 20:07:02
; FORMAT={-:-/ absolute / inch / decimal}
; #@! TF.CreationDate,2019-08-07T20:07:02+08:00
; #@! TF.GenerationSoftware,Kicad,Pcbnew,(5.1.2)-2
; #@! TF.FileFunction,Plated,1,2,PTH
FMAT,2
INCH
T1C0.0118
T2C0.0197
T3C0.0236
T4C0.0335
T5C0.0394
%
G90
G05
T1
X0.07Y-0.495
X0.19Y-0.15
X0.2564Y-0.2459
X0.2564Y-0.2853
X0.2564Y-0.3641
X0.2946Y-0.3641
X0.2952Y-0.1475
X0.3596Y-0.1633
X0.3696Y-0.3826
X0.3882Y-0.1633
X0.3975Y-0.3404
X0.4849Y-0.4551
X0.4881Y-0.2341
X0.492Y-0.3444
X0.5393Y-0.1515
X0.5393Y-0.2971
X0.5776Y-0.385
X0.6062Y-0.3837
X0.6091Y-0.3522
X0.6377Y-0.3522
X0.7361Y-0.4547
X0.7479Y-0.3719
X0.803Y-0.2335
X0.8424Y-0.2335
X0.8424Y-0.4192
X0.8503Y-0.2735
X0.8503Y-0.3168
X0.8514Y-0.3472
X0.9328Y-0.2932
X0.933Y-0.2144
X0.9605Y-0.4211
X0.9763Y-0.2578
X0.9763Y-0.2864
X0.9763Y-0.315
X0.9763Y-0.3444
X1.0785Y-0.3014
X1.1197Y-0.3471
X1.1218Y-0.2664
X1.1636Y-0.391
X1.1642Y-0.2239
X1.2004Y-0.4327
X1.2082Y-0.1801
X1.2443Y-0.3889
X1.245Y-0.2218
X1.2867Y-0.3464
X1.305Y-0.4546
X1.3306Y-0.3086
X1.3734Y-0.3764
X1.3866Y-0.4456
X1.4172Y-0.3247
X1.4684Y-0.2735
X1.5043Y-0.1972
X1.5747Y-0.3168
X1.5885Y-0.2833
X1.7144Y-0.242
X1.7204Y-0.1453
X1.7322Y-0.3168
X1.7341Y-0.2184
X1.7952Y-0.2617
X1.7952Y-0.3089
X1.83Y-0.45
X1.8306Y-0.1515
X1.87Y-0.3837
X1.8818Y-0.2291
X1.8818Y-0.2578
X1.9133Y-0.3759
X1.9156Y-0.4074
X1.929Y-0.4822
X1.9369Y-0.2184
X1.9408Y-0.3881
X1.9585Y-0.3447
X1.9723Y-0.1353
X2.0038Y-0.1318
X2.0058Y-0.3247
X2.0137Y-0.3542
X2.0235Y-0.4822
X2.0353Y-0.1318
X2.0668Y-0.1318
X2.1178Y-0.4822
X2.1433Y-0.2954
X2.1635Y-0.2752
X2.1652Y-0.1598
X2.2873Y-0.3039
X2.2873Y-0.3326
T2
X2.105Y-0.13
X2.205Y-0.13
X2.305Y-0.13
T4
X2.2415Y-0.2066
X2.2415Y-0.4034
X0.1677Y-0.2066
X0.1677Y-0.4034
T5
X0.055Y-0.555
X0.155Y-0.555
X0.255Y-0.555
X0.355Y-0.555
X0.455Y-0.555
X0.555Y-0.555
X0.655Y-0.555
X0.755Y-0.555
X0.855Y-0.555
X0.955Y-0.555
X1.055Y-0.555
X1.155Y-0.555
X1.255Y-0.555
X1.355Y-0.555
X1.455Y-0.555
X1.555Y-0.555
X1.655Y-0.555
X1.755Y-0.555
X1.855Y-0.555
X1.955Y-0.555
X2.055Y-0.555
X2.155Y-0.555
X2.255Y-0.555
X2.355Y-0.555
X1.2046Y-0.305
X0.055Y-0.055
X0.155Y-0.055
X0.255Y-0.055
X0.355Y-0.055
X0.455Y-0.055
X0.555Y-0.055
X0.655Y-0.055
X0.755Y-0.055
X0.855Y-0.055
X0.955Y-0.055
X1.055Y-0.055
X1.155Y-0.055
X1.255Y-0.055
X1.355Y-0.055
X1.455Y-0.055
X1.555Y-0.055
X1.655Y-0.055
X1.755Y-0.055
X1.855Y-0.055
X1.955Y-0.055
X2.055Y-0.055
X2.155Y-0.055
X2.255Y-0.055
X2.355Y-0.055
T3
G00X2.334Y-0.1672
M15
G01X2.3616Y-0.1672
M16
G05
G00X2.3616Y-0.4428
M15
G01X2.334Y-0.4428
M16
G05
G00X0.0476Y-0.1672
M15
G01X0.0752Y-0.1672
M16
G05
G00X0.0752Y-0.4428
M15
G01X0.0476Y-0.4428
M16
G05
T0
M30
