G04 #@! TF.GenerationSoftware,KiCad,Pcbnew,(5.1.2)-2*
G04 #@! TF.CreationDate,2019-08-07T20:06:56+08:00*
G04 #@! TF.ProjectId,pillf4,70696c6c-6634-42e6-9b69-6361645f7063,rev?*
G04 #@! TF.SameCoordinates,PXffeaaef8PYff89ca48*
G04 #@! TF.FileFunction,Paste,Top*
G04 #@! TF.FilePolarity,Positive*
%FSLAX46Y46*%
G04 Gerber Fmt 4.6, Leading zero omitted, Abs format (unit mm)*
G04 Created by KiCad (PCBNEW (5.1.2)-2) date 2019-08-07 20:06:56*
%MOMM*%
%LPD*%
G04 APERTURE LIST*
%ADD10R,0.500000X0.320000*%
%ADD11C,1.000000*%
%ADD12C,0.100000*%
%ADD13C,0.590000*%
%ADD14C,0.875000*%
%ADD15R,2.000000X0.320000*%
%ADD16R,1.000000X0.800000*%
%ADD17R,1.900000X1.500000*%
%ADD18R,1.350000X0.400000*%
%ADD19C,0.250000*%
%ADD20R,2.000000X2.000000*%
G04 APERTURE END LIST*
D10*
X20797000Y-8497000D03*
X20797000Y-7997000D03*
X20797000Y-6997000D03*
X20797000Y-7497000D03*
X19597000Y-8497000D03*
X19597000Y-7497000D03*
X19597000Y-7997000D03*
X19597000Y-6997000D03*
D11*
X10780705Y-10363295D03*
D12*
G36*
X11841365Y-10716848D02*
G01*
X11134258Y-11423955D01*
X9720045Y-10009742D01*
X10427152Y-9302635D01*
X11841365Y-10716848D01*
X11841365Y-10716848D01*
G37*
D11*
X16013295Y-5130705D03*
D12*
G36*
X17073955Y-5484258D02*
G01*
X16366848Y-6191365D01*
X14952635Y-4777152D01*
X15659742Y-4070045D01*
X17073955Y-5484258D01*
X17073955Y-5484258D01*
G37*
D11*
X17144666Y-9514767D03*
D12*
G36*
X17144666Y-8807660D02*
G01*
X17851773Y-9514767D01*
X17144666Y-10221874D01*
X16437559Y-9514767D01*
X17144666Y-8807660D01*
X17144666Y-8807660D01*
G37*
D11*
X16154716Y-10504716D03*
D12*
G36*
X16861823Y-10504716D02*
G01*
X16154716Y-11211823D01*
X15447609Y-10504716D01*
X16154716Y-9797609D01*
X16861823Y-10504716D01*
X16861823Y-10504716D01*
G37*
D11*
X15164767Y-11494666D03*
D12*
G36*
X15871874Y-11494666D02*
G01*
X15164767Y-12201773D01*
X14457660Y-11494666D01*
X15164767Y-10787559D01*
X15871874Y-11494666D01*
X15871874Y-11494666D01*
G37*
D11*
X9649334Y-5979233D03*
D12*
G36*
X8942227Y-5979233D02*
G01*
X9649334Y-5272126D01*
X10356441Y-5979233D01*
X9649334Y-6686340D01*
X8942227Y-5979233D01*
X8942227Y-5979233D01*
G37*
D11*
X11629233Y-3999334D03*
D12*
G36*
X10922126Y-3999334D02*
G01*
X11629233Y-3292227D01*
X12336340Y-3999334D01*
X11629233Y-4706441D01*
X10922126Y-3999334D01*
X10922126Y-3999334D01*
G37*
D11*
X10639284Y-4989284D03*
D12*
G36*
X9932177Y-4989284D02*
G01*
X10639284Y-4282177D01*
X11346391Y-4989284D01*
X10639284Y-5696391D01*
X9932177Y-4989284D01*
X9932177Y-4989284D01*
G37*
G36*
X20336727Y-9930989D02*
G01*
X20351045Y-9933113D01*
X20365086Y-9936630D01*
X20378715Y-9941507D01*
X20391800Y-9947696D01*
X20404216Y-9955137D01*
X20415842Y-9963760D01*
X20426567Y-9973481D01*
X20670519Y-10217433D01*
X20680240Y-10228158D01*
X20688863Y-10239784D01*
X20696304Y-10252200D01*
X20702493Y-10265285D01*
X20707370Y-10278914D01*
X20710887Y-10292955D01*
X20713011Y-10307273D01*
X20713721Y-10321731D01*
X20713011Y-10336189D01*
X20710887Y-10350507D01*
X20707370Y-10364548D01*
X20702493Y-10378177D01*
X20696304Y-10391262D01*
X20688863Y-10403678D01*
X20680240Y-10415304D01*
X20670519Y-10426029D01*
X20461923Y-10634625D01*
X20451198Y-10644346D01*
X20439572Y-10652969D01*
X20427156Y-10660410D01*
X20414071Y-10666599D01*
X20400442Y-10671476D01*
X20386401Y-10674993D01*
X20372083Y-10677117D01*
X20357625Y-10677827D01*
X20343167Y-10677117D01*
X20328849Y-10674993D01*
X20314808Y-10671476D01*
X20301179Y-10666599D01*
X20288094Y-10660410D01*
X20275678Y-10652969D01*
X20264052Y-10644346D01*
X20253327Y-10634625D01*
X20009375Y-10390673D01*
X19999654Y-10379948D01*
X19991031Y-10368322D01*
X19983590Y-10355906D01*
X19977401Y-10342821D01*
X19972524Y-10329192D01*
X19969007Y-10315151D01*
X19966883Y-10300833D01*
X19966173Y-10286375D01*
X19966883Y-10271917D01*
X19969007Y-10257599D01*
X19972524Y-10243558D01*
X19977401Y-10229929D01*
X19983590Y-10216844D01*
X19991031Y-10204428D01*
X19999654Y-10192802D01*
X20009375Y-10182077D01*
X20217971Y-9973481D01*
X20228696Y-9963760D01*
X20240322Y-9955137D01*
X20252738Y-9947696D01*
X20265823Y-9941507D01*
X20279452Y-9936630D01*
X20293493Y-9933113D01*
X20307811Y-9930989D01*
X20322269Y-9930279D01*
X20336727Y-9930989D01*
X20336727Y-9930989D01*
G37*
D13*
X20339947Y-10304053D03*
D12*
G36*
X19650833Y-10616883D02*
G01*
X19665151Y-10619007D01*
X19679192Y-10622524D01*
X19692821Y-10627401D01*
X19705906Y-10633590D01*
X19718322Y-10641031D01*
X19729948Y-10649654D01*
X19740673Y-10659375D01*
X19984625Y-10903327D01*
X19994346Y-10914052D01*
X20002969Y-10925678D01*
X20010410Y-10938094D01*
X20016599Y-10951179D01*
X20021476Y-10964808D01*
X20024993Y-10978849D01*
X20027117Y-10993167D01*
X20027827Y-11007625D01*
X20027117Y-11022083D01*
X20024993Y-11036401D01*
X20021476Y-11050442D01*
X20016599Y-11064071D01*
X20010410Y-11077156D01*
X20002969Y-11089572D01*
X19994346Y-11101198D01*
X19984625Y-11111923D01*
X19776029Y-11320519D01*
X19765304Y-11330240D01*
X19753678Y-11338863D01*
X19741262Y-11346304D01*
X19728177Y-11352493D01*
X19714548Y-11357370D01*
X19700507Y-11360887D01*
X19686189Y-11363011D01*
X19671731Y-11363721D01*
X19657273Y-11363011D01*
X19642955Y-11360887D01*
X19628914Y-11357370D01*
X19615285Y-11352493D01*
X19602200Y-11346304D01*
X19589784Y-11338863D01*
X19578158Y-11330240D01*
X19567433Y-11320519D01*
X19323481Y-11076567D01*
X19313760Y-11065842D01*
X19305137Y-11054216D01*
X19297696Y-11041800D01*
X19291507Y-11028715D01*
X19286630Y-11015086D01*
X19283113Y-11001045D01*
X19280989Y-10986727D01*
X19280279Y-10972269D01*
X19280989Y-10957811D01*
X19283113Y-10943493D01*
X19286630Y-10929452D01*
X19291507Y-10915823D01*
X19297696Y-10902738D01*
X19305137Y-10890322D01*
X19313760Y-10878696D01*
X19323481Y-10867971D01*
X19532077Y-10659375D01*
X19542802Y-10649654D01*
X19554428Y-10641031D01*
X19566844Y-10633590D01*
X19579929Y-10627401D01*
X19593558Y-10622524D01*
X19607599Y-10619007D01*
X19621917Y-10616883D01*
X19636375Y-10616173D01*
X19650833Y-10616883D01*
X19650833Y-10616883D01*
G37*
D13*
X19654053Y-10989947D03*
D12*
G36*
X17135077Y-11050274D02*
G01*
X17156312Y-11053424D01*
X17177136Y-11058640D01*
X17197348Y-11065872D01*
X17216754Y-11075051D01*
X17235167Y-11086087D01*
X17252410Y-11098875D01*
X17268316Y-11113291D01*
X17630709Y-11475684D01*
X17645125Y-11491590D01*
X17657913Y-11508833D01*
X17668949Y-11527246D01*
X17678128Y-11546652D01*
X17685360Y-11566864D01*
X17690576Y-11587688D01*
X17693726Y-11608923D01*
X17694779Y-11630364D01*
X17693726Y-11651805D01*
X17690576Y-11673040D01*
X17685360Y-11693864D01*
X17678128Y-11714076D01*
X17668949Y-11733482D01*
X17657913Y-11751895D01*
X17645125Y-11769138D01*
X17630709Y-11785044D01*
X17321350Y-12094403D01*
X17305444Y-12108819D01*
X17288201Y-12121607D01*
X17269788Y-12132643D01*
X17250382Y-12141822D01*
X17230170Y-12149054D01*
X17209346Y-12154270D01*
X17188111Y-12157420D01*
X17166670Y-12158473D01*
X17145229Y-12157420D01*
X17123994Y-12154270D01*
X17103170Y-12149054D01*
X17082958Y-12141822D01*
X17063552Y-12132643D01*
X17045139Y-12121607D01*
X17027896Y-12108819D01*
X17011990Y-12094403D01*
X16649597Y-11732010D01*
X16635181Y-11716104D01*
X16622393Y-11698861D01*
X16611357Y-11680448D01*
X16602178Y-11661042D01*
X16594946Y-11640830D01*
X16589730Y-11620006D01*
X16586580Y-11598771D01*
X16585527Y-11577330D01*
X16586580Y-11555889D01*
X16589730Y-11534654D01*
X16594946Y-11513830D01*
X16602178Y-11493618D01*
X16611357Y-11474212D01*
X16622393Y-11455799D01*
X16635181Y-11438556D01*
X16649597Y-11422650D01*
X16958956Y-11113291D01*
X16974862Y-11098875D01*
X16992105Y-11086087D01*
X17010518Y-11075051D01*
X17029924Y-11065872D01*
X17050136Y-11058640D01*
X17070960Y-11053424D01*
X17092195Y-11050274D01*
X17113636Y-11049221D01*
X17135077Y-11050274D01*
X17135077Y-11050274D01*
G37*
D14*
X17140153Y-11603847D03*
D12*
G36*
X18248771Y-9936580D02*
G01*
X18270006Y-9939730D01*
X18290830Y-9944946D01*
X18311042Y-9952178D01*
X18330448Y-9961357D01*
X18348861Y-9972393D01*
X18366104Y-9985181D01*
X18382010Y-9999597D01*
X18744403Y-10361990D01*
X18758819Y-10377896D01*
X18771607Y-10395139D01*
X18782643Y-10413552D01*
X18791822Y-10432958D01*
X18799054Y-10453170D01*
X18804270Y-10473994D01*
X18807420Y-10495229D01*
X18808473Y-10516670D01*
X18807420Y-10538111D01*
X18804270Y-10559346D01*
X18799054Y-10580170D01*
X18791822Y-10600382D01*
X18782643Y-10619788D01*
X18771607Y-10638201D01*
X18758819Y-10655444D01*
X18744403Y-10671350D01*
X18435044Y-10980709D01*
X18419138Y-10995125D01*
X18401895Y-11007913D01*
X18383482Y-11018949D01*
X18364076Y-11028128D01*
X18343864Y-11035360D01*
X18323040Y-11040576D01*
X18301805Y-11043726D01*
X18280364Y-11044779D01*
X18258923Y-11043726D01*
X18237688Y-11040576D01*
X18216864Y-11035360D01*
X18196652Y-11028128D01*
X18177246Y-11018949D01*
X18158833Y-11007913D01*
X18141590Y-10995125D01*
X18125684Y-10980709D01*
X17763291Y-10618316D01*
X17748875Y-10602410D01*
X17736087Y-10585167D01*
X17725051Y-10566754D01*
X17715872Y-10547348D01*
X17708640Y-10527136D01*
X17703424Y-10506312D01*
X17700274Y-10485077D01*
X17699221Y-10463636D01*
X17700274Y-10442195D01*
X17703424Y-10420960D01*
X17708640Y-10400136D01*
X17715872Y-10379924D01*
X17725051Y-10360518D01*
X17736087Y-10342105D01*
X17748875Y-10324862D01*
X17763291Y-10308956D01*
X18072650Y-9999597D01*
X18088556Y-9985181D01*
X18105799Y-9972393D01*
X18124212Y-9961357D01*
X18143618Y-9952178D01*
X18163830Y-9944946D01*
X18184654Y-9939730D01*
X18205889Y-9936580D01*
X18227330Y-9935527D01*
X18248771Y-9936580D01*
X18248771Y-9936580D01*
G37*
D14*
X18253847Y-10490153D03*
D12*
G36*
X55274691Y-3623053D02*
G01*
X55295926Y-3626203D01*
X55316750Y-3631419D01*
X55336962Y-3638651D01*
X55356368Y-3647830D01*
X55374781Y-3658866D01*
X55392024Y-3671654D01*
X55407930Y-3686070D01*
X55422346Y-3701976D01*
X55435134Y-3719219D01*
X55446170Y-3737632D01*
X55455349Y-3757038D01*
X55462581Y-3777250D01*
X55467797Y-3798074D01*
X55470947Y-3819309D01*
X55472000Y-3840750D01*
X55472000Y-4278250D01*
X55470947Y-4299691D01*
X55467797Y-4320926D01*
X55462581Y-4341750D01*
X55455349Y-4361962D01*
X55446170Y-4381368D01*
X55435134Y-4399781D01*
X55422346Y-4417024D01*
X55407930Y-4432930D01*
X55392024Y-4447346D01*
X55374781Y-4460134D01*
X55356368Y-4471170D01*
X55336962Y-4480349D01*
X55316750Y-4487581D01*
X55295926Y-4492797D01*
X55274691Y-4495947D01*
X55253250Y-4497000D01*
X54740750Y-4497000D01*
X54719309Y-4495947D01*
X54698074Y-4492797D01*
X54677250Y-4487581D01*
X54657038Y-4480349D01*
X54637632Y-4471170D01*
X54619219Y-4460134D01*
X54601976Y-4447346D01*
X54586070Y-4432930D01*
X54571654Y-4417024D01*
X54558866Y-4399781D01*
X54547830Y-4381368D01*
X54538651Y-4361962D01*
X54531419Y-4341750D01*
X54526203Y-4320926D01*
X54523053Y-4299691D01*
X54522000Y-4278250D01*
X54522000Y-3840750D01*
X54523053Y-3819309D01*
X54526203Y-3798074D01*
X54531419Y-3777250D01*
X54538651Y-3757038D01*
X54547830Y-3737632D01*
X54558866Y-3719219D01*
X54571654Y-3701976D01*
X54586070Y-3686070D01*
X54601976Y-3671654D01*
X54619219Y-3658866D01*
X54637632Y-3647830D01*
X54657038Y-3638651D01*
X54677250Y-3631419D01*
X54698074Y-3626203D01*
X54719309Y-3623053D01*
X54740750Y-3622000D01*
X55253250Y-3622000D01*
X55274691Y-3623053D01*
X55274691Y-3623053D01*
G37*
D14*
X54997000Y-4059500D03*
D12*
G36*
X55274691Y-5198053D02*
G01*
X55295926Y-5201203D01*
X55316750Y-5206419D01*
X55336962Y-5213651D01*
X55356368Y-5222830D01*
X55374781Y-5233866D01*
X55392024Y-5246654D01*
X55407930Y-5261070D01*
X55422346Y-5276976D01*
X55435134Y-5294219D01*
X55446170Y-5312632D01*
X55455349Y-5332038D01*
X55462581Y-5352250D01*
X55467797Y-5373074D01*
X55470947Y-5394309D01*
X55472000Y-5415750D01*
X55472000Y-5853250D01*
X55470947Y-5874691D01*
X55467797Y-5895926D01*
X55462581Y-5916750D01*
X55455349Y-5936962D01*
X55446170Y-5956368D01*
X55435134Y-5974781D01*
X55422346Y-5992024D01*
X55407930Y-6007930D01*
X55392024Y-6022346D01*
X55374781Y-6035134D01*
X55356368Y-6046170D01*
X55336962Y-6055349D01*
X55316750Y-6062581D01*
X55295926Y-6067797D01*
X55274691Y-6070947D01*
X55253250Y-6072000D01*
X54740750Y-6072000D01*
X54719309Y-6070947D01*
X54698074Y-6067797D01*
X54677250Y-6062581D01*
X54657038Y-6055349D01*
X54637632Y-6046170D01*
X54619219Y-6035134D01*
X54601976Y-6022346D01*
X54586070Y-6007930D01*
X54571654Y-5992024D01*
X54558866Y-5974781D01*
X54547830Y-5956368D01*
X54538651Y-5936962D01*
X54531419Y-5916750D01*
X54526203Y-5895926D01*
X54523053Y-5874691D01*
X54522000Y-5853250D01*
X54522000Y-5415750D01*
X54523053Y-5394309D01*
X54526203Y-5373074D01*
X54531419Y-5352250D01*
X54538651Y-5332038D01*
X54547830Y-5312632D01*
X54558866Y-5294219D01*
X54571654Y-5276976D01*
X54586070Y-5261070D01*
X54601976Y-5246654D01*
X54619219Y-5233866D01*
X54637632Y-5222830D01*
X54657038Y-5213651D01*
X54677250Y-5206419D01*
X54698074Y-5201203D01*
X54719309Y-5198053D01*
X54740750Y-5197000D01*
X55253250Y-5197000D01*
X55274691Y-5198053D01*
X55274691Y-5198053D01*
G37*
D14*
X54997000Y-5634500D03*
D12*
G36*
X17188111Y-3436580D02*
G01*
X17209346Y-3439730D01*
X17230170Y-3444946D01*
X17250382Y-3452178D01*
X17269788Y-3461357D01*
X17288201Y-3472393D01*
X17305444Y-3485181D01*
X17321350Y-3499597D01*
X17630709Y-3808956D01*
X17645125Y-3824862D01*
X17657913Y-3842105D01*
X17668949Y-3860518D01*
X17678128Y-3879924D01*
X17685360Y-3900136D01*
X17690576Y-3920960D01*
X17693726Y-3942195D01*
X17694779Y-3963636D01*
X17693726Y-3985077D01*
X17690576Y-4006312D01*
X17685360Y-4027136D01*
X17678128Y-4047348D01*
X17668949Y-4066754D01*
X17657913Y-4085167D01*
X17645125Y-4102410D01*
X17630709Y-4118316D01*
X17268316Y-4480709D01*
X17252410Y-4495125D01*
X17235167Y-4507913D01*
X17216754Y-4518949D01*
X17197348Y-4528128D01*
X17177136Y-4535360D01*
X17156312Y-4540576D01*
X17135077Y-4543726D01*
X17113636Y-4544779D01*
X17092195Y-4543726D01*
X17070960Y-4540576D01*
X17050136Y-4535360D01*
X17029924Y-4528128D01*
X17010518Y-4518949D01*
X16992105Y-4507913D01*
X16974862Y-4495125D01*
X16958956Y-4480709D01*
X16649597Y-4171350D01*
X16635181Y-4155444D01*
X16622393Y-4138201D01*
X16611357Y-4119788D01*
X16602178Y-4100382D01*
X16594946Y-4080170D01*
X16589730Y-4059346D01*
X16586580Y-4038111D01*
X16585527Y-4016670D01*
X16586580Y-3995229D01*
X16589730Y-3973994D01*
X16594946Y-3953170D01*
X16602178Y-3932958D01*
X16611357Y-3913552D01*
X16622393Y-3895139D01*
X16635181Y-3877896D01*
X16649597Y-3861990D01*
X17011990Y-3499597D01*
X17027896Y-3485181D01*
X17045139Y-3472393D01*
X17063552Y-3461357D01*
X17082958Y-3452178D01*
X17103170Y-3444946D01*
X17123994Y-3439730D01*
X17145229Y-3436580D01*
X17166670Y-3435527D01*
X17188111Y-3436580D01*
X17188111Y-3436580D01*
G37*
D14*
X17140153Y-3990153D03*
D12*
G36*
X18301805Y-4550274D02*
G01*
X18323040Y-4553424D01*
X18343864Y-4558640D01*
X18364076Y-4565872D01*
X18383482Y-4575051D01*
X18401895Y-4586087D01*
X18419138Y-4598875D01*
X18435044Y-4613291D01*
X18744403Y-4922650D01*
X18758819Y-4938556D01*
X18771607Y-4955799D01*
X18782643Y-4974212D01*
X18791822Y-4993618D01*
X18799054Y-5013830D01*
X18804270Y-5034654D01*
X18807420Y-5055889D01*
X18808473Y-5077330D01*
X18807420Y-5098771D01*
X18804270Y-5120006D01*
X18799054Y-5140830D01*
X18791822Y-5161042D01*
X18782643Y-5180448D01*
X18771607Y-5198861D01*
X18758819Y-5216104D01*
X18744403Y-5232010D01*
X18382010Y-5594403D01*
X18366104Y-5608819D01*
X18348861Y-5621607D01*
X18330448Y-5632643D01*
X18311042Y-5641822D01*
X18290830Y-5649054D01*
X18270006Y-5654270D01*
X18248771Y-5657420D01*
X18227330Y-5658473D01*
X18205889Y-5657420D01*
X18184654Y-5654270D01*
X18163830Y-5649054D01*
X18143618Y-5641822D01*
X18124212Y-5632643D01*
X18105799Y-5621607D01*
X18088556Y-5608819D01*
X18072650Y-5594403D01*
X17763291Y-5285044D01*
X17748875Y-5269138D01*
X17736087Y-5251895D01*
X17725051Y-5233482D01*
X17715872Y-5214076D01*
X17708640Y-5193864D01*
X17703424Y-5173040D01*
X17700274Y-5151805D01*
X17699221Y-5130364D01*
X17700274Y-5108923D01*
X17703424Y-5087688D01*
X17708640Y-5066864D01*
X17715872Y-5046652D01*
X17725051Y-5027246D01*
X17736087Y-5008833D01*
X17748875Y-4991590D01*
X17763291Y-4975684D01*
X18125684Y-4613291D01*
X18141590Y-4598875D01*
X18158833Y-4586087D01*
X18177246Y-4575051D01*
X18196652Y-4565872D01*
X18216864Y-4558640D01*
X18237688Y-4553424D01*
X18258923Y-4550274D01*
X18280364Y-4549221D01*
X18301805Y-4550274D01*
X18301805Y-4550274D01*
G37*
D14*
X18253847Y-5103847D03*
D15*
X42097000Y-3717000D03*
X42097000Y-4337000D03*
X42097000Y-4957000D03*
X42097000Y-5577000D03*
X42097000Y-6197000D03*
X42097000Y-6817000D03*
X42097000Y-7437000D03*
X42097000Y-8057000D03*
X42097000Y-8677000D03*
X42097000Y-9297000D03*
X42097000Y-9917000D03*
X42097000Y-10537000D03*
X42097000Y-11157000D03*
X42097000Y-11777000D03*
D16*
X36147000Y-11597000D03*
X34647000Y-11597000D03*
X34647000Y-10497000D03*
X36147000Y-10497000D03*
D17*
X59634500Y-8747000D03*
D18*
X56934500Y-7747000D03*
X56934500Y-7097000D03*
X56934500Y-6447000D03*
X56934500Y-9047000D03*
X56934500Y-8397000D03*
D17*
X59634500Y-6747000D03*
D12*
G36*
X31599738Y-9323586D02*
G01*
X31620973Y-9326736D01*
X31641797Y-9331952D01*
X31662009Y-9339184D01*
X31681415Y-9348363D01*
X31699828Y-9359399D01*
X31717071Y-9372187D01*
X31732977Y-9386603D01*
X32095370Y-9748996D01*
X32109786Y-9764902D01*
X32122574Y-9782145D01*
X32133610Y-9800558D01*
X32142789Y-9819964D01*
X32150021Y-9840176D01*
X32155237Y-9861000D01*
X32158387Y-9882235D01*
X32159440Y-9903676D01*
X32158387Y-9925117D01*
X32155237Y-9946352D01*
X32150021Y-9967176D01*
X32142789Y-9987388D01*
X32133610Y-10006794D01*
X32122574Y-10025207D01*
X32109786Y-10042450D01*
X32095370Y-10058356D01*
X31786011Y-10367715D01*
X31770105Y-10382131D01*
X31752862Y-10394919D01*
X31734449Y-10405955D01*
X31715043Y-10415134D01*
X31694831Y-10422366D01*
X31674007Y-10427582D01*
X31652772Y-10430732D01*
X31631331Y-10431785D01*
X31609890Y-10430732D01*
X31588655Y-10427582D01*
X31567831Y-10422366D01*
X31547619Y-10415134D01*
X31528213Y-10405955D01*
X31509800Y-10394919D01*
X31492557Y-10382131D01*
X31476651Y-10367715D01*
X31114258Y-10005322D01*
X31099842Y-9989416D01*
X31087054Y-9972173D01*
X31076018Y-9953760D01*
X31066839Y-9934354D01*
X31059607Y-9914142D01*
X31054391Y-9893318D01*
X31051241Y-9872083D01*
X31050188Y-9850642D01*
X31051241Y-9829201D01*
X31054391Y-9807966D01*
X31059607Y-9787142D01*
X31066839Y-9766930D01*
X31076018Y-9747524D01*
X31087054Y-9729111D01*
X31099842Y-9711868D01*
X31114258Y-9695962D01*
X31423617Y-9386603D01*
X31439523Y-9372187D01*
X31456766Y-9359399D01*
X31475179Y-9348363D01*
X31494585Y-9339184D01*
X31514797Y-9331952D01*
X31535621Y-9326736D01*
X31556856Y-9323586D01*
X31578297Y-9322533D01*
X31599738Y-9323586D01*
X31599738Y-9323586D01*
G37*
D14*
X31604814Y-9877159D03*
D12*
G36*
X30486044Y-10437280D02*
G01*
X30507279Y-10440430D01*
X30528103Y-10445646D01*
X30548315Y-10452878D01*
X30567721Y-10462057D01*
X30586134Y-10473093D01*
X30603377Y-10485881D01*
X30619283Y-10500297D01*
X30981676Y-10862690D01*
X30996092Y-10878596D01*
X31008880Y-10895839D01*
X31019916Y-10914252D01*
X31029095Y-10933658D01*
X31036327Y-10953870D01*
X31041543Y-10974694D01*
X31044693Y-10995929D01*
X31045746Y-11017370D01*
X31044693Y-11038811D01*
X31041543Y-11060046D01*
X31036327Y-11080870D01*
X31029095Y-11101082D01*
X31019916Y-11120488D01*
X31008880Y-11138901D01*
X30996092Y-11156144D01*
X30981676Y-11172050D01*
X30672317Y-11481409D01*
X30656411Y-11495825D01*
X30639168Y-11508613D01*
X30620755Y-11519649D01*
X30601349Y-11528828D01*
X30581137Y-11536060D01*
X30560313Y-11541276D01*
X30539078Y-11544426D01*
X30517637Y-11545479D01*
X30496196Y-11544426D01*
X30474961Y-11541276D01*
X30454137Y-11536060D01*
X30433925Y-11528828D01*
X30414519Y-11519649D01*
X30396106Y-11508613D01*
X30378863Y-11495825D01*
X30362957Y-11481409D01*
X30000564Y-11119016D01*
X29986148Y-11103110D01*
X29973360Y-11085867D01*
X29962324Y-11067454D01*
X29953145Y-11048048D01*
X29945913Y-11027836D01*
X29940697Y-11007012D01*
X29937547Y-10985777D01*
X29936494Y-10964336D01*
X29937547Y-10942895D01*
X29940697Y-10921660D01*
X29945913Y-10900836D01*
X29953145Y-10880624D01*
X29962324Y-10861218D01*
X29973360Y-10842805D01*
X29986148Y-10825562D01*
X30000564Y-10809656D01*
X30309923Y-10500297D01*
X30325829Y-10485881D01*
X30343072Y-10473093D01*
X30361485Y-10462057D01*
X30380891Y-10452878D01*
X30401103Y-10445646D01*
X30421927Y-10440430D01*
X30443162Y-10437280D01*
X30464603Y-10436227D01*
X30486044Y-10437280D01*
X30486044Y-10437280D01*
G37*
D14*
X30491120Y-10990853D03*
D12*
G36*
X47215626Y-3872301D02*
G01*
X47221693Y-3873201D01*
X47227643Y-3874691D01*
X47233418Y-3876758D01*
X47238962Y-3879380D01*
X47244223Y-3882533D01*
X47249150Y-3886187D01*
X47253694Y-3890306D01*
X47257813Y-3894850D01*
X47261467Y-3899777D01*
X47264620Y-3905038D01*
X47267242Y-3910582D01*
X47269309Y-3916357D01*
X47270799Y-3922307D01*
X47271699Y-3928374D01*
X47272000Y-3934500D01*
X47272000Y-4684500D01*
X47271699Y-4690626D01*
X47270799Y-4696693D01*
X47269309Y-4702643D01*
X47267242Y-4708418D01*
X47264620Y-4713962D01*
X47261467Y-4719223D01*
X47257813Y-4724150D01*
X47253694Y-4728694D01*
X47249150Y-4732813D01*
X47244223Y-4736467D01*
X47238962Y-4739620D01*
X47233418Y-4742242D01*
X47227643Y-4744309D01*
X47221693Y-4745799D01*
X47215626Y-4746699D01*
X47209500Y-4747000D01*
X47084500Y-4747000D01*
X47078374Y-4746699D01*
X47072307Y-4745799D01*
X47066357Y-4744309D01*
X47060582Y-4742242D01*
X47055038Y-4739620D01*
X47049777Y-4736467D01*
X47044850Y-4732813D01*
X47040306Y-4728694D01*
X47036187Y-4724150D01*
X47032533Y-4719223D01*
X47029380Y-4713962D01*
X47026758Y-4708418D01*
X47024691Y-4702643D01*
X47023201Y-4696693D01*
X47022301Y-4690626D01*
X47022000Y-4684500D01*
X47022000Y-3934500D01*
X47022301Y-3928374D01*
X47023201Y-3922307D01*
X47024691Y-3916357D01*
X47026758Y-3910582D01*
X47029380Y-3905038D01*
X47032533Y-3899777D01*
X47036187Y-3894850D01*
X47040306Y-3890306D01*
X47044850Y-3886187D01*
X47049777Y-3882533D01*
X47055038Y-3879380D01*
X47060582Y-3876758D01*
X47066357Y-3874691D01*
X47072307Y-3873201D01*
X47078374Y-3872301D01*
X47084500Y-3872000D01*
X47209500Y-3872000D01*
X47215626Y-3872301D01*
X47215626Y-3872301D01*
G37*
D19*
X47147000Y-4309500D03*
D12*
G36*
X47715626Y-3872301D02*
G01*
X47721693Y-3873201D01*
X47727643Y-3874691D01*
X47733418Y-3876758D01*
X47738962Y-3879380D01*
X47744223Y-3882533D01*
X47749150Y-3886187D01*
X47753694Y-3890306D01*
X47757813Y-3894850D01*
X47761467Y-3899777D01*
X47764620Y-3905038D01*
X47767242Y-3910582D01*
X47769309Y-3916357D01*
X47770799Y-3922307D01*
X47771699Y-3928374D01*
X47772000Y-3934500D01*
X47772000Y-4684500D01*
X47771699Y-4690626D01*
X47770799Y-4696693D01*
X47769309Y-4702643D01*
X47767242Y-4708418D01*
X47764620Y-4713962D01*
X47761467Y-4719223D01*
X47757813Y-4724150D01*
X47753694Y-4728694D01*
X47749150Y-4732813D01*
X47744223Y-4736467D01*
X47738962Y-4739620D01*
X47733418Y-4742242D01*
X47727643Y-4744309D01*
X47721693Y-4745799D01*
X47715626Y-4746699D01*
X47709500Y-4747000D01*
X47584500Y-4747000D01*
X47578374Y-4746699D01*
X47572307Y-4745799D01*
X47566357Y-4744309D01*
X47560582Y-4742242D01*
X47555038Y-4739620D01*
X47549777Y-4736467D01*
X47544850Y-4732813D01*
X47540306Y-4728694D01*
X47536187Y-4724150D01*
X47532533Y-4719223D01*
X47529380Y-4713962D01*
X47526758Y-4708418D01*
X47524691Y-4702643D01*
X47523201Y-4696693D01*
X47522301Y-4690626D01*
X47522000Y-4684500D01*
X47522000Y-3934500D01*
X47522301Y-3928374D01*
X47523201Y-3922307D01*
X47524691Y-3916357D01*
X47526758Y-3910582D01*
X47529380Y-3905038D01*
X47532533Y-3899777D01*
X47536187Y-3894850D01*
X47540306Y-3890306D01*
X47544850Y-3886187D01*
X47549777Y-3882533D01*
X47555038Y-3879380D01*
X47560582Y-3876758D01*
X47566357Y-3874691D01*
X47572307Y-3873201D01*
X47578374Y-3872301D01*
X47584500Y-3872000D01*
X47709500Y-3872000D01*
X47715626Y-3872301D01*
X47715626Y-3872301D01*
G37*
D19*
X47647000Y-4309500D03*
D12*
G36*
X48215626Y-3872301D02*
G01*
X48221693Y-3873201D01*
X48227643Y-3874691D01*
X48233418Y-3876758D01*
X48238962Y-3879380D01*
X48244223Y-3882533D01*
X48249150Y-3886187D01*
X48253694Y-3890306D01*
X48257813Y-3894850D01*
X48261467Y-3899777D01*
X48264620Y-3905038D01*
X48267242Y-3910582D01*
X48269309Y-3916357D01*
X48270799Y-3922307D01*
X48271699Y-3928374D01*
X48272000Y-3934500D01*
X48272000Y-4684500D01*
X48271699Y-4690626D01*
X48270799Y-4696693D01*
X48269309Y-4702643D01*
X48267242Y-4708418D01*
X48264620Y-4713962D01*
X48261467Y-4719223D01*
X48257813Y-4724150D01*
X48253694Y-4728694D01*
X48249150Y-4732813D01*
X48244223Y-4736467D01*
X48238962Y-4739620D01*
X48233418Y-4742242D01*
X48227643Y-4744309D01*
X48221693Y-4745799D01*
X48215626Y-4746699D01*
X48209500Y-4747000D01*
X48084500Y-4747000D01*
X48078374Y-4746699D01*
X48072307Y-4745799D01*
X48066357Y-4744309D01*
X48060582Y-4742242D01*
X48055038Y-4739620D01*
X48049777Y-4736467D01*
X48044850Y-4732813D01*
X48040306Y-4728694D01*
X48036187Y-4724150D01*
X48032533Y-4719223D01*
X48029380Y-4713962D01*
X48026758Y-4708418D01*
X48024691Y-4702643D01*
X48023201Y-4696693D01*
X48022301Y-4690626D01*
X48022000Y-4684500D01*
X48022000Y-3934500D01*
X48022301Y-3928374D01*
X48023201Y-3922307D01*
X48024691Y-3916357D01*
X48026758Y-3910582D01*
X48029380Y-3905038D01*
X48032533Y-3899777D01*
X48036187Y-3894850D01*
X48040306Y-3890306D01*
X48044850Y-3886187D01*
X48049777Y-3882533D01*
X48055038Y-3879380D01*
X48060582Y-3876758D01*
X48066357Y-3874691D01*
X48072307Y-3873201D01*
X48078374Y-3872301D01*
X48084500Y-3872000D01*
X48209500Y-3872000D01*
X48215626Y-3872301D01*
X48215626Y-3872301D01*
G37*
D19*
X48147000Y-4309500D03*
D12*
G36*
X48715626Y-3872301D02*
G01*
X48721693Y-3873201D01*
X48727643Y-3874691D01*
X48733418Y-3876758D01*
X48738962Y-3879380D01*
X48744223Y-3882533D01*
X48749150Y-3886187D01*
X48753694Y-3890306D01*
X48757813Y-3894850D01*
X48761467Y-3899777D01*
X48764620Y-3905038D01*
X48767242Y-3910582D01*
X48769309Y-3916357D01*
X48770799Y-3922307D01*
X48771699Y-3928374D01*
X48772000Y-3934500D01*
X48772000Y-4684500D01*
X48771699Y-4690626D01*
X48770799Y-4696693D01*
X48769309Y-4702643D01*
X48767242Y-4708418D01*
X48764620Y-4713962D01*
X48761467Y-4719223D01*
X48757813Y-4724150D01*
X48753694Y-4728694D01*
X48749150Y-4732813D01*
X48744223Y-4736467D01*
X48738962Y-4739620D01*
X48733418Y-4742242D01*
X48727643Y-4744309D01*
X48721693Y-4745799D01*
X48715626Y-4746699D01*
X48709500Y-4747000D01*
X48584500Y-4747000D01*
X48578374Y-4746699D01*
X48572307Y-4745799D01*
X48566357Y-4744309D01*
X48560582Y-4742242D01*
X48555038Y-4739620D01*
X48549777Y-4736467D01*
X48544850Y-4732813D01*
X48540306Y-4728694D01*
X48536187Y-4724150D01*
X48532533Y-4719223D01*
X48529380Y-4713962D01*
X48526758Y-4708418D01*
X48524691Y-4702643D01*
X48523201Y-4696693D01*
X48522301Y-4690626D01*
X48522000Y-4684500D01*
X48522000Y-3934500D01*
X48522301Y-3928374D01*
X48523201Y-3922307D01*
X48524691Y-3916357D01*
X48526758Y-3910582D01*
X48529380Y-3905038D01*
X48532533Y-3899777D01*
X48536187Y-3894850D01*
X48540306Y-3890306D01*
X48544850Y-3886187D01*
X48549777Y-3882533D01*
X48555038Y-3879380D01*
X48560582Y-3876758D01*
X48566357Y-3874691D01*
X48572307Y-3873201D01*
X48578374Y-3872301D01*
X48584500Y-3872000D01*
X48709500Y-3872000D01*
X48715626Y-3872301D01*
X48715626Y-3872301D01*
G37*
D19*
X48647000Y-4309500D03*
D12*
G36*
X49215626Y-3872301D02*
G01*
X49221693Y-3873201D01*
X49227643Y-3874691D01*
X49233418Y-3876758D01*
X49238962Y-3879380D01*
X49244223Y-3882533D01*
X49249150Y-3886187D01*
X49253694Y-3890306D01*
X49257813Y-3894850D01*
X49261467Y-3899777D01*
X49264620Y-3905038D01*
X49267242Y-3910582D01*
X49269309Y-3916357D01*
X49270799Y-3922307D01*
X49271699Y-3928374D01*
X49272000Y-3934500D01*
X49272000Y-4684500D01*
X49271699Y-4690626D01*
X49270799Y-4696693D01*
X49269309Y-4702643D01*
X49267242Y-4708418D01*
X49264620Y-4713962D01*
X49261467Y-4719223D01*
X49257813Y-4724150D01*
X49253694Y-4728694D01*
X49249150Y-4732813D01*
X49244223Y-4736467D01*
X49238962Y-4739620D01*
X49233418Y-4742242D01*
X49227643Y-4744309D01*
X49221693Y-4745799D01*
X49215626Y-4746699D01*
X49209500Y-4747000D01*
X49084500Y-4747000D01*
X49078374Y-4746699D01*
X49072307Y-4745799D01*
X49066357Y-4744309D01*
X49060582Y-4742242D01*
X49055038Y-4739620D01*
X49049777Y-4736467D01*
X49044850Y-4732813D01*
X49040306Y-4728694D01*
X49036187Y-4724150D01*
X49032533Y-4719223D01*
X49029380Y-4713962D01*
X49026758Y-4708418D01*
X49024691Y-4702643D01*
X49023201Y-4696693D01*
X49022301Y-4690626D01*
X49022000Y-4684500D01*
X49022000Y-3934500D01*
X49022301Y-3928374D01*
X49023201Y-3922307D01*
X49024691Y-3916357D01*
X49026758Y-3910582D01*
X49029380Y-3905038D01*
X49032533Y-3899777D01*
X49036187Y-3894850D01*
X49040306Y-3890306D01*
X49044850Y-3886187D01*
X49049777Y-3882533D01*
X49055038Y-3879380D01*
X49060582Y-3876758D01*
X49066357Y-3874691D01*
X49072307Y-3873201D01*
X49078374Y-3872301D01*
X49084500Y-3872000D01*
X49209500Y-3872000D01*
X49215626Y-3872301D01*
X49215626Y-3872301D01*
G37*
D19*
X49147000Y-4309500D03*
D12*
G36*
X49715626Y-3872301D02*
G01*
X49721693Y-3873201D01*
X49727643Y-3874691D01*
X49733418Y-3876758D01*
X49738962Y-3879380D01*
X49744223Y-3882533D01*
X49749150Y-3886187D01*
X49753694Y-3890306D01*
X49757813Y-3894850D01*
X49761467Y-3899777D01*
X49764620Y-3905038D01*
X49767242Y-3910582D01*
X49769309Y-3916357D01*
X49770799Y-3922307D01*
X49771699Y-3928374D01*
X49772000Y-3934500D01*
X49772000Y-4684500D01*
X49771699Y-4690626D01*
X49770799Y-4696693D01*
X49769309Y-4702643D01*
X49767242Y-4708418D01*
X49764620Y-4713962D01*
X49761467Y-4719223D01*
X49757813Y-4724150D01*
X49753694Y-4728694D01*
X49749150Y-4732813D01*
X49744223Y-4736467D01*
X49738962Y-4739620D01*
X49733418Y-4742242D01*
X49727643Y-4744309D01*
X49721693Y-4745799D01*
X49715626Y-4746699D01*
X49709500Y-4747000D01*
X49584500Y-4747000D01*
X49578374Y-4746699D01*
X49572307Y-4745799D01*
X49566357Y-4744309D01*
X49560582Y-4742242D01*
X49555038Y-4739620D01*
X49549777Y-4736467D01*
X49544850Y-4732813D01*
X49540306Y-4728694D01*
X49536187Y-4724150D01*
X49532533Y-4719223D01*
X49529380Y-4713962D01*
X49526758Y-4708418D01*
X49524691Y-4702643D01*
X49523201Y-4696693D01*
X49522301Y-4690626D01*
X49522000Y-4684500D01*
X49522000Y-3934500D01*
X49522301Y-3928374D01*
X49523201Y-3922307D01*
X49524691Y-3916357D01*
X49526758Y-3910582D01*
X49529380Y-3905038D01*
X49532533Y-3899777D01*
X49536187Y-3894850D01*
X49540306Y-3890306D01*
X49544850Y-3886187D01*
X49549777Y-3882533D01*
X49555038Y-3879380D01*
X49560582Y-3876758D01*
X49566357Y-3874691D01*
X49572307Y-3873201D01*
X49578374Y-3872301D01*
X49584500Y-3872000D01*
X49709500Y-3872000D01*
X49715626Y-3872301D01*
X49715626Y-3872301D01*
G37*
D19*
X49647000Y-4309500D03*
D12*
G36*
X50215626Y-3872301D02*
G01*
X50221693Y-3873201D01*
X50227643Y-3874691D01*
X50233418Y-3876758D01*
X50238962Y-3879380D01*
X50244223Y-3882533D01*
X50249150Y-3886187D01*
X50253694Y-3890306D01*
X50257813Y-3894850D01*
X50261467Y-3899777D01*
X50264620Y-3905038D01*
X50267242Y-3910582D01*
X50269309Y-3916357D01*
X50270799Y-3922307D01*
X50271699Y-3928374D01*
X50272000Y-3934500D01*
X50272000Y-4684500D01*
X50271699Y-4690626D01*
X50270799Y-4696693D01*
X50269309Y-4702643D01*
X50267242Y-4708418D01*
X50264620Y-4713962D01*
X50261467Y-4719223D01*
X50257813Y-4724150D01*
X50253694Y-4728694D01*
X50249150Y-4732813D01*
X50244223Y-4736467D01*
X50238962Y-4739620D01*
X50233418Y-4742242D01*
X50227643Y-4744309D01*
X50221693Y-4745799D01*
X50215626Y-4746699D01*
X50209500Y-4747000D01*
X50084500Y-4747000D01*
X50078374Y-4746699D01*
X50072307Y-4745799D01*
X50066357Y-4744309D01*
X50060582Y-4742242D01*
X50055038Y-4739620D01*
X50049777Y-4736467D01*
X50044850Y-4732813D01*
X50040306Y-4728694D01*
X50036187Y-4724150D01*
X50032533Y-4719223D01*
X50029380Y-4713962D01*
X50026758Y-4708418D01*
X50024691Y-4702643D01*
X50023201Y-4696693D01*
X50022301Y-4690626D01*
X50022000Y-4684500D01*
X50022000Y-3934500D01*
X50022301Y-3928374D01*
X50023201Y-3922307D01*
X50024691Y-3916357D01*
X50026758Y-3910582D01*
X50029380Y-3905038D01*
X50032533Y-3899777D01*
X50036187Y-3894850D01*
X50040306Y-3890306D01*
X50044850Y-3886187D01*
X50049777Y-3882533D01*
X50055038Y-3879380D01*
X50060582Y-3876758D01*
X50066357Y-3874691D01*
X50072307Y-3873201D01*
X50078374Y-3872301D01*
X50084500Y-3872000D01*
X50209500Y-3872000D01*
X50215626Y-3872301D01*
X50215626Y-3872301D01*
G37*
D19*
X50147000Y-4309500D03*
D12*
G36*
X50715626Y-3872301D02*
G01*
X50721693Y-3873201D01*
X50727643Y-3874691D01*
X50733418Y-3876758D01*
X50738962Y-3879380D01*
X50744223Y-3882533D01*
X50749150Y-3886187D01*
X50753694Y-3890306D01*
X50757813Y-3894850D01*
X50761467Y-3899777D01*
X50764620Y-3905038D01*
X50767242Y-3910582D01*
X50769309Y-3916357D01*
X50770799Y-3922307D01*
X50771699Y-3928374D01*
X50772000Y-3934500D01*
X50772000Y-4684500D01*
X50771699Y-4690626D01*
X50770799Y-4696693D01*
X50769309Y-4702643D01*
X50767242Y-4708418D01*
X50764620Y-4713962D01*
X50761467Y-4719223D01*
X50757813Y-4724150D01*
X50753694Y-4728694D01*
X50749150Y-4732813D01*
X50744223Y-4736467D01*
X50738962Y-4739620D01*
X50733418Y-4742242D01*
X50727643Y-4744309D01*
X50721693Y-4745799D01*
X50715626Y-4746699D01*
X50709500Y-4747000D01*
X50584500Y-4747000D01*
X50578374Y-4746699D01*
X50572307Y-4745799D01*
X50566357Y-4744309D01*
X50560582Y-4742242D01*
X50555038Y-4739620D01*
X50549777Y-4736467D01*
X50544850Y-4732813D01*
X50540306Y-4728694D01*
X50536187Y-4724150D01*
X50532533Y-4719223D01*
X50529380Y-4713962D01*
X50526758Y-4708418D01*
X50524691Y-4702643D01*
X50523201Y-4696693D01*
X50522301Y-4690626D01*
X50522000Y-4684500D01*
X50522000Y-3934500D01*
X50522301Y-3928374D01*
X50523201Y-3922307D01*
X50524691Y-3916357D01*
X50526758Y-3910582D01*
X50529380Y-3905038D01*
X50532533Y-3899777D01*
X50536187Y-3894850D01*
X50540306Y-3890306D01*
X50544850Y-3886187D01*
X50549777Y-3882533D01*
X50555038Y-3879380D01*
X50560582Y-3876758D01*
X50566357Y-3874691D01*
X50572307Y-3873201D01*
X50578374Y-3872301D01*
X50584500Y-3872000D01*
X50709500Y-3872000D01*
X50715626Y-3872301D01*
X50715626Y-3872301D01*
G37*
D19*
X50647000Y-4309500D03*
D12*
G36*
X51215626Y-3872301D02*
G01*
X51221693Y-3873201D01*
X51227643Y-3874691D01*
X51233418Y-3876758D01*
X51238962Y-3879380D01*
X51244223Y-3882533D01*
X51249150Y-3886187D01*
X51253694Y-3890306D01*
X51257813Y-3894850D01*
X51261467Y-3899777D01*
X51264620Y-3905038D01*
X51267242Y-3910582D01*
X51269309Y-3916357D01*
X51270799Y-3922307D01*
X51271699Y-3928374D01*
X51272000Y-3934500D01*
X51272000Y-4684500D01*
X51271699Y-4690626D01*
X51270799Y-4696693D01*
X51269309Y-4702643D01*
X51267242Y-4708418D01*
X51264620Y-4713962D01*
X51261467Y-4719223D01*
X51257813Y-4724150D01*
X51253694Y-4728694D01*
X51249150Y-4732813D01*
X51244223Y-4736467D01*
X51238962Y-4739620D01*
X51233418Y-4742242D01*
X51227643Y-4744309D01*
X51221693Y-4745799D01*
X51215626Y-4746699D01*
X51209500Y-4747000D01*
X51084500Y-4747000D01*
X51078374Y-4746699D01*
X51072307Y-4745799D01*
X51066357Y-4744309D01*
X51060582Y-4742242D01*
X51055038Y-4739620D01*
X51049777Y-4736467D01*
X51044850Y-4732813D01*
X51040306Y-4728694D01*
X51036187Y-4724150D01*
X51032533Y-4719223D01*
X51029380Y-4713962D01*
X51026758Y-4708418D01*
X51024691Y-4702643D01*
X51023201Y-4696693D01*
X51022301Y-4690626D01*
X51022000Y-4684500D01*
X51022000Y-3934500D01*
X51022301Y-3928374D01*
X51023201Y-3922307D01*
X51024691Y-3916357D01*
X51026758Y-3910582D01*
X51029380Y-3905038D01*
X51032533Y-3899777D01*
X51036187Y-3894850D01*
X51040306Y-3890306D01*
X51044850Y-3886187D01*
X51049777Y-3882533D01*
X51055038Y-3879380D01*
X51060582Y-3876758D01*
X51066357Y-3874691D01*
X51072307Y-3873201D01*
X51078374Y-3872301D01*
X51084500Y-3872000D01*
X51209500Y-3872000D01*
X51215626Y-3872301D01*
X51215626Y-3872301D01*
G37*
D19*
X51147000Y-4309500D03*
D12*
G36*
X51715626Y-3872301D02*
G01*
X51721693Y-3873201D01*
X51727643Y-3874691D01*
X51733418Y-3876758D01*
X51738962Y-3879380D01*
X51744223Y-3882533D01*
X51749150Y-3886187D01*
X51753694Y-3890306D01*
X51757813Y-3894850D01*
X51761467Y-3899777D01*
X51764620Y-3905038D01*
X51767242Y-3910582D01*
X51769309Y-3916357D01*
X51770799Y-3922307D01*
X51771699Y-3928374D01*
X51772000Y-3934500D01*
X51772000Y-4684500D01*
X51771699Y-4690626D01*
X51770799Y-4696693D01*
X51769309Y-4702643D01*
X51767242Y-4708418D01*
X51764620Y-4713962D01*
X51761467Y-4719223D01*
X51757813Y-4724150D01*
X51753694Y-4728694D01*
X51749150Y-4732813D01*
X51744223Y-4736467D01*
X51738962Y-4739620D01*
X51733418Y-4742242D01*
X51727643Y-4744309D01*
X51721693Y-4745799D01*
X51715626Y-4746699D01*
X51709500Y-4747000D01*
X51584500Y-4747000D01*
X51578374Y-4746699D01*
X51572307Y-4745799D01*
X51566357Y-4744309D01*
X51560582Y-4742242D01*
X51555038Y-4739620D01*
X51549777Y-4736467D01*
X51544850Y-4732813D01*
X51540306Y-4728694D01*
X51536187Y-4724150D01*
X51532533Y-4719223D01*
X51529380Y-4713962D01*
X51526758Y-4708418D01*
X51524691Y-4702643D01*
X51523201Y-4696693D01*
X51522301Y-4690626D01*
X51522000Y-4684500D01*
X51522000Y-3934500D01*
X51522301Y-3928374D01*
X51523201Y-3922307D01*
X51524691Y-3916357D01*
X51526758Y-3910582D01*
X51529380Y-3905038D01*
X51532533Y-3899777D01*
X51536187Y-3894850D01*
X51540306Y-3890306D01*
X51544850Y-3886187D01*
X51549777Y-3882533D01*
X51555038Y-3879380D01*
X51560582Y-3876758D01*
X51566357Y-3874691D01*
X51572307Y-3873201D01*
X51578374Y-3872301D01*
X51584500Y-3872000D01*
X51709500Y-3872000D01*
X51715626Y-3872301D01*
X51715626Y-3872301D01*
G37*
D19*
X51647000Y-4309500D03*
D12*
G36*
X52215626Y-3872301D02*
G01*
X52221693Y-3873201D01*
X52227643Y-3874691D01*
X52233418Y-3876758D01*
X52238962Y-3879380D01*
X52244223Y-3882533D01*
X52249150Y-3886187D01*
X52253694Y-3890306D01*
X52257813Y-3894850D01*
X52261467Y-3899777D01*
X52264620Y-3905038D01*
X52267242Y-3910582D01*
X52269309Y-3916357D01*
X52270799Y-3922307D01*
X52271699Y-3928374D01*
X52272000Y-3934500D01*
X52272000Y-4684500D01*
X52271699Y-4690626D01*
X52270799Y-4696693D01*
X52269309Y-4702643D01*
X52267242Y-4708418D01*
X52264620Y-4713962D01*
X52261467Y-4719223D01*
X52257813Y-4724150D01*
X52253694Y-4728694D01*
X52249150Y-4732813D01*
X52244223Y-4736467D01*
X52238962Y-4739620D01*
X52233418Y-4742242D01*
X52227643Y-4744309D01*
X52221693Y-4745799D01*
X52215626Y-4746699D01*
X52209500Y-4747000D01*
X52084500Y-4747000D01*
X52078374Y-4746699D01*
X52072307Y-4745799D01*
X52066357Y-4744309D01*
X52060582Y-4742242D01*
X52055038Y-4739620D01*
X52049777Y-4736467D01*
X52044850Y-4732813D01*
X52040306Y-4728694D01*
X52036187Y-4724150D01*
X52032533Y-4719223D01*
X52029380Y-4713962D01*
X52026758Y-4708418D01*
X52024691Y-4702643D01*
X52023201Y-4696693D01*
X52022301Y-4690626D01*
X52022000Y-4684500D01*
X52022000Y-3934500D01*
X52022301Y-3928374D01*
X52023201Y-3922307D01*
X52024691Y-3916357D01*
X52026758Y-3910582D01*
X52029380Y-3905038D01*
X52032533Y-3899777D01*
X52036187Y-3894850D01*
X52040306Y-3890306D01*
X52044850Y-3886187D01*
X52049777Y-3882533D01*
X52055038Y-3879380D01*
X52060582Y-3876758D01*
X52066357Y-3874691D01*
X52072307Y-3873201D01*
X52078374Y-3872301D01*
X52084500Y-3872000D01*
X52209500Y-3872000D01*
X52215626Y-3872301D01*
X52215626Y-3872301D01*
G37*
D19*
X52147000Y-4309500D03*
D12*
G36*
X52715626Y-3872301D02*
G01*
X52721693Y-3873201D01*
X52727643Y-3874691D01*
X52733418Y-3876758D01*
X52738962Y-3879380D01*
X52744223Y-3882533D01*
X52749150Y-3886187D01*
X52753694Y-3890306D01*
X52757813Y-3894850D01*
X52761467Y-3899777D01*
X52764620Y-3905038D01*
X52767242Y-3910582D01*
X52769309Y-3916357D01*
X52770799Y-3922307D01*
X52771699Y-3928374D01*
X52772000Y-3934500D01*
X52772000Y-4684500D01*
X52771699Y-4690626D01*
X52770799Y-4696693D01*
X52769309Y-4702643D01*
X52767242Y-4708418D01*
X52764620Y-4713962D01*
X52761467Y-4719223D01*
X52757813Y-4724150D01*
X52753694Y-4728694D01*
X52749150Y-4732813D01*
X52744223Y-4736467D01*
X52738962Y-4739620D01*
X52733418Y-4742242D01*
X52727643Y-4744309D01*
X52721693Y-4745799D01*
X52715626Y-4746699D01*
X52709500Y-4747000D01*
X52584500Y-4747000D01*
X52578374Y-4746699D01*
X52572307Y-4745799D01*
X52566357Y-4744309D01*
X52560582Y-4742242D01*
X52555038Y-4739620D01*
X52549777Y-4736467D01*
X52544850Y-4732813D01*
X52540306Y-4728694D01*
X52536187Y-4724150D01*
X52532533Y-4719223D01*
X52529380Y-4713962D01*
X52526758Y-4708418D01*
X52524691Y-4702643D01*
X52523201Y-4696693D01*
X52522301Y-4690626D01*
X52522000Y-4684500D01*
X52522000Y-3934500D01*
X52522301Y-3928374D01*
X52523201Y-3922307D01*
X52524691Y-3916357D01*
X52526758Y-3910582D01*
X52529380Y-3905038D01*
X52532533Y-3899777D01*
X52536187Y-3894850D01*
X52540306Y-3890306D01*
X52544850Y-3886187D01*
X52549777Y-3882533D01*
X52555038Y-3879380D01*
X52560582Y-3876758D01*
X52566357Y-3874691D01*
X52572307Y-3873201D01*
X52578374Y-3872301D01*
X52584500Y-3872000D01*
X52709500Y-3872000D01*
X52715626Y-3872301D01*
X52715626Y-3872301D01*
G37*
D19*
X52647000Y-4309500D03*
D12*
G36*
X53715626Y-4872301D02*
G01*
X53721693Y-4873201D01*
X53727643Y-4874691D01*
X53733418Y-4876758D01*
X53738962Y-4879380D01*
X53744223Y-4882533D01*
X53749150Y-4886187D01*
X53753694Y-4890306D01*
X53757813Y-4894850D01*
X53761467Y-4899777D01*
X53764620Y-4905038D01*
X53767242Y-4910582D01*
X53769309Y-4916357D01*
X53770799Y-4922307D01*
X53771699Y-4928374D01*
X53772000Y-4934500D01*
X53772000Y-5059500D01*
X53771699Y-5065626D01*
X53770799Y-5071693D01*
X53769309Y-5077643D01*
X53767242Y-5083418D01*
X53764620Y-5088962D01*
X53761467Y-5094223D01*
X53757813Y-5099150D01*
X53753694Y-5103694D01*
X53749150Y-5107813D01*
X53744223Y-5111467D01*
X53738962Y-5114620D01*
X53733418Y-5117242D01*
X53727643Y-5119309D01*
X53721693Y-5120799D01*
X53715626Y-5121699D01*
X53709500Y-5122000D01*
X52959500Y-5122000D01*
X52953374Y-5121699D01*
X52947307Y-5120799D01*
X52941357Y-5119309D01*
X52935582Y-5117242D01*
X52930038Y-5114620D01*
X52924777Y-5111467D01*
X52919850Y-5107813D01*
X52915306Y-5103694D01*
X52911187Y-5099150D01*
X52907533Y-5094223D01*
X52904380Y-5088962D01*
X52901758Y-5083418D01*
X52899691Y-5077643D01*
X52898201Y-5071693D01*
X52897301Y-5065626D01*
X52897000Y-5059500D01*
X52897000Y-4934500D01*
X52897301Y-4928374D01*
X52898201Y-4922307D01*
X52899691Y-4916357D01*
X52901758Y-4910582D01*
X52904380Y-4905038D01*
X52907533Y-4899777D01*
X52911187Y-4894850D01*
X52915306Y-4890306D01*
X52919850Y-4886187D01*
X52924777Y-4882533D01*
X52930038Y-4879380D01*
X52935582Y-4876758D01*
X52941357Y-4874691D01*
X52947307Y-4873201D01*
X52953374Y-4872301D01*
X52959500Y-4872000D01*
X53709500Y-4872000D01*
X53715626Y-4872301D01*
X53715626Y-4872301D01*
G37*
D19*
X53334500Y-4997000D03*
D12*
G36*
X53715626Y-5372301D02*
G01*
X53721693Y-5373201D01*
X53727643Y-5374691D01*
X53733418Y-5376758D01*
X53738962Y-5379380D01*
X53744223Y-5382533D01*
X53749150Y-5386187D01*
X53753694Y-5390306D01*
X53757813Y-5394850D01*
X53761467Y-5399777D01*
X53764620Y-5405038D01*
X53767242Y-5410582D01*
X53769309Y-5416357D01*
X53770799Y-5422307D01*
X53771699Y-5428374D01*
X53772000Y-5434500D01*
X53772000Y-5559500D01*
X53771699Y-5565626D01*
X53770799Y-5571693D01*
X53769309Y-5577643D01*
X53767242Y-5583418D01*
X53764620Y-5588962D01*
X53761467Y-5594223D01*
X53757813Y-5599150D01*
X53753694Y-5603694D01*
X53749150Y-5607813D01*
X53744223Y-5611467D01*
X53738962Y-5614620D01*
X53733418Y-5617242D01*
X53727643Y-5619309D01*
X53721693Y-5620799D01*
X53715626Y-5621699D01*
X53709500Y-5622000D01*
X52959500Y-5622000D01*
X52953374Y-5621699D01*
X52947307Y-5620799D01*
X52941357Y-5619309D01*
X52935582Y-5617242D01*
X52930038Y-5614620D01*
X52924777Y-5611467D01*
X52919850Y-5607813D01*
X52915306Y-5603694D01*
X52911187Y-5599150D01*
X52907533Y-5594223D01*
X52904380Y-5588962D01*
X52901758Y-5583418D01*
X52899691Y-5577643D01*
X52898201Y-5571693D01*
X52897301Y-5565626D01*
X52897000Y-5559500D01*
X52897000Y-5434500D01*
X52897301Y-5428374D01*
X52898201Y-5422307D01*
X52899691Y-5416357D01*
X52901758Y-5410582D01*
X52904380Y-5405038D01*
X52907533Y-5399777D01*
X52911187Y-5394850D01*
X52915306Y-5390306D01*
X52919850Y-5386187D01*
X52924777Y-5382533D01*
X52930038Y-5379380D01*
X52935582Y-5376758D01*
X52941357Y-5374691D01*
X52947307Y-5373201D01*
X52953374Y-5372301D01*
X52959500Y-5372000D01*
X53709500Y-5372000D01*
X53715626Y-5372301D01*
X53715626Y-5372301D01*
G37*
D19*
X53334500Y-5497000D03*
D12*
G36*
X53715626Y-5872301D02*
G01*
X53721693Y-5873201D01*
X53727643Y-5874691D01*
X53733418Y-5876758D01*
X53738962Y-5879380D01*
X53744223Y-5882533D01*
X53749150Y-5886187D01*
X53753694Y-5890306D01*
X53757813Y-5894850D01*
X53761467Y-5899777D01*
X53764620Y-5905038D01*
X53767242Y-5910582D01*
X53769309Y-5916357D01*
X53770799Y-5922307D01*
X53771699Y-5928374D01*
X53772000Y-5934500D01*
X53772000Y-6059500D01*
X53771699Y-6065626D01*
X53770799Y-6071693D01*
X53769309Y-6077643D01*
X53767242Y-6083418D01*
X53764620Y-6088962D01*
X53761467Y-6094223D01*
X53757813Y-6099150D01*
X53753694Y-6103694D01*
X53749150Y-6107813D01*
X53744223Y-6111467D01*
X53738962Y-6114620D01*
X53733418Y-6117242D01*
X53727643Y-6119309D01*
X53721693Y-6120799D01*
X53715626Y-6121699D01*
X53709500Y-6122000D01*
X52959500Y-6122000D01*
X52953374Y-6121699D01*
X52947307Y-6120799D01*
X52941357Y-6119309D01*
X52935582Y-6117242D01*
X52930038Y-6114620D01*
X52924777Y-6111467D01*
X52919850Y-6107813D01*
X52915306Y-6103694D01*
X52911187Y-6099150D01*
X52907533Y-6094223D01*
X52904380Y-6088962D01*
X52901758Y-6083418D01*
X52899691Y-6077643D01*
X52898201Y-6071693D01*
X52897301Y-6065626D01*
X52897000Y-6059500D01*
X52897000Y-5934500D01*
X52897301Y-5928374D01*
X52898201Y-5922307D01*
X52899691Y-5916357D01*
X52901758Y-5910582D01*
X52904380Y-5905038D01*
X52907533Y-5899777D01*
X52911187Y-5894850D01*
X52915306Y-5890306D01*
X52919850Y-5886187D01*
X52924777Y-5882533D01*
X52930038Y-5879380D01*
X52935582Y-5876758D01*
X52941357Y-5874691D01*
X52947307Y-5873201D01*
X52953374Y-5872301D01*
X52959500Y-5872000D01*
X53709500Y-5872000D01*
X53715626Y-5872301D01*
X53715626Y-5872301D01*
G37*
D19*
X53334500Y-5997000D03*
D12*
G36*
X53715626Y-6372301D02*
G01*
X53721693Y-6373201D01*
X53727643Y-6374691D01*
X53733418Y-6376758D01*
X53738962Y-6379380D01*
X53744223Y-6382533D01*
X53749150Y-6386187D01*
X53753694Y-6390306D01*
X53757813Y-6394850D01*
X53761467Y-6399777D01*
X53764620Y-6405038D01*
X53767242Y-6410582D01*
X53769309Y-6416357D01*
X53770799Y-6422307D01*
X53771699Y-6428374D01*
X53772000Y-6434500D01*
X53772000Y-6559500D01*
X53771699Y-6565626D01*
X53770799Y-6571693D01*
X53769309Y-6577643D01*
X53767242Y-6583418D01*
X53764620Y-6588962D01*
X53761467Y-6594223D01*
X53757813Y-6599150D01*
X53753694Y-6603694D01*
X53749150Y-6607813D01*
X53744223Y-6611467D01*
X53738962Y-6614620D01*
X53733418Y-6617242D01*
X53727643Y-6619309D01*
X53721693Y-6620799D01*
X53715626Y-6621699D01*
X53709500Y-6622000D01*
X52959500Y-6622000D01*
X52953374Y-6621699D01*
X52947307Y-6620799D01*
X52941357Y-6619309D01*
X52935582Y-6617242D01*
X52930038Y-6614620D01*
X52924777Y-6611467D01*
X52919850Y-6607813D01*
X52915306Y-6603694D01*
X52911187Y-6599150D01*
X52907533Y-6594223D01*
X52904380Y-6588962D01*
X52901758Y-6583418D01*
X52899691Y-6577643D01*
X52898201Y-6571693D01*
X52897301Y-6565626D01*
X52897000Y-6559500D01*
X52897000Y-6434500D01*
X52897301Y-6428374D01*
X52898201Y-6422307D01*
X52899691Y-6416357D01*
X52901758Y-6410582D01*
X52904380Y-6405038D01*
X52907533Y-6399777D01*
X52911187Y-6394850D01*
X52915306Y-6390306D01*
X52919850Y-6386187D01*
X52924777Y-6382533D01*
X52930038Y-6379380D01*
X52935582Y-6376758D01*
X52941357Y-6374691D01*
X52947307Y-6373201D01*
X52953374Y-6372301D01*
X52959500Y-6372000D01*
X53709500Y-6372000D01*
X53715626Y-6372301D01*
X53715626Y-6372301D01*
G37*
D19*
X53334500Y-6497000D03*
D12*
G36*
X53715626Y-6872301D02*
G01*
X53721693Y-6873201D01*
X53727643Y-6874691D01*
X53733418Y-6876758D01*
X53738962Y-6879380D01*
X53744223Y-6882533D01*
X53749150Y-6886187D01*
X53753694Y-6890306D01*
X53757813Y-6894850D01*
X53761467Y-6899777D01*
X53764620Y-6905038D01*
X53767242Y-6910582D01*
X53769309Y-6916357D01*
X53770799Y-6922307D01*
X53771699Y-6928374D01*
X53772000Y-6934500D01*
X53772000Y-7059500D01*
X53771699Y-7065626D01*
X53770799Y-7071693D01*
X53769309Y-7077643D01*
X53767242Y-7083418D01*
X53764620Y-7088962D01*
X53761467Y-7094223D01*
X53757813Y-7099150D01*
X53753694Y-7103694D01*
X53749150Y-7107813D01*
X53744223Y-7111467D01*
X53738962Y-7114620D01*
X53733418Y-7117242D01*
X53727643Y-7119309D01*
X53721693Y-7120799D01*
X53715626Y-7121699D01*
X53709500Y-7122000D01*
X52959500Y-7122000D01*
X52953374Y-7121699D01*
X52947307Y-7120799D01*
X52941357Y-7119309D01*
X52935582Y-7117242D01*
X52930038Y-7114620D01*
X52924777Y-7111467D01*
X52919850Y-7107813D01*
X52915306Y-7103694D01*
X52911187Y-7099150D01*
X52907533Y-7094223D01*
X52904380Y-7088962D01*
X52901758Y-7083418D01*
X52899691Y-7077643D01*
X52898201Y-7071693D01*
X52897301Y-7065626D01*
X52897000Y-7059500D01*
X52897000Y-6934500D01*
X52897301Y-6928374D01*
X52898201Y-6922307D01*
X52899691Y-6916357D01*
X52901758Y-6910582D01*
X52904380Y-6905038D01*
X52907533Y-6899777D01*
X52911187Y-6894850D01*
X52915306Y-6890306D01*
X52919850Y-6886187D01*
X52924777Y-6882533D01*
X52930038Y-6879380D01*
X52935582Y-6876758D01*
X52941357Y-6874691D01*
X52947307Y-6873201D01*
X52953374Y-6872301D01*
X52959500Y-6872000D01*
X53709500Y-6872000D01*
X53715626Y-6872301D01*
X53715626Y-6872301D01*
G37*
D19*
X53334500Y-6997000D03*
D12*
G36*
X53715626Y-7372301D02*
G01*
X53721693Y-7373201D01*
X53727643Y-7374691D01*
X53733418Y-7376758D01*
X53738962Y-7379380D01*
X53744223Y-7382533D01*
X53749150Y-7386187D01*
X53753694Y-7390306D01*
X53757813Y-7394850D01*
X53761467Y-7399777D01*
X53764620Y-7405038D01*
X53767242Y-7410582D01*
X53769309Y-7416357D01*
X53770799Y-7422307D01*
X53771699Y-7428374D01*
X53772000Y-7434500D01*
X53772000Y-7559500D01*
X53771699Y-7565626D01*
X53770799Y-7571693D01*
X53769309Y-7577643D01*
X53767242Y-7583418D01*
X53764620Y-7588962D01*
X53761467Y-7594223D01*
X53757813Y-7599150D01*
X53753694Y-7603694D01*
X53749150Y-7607813D01*
X53744223Y-7611467D01*
X53738962Y-7614620D01*
X53733418Y-7617242D01*
X53727643Y-7619309D01*
X53721693Y-7620799D01*
X53715626Y-7621699D01*
X53709500Y-7622000D01*
X52959500Y-7622000D01*
X52953374Y-7621699D01*
X52947307Y-7620799D01*
X52941357Y-7619309D01*
X52935582Y-7617242D01*
X52930038Y-7614620D01*
X52924777Y-7611467D01*
X52919850Y-7607813D01*
X52915306Y-7603694D01*
X52911187Y-7599150D01*
X52907533Y-7594223D01*
X52904380Y-7588962D01*
X52901758Y-7583418D01*
X52899691Y-7577643D01*
X52898201Y-7571693D01*
X52897301Y-7565626D01*
X52897000Y-7559500D01*
X52897000Y-7434500D01*
X52897301Y-7428374D01*
X52898201Y-7422307D01*
X52899691Y-7416357D01*
X52901758Y-7410582D01*
X52904380Y-7405038D01*
X52907533Y-7399777D01*
X52911187Y-7394850D01*
X52915306Y-7390306D01*
X52919850Y-7386187D01*
X52924777Y-7382533D01*
X52930038Y-7379380D01*
X52935582Y-7376758D01*
X52941357Y-7374691D01*
X52947307Y-7373201D01*
X52953374Y-7372301D01*
X52959500Y-7372000D01*
X53709500Y-7372000D01*
X53715626Y-7372301D01*
X53715626Y-7372301D01*
G37*
D19*
X53334500Y-7497000D03*
D12*
G36*
X53715626Y-7872301D02*
G01*
X53721693Y-7873201D01*
X53727643Y-7874691D01*
X53733418Y-7876758D01*
X53738962Y-7879380D01*
X53744223Y-7882533D01*
X53749150Y-7886187D01*
X53753694Y-7890306D01*
X53757813Y-7894850D01*
X53761467Y-7899777D01*
X53764620Y-7905038D01*
X53767242Y-7910582D01*
X53769309Y-7916357D01*
X53770799Y-7922307D01*
X53771699Y-7928374D01*
X53772000Y-7934500D01*
X53772000Y-8059500D01*
X53771699Y-8065626D01*
X53770799Y-8071693D01*
X53769309Y-8077643D01*
X53767242Y-8083418D01*
X53764620Y-8088962D01*
X53761467Y-8094223D01*
X53757813Y-8099150D01*
X53753694Y-8103694D01*
X53749150Y-8107813D01*
X53744223Y-8111467D01*
X53738962Y-8114620D01*
X53733418Y-8117242D01*
X53727643Y-8119309D01*
X53721693Y-8120799D01*
X53715626Y-8121699D01*
X53709500Y-8122000D01*
X52959500Y-8122000D01*
X52953374Y-8121699D01*
X52947307Y-8120799D01*
X52941357Y-8119309D01*
X52935582Y-8117242D01*
X52930038Y-8114620D01*
X52924777Y-8111467D01*
X52919850Y-8107813D01*
X52915306Y-8103694D01*
X52911187Y-8099150D01*
X52907533Y-8094223D01*
X52904380Y-8088962D01*
X52901758Y-8083418D01*
X52899691Y-8077643D01*
X52898201Y-8071693D01*
X52897301Y-8065626D01*
X52897000Y-8059500D01*
X52897000Y-7934500D01*
X52897301Y-7928374D01*
X52898201Y-7922307D01*
X52899691Y-7916357D01*
X52901758Y-7910582D01*
X52904380Y-7905038D01*
X52907533Y-7899777D01*
X52911187Y-7894850D01*
X52915306Y-7890306D01*
X52919850Y-7886187D01*
X52924777Y-7882533D01*
X52930038Y-7879380D01*
X52935582Y-7876758D01*
X52941357Y-7874691D01*
X52947307Y-7873201D01*
X52953374Y-7872301D01*
X52959500Y-7872000D01*
X53709500Y-7872000D01*
X53715626Y-7872301D01*
X53715626Y-7872301D01*
G37*
D19*
X53334500Y-7997000D03*
D12*
G36*
X53715626Y-8372301D02*
G01*
X53721693Y-8373201D01*
X53727643Y-8374691D01*
X53733418Y-8376758D01*
X53738962Y-8379380D01*
X53744223Y-8382533D01*
X53749150Y-8386187D01*
X53753694Y-8390306D01*
X53757813Y-8394850D01*
X53761467Y-8399777D01*
X53764620Y-8405038D01*
X53767242Y-8410582D01*
X53769309Y-8416357D01*
X53770799Y-8422307D01*
X53771699Y-8428374D01*
X53772000Y-8434500D01*
X53772000Y-8559500D01*
X53771699Y-8565626D01*
X53770799Y-8571693D01*
X53769309Y-8577643D01*
X53767242Y-8583418D01*
X53764620Y-8588962D01*
X53761467Y-8594223D01*
X53757813Y-8599150D01*
X53753694Y-8603694D01*
X53749150Y-8607813D01*
X53744223Y-8611467D01*
X53738962Y-8614620D01*
X53733418Y-8617242D01*
X53727643Y-8619309D01*
X53721693Y-8620799D01*
X53715626Y-8621699D01*
X53709500Y-8622000D01*
X52959500Y-8622000D01*
X52953374Y-8621699D01*
X52947307Y-8620799D01*
X52941357Y-8619309D01*
X52935582Y-8617242D01*
X52930038Y-8614620D01*
X52924777Y-8611467D01*
X52919850Y-8607813D01*
X52915306Y-8603694D01*
X52911187Y-8599150D01*
X52907533Y-8594223D01*
X52904380Y-8588962D01*
X52901758Y-8583418D01*
X52899691Y-8577643D01*
X52898201Y-8571693D01*
X52897301Y-8565626D01*
X52897000Y-8559500D01*
X52897000Y-8434500D01*
X52897301Y-8428374D01*
X52898201Y-8422307D01*
X52899691Y-8416357D01*
X52901758Y-8410582D01*
X52904380Y-8405038D01*
X52907533Y-8399777D01*
X52911187Y-8394850D01*
X52915306Y-8390306D01*
X52919850Y-8386187D01*
X52924777Y-8382533D01*
X52930038Y-8379380D01*
X52935582Y-8376758D01*
X52941357Y-8374691D01*
X52947307Y-8373201D01*
X52953374Y-8372301D01*
X52959500Y-8372000D01*
X53709500Y-8372000D01*
X53715626Y-8372301D01*
X53715626Y-8372301D01*
G37*
D19*
X53334500Y-8497000D03*
D12*
G36*
X53715626Y-8872301D02*
G01*
X53721693Y-8873201D01*
X53727643Y-8874691D01*
X53733418Y-8876758D01*
X53738962Y-8879380D01*
X53744223Y-8882533D01*
X53749150Y-8886187D01*
X53753694Y-8890306D01*
X53757813Y-8894850D01*
X53761467Y-8899777D01*
X53764620Y-8905038D01*
X53767242Y-8910582D01*
X53769309Y-8916357D01*
X53770799Y-8922307D01*
X53771699Y-8928374D01*
X53772000Y-8934500D01*
X53772000Y-9059500D01*
X53771699Y-9065626D01*
X53770799Y-9071693D01*
X53769309Y-9077643D01*
X53767242Y-9083418D01*
X53764620Y-9088962D01*
X53761467Y-9094223D01*
X53757813Y-9099150D01*
X53753694Y-9103694D01*
X53749150Y-9107813D01*
X53744223Y-9111467D01*
X53738962Y-9114620D01*
X53733418Y-9117242D01*
X53727643Y-9119309D01*
X53721693Y-9120799D01*
X53715626Y-9121699D01*
X53709500Y-9122000D01*
X52959500Y-9122000D01*
X52953374Y-9121699D01*
X52947307Y-9120799D01*
X52941357Y-9119309D01*
X52935582Y-9117242D01*
X52930038Y-9114620D01*
X52924777Y-9111467D01*
X52919850Y-9107813D01*
X52915306Y-9103694D01*
X52911187Y-9099150D01*
X52907533Y-9094223D01*
X52904380Y-9088962D01*
X52901758Y-9083418D01*
X52899691Y-9077643D01*
X52898201Y-9071693D01*
X52897301Y-9065626D01*
X52897000Y-9059500D01*
X52897000Y-8934500D01*
X52897301Y-8928374D01*
X52898201Y-8922307D01*
X52899691Y-8916357D01*
X52901758Y-8910582D01*
X52904380Y-8905038D01*
X52907533Y-8899777D01*
X52911187Y-8894850D01*
X52915306Y-8890306D01*
X52919850Y-8886187D01*
X52924777Y-8882533D01*
X52930038Y-8879380D01*
X52935582Y-8876758D01*
X52941357Y-8874691D01*
X52947307Y-8873201D01*
X52953374Y-8872301D01*
X52959500Y-8872000D01*
X53709500Y-8872000D01*
X53715626Y-8872301D01*
X53715626Y-8872301D01*
G37*
D19*
X53334500Y-8997000D03*
D12*
G36*
X53715626Y-9372301D02*
G01*
X53721693Y-9373201D01*
X53727643Y-9374691D01*
X53733418Y-9376758D01*
X53738962Y-9379380D01*
X53744223Y-9382533D01*
X53749150Y-9386187D01*
X53753694Y-9390306D01*
X53757813Y-9394850D01*
X53761467Y-9399777D01*
X53764620Y-9405038D01*
X53767242Y-9410582D01*
X53769309Y-9416357D01*
X53770799Y-9422307D01*
X53771699Y-9428374D01*
X53772000Y-9434500D01*
X53772000Y-9559500D01*
X53771699Y-9565626D01*
X53770799Y-9571693D01*
X53769309Y-9577643D01*
X53767242Y-9583418D01*
X53764620Y-9588962D01*
X53761467Y-9594223D01*
X53757813Y-9599150D01*
X53753694Y-9603694D01*
X53749150Y-9607813D01*
X53744223Y-9611467D01*
X53738962Y-9614620D01*
X53733418Y-9617242D01*
X53727643Y-9619309D01*
X53721693Y-9620799D01*
X53715626Y-9621699D01*
X53709500Y-9622000D01*
X52959500Y-9622000D01*
X52953374Y-9621699D01*
X52947307Y-9620799D01*
X52941357Y-9619309D01*
X52935582Y-9617242D01*
X52930038Y-9614620D01*
X52924777Y-9611467D01*
X52919850Y-9607813D01*
X52915306Y-9603694D01*
X52911187Y-9599150D01*
X52907533Y-9594223D01*
X52904380Y-9588962D01*
X52901758Y-9583418D01*
X52899691Y-9577643D01*
X52898201Y-9571693D01*
X52897301Y-9565626D01*
X52897000Y-9559500D01*
X52897000Y-9434500D01*
X52897301Y-9428374D01*
X52898201Y-9422307D01*
X52899691Y-9416357D01*
X52901758Y-9410582D01*
X52904380Y-9405038D01*
X52907533Y-9399777D01*
X52911187Y-9394850D01*
X52915306Y-9390306D01*
X52919850Y-9386187D01*
X52924777Y-9382533D01*
X52930038Y-9379380D01*
X52935582Y-9376758D01*
X52941357Y-9374691D01*
X52947307Y-9373201D01*
X52953374Y-9372301D01*
X52959500Y-9372000D01*
X53709500Y-9372000D01*
X53715626Y-9372301D01*
X53715626Y-9372301D01*
G37*
D19*
X53334500Y-9497000D03*
D12*
G36*
X53715626Y-9872301D02*
G01*
X53721693Y-9873201D01*
X53727643Y-9874691D01*
X53733418Y-9876758D01*
X53738962Y-9879380D01*
X53744223Y-9882533D01*
X53749150Y-9886187D01*
X53753694Y-9890306D01*
X53757813Y-9894850D01*
X53761467Y-9899777D01*
X53764620Y-9905038D01*
X53767242Y-9910582D01*
X53769309Y-9916357D01*
X53770799Y-9922307D01*
X53771699Y-9928374D01*
X53772000Y-9934500D01*
X53772000Y-10059500D01*
X53771699Y-10065626D01*
X53770799Y-10071693D01*
X53769309Y-10077643D01*
X53767242Y-10083418D01*
X53764620Y-10088962D01*
X53761467Y-10094223D01*
X53757813Y-10099150D01*
X53753694Y-10103694D01*
X53749150Y-10107813D01*
X53744223Y-10111467D01*
X53738962Y-10114620D01*
X53733418Y-10117242D01*
X53727643Y-10119309D01*
X53721693Y-10120799D01*
X53715626Y-10121699D01*
X53709500Y-10122000D01*
X52959500Y-10122000D01*
X52953374Y-10121699D01*
X52947307Y-10120799D01*
X52941357Y-10119309D01*
X52935582Y-10117242D01*
X52930038Y-10114620D01*
X52924777Y-10111467D01*
X52919850Y-10107813D01*
X52915306Y-10103694D01*
X52911187Y-10099150D01*
X52907533Y-10094223D01*
X52904380Y-10088962D01*
X52901758Y-10083418D01*
X52899691Y-10077643D01*
X52898201Y-10071693D01*
X52897301Y-10065626D01*
X52897000Y-10059500D01*
X52897000Y-9934500D01*
X52897301Y-9928374D01*
X52898201Y-9922307D01*
X52899691Y-9916357D01*
X52901758Y-9910582D01*
X52904380Y-9905038D01*
X52907533Y-9899777D01*
X52911187Y-9894850D01*
X52915306Y-9890306D01*
X52919850Y-9886187D01*
X52924777Y-9882533D01*
X52930038Y-9879380D01*
X52935582Y-9876758D01*
X52941357Y-9874691D01*
X52947307Y-9873201D01*
X52953374Y-9872301D01*
X52959500Y-9872000D01*
X53709500Y-9872000D01*
X53715626Y-9872301D01*
X53715626Y-9872301D01*
G37*
D19*
X53334500Y-9997000D03*
D12*
G36*
X53715626Y-10372301D02*
G01*
X53721693Y-10373201D01*
X53727643Y-10374691D01*
X53733418Y-10376758D01*
X53738962Y-10379380D01*
X53744223Y-10382533D01*
X53749150Y-10386187D01*
X53753694Y-10390306D01*
X53757813Y-10394850D01*
X53761467Y-10399777D01*
X53764620Y-10405038D01*
X53767242Y-10410582D01*
X53769309Y-10416357D01*
X53770799Y-10422307D01*
X53771699Y-10428374D01*
X53772000Y-10434500D01*
X53772000Y-10559500D01*
X53771699Y-10565626D01*
X53770799Y-10571693D01*
X53769309Y-10577643D01*
X53767242Y-10583418D01*
X53764620Y-10588962D01*
X53761467Y-10594223D01*
X53757813Y-10599150D01*
X53753694Y-10603694D01*
X53749150Y-10607813D01*
X53744223Y-10611467D01*
X53738962Y-10614620D01*
X53733418Y-10617242D01*
X53727643Y-10619309D01*
X53721693Y-10620799D01*
X53715626Y-10621699D01*
X53709500Y-10622000D01*
X52959500Y-10622000D01*
X52953374Y-10621699D01*
X52947307Y-10620799D01*
X52941357Y-10619309D01*
X52935582Y-10617242D01*
X52930038Y-10614620D01*
X52924777Y-10611467D01*
X52919850Y-10607813D01*
X52915306Y-10603694D01*
X52911187Y-10599150D01*
X52907533Y-10594223D01*
X52904380Y-10588962D01*
X52901758Y-10583418D01*
X52899691Y-10577643D01*
X52898201Y-10571693D01*
X52897301Y-10565626D01*
X52897000Y-10559500D01*
X52897000Y-10434500D01*
X52897301Y-10428374D01*
X52898201Y-10422307D01*
X52899691Y-10416357D01*
X52901758Y-10410582D01*
X52904380Y-10405038D01*
X52907533Y-10399777D01*
X52911187Y-10394850D01*
X52915306Y-10390306D01*
X52919850Y-10386187D01*
X52924777Y-10382533D01*
X52930038Y-10379380D01*
X52935582Y-10376758D01*
X52941357Y-10374691D01*
X52947307Y-10373201D01*
X52953374Y-10372301D01*
X52959500Y-10372000D01*
X53709500Y-10372000D01*
X53715626Y-10372301D01*
X53715626Y-10372301D01*
G37*
D19*
X53334500Y-10497000D03*
D12*
G36*
X52715626Y-10747301D02*
G01*
X52721693Y-10748201D01*
X52727643Y-10749691D01*
X52733418Y-10751758D01*
X52738962Y-10754380D01*
X52744223Y-10757533D01*
X52749150Y-10761187D01*
X52753694Y-10765306D01*
X52757813Y-10769850D01*
X52761467Y-10774777D01*
X52764620Y-10780038D01*
X52767242Y-10785582D01*
X52769309Y-10791357D01*
X52770799Y-10797307D01*
X52771699Y-10803374D01*
X52772000Y-10809500D01*
X52772000Y-11559500D01*
X52771699Y-11565626D01*
X52770799Y-11571693D01*
X52769309Y-11577643D01*
X52767242Y-11583418D01*
X52764620Y-11588962D01*
X52761467Y-11594223D01*
X52757813Y-11599150D01*
X52753694Y-11603694D01*
X52749150Y-11607813D01*
X52744223Y-11611467D01*
X52738962Y-11614620D01*
X52733418Y-11617242D01*
X52727643Y-11619309D01*
X52721693Y-11620799D01*
X52715626Y-11621699D01*
X52709500Y-11622000D01*
X52584500Y-11622000D01*
X52578374Y-11621699D01*
X52572307Y-11620799D01*
X52566357Y-11619309D01*
X52560582Y-11617242D01*
X52555038Y-11614620D01*
X52549777Y-11611467D01*
X52544850Y-11607813D01*
X52540306Y-11603694D01*
X52536187Y-11599150D01*
X52532533Y-11594223D01*
X52529380Y-11588962D01*
X52526758Y-11583418D01*
X52524691Y-11577643D01*
X52523201Y-11571693D01*
X52522301Y-11565626D01*
X52522000Y-11559500D01*
X52522000Y-10809500D01*
X52522301Y-10803374D01*
X52523201Y-10797307D01*
X52524691Y-10791357D01*
X52526758Y-10785582D01*
X52529380Y-10780038D01*
X52532533Y-10774777D01*
X52536187Y-10769850D01*
X52540306Y-10765306D01*
X52544850Y-10761187D01*
X52549777Y-10757533D01*
X52555038Y-10754380D01*
X52560582Y-10751758D01*
X52566357Y-10749691D01*
X52572307Y-10748201D01*
X52578374Y-10747301D01*
X52584500Y-10747000D01*
X52709500Y-10747000D01*
X52715626Y-10747301D01*
X52715626Y-10747301D01*
G37*
D19*
X52647000Y-11184500D03*
D12*
G36*
X52215626Y-10747301D02*
G01*
X52221693Y-10748201D01*
X52227643Y-10749691D01*
X52233418Y-10751758D01*
X52238962Y-10754380D01*
X52244223Y-10757533D01*
X52249150Y-10761187D01*
X52253694Y-10765306D01*
X52257813Y-10769850D01*
X52261467Y-10774777D01*
X52264620Y-10780038D01*
X52267242Y-10785582D01*
X52269309Y-10791357D01*
X52270799Y-10797307D01*
X52271699Y-10803374D01*
X52272000Y-10809500D01*
X52272000Y-11559500D01*
X52271699Y-11565626D01*
X52270799Y-11571693D01*
X52269309Y-11577643D01*
X52267242Y-11583418D01*
X52264620Y-11588962D01*
X52261467Y-11594223D01*
X52257813Y-11599150D01*
X52253694Y-11603694D01*
X52249150Y-11607813D01*
X52244223Y-11611467D01*
X52238962Y-11614620D01*
X52233418Y-11617242D01*
X52227643Y-11619309D01*
X52221693Y-11620799D01*
X52215626Y-11621699D01*
X52209500Y-11622000D01*
X52084500Y-11622000D01*
X52078374Y-11621699D01*
X52072307Y-11620799D01*
X52066357Y-11619309D01*
X52060582Y-11617242D01*
X52055038Y-11614620D01*
X52049777Y-11611467D01*
X52044850Y-11607813D01*
X52040306Y-11603694D01*
X52036187Y-11599150D01*
X52032533Y-11594223D01*
X52029380Y-11588962D01*
X52026758Y-11583418D01*
X52024691Y-11577643D01*
X52023201Y-11571693D01*
X52022301Y-11565626D01*
X52022000Y-11559500D01*
X52022000Y-10809500D01*
X52022301Y-10803374D01*
X52023201Y-10797307D01*
X52024691Y-10791357D01*
X52026758Y-10785582D01*
X52029380Y-10780038D01*
X52032533Y-10774777D01*
X52036187Y-10769850D01*
X52040306Y-10765306D01*
X52044850Y-10761187D01*
X52049777Y-10757533D01*
X52055038Y-10754380D01*
X52060582Y-10751758D01*
X52066357Y-10749691D01*
X52072307Y-10748201D01*
X52078374Y-10747301D01*
X52084500Y-10747000D01*
X52209500Y-10747000D01*
X52215626Y-10747301D01*
X52215626Y-10747301D01*
G37*
D19*
X52147000Y-11184500D03*
D12*
G36*
X51715626Y-10747301D02*
G01*
X51721693Y-10748201D01*
X51727643Y-10749691D01*
X51733418Y-10751758D01*
X51738962Y-10754380D01*
X51744223Y-10757533D01*
X51749150Y-10761187D01*
X51753694Y-10765306D01*
X51757813Y-10769850D01*
X51761467Y-10774777D01*
X51764620Y-10780038D01*
X51767242Y-10785582D01*
X51769309Y-10791357D01*
X51770799Y-10797307D01*
X51771699Y-10803374D01*
X51772000Y-10809500D01*
X51772000Y-11559500D01*
X51771699Y-11565626D01*
X51770799Y-11571693D01*
X51769309Y-11577643D01*
X51767242Y-11583418D01*
X51764620Y-11588962D01*
X51761467Y-11594223D01*
X51757813Y-11599150D01*
X51753694Y-11603694D01*
X51749150Y-11607813D01*
X51744223Y-11611467D01*
X51738962Y-11614620D01*
X51733418Y-11617242D01*
X51727643Y-11619309D01*
X51721693Y-11620799D01*
X51715626Y-11621699D01*
X51709500Y-11622000D01*
X51584500Y-11622000D01*
X51578374Y-11621699D01*
X51572307Y-11620799D01*
X51566357Y-11619309D01*
X51560582Y-11617242D01*
X51555038Y-11614620D01*
X51549777Y-11611467D01*
X51544850Y-11607813D01*
X51540306Y-11603694D01*
X51536187Y-11599150D01*
X51532533Y-11594223D01*
X51529380Y-11588962D01*
X51526758Y-11583418D01*
X51524691Y-11577643D01*
X51523201Y-11571693D01*
X51522301Y-11565626D01*
X51522000Y-11559500D01*
X51522000Y-10809500D01*
X51522301Y-10803374D01*
X51523201Y-10797307D01*
X51524691Y-10791357D01*
X51526758Y-10785582D01*
X51529380Y-10780038D01*
X51532533Y-10774777D01*
X51536187Y-10769850D01*
X51540306Y-10765306D01*
X51544850Y-10761187D01*
X51549777Y-10757533D01*
X51555038Y-10754380D01*
X51560582Y-10751758D01*
X51566357Y-10749691D01*
X51572307Y-10748201D01*
X51578374Y-10747301D01*
X51584500Y-10747000D01*
X51709500Y-10747000D01*
X51715626Y-10747301D01*
X51715626Y-10747301D01*
G37*
D19*
X51647000Y-11184500D03*
D12*
G36*
X51215626Y-10747301D02*
G01*
X51221693Y-10748201D01*
X51227643Y-10749691D01*
X51233418Y-10751758D01*
X51238962Y-10754380D01*
X51244223Y-10757533D01*
X51249150Y-10761187D01*
X51253694Y-10765306D01*
X51257813Y-10769850D01*
X51261467Y-10774777D01*
X51264620Y-10780038D01*
X51267242Y-10785582D01*
X51269309Y-10791357D01*
X51270799Y-10797307D01*
X51271699Y-10803374D01*
X51272000Y-10809500D01*
X51272000Y-11559500D01*
X51271699Y-11565626D01*
X51270799Y-11571693D01*
X51269309Y-11577643D01*
X51267242Y-11583418D01*
X51264620Y-11588962D01*
X51261467Y-11594223D01*
X51257813Y-11599150D01*
X51253694Y-11603694D01*
X51249150Y-11607813D01*
X51244223Y-11611467D01*
X51238962Y-11614620D01*
X51233418Y-11617242D01*
X51227643Y-11619309D01*
X51221693Y-11620799D01*
X51215626Y-11621699D01*
X51209500Y-11622000D01*
X51084500Y-11622000D01*
X51078374Y-11621699D01*
X51072307Y-11620799D01*
X51066357Y-11619309D01*
X51060582Y-11617242D01*
X51055038Y-11614620D01*
X51049777Y-11611467D01*
X51044850Y-11607813D01*
X51040306Y-11603694D01*
X51036187Y-11599150D01*
X51032533Y-11594223D01*
X51029380Y-11588962D01*
X51026758Y-11583418D01*
X51024691Y-11577643D01*
X51023201Y-11571693D01*
X51022301Y-11565626D01*
X51022000Y-11559500D01*
X51022000Y-10809500D01*
X51022301Y-10803374D01*
X51023201Y-10797307D01*
X51024691Y-10791357D01*
X51026758Y-10785582D01*
X51029380Y-10780038D01*
X51032533Y-10774777D01*
X51036187Y-10769850D01*
X51040306Y-10765306D01*
X51044850Y-10761187D01*
X51049777Y-10757533D01*
X51055038Y-10754380D01*
X51060582Y-10751758D01*
X51066357Y-10749691D01*
X51072307Y-10748201D01*
X51078374Y-10747301D01*
X51084500Y-10747000D01*
X51209500Y-10747000D01*
X51215626Y-10747301D01*
X51215626Y-10747301D01*
G37*
D19*
X51147000Y-11184500D03*
D12*
G36*
X50715626Y-10747301D02*
G01*
X50721693Y-10748201D01*
X50727643Y-10749691D01*
X50733418Y-10751758D01*
X50738962Y-10754380D01*
X50744223Y-10757533D01*
X50749150Y-10761187D01*
X50753694Y-10765306D01*
X50757813Y-10769850D01*
X50761467Y-10774777D01*
X50764620Y-10780038D01*
X50767242Y-10785582D01*
X50769309Y-10791357D01*
X50770799Y-10797307D01*
X50771699Y-10803374D01*
X50772000Y-10809500D01*
X50772000Y-11559500D01*
X50771699Y-11565626D01*
X50770799Y-11571693D01*
X50769309Y-11577643D01*
X50767242Y-11583418D01*
X50764620Y-11588962D01*
X50761467Y-11594223D01*
X50757813Y-11599150D01*
X50753694Y-11603694D01*
X50749150Y-11607813D01*
X50744223Y-11611467D01*
X50738962Y-11614620D01*
X50733418Y-11617242D01*
X50727643Y-11619309D01*
X50721693Y-11620799D01*
X50715626Y-11621699D01*
X50709500Y-11622000D01*
X50584500Y-11622000D01*
X50578374Y-11621699D01*
X50572307Y-11620799D01*
X50566357Y-11619309D01*
X50560582Y-11617242D01*
X50555038Y-11614620D01*
X50549777Y-11611467D01*
X50544850Y-11607813D01*
X50540306Y-11603694D01*
X50536187Y-11599150D01*
X50532533Y-11594223D01*
X50529380Y-11588962D01*
X50526758Y-11583418D01*
X50524691Y-11577643D01*
X50523201Y-11571693D01*
X50522301Y-11565626D01*
X50522000Y-11559500D01*
X50522000Y-10809500D01*
X50522301Y-10803374D01*
X50523201Y-10797307D01*
X50524691Y-10791357D01*
X50526758Y-10785582D01*
X50529380Y-10780038D01*
X50532533Y-10774777D01*
X50536187Y-10769850D01*
X50540306Y-10765306D01*
X50544850Y-10761187D01*
X50549777Y-10757533D01*
X50555038Y-10754380D01*
X50560582Y-10751758D01*
X50566357Y-10749691D01*
X50572307Y-10748201D01*
X50578374Y-10747301D01*
X50584500Y-10747000D01*
X50709500Y-10747000D01*
X50715626Y-10747301D01*
X50715626Y-10747301D01*
G37*
D19*
X50647000Y-11184500D03*
D12*
G36*
X50215626Y-10747301D02*
G01*
X50221693Y-10748201D01*
X50227643Y-10749691D01*
X50233418Y-10751758D01*
X50238962Y-10754380D01*
X50244223Y-10757533D01*
X50249150Y-10761187D01*
X50253694Y-10765306D01*
X50257813Y-10769850D01*
X50261467Y-10774777D01*
X50264620Y-10780038D01*
X50267242Y-10785582D01*
X50269309Y-10791357D01*
X50270799Y-10797307D01*
X50271699Y-10803374D01*
X50272000Y-10809500D01*
X50272000Y-11559500D01*
X50271699Y-11565626D01*
X50270799Y-11571693D01*
X50269309Y-11577643D01*
X50267242Y-11583418D01*
X50264620Y-11588962D01*
X50261467Y-11594223D01*
X50257813Y-11599150D01*
X50253694Y-11603694D01*
X50249150Y-11607813D01*
X50244223Y-11611467D01*
X50238962Y-11614620D01*
X50233418Y-11617242D01*
X50227643Y-11619309D01*
X50221693Y-11620799D01*
X50215626Y-11621699D01*
X50209500Y-11622000D01*
X50084500Y-11622000D01*
X50078374Y-11621699D01*
X50072307Y-11620799D01*
X50066357Y-11619309D01*
X50060582Y-11617242D01*
X50055038Y-11614620D01*
X50049777Y-11611467D01*
X50044850Y-11607813D01*
X50040306Y-11603694D01*
X50036187Y-11599150D01*
X50032533Y-11594223D01*
X50029380Y-11588962D01*
X50026758Y-11583418D01*
X50024691Y-11577643D01*
X50023201Y-11571693D01*
X50022301Y-11565626D01*
X50022000Y-11559500D01*
X50022000Y-10809500D01*
X50022301Y-10803374D01*
X50023201Y-10797307D01*
X50024691Y-10791357D01*
X50026758Y-10785582D01*
X50029380Y-10780038D01*
X50032533Y-10774777D01*
X50036187Y-10769850D01*
X50040306Y-10765306D01*
X50044850Y-10761187D01*
X50049777Y-10757533D01*
X50055038Y-10754380D01*
X50060582Y-10751758D01*
X50066357Y-10749691D01*
X50072307Y-10748201D01*
X50078374Y-10747301D01*
X50084500Y-10747000D01*
X50209500Y-10747000D01*
X50215626Y-10747301D01*
X50215626Y-10747301D01*
G37*
D19*
X50147000Y-11184500D03*
D12*
G36*
X49715626Y-10747301D02*
G01*
X49721693Y-10748201D01*
X49727643Y-10749691D01*
X49733418Y-10751758D01*
X49738962Y-10754380D01*
X49744223Y-10757533D01*
X49749150Y-10761187D01*
X49753694Y-10765306D01*
X49757813Y-10769850D01*
X49761467Y-10774777D01*
X49764620Y-10780038D01*
X49767242Y-10785582D01*
X49769309Y-10791357D01*
X49770799Y-10797307D01*
X49771699Y-10803374D01*
X49772000Y-10809500D01*
X49772000Y-11559500D01*
X49771699Y-11565626D01*
X49770799Y-11571693D01*
X49769309Y-11577643D01*
X49767242Y-11583418D01*
X49764620Y-11588962D01*
X49761467Y-11594223D01*
X49757813Y-11599150D01*
X49753694Y-11603694D01*
X49749150Y-11607813D01*
X49744223Y-11611467D01*
X49738962Y-11614620D01*
X49733418Y-11617242D01*
X49727643Y-11619309D01*
X49721693Y-11620799D01*
X49715626Y-11621699D01*
X49709500Y-11622000D01*
X49584500Y-11622000D01*
X49578374Y-11621699D01*
X49572307Y-11620799D01*
X49566357Y-11619309D01*
X49560582Y-11617242D01*
X49555038Y-11614620D01*
X49549777Y-11611467D01*
X49544850Y-11607813D01*
X49540306Y-11603694D01*
X49536187Y-11599150D01*
X49532533Y-11594223D01*
X49529380Y-11588962D01*
X49526758Y-11583418D01*
X49524691Y-11577643D01*
X49523201Y-11571693D01*
X49522301Y-11565626D01*
X49522000Y-11559500D01*
X49522000Y-10809500D01*
X49522301Y-10803374D01*
X49523201Y-10797307D01*
X49524691Y-10791357D01*
X49526758Y-10785582D01*
X49529380Y-10780038D01*
X49532533Y-10774777D01*
X49536187Y-10769850D01*
X49540306Y-10765306D01*
X49544850Y-10761187D01*
X49549777Y-10757533D01*
X49555038Y-10754380D01*
X49560582Y-10751758D01*
X49566357Y-10749691D01*
X49572307Y-10748201D01*
X49578374Y-10747301D01*
X49584500Y-10747000D01*
X49709500Y-10747000D01*
X49715626Y-10747301D01*
X49715626Y-10747301D01*
G37*
D19*
X49647000Y-11184500D03*
D12*
G36*
X49215626Y-10747301D02*
G01*
X49221693Y-10748201D01*
X49227643Y-10749691D01*
X49233418Y-10751758D01*
X49238962Y-10754380D01*
X49244223Y-10757533D01*
X49249150Y-10761187D01*
X49253694Y-10765306D01*
X49257813Y-10769850D01*
X49261467Y-10774777D01*
X49264620Y-10780038D01*
X49267242Y-10785582D01*
X49269309Y-10791357D01*
X49270799Y-10797307D01*
X49271699Y-10803374D01*
X49272000Y-10809500D01*
X49272000Y-11559500D01*
X49271699Y-11565626D01*
X49270799Y-11571693D01*
X49269309Y-11577643D01*
X49267242Y-11583418D01*
X49264620Y-11588962D01*
X49261467Y-11594223D01*
X49257813Y-11599150D01*
X49253694Y-11603694D01*
X49249150Y-11607813D01*
X49244223Y-11611467D01*
X49238962Y-11614620D01*
X49233418Y-11617242D01*
X49227643Y-11619309D01*
X49221693Y-11620799D01*
X49215626Y-11621699D01*
X49209500Y-11622000D01*
X49084500Y-11622000D01*
X49078374Y-11621699D01*
X49072307Y-11620799D01*
X49066357Y-11619309D01*
X49060582Y-11617242D01*
X49055038Y-11614620D01*
X49049777Y-11611467D01*
X49044850Y-11607813D01*
X49040306Y-11603694D01*
X49036187Y-11599150D01*
X49032533Y-11594223D01*
X49029380Y-11588962D01*
X49026758Y-11583418D01*
X49024691Y-11577643D01*
X49023201Y-11571693D01*
X49022301Y-11565626D01*
X49022000Y-11559500D01*
X49022000Y-10809500D01*
X49022301Y-10803374D01*
X49023201Y-10797307D01*
X49024691Y-10791357D01*
X49026758Y-10785582D01*
X49029380Y-10780038D01*
X49032533Y-10774777D01*
X49036187Y-10769850D01*
X49040306Y-10765306D01*
X49044850Y-10761187D01*
X49049777Y-10757533D01*
X49055038Y-10754380D01*
X49060582Y-10751758D01*
X49066357Y-10749691D01*
X49072307Y-10748201D01*
X49078374Y-10747301D01*
X49084500Y-10747000D01*
X49209500Y-10747000D01*
X49215626Y-10747301D01*
X49215626Y-10747301D01*
G37*
D19*
X49147000Y-11184500D03*
D12*
G36*
X48715626Y-10747301D02*
G01*
X48721693Y-10748201D01*
X48727643Y-10749691D01*
X48733418Y-10751758D01*
X48738962Y-10754380D01*
X48744223Y-10757533D01*
X48749150Y-10761187D01*
X48753694Y-10765306D01*
X48757813Y-10769850D01*
X48761467Y-10774777D01*
X48764620Y-10780038D01*
X48767242Y-10785582D01*
X48769309Y-10791357D01*
X48770799Y-10797307D01*
X48771699Y-10803374D01*
X48772000Y-10809500D01*
X48772000Y-11559500D01*
X48771699Y-11565626D01*
X48770799Y-11571693D01*
X48769309Y-11577643D01*
X48767242Y-11583418D01*
X48764620Y-11588962D01*
X48761467Y-11594223D01*
X48757813Y-11599150D01*
X48753694Y-11603694D01*
X48749150Y-11607813D01*
X48744223Y-11611467D01*
X48738962Y-11614620D01*
X48733418Y-11617242D01*
X48727643Y-11619309D01*
X48721693Y-11620799D01*
X48715626Y-11621699D01*
X48709500Y-11622000D01*
X48584500Y-11622000D01*
X48578374Y-11621699D01*
X48572307Y-11620799D01*
X48566357Y-11619309D01*
X48560582Y-11617242D01*
X48555038Y-11614620D01*
X48549777Y-11611467D01*
X48544850Y-11607813D01*
X48540306Y-11603694D01*
X48536187Y-11599150D01*
X48532533Y-11594223D01*
X48529380Y-11588962D01*
X48526758Y-11583418D01*
X48524691Y-11577643D01*
X48523201Y-11571693D01*
X48522301Y-11565626D01*
X48522000Y-11559500D01*
X48522000Y-10809500D01*
X48522301Y-10803374D01*
X48523201Y-10797307D01*
X48524691Y-10791357D01*
X48526758Y-10785582D01*
X48529380Y-10780038D01*
X48532533Y-10774777D01*
X48536187Y-10769850D01*
X48540306Y-10765306D01*
X48544850Y-10761187D01*
X48549777Y-10757533D01*
X48555038Y-10754380D01*
X48560582Y-10751758D01*
X48566357Y-10749691D01*
X48572307Y-10748201D01*
X48578374Y-10747301D01*
X48584500Y-10747000D01*
X48709500Y-10747000D01*
X48715626Y-10747301D01*
X48715626Y-10747301D01*
G37*
D19*
X48647000Y-11184500D03*
D12*
G36*
X48215626Y-10747301D02*
G01*
X48221693Y-10748201D01*
X48227643Y-10749691D01*
X48233418Y-10751758D01*
X48238962Y-10754380D01*
X48244223Y-10757533D01*
X48249150Y-10761187D01*
X48253694Y-10765306D01*
X48257813Y-10769850D01*
X48261467Y-10774777D01*
X48264620Y-10780038D01*
X48267242Y-10785582D01*
X48269309Y-10791357D01*
X48270799Y-10797307D01*
X48271699Y-10803374D01*
X48272000Y-10809500D01*
X48272000Y-11559500D01*
X48271699Y-11565626D01*
X48270799Y-11571693D01*
X48269309Y-11577643D01*
X48267242Y-11583418D01*
X48264620Y-11588962D01*
X48261467Y-11594223D01*
X48257813Y-11599150D01*
X48253694Y-11603694D01*
X48249150Y-11607813D01*
X48244223Y-11611467D01*
X48238962Y-11614620D01*
X48233418Y-11617242D01*
X48227643Y-11619309D01*
X48221693Y-11620799D01*
X48215626Y-11621699D01*
X48209500Y-11622000D01*
X48084500Y-11622000D01*
X48078374Y-11621699D01*
X48072307Y-11620799D01*
X48066357Y-11619309D01*
X48060582Y-11617242D01*
X48055038Y-11614620D01*
X48049777Y-11611467D01*
X48044850Y-11607813D01*
X48040306Y-11603694D01*
X48036187Y-11599150D01*
X48032533Y-11594223D01*
X48029380Y-11588962D01*
X48026758Y-11583418D01*
X48024691Y-11577643D01*
X48023201Y-11571693D01*
X48022301Y-11565626D01*
X48022000Y-11559500D01*
X48022000Y-10809500D01*
X48022301Y-10803374D01*
X48023201Y-10797307D01*
X48024691Y-10791357D01*
X48026758Y-10785582D01*
X48029380Y-10780038D01*
X48032533Y-10774777D01*
X48036187Y-10769850D01*
X48040306Y-10765306D01*
X48044850Y-10761187D01*
X48049777Y-10757533D01*
X48055038Y-10754380D01*
X48060582Y-10751758D01*
X48066357Y-10749691D01*
X48072307Y-10748201D01*
X48078374Y-10747301D01*
X48084500Y-10747000D01*
X48209500Y-10747000D01*
X48215626Y-10747301D01*
X48215626Y-10747301D01*
G37*
D19*
X48147000Y-11184500D03*
D12*
G36*
X47715626Y-10747301D02*
G01*
X47721693Y-10748201D01*
X47727643Y-10749691D01*
X47733418Y-10751758D01*
X47738962Y-10754380D01*
X47744223Y-10757533D01*
X47749150Y-10761187D01*
X47753694Y-10765306D01*
X47757813Y-10769850D01*
X47761467Y-10774777D01*
X47764620Y-10780038D01*
X47767242Y-10785582D01*
X47769309Y-10791357D01*
X47770799Y-10797307D01*
X47771699Y-10803374D01*
X47772000Y-10809500D01*
X47772000Y-11559500D01*
X47771699Y-11565626D01*
X47770799Y-11571693D01*
X47769309Y-11577643D01*
X47767242Y-11583418D01*
X47764620Y-11588962D01*
X47761467Y-11594223D01*
X47757813Y-11599150D01*
X47753694Y-11603694D01*
X47749150Y-11607813D01*
X47744223Y-11611467D01*
X47738962Y-11614620D01*
X47733418Y-11617242D01*
X47727643Y-11619309D01*
X47721693Y-11620799D01*
X47715626Y-11621699D01*
X47709500Y-11622000D01*
X47584500Y-11622000D01*
X47578374Y-11621699D01*
X47572307Y-11620799D01*
X47566357Y-11619309D01*
X47560582Y-11617242D01*
X47555038Y-11614620D01*
X47549777Y-11611467D01*
X47544850Y-11607813D01*
X47540306Y-11603694D01*
X47536187Y-11599150D01*
X47532533Y-11594223D01*
X47529380Y-11588962D01*
X47526758Y-11583418D01*
X47524691Y-11577643D01*
X47523201Y-11571693D01*
X47522301Y-11565626D01*
X47522000Y-11559500D01*
X47522000Y-10809500D01*
X47522301Y-10803374D01*
X47523201Y-10797307D01*
X47524691Y-10791357D01*
X47526758Y-10785582D01*
X47529380Y-10780038D01*
X47532533Y-10774777D01*
X47536187Y-10769850D01*
X47540306Y-10765306D01*
X47544850Y-10761187D01*
X47549777Y-10757533D01*
X47555038Y-10754380D01*
X47560582Y-10751758D01*
X47566357Y-10749691D01*
X47572307Y-10748201D01*
X47578374Y-10747301D01*
X47584500Y-10747000D01*
X47709500Y-10747000D01*
X47715626Y-10747301D01*
X47715626Y-10747301D01*
G37*
D19*
X47647000Y-11184500D03*
D12*
G36*
X47215626Y-10747301D02*
G01*
X47221693Y-10748201D01*
X47227643Y-10749691D01*
X47233418Y-10751758D01*
X47238962Y-10754380D01*
X47244223Y-10757533D01*
X47249150Y-10761187D01*
X47253694Y-10765306D01*
X47257813Y-10769850D01*
X47261467Y-10774777D01*
X47264620Y-10780038D01*
X47267242Y-10785582D01*
X47269309Y-10791357D01*
X47270799Y-10797307D01*
X47271699Y-10803374D01*
X47272000Y-10809500D01*
X47272000Y-11559500D01*
X47271699Y-11565626D01*
X47270799Y-11571693D01*
X47269309Y-11577643D01*
X47267242Y-11583418D01*
X47264620Y-11588962D01*
X47261467Y-11594223D01*
X47257813Y-11599150D01*
X47253694Y-11603694D01*
X47249150Y-11607813D01*
X47244223Y-11611467D01*
X47238962Y-11614620D01*
X47233418Y-11617242D01*
X47227643Y-11619309D01*
X47221693Y-11620799D01*
X47215626Y-11621699D01*
X47209500Y-11622000D01*
X47084500Y-11622000D01*
X47078374Y-11621699D01*
X47072307Y-11620799D01*
X47066357Y-11619309D01*
X47060582Y-11617242D01*
X47055038Y-11614620D01*
X47049777Y-11611467D01*
X47044850Y-11607813D01*
X47040306Y-11603694D01*
X47036187Y-11599150D01*
X47032533Y-11594223D01*
X47029380Y-11588962D01*
X47026758Y-11583418D01*
X47024691Y-11577643D01*
X47023201Y-11571693D01*
X47022301Y-11565626D01*
X47022000Y-11559500D01*
X47022000Y-10809500D01*
X47022301Y-10803374D01*
X47023201Y-10797307D01*
X47024691Y-10791357D01*
X47026758Y-10785582D01*
X47029380Y-10780038D01*
X47032533Y-10774777D01*
X47036187Y-10769850D01*
X47040306Y-10765306D01*
X47044850Y-10761187D01*
X47049777Y-10757533D01*
X47055038Y-10754380D01*
X47060582Y-10751758D01*
X47066357Y-10749691D01*
X47072307Y-10748201D01*
X47078374Y-10747301D01*
X47084500Y-10747000D01*
X47209500Y-10747000D01*
X47215626Y-10747301D01*
X47215626Y-10747301D01*
G37*
D19*
X47147000Y-11184500D03*
D12*
G36*
X46840626Y-10372301D02*
G01*
X46846693Y-10373201D01*
X46852643Y-10374691D01*
X46858418Y-10376758D01*
X46863962Y-10379380D01*
X46869223Y-10382533D01*
X46874150Y-10386187D01*
X46878694Y-10390306D01*
X46882813Y-10394850D01*
X46886467Y-10399777D01*
X46889620Y-10405038D01*
X46892242Y-10410582D01*
X46894309Y-10416357D01*
X46895799Y-10422307D01*
X46896699Y-10428374D01*
X46897000Y-10434500D01*
X46897000Y-10559500D01*
X46896699Y-10565626D01*
X46895799Y-10571693D01*
X46894309Y-10577643D01*
X46892242Y-10583418D01*
X46889620Y-10588962D01*
X46886467Y-10594223D01*
X46882813Y-10599150D01*
X46878694Y-10603694D01*
X46874150Y-10607813D01*
X46869223Y-10611467D01*
X46863962Y-10614620D01*
X46858418Y-10617242D01*
X46852643Y-10619309D01*
X46846693Y-10620799D01*
X46840626Y-10621699D01*
X46834500Y-10622000D01*
X46084500Y-10622000D01*
X46078374Y-10621699D01*
X46072307Y-10620799D01*
X46066357Y-10619309D01*
X46060582Y-10617242D01*
X46055038Y-10614620D01*
X46049777Y-10611467D01*
X46044850Y-10607813D01*
X46040306Y-10603694D01*
X46036187Y-10599150D01*
X46032533Y-10594223D01*
X46029380Y-10588962D01*
X46026758Y-10583418D01*
X46024691Y-10577643D01*
X46023201Y-10571693D01*
X46022301Y-10565626D01*
X46022000Y-10559500D01*
X46022000Y-10434500D01*
X46022301Y-10428374D01*
X46023201Y-10422307D01*
X46024691Y-10416357D01*
X46026758Y-10410582D01*
X46029380Y-10405038D01*
X46032533Y-10399777D01*
X46036187Y-10394850D01*
X46040306Y-10390306D01*
X46044850Y-10386187D01*
X46049777Y-10382533D01*
X46055038Y-10379380D01*
X46060582Y-10376758D01*
X46066357Y-10374691D01*
X46072307Y-10373201D01*
X46078374Y-10372301D01*
X46084500Y-10372000D01*
X46834500Y-10372000D01*
X46840626Y-10372301D01*
X46840626Y-10372301D01*
G37*
D19*
X46459500Y-10497000D03*
D12*
G36*
X46840626Y-9872301D02*
G01*
X46846693Y-9873201D01*
X46852643Y-9874691D01*
X46858418Y-9876758D01*
X46863962Y-9879380D01*
X46869223Y-9882533D01*
X46874150Y-9886187D01*
X46878694Y-9890306D01*
X46882813Y-9894850D01*
X46886467Y-9899777D01*
X46889620Y-9905038D01*
X46892242Y-9910582D01*
X46894309Y-9916357D01*
X46895799Y-9922307D01*
X46896699Y-9928374D01*
X46897000Y-9934500D01*
X46897000Y-10059500D01*
X46896699Y-10065626D01*
X46895799Y-10071693D01*
X46894309Y-10077643D01*
X46892242Y-10083418D01*
X46889620Y-10088962D01*
X46886467Y-10094223D01*
X46882813Y-10099150D01*
X46878694Y-10103694D01*
X46874150Y-10107813D01*
X46869223Y-10111467D01*
X46863962Y-10114620D01*
X46858418Y-10117242D01*
X46852643Y-10119309D01*
X46846693Y-10120799D01*
X46840626Y-10121699D01*
X46834500Y-10122000D01*
X46084500Y-10122000D01*
X46078374Y-10121699D01*
X46072307Y-10120799D01*
X46066357Y-10119309D01*
X46060582Y-10117242D01*
X46055038Y-10114620D01*
X46049777Y-10111467D01*
X46044850Y-10107813D01*
X46040306Y-10103694D01*
X46036187Y-10099150D01*
X46032533Y-10094223D01*
X46029380Y-10088962D01*
X46026758Y-10083418D01*
X46024691Y-10077643D01*
X46023201Y-10071693D01*
X46022301Y-10065626D01*
X46022000Y-10059500D01*
X46022000Y-9934500D01*
X46022301Y-9928374D01*
X46023201Y-9922307D01*
X46024691Y-9916357D01*
X46026758Y-9910582D01*
X46029380Y-9905038D01*
X46032533Y-9899777D01*
X46036187Y-9894850D01*
X46040306Y-9890306D01*
X46044850Y-9886187D01*
X46049777Y-9882533D01*
X46055038Y-9879380D01*
X46060582Y-9876758D01*
X46066357Y-9874691D01*
X46072307Y-9873201D01*
X46078374Y-9872301D01*
X46084500Y-9872000D01*
X46834500Y-9872000D01*
X46840626Y-9872301D01*
X46840626Y-9872301D01*
G37*
D19*
X46459500Y-9997000D03*
D12*
G36*
X46840626Y-9372301D02*
G01*
X46846693Y-9373201D01*
X46852643Y-9374691D01*
X46858418Y-9376758D01*
X46863962Y-9379380D01*
X46869223Y-9382533D01*
X46874150Y-9386187D01*
X46878694Y-9390306D01*
X46882813Y-9394850D01*
X46886467Y-9399777D01*
X46889620Y-9405038D01*
X46892242Y-9410582D01*
X46894309Y-9416357D01*
X46895799Y-9422307D01*
X46896699Y-9428374D01*
X46897000Y-9434500D01*
X46897000Y-9559500D01*
X46896699Y-9565626D01*
X46895799Y-9571693D01*
X46894309Y-9577643D01*
X46892242Y-9583418D01*
X46889620Y-9588962D01*
X46886467Y-9594223D01*
X46882813Y-9599150D01*
X46878694Y-9603694D01*
X46874150Y-9607813D01*
X46869223Y-9611467D01*
X46863962Y-9614620D01*
X46858418Y-9617242D01*
X46852643Y-9619309D01*
X46846693Y-9620799D01*
X46840626Y-9621699D01*
X46834500Y-9622000D01*
X46084500Y-9622000D01*
X46078374Y-9621699D01*
X46072307Y-9620799D01*
X46066357Y-9619309D01*
X46060582Y-9617242D01*
X46055038Y-9614620D01*
X46049777Y-9611467D01*
X46044850Y-9607813D01*
X46040306Y-9603694D01*
X46036187Y-9599150D01*
X46032533Y-9594223D01*
X46029380Y-9588962D01*
X46026758Y-9583418D01*
X46024691Y-9577643D01*
X46023201Y-9571693D01*
X46022301Y-9565626D01*
X46022000Y-9559500D01*
X46022000Y-9434500D01*
X46022301Y-9428374D01*
X46023201Y-9422307D01*
X46024691Y-9416357D01*
X46026758Y-9410582D01*
X46029380Y-9405038D01*
X46032533Y-9399777D01*
X46036187Y-9394850D01*
X46040306Y-9390306D01*
X46044850Y-9386187D01*
X46049777Y-9382533D01*
X46055038Y-9379380D01*
X46060582Y-9376758D01*
X46066357Y-9374691D01*
X46072307Y-9373201D01*
X46078374Y-9372301D01*
X46084500Y-9372000D01*
X46834500Y-9372000D01*
X46840626Y-9372301D01*
X46840626Y-9372301D01*
G37*
D19*
X46459500Y-9497000D03*
D12*
G36*
X46840626Y-8872301D02*
G01*
X46846693Y-8873201D01*
X46852643Y-8874691D01*
X46858418Y-8876758D01*
X46863962Y-8879380D01*
X46869223Y-8882533D01*
X46874150Y-8886187D01*
X46878694Y-8890306D01*
X46882813Y-8894850D01*
X46886467Y-8899777D01*
X46889620Y-8905038D01*
X46892242Y-8910582D01*
X46894309Y-8916357D01*
X46895799Y-8922307D01*
X46896699Y-8928374D01*
X46897000Y-8934500D01*
X46897000Y-9059500D01*
X46896699Y-9065626D01*
X46895799Y-9071693D01*
X46894309Y-9077643D01*
X46892242Y-9083418D01*
X46889620Y-9088962D01*
X46886467Y-9094223D01*
X46882813Y-9099150D01*
X46878694Y-9103694D01*
X46874150Y-9107813D01*
X46869223Y-9111467D01*
X46863962Y-9114620D01*
X46858418Y-9117242D01*
X46852643Y-9119309D01*
X46846693Y-9120799D01*
X46840626Y-9121699D01*
X46834500Y-9122000D01*
X46084500Y-9122000D01*
X46078374Y-9121699D01*
X46072307Y-9120799D01*
X46066357Y-9119309D01*
X46060582Y-9117242D01*
X46055038Y-9114620D01*
X46049777Y-9111467D01*
X46044850Y-9107813D01*
X46040306Y-9103694D01*
X46036187Y-9099150D01*
X46032533Y-9094223D01*
X46029380Y-9088962D01*
X46026758Y-9083418D01*
X46024691Y-9077643D01*
X46023201Y-9071693D01*
X46022301Y-9065626D01*
X46022000Y-9059500D01*
X46022000Y-8934500D01*
X46022301Y-8928374D01*
X46023201Y-8922307D01*
X46024691Y-8916357D01*
X46026758Y-8910582D01*
X46029380Y-8905038D01*
X46032533Y-8899777D01*
X46036187Y-8894850D01*
X46040306Y-8890306D01*
X46044850Y-8886187D01*
X46049777Y-8882533D01*
X46055038Y-8879380D01*
X46060582Y-8876758D01*
X46066357Y-8874691D01*
X46072307Y-8873201D01*
X46078374Y-8872301D01*
X46084500Y-8872000D01*
X46834500Y-8872000D01*
X46840626Y-8872301D01*
X46840626Y-8872301D01*
G37*
D19*
X46459500Y-8997000D03*
D12*
G36*
X46840626Y-8372301D02*
G01*
X46846693Y-8373201D01*
X46852643Y-8374691D01*
X46858418Y-8376758D01*
X46863962Y-8379380D01*
X46869223Y-8382533D01*
X46874150Y-8386187D01*
X46878694Y-8390306D01*
X46882813Y-8394850D01*
X46886467Y-8399777D01*
X46889620Y-8405038D01*
X46892242Y-8410582D01*
X46894309Y-8416357D01*
X46895799Y-8422307D01*
X46896699Y-8428374D01*
X46897000Y-8434500D01*
X46897000Y-8559500D01*
X46896699Y-8565626D01*
X46895799Y-8571693D01*
X46894309Y-8577643D01*
X46892242Y-8583418D01*
X46889620Y-8588962D01*
X46886467Y-8594223D01*
X46882813Y-8599150D01*
X46878694Y-8603694D01*
X46874150Y-8607813D01*
X46869223Y-8611467D01*
X46863962Y-8614620D01*
X46858418Y-8617242D01*
X46852643Y-8619309D01*
X46846693Y-8620799D01*
X46840626Y-8621699D01*
X46834500Y-8622000D01*
X46084500Y-8622000D01*
X46078374Y-8621699D01*
X46072307Y-8620799D01*
X46066357Y-8619309D01*
X46060582Y-8617242D01*
X46055038Y-8614620D01*
X46049777Y-8611467D01*
X46044850Y-8607813D01*
X46040306Y-8603694D01*
X46036187Y-8599150D01*
X46032533Y-8594223D01*
X46029380Y-8588962D01*
X46026758Y-8583418D01*
X46024691Y-8577643D01*
X46023201Y-8571693D01*
X46022301Y-8565626D01*
X46022000Y-8559500D01*
X46022000Y-8434500D01*
X46022301Y-8428374D01*
X46023201Y-8422307D01*
X46024691Y-8416357D01*
X46026758Y-8410582D01*
X46029380Y-8405038D01*
X46032533Y-8399777D01*
X46036187Y-8394850D01*
X46040306Y-8390306D01*
X46044850Y-8386187D01*
X46049777Y-8382533D01*
X46055038Y-8379380D01*
X46060582Y-8376758D01*
X46066357Y-8374691D01*
X46072307Y-8373201D01*
X46078374Y-8372301D01*
X46084500Y-8372000D01*
X46834500Y-8372000D01*
X46840626Y-8372301D01*
X46840626Y-8372301D01*
G37*
D19*
X46459500Y-8497000D03*
D12*
G36*
X46840626Y-7872301D02*
G01*
X46846693Y-7873201D01*
X46852643Y-7874691D01*
X46858418Y-7876758D01*
X46863962Y-7879380D01*
X46869223Y-7882533D01*
X46874150Y-7886187D01*
X46878694Y-7890306D01*
X46882813Y-7894850D01*
X46886467Y-7899777D01*
X46889620Y-7905038D01*
X46892242Y-7910582D01*
X46894309Y-7916357D01*
X46895799Y-7922307D01*
X46896699Y-7928374D01*
X46897000Y-7934500D01*
X46897000Y-8059500D01*
X46896699Y-8065626D01*
X46895799Y-8071693D01*
X46894309Y-8077643D01*
X46892242Y-8083418D01*
X46889620Y-8088962D01*
X46886467Y-8094223D01*
X46882813Y-8099150D01*
X46878694Y-8103694D01*
X46874150Y-8107813D01*
X46869223Y-8111467D01*
X46863962Y-8114620D01*
X46858418Y-8117242D01*
X46852643Y-8119309D01*
X46846693Y-8120799D01*
X46840626Y-8121699D01*
X46834500Y-8122000D01*
X46084500Y-8122000D01*
X46078374Y-8121699D01*
X46072307Y-8120799D01*
X46066357Y-8119309D01*
X46060582Y-8117242D01*
X46055038Y-8114620D01*
X46049777Y-8111467D01*
X46044850Y-8107813D01*
X46040306Y-8103694D01*
X46036187Y-8099150D01*
X46032533Y-8094223D01*
X46029380Y-8088962D01*
X46026758Y-8083418D01*
X46024691Y-8077643D01*
X46023201Y-8071693D01*
X46022301Y-8065626D01*
X46022000Y-8059500D01*
X46022000Y-7934500D01*
X46022301Y-7928374D01*
X46023201Y-7922307D01*
X46024691Y-7916357D01*
X46026758Y-7910582D01*
X46029380Y-7905038D01*
X46032533Y-7899777D01*
X46036187Y-7894850D01*
X46040306Y-7890306D01*
X46044850Y-7886187D01*
X46049777Y-7882533D01*
X46055038Y-7879380D01*
X46060582Y-7876758D01*
X46066357Y-7874691D01*
X46072307Y-7873201D01*
X46078374Y-7872301D01*
X46084500Y-7872000D01*
X46834500Y-7872000D01*
X46840626Y-7872301D01*
X46840626Y-7872301D01*
G37*
D19*
X46459500Y-7997000D03*
D12*
G36*
X46840626Y-7372301D02*
G01*
X46846693Y-7373201D01*
X46852643Y-7374691D01*
X46858418Y-7376758D01*
X46863962Y-7379380D01*
X46869223Y-7382533D01*
X46874150Y-7386187D01*
X46878694Y-7390306D01*
X46882813Y-7394850D01*
X46886467Y-7399777D01*
X46889620Y-7405038D01*
X46892242Y-7410582D01*
X46894309Y-7416357D01*
X46895799Y-7422307D01*
X46896699Y-7428374D01*
X46897000Y-7434500D01*
X46897000Y-7559500D01*
X46896699Y-7565626D01*
X46895799Y-7571693D01*
X46894309Y-7577643D01*
X46892242Y-7583418D01*
X46889620Y-7588962D01*
X46886467Y-7594223D01*
X46882813Y-7599150D01*
X46878694Y-7603694D01*
X46874150Y-7607813D01*
X46869223Y-7611467D01*
X46863962Y-7614620D01*
X46858418Y-7617242D01*
X46852643Y-7619309D01*
X46846693Y-7620799D01*
X46840626Y-7621699D01*
X46834500Y-7622000D01*
X46084500Y-7622000D01*
X46078374Y-7621699D01*
X46072307Y-7620799D01*
X46066357Y-7619309D01*
X46060582Y-7617242D01*
X46055038Y-7614620D01*
X46049777Y-7611467D01*
X46044850Y-7607813D01*
X46040306Y-7603694D01*
X46036187Y-7599150D01*
X46032533Y-7594223D01*
X46029380Y-7588962D01*
X46026758Y-7583418D01*
X46024691Y-7577643D01*
X46023201Y-7571693D01*
X46022301Y-7565626D01*
X46022000Y-7559500D01*
X46022000Y-7434500D01*
X46022301Y-7428374D01*
X46023201Y-7422307D01*
X46024691Y-7416357D01*
X46026758Y-7410582D01*
X46029380Y-7405038D01*
X46032533Y-7399777D01*
X46036187Y-7394850D01*
X46040306Y-7390306D01*
X46044850Y-7386187D01*
X46049777Y-7382533D01*
X46055038Y-7379380D01*
X46060582Y-7376758D01*
X46066357Y-7374691D01*
X46072307Y-7373201D01*
X46078374Y-7372301D01*
X46084500Y-7372000D01*
X46834500Y-7372000D01*
X46840626Y-7372301D01*
X46840626Y-7372301D01*
G37*
D19*
X46459500Y-7497000D03*
D12*
G36*
X46840626Y-6872301D02*
G01*
X46846693Y-6873201D01*
X46852643Y-6874691D01*
X46858418Y-6876758D01*
X46863962Y-6879380D01*
X46869223Y-6882533D01*
X46874150Y-6886187D01*
X46878694Y-6890306D01*
X46882813Y-6894850D01*
X46886467Y-6899777D01*
X46889620Y-6905038D01*
X46892242Y-6910582D01*
X46894309Y-6916357D01*
X46895799Y-6922307D01*
X46896699Y-6928374D01*
X46897000Y-6934500D01*
X46897000Y-7059500D01*
X46896699Y-7065626D01*
X46895799Y-7071693D01*
X46894309Y-7077643D01*
X46892242Y-7083418D01*
X46889620Y-7088962D01*
X46886467Y-7094223D01*
X46882813Y-7099150D01*
X46878694Y-7103694D01*
X46874150Y-7107813D01*
X46869223Y-7111467D01*
X46863962Y-7114620D01*
X46858418Y-7117242D01*
X46852643Y-7119309D01*
X46846693Y-7120799D01*
X46840626Y-7121699D01*
X46834500Y-7122000D01*
X46084500Y-7122000D01*
X46078374Y-7121699D01*
X46072307Y-7120799D01*
X46066357Y-7119309D01*
X46060582Y-7117242D01*
X46055038Y-7114620D01*
X46049777Y-7111467D01*
X46044850Y-7107813D01*
X46040306Y-7103694D01*
X46036187Y-7099150D01*
X46032533Y-7094223D01*
X46029380Y-7088962D01*
X46026758Y-7083418D01*
X46024691Y-7077643D01*
X46023201Y-7071693D01*
X46022301Y-7065626D01*
X46022000Y-7059500D01*
X46022000Y-6934500D01*
X46022301Y-6928374D01*
X46023201Y-6922307D01*
X46024691Y-6916357D01*
X46026758Y-6910582D01*
X46029380Y-6905038D01*
X46032533Y-6899777D01*
X46036187Y-6894850D01*
X46040306Y-6890306D01*
X46044850Y-6886187D01*
X46049777Y-6882533D01*
X46055038Y-6879380D01*
X46060582Y-6876758D01*
X46066357Y-6874691D01*
X46072307Y-6873201D01*
X46078374Y-6872301D01*
X46084500Y-6872000D01*
X46834500Y-6872000D01*
X46840626Y-6872301D01*
X46840626Y-6872301D01*
G37*
D19*
X46459500Y-6997000D03*
D12*
G36*
X46840626Y-6372301D02*
G01*
X46846693Y-6373201D01*
X46852643Y-6374691D01*
X46858418Y-6376758D01*
X46863962Y-6379380D01*
X46869223Y-6382533D01*
X46874150Y-6386187D01*
X46878694Y-6390306D01*
X46882813Y-6394850D01*
X46886467Y-6399777D01*
X46889620Y-6405038D01*
X46892242Y-6410582D01*
X46894309Y-6416357D01*
X46895799Y-6422307D01*
X46896699Y-6428374D01*
X46897000Y-6434500D01*
X46897000Y-6559500D01*
X46896699Y-6565626D01*
X46895799Y-6571693D01*
X46894309Y-6577643D01*
X46892242Y-6583418D01*
X46889620Y-6588962D01*
X46886467Y-6594223D01*
X46882813Y-6599150D01*
X46878694Y-6603694D01*
X46874150Y-6607813D01*
X46869223Y-6611467D01*
X46863962Y-6614620D01*
X46858418Y-6617242D01*
X46852643Y-6619309D01*
X46846693Y-6620799D01*
X46840626Y-6621699D01*
X46834500Y-6622000D01*
X46084500Y-6622000D01*
X46078374Y-6621699D01*
X46072307Y-6620799D01*
X46066357Y-6619309D01*
X46060582Y-6617242D01*
X46055038Y-6614620D01*
X46049777Y-6611467D01*
X46044850Y-6607813D01*
X46040306Y-6603694D01*
X46036187Y-6599150D01*
X46032533Y-6594223D01*
X46029380Y-6588962D01*
X46026758Y-6583418D01*
X46024691Y-6577643D01*
X46023201Y-6571693D01*
X46022301Y-6565626D01*
X46022000Y-6559500D01*
X46022000Y-6434500D01*
X46022301Y-6428374D01*
X46023201Y-6422307D01*
X46024691Y-6416357D01*
X46026758Y-6410582D01*
X46029380Y-6405038D01*
X46032533Y-6399777D01*
X46036187Y-6394850D01*
X46040306Y-6390306D01*
X46044850Y-6386187D01*
X46049777Y-6382533D01*
X46055038Y-6379380D01*
X46060582Y-6376758D01*
X46066357Y-6374691D01*
X46072307Y-6373201D01*
X46078374Y-6372301D01*
X46084500Y-6372000D01*
X46834500Y-6372000D01*
X46840626Y-6372301D01*
X46840626Y-6372301D01*
G37*
D19*
X46459500Y-6497000D03*
D12*
G36*
X46840626Y-5872301D02*
G01*
X46846693Y-5873201D01*
X46852643Y-5874691D01*
X46858418Y-5876758D01*
X46863962Y-5879380D01*
X46869223Y-5882533D01*
X46874150Y-5886187D01*
X46878694Y-5890306D01*
X46882813Y-5894850D01*
X46886467Y-5899777D01*
X46889620Y-5905038D01*
X46892242Y-5910582D01*
X46894309Y-5916357D01*
X46895799Y-5922307D01*
X46896699Y-5928374D01*
X46897000Y-5934500D01*
X46897000Y-6059500D01*
X46896699Y-6065626D01*
X46895799Y-6071693D01*
X46894309Y-6077643D01*
X46892242Y-6083418D01*
X46889620Y-6088962D01*
X46886467Y-6094223D01*
X46882813Y-6099150D01*
X46878694Y-6103694D01*
X46874150Y-6107813D01*
X46869223Y-6111467D01*
X46863962Y-6114620D01*
X46858418Y-6117242D01*
X46852643Y-6119309D01*
X46846693Y-6120799D01*
X46840626Y-6121699D01*
X46834500Y-6122000D01*
X46084500Y-6122000D01*
X46078374Y-6121699D01*
X46072307Y-6120799D01*
X46066357Y-6119309D01*
X46060582Y-6117242D01*
X46055038Y-6114620D01*
X46049777Y-6111467D01*
X46044850Y-6107813D01*
X46040306Y-6103694D01*
X46036187Y-6099150D01*
X46032533Y-6094223D01*
X46029380Y-6088962D01*
X46026758Y-6083418D01*
X46024691Y-6077643D01*
X46023201Y-6071693D01*
X46022301Y-6065626D01*
X46022000Y-6059500D01*
X46022000Y-5934500D01*
X46022301Y-5928374D01*
X46023201Y-5922307D01*
X46024691Y-5916357D01*
X46026758Y-5910582D01*
X46029380Y-5905038D01*
X46032533Y-5899777D01*
X46036187Y-5894850D01*
X46040306Y-5890306D01*
X46044850Y-5886187D01*
X46049777Y-5882533D01*
X46055038Y-5879380D01*
X46060582Y-5876758D01*
X46066357Y-5874691D01*
X46072307Y-5873201D01*
X46078374Y-5872301D01*
X46084500Y-5872000D01*
X46834500Y-5872000D01*
X46840626Y-5872301D01*
X46840626Y-5872301D01*
G37*
D19*
X46459500Y-5997000D03*
D12*
G36*
X46840626Y-5372301D02*
G01*
X46846693Y-5373201D01*
X46852643Y-5374691D01*
X46858418Y-5376758D01*
X46863962Y-5379380D01*
X46869223Y-5382533D01*
X46874150Y-5386187D01*
X46878694Y-5390306D01*
X46882813Y-5394850D01*
X46886467Y-5399777D01*
X46889620Y-5405038D01*
X46892242Y-5410582D01*
X46894309Y-5416357D01*
X46895799Y-5422307D01*
X46896699Y-5428374D01*
X46897000Y-5434500D01*
X46897000Y-5559500D01*
X46896699Y-5565626D01*
X46895799Y-5571693D01*
X46894309Y-5577643D01*
X46892242Y-5583418D01*
X46889620Y-5588962D01*
X46886467Y-5594223D01*
X46882813Y-5599150D01*
X46878694Y-5603694D01*
X46874150Y-5607813D01*
X46869223Y-5611467D01*
X46863962Y-5614620D01*
X46858418Y-5617242D01*
X46852643Y-5619309D01*
X46846693Y-5620799D01*
X46840626Y-5621699D01*
X46834500Y-5622000D01*
X46084500Y-5622000D01*
X46078374Y-5621699D01*
X46072307Y-5620799D01*
X46066357Y-5619309D01*
X46060582Y-5617242D01*
X46055038Y-5614620D01*
X46049777Y-5611467D01*
X46044850Y-5607813D01*
X46040306Y-5603694D01*
X46036187Y-5599150D01*
X46032533Y-5594223D01*
X46029380Y-5588962D01*
X46026758Y-5583418D01*
X46024691Y-5577643D01*
X46023201Y-5571693D01*
X46022301Y-5565626D01*
X46022000Y-5559500D01*
X46022000Y-5434500D01*
X46022301Y-5428374D01*
X46023201Y-5422307D01*
X46024691Y-5416357D01*
X46026758Y-5410582D01*
X46029380Y-5405038D01*
X46032533Y-5399777D01*
X46036187Y-5394850D01*
X46040306Y-5390306D01*
X46044850Y-5386187D01*
X46049777Y-5382533D01*
X46055038Y-5379380D01*
X46060582Y-5376758D01*
X46066357Y-5374691D01*
X46072307Y-5373201D01*
X46078374Y-5372301D01*
X46084500Y-5372000D01*
X46834500Y-5372000D01*
X46840626Y-5372301D01*
X46840626Y-5372301D01*
G37*
D19*
X46459500Y-5497000D03*
D12*
G36*
X46840626Y-4872301D02*
G01*
X46846693Y-4873201D01*
X46852643Y-4874691D01*
X46858418Y-4876758D01*
X46863962Y-4879380D01*
X46869223Y-4882533D01*
X46874150Y-4886187D01*
X46878694Y-4890306D01*
X46882813Y-4894850D01*
X46886467Y-4899777D01*
X46889620Y-4905038D01*
X46892242Y-4910582D01*
X46894309Y-4916357D01*
X46895799Y-4922307D01*
X46896699Y-4928374D01*
X46897000Y-4934500D01*
X46897000Y-5059500D01*
X46896699Y-5065626D01*
X46895799Y-5071693D01*
X46894309Y-5077643D01*
X46892242Y-5083418D01*
X46889620Y-5088962D01*
X46886467Y-5094223D01*
X46882813Y-5099150D01*
X46878694Y-5103694D01*
X46874150Y-5107813D01*
X46869223Y-5111467D01*
X46863962Y-5114620D01*
X46858418Y-5117242D01*
X46852643Y-5119309D01*
X46846693Y-5120799D01*
X46840626Y-5121699D01*
X46834500Y-5122000D01*
X46084500Y-5122000D01*
X46078374Y-5121699D01*
X46072307Y-5120799D01*
X46066357Y-5119309D01*
X46060582Y-5117242D01*
X46055038Y-5114620D01*
X46049777Y-5111467D01*
X46044850Y-5107813D01*
X46040306Y-5103694D01*
X46036187Y-5099150D01*
X46032533Y-5094223D01*
X46029380Y-5088962D01*
X46026758Y-5083418D01*
X46024691Y-5077643D01*
X46023201Y-5071693D01*
X46022301Y-5065626D01*
X46022000Y-5059500D01*
X46022000Y-4934500D01*
X46022301Y-4928374D01*
X46023201Y-4922307D01*
X46024691Y-4916357D01*
X46026758Y-4910582D01*
X46029380Y-4905038D01*
X46032533Y-4899777D01*
X46036187Y-4894850D01*
X46040306Y-4890306D01*
X46044850Y-4886187D01*
X46049777Y-4882533D01*
X46055038Y-4879380D01*
X46060582Y-4876758D01*
X46066357Y-4874691D01*
X46072307Y-4873201D01*
X46078374Y-4872301D01*
X46084500Y-4872000D01*
X46834500Y-4872000D01*
X46840626Y-4872301D01*
X46840626Y-4872301D01*
G37*
D19*
X46459500Y-4997000D03*
D16*
X36147000Y-4995000D03*
X34647000Y-4995000D03*
X34647000Y-3895000D03*
X36147000Y-3895000D03*
D20*
X6897000Y-10747000D03*
X6897000Y-4747000D03*
D12*
G36*
X55183958Y-9137710D02*
G01*
X55198276Y-9139834D01*
X55212317Y-9143351D01*
X55225946Y-9148228D01*
X55239031Y-9154417D01*
X55251447Y-9161858D01*
X55263073Y-9170481D01*
X55273798Y-9180202D01*
X55283519Y-9190927D01*
X55292142Y-9202553D01*
X55299583Y-9214969D01*
X55305772Y-9228054D01*
X55310649Y-9241683D01*
X55314166Y-9255724D01*
X55316290Y-9270042D01*
X55317000Y-9284500D01*
X55317000Y-9579500D01*
X55316290Y-9593958D01*
X55314166Y-9608276D01*
X55310649Y-9622317D01*
X55305772Y-9635946D01*
X55299583Y-9649031D01*
X55292142Y-9661447D01*
X55283519Y-9673073D01*
X55273798Y-9683798D01*
X55263073Y-9693519D01*
X55251447Y-9702142D01*
X55239031Y-9709583D01*
X55225946Y-9715772D01*
X55212317Y-9720649D01*
X55198276Y-9724166D01*
X55183958Y-9726290D01*
X55169500Y-9727000D01*
X54824500Y-9727000D01*
X54810042Y-9726290D01*
X54795724Y-9724166D01*
X54781683Y-9720649D01*
X54768054Y-9715772D01*
X54754969Y-9709583D01*
X54742553Y-9702142D01*
X54730927Y-9693519D01*
X54720202Y-9683798D01*
X54710481Y-9673073D01*
X54701858Y-9661447D01*
X54694417Y-9649031D01*
X54688228Y-9635946D01*
X54683351Y-9622317D01*
X54679834Y-9608276D01*
X54677710Y-9593958D01*
X54677000Y-9579500D01*
X54677000Y-9284500D01*
X54677710Y-9270042D01*
X54679834Y-9255724D01*
X54683351Y-9241683D01*
X54688228Y-9228054D01*
X54694417Y-9214969D01*
X54701858Y-9202553D01*
X54710481Y-9190927D01*
X54720202Y-9180202D01*
X54730927Y-9170481D01*
X54742553Y-9161858D01*
X54754969Y-9154417D01*
X54768054Y-9148228D01*
X54781683Y-9143351D01*
X54795724Y-9139834D01*
X54810042Y-9137710D01*
X54824500Y-9137000D01*
X55169500Y-9137000D01*
X55183958Y-9137710D01*
X55183958Y-9137710D01*
G37*
D13*
X54997000Y-9432000D03*
D12*
G36*
X55183958Y-8167710D02*
G01*
X55198276Y-8169834D01*
X55212317Y-8173351D01*
X55225946Y-8178228D01*
X55239031Y-8184417D01*
X55251447Y-8191858D01*
X55263073Y-8200481D01*
X55273798Y-8210202D01*
X55283519Y-8220927D01*
X55292142Y-8232553D01*
X55299583Y-8244969D01*
X55305772Y-8258054D01*
X55310649Y-8271683D01*
X55314166Y-8285724D01*
X55316290Y-8300042D01*
X55317000Y-8314500D01*
X55317000Y-8609500D01*
X55316290Y-8623958D01*
X55314166Y-8638276D01*
X55310649Y-8652317D01*
X55305772Y-8665946D01*
X55299583Y-8679031D01*
X55292142Y-8691447D01*
X55283519Y-8703073D01*
X55273798Y-8713798D01*
X55263073Y-8723519D01*
X55251447Y-8732142D01*
X55239031Y-8739583D01*
X55225946Y-8745772D01*
X55212317Y-8750649D01*
X55198276Y-8754166D01*
X55183958Y-8756290D01*
X55169500Y-8757000D01*
X54824500Y-8757000D01*
X54810042Y-8756290D01*
X54795724Y-8754166D01*
X54781683Y-8750649D01*
X54768054Y-8745772D01*
X54754969Y-8739583D01*
X54742553Y-8732142D01*
X54730927Y-8723519D01*
X54720202Y-8713798D01*
X54710481Y-8703073D01*
X54701858Y-8691447D01*
X54694417Y-8679031D01*
X54688228Y-8665946D01*
X54683351Y-8652317D01*
X54679834Y-8638276D01*
X54677710Y-8623958D01*
X54677000Y-8609500D01*
X54677000Y-8314500D01*
X54677710Y-8300042D01*
X54679834Y-8285724D01*
X54683351Y-8271683D01*
X54688228Y-8258054D01*
X54694417Y-8244969D01*
X54701858Y-8232553D01*
X54710481Y-8220927D01*
X54720202Y-8210202D01*
X54730927Y-8200481D01*
X54742553Y-8191858D01*
X54754969Y-8184417D01*
X54768054Y-8178228D01*
X54781683Y-8173351D01*
X54795724Y-8169834D01*
X54810042Y-8167710D01*
X54824500Y-8167000D01*
X55169500Y-8167000D01*
X55183958Y-8167710D01*
X55183958Y-8167710D01*
G37*
D13*
X54997000Y-8462000D03*
D12*
G36*
X38373958Y-6927710D02*
G01*
X38388276Y-6929834D01*
X38402317Y-6933351D01*
X38415946Y-6938228D01*
X38429031Y-6944417D01*
X38441447Y-6951858D01*
X38453073Y-6960481D01*
X38463798Y-6970202D01*
X38473519Y-6980927D01*
X38482142Y-6992553D01*
X38489583Y-7004969D01*
X38495772Y-7018054D01*
X38500649Y-7031683D01*
X38504166Y-7045724D01*
X38506290Y-7060042D01*
X38507000Y-7074500D01*
X38507000Y-7419500D01*
X38506290Y-7433958D01*
X38504166Y-7448276D01*
X38500649Y-7462317D01*
X38495772Y-7475946D01*
X38489583Y-7489031D01*
X38482142Y-7501447D01*
X38473519Y-7513073D01*
X38463798Y-7523798D01*
X38453073Y-7533519D01*
X38441447Y-7542142D01*
X38429031Y-7549583D01*
X38415946Y-7555772D01*
X38402317Y-7560649D01*
X38388276Y-7564166D01*
X38373958Y-7566290D01*
X38359500Y-7567000D01*
X38064500Y-7567000D01*
X38050042Y-7566290D01*
X38035724Y-7564166D01*
X38021683Y-7560649D01*
X38008054Y-7555772D01*
X37994969Y-7549583D01*
X37982553Y-7542142D01*
X37970927Y-7533519D01*
X37960202Y-7523798D01*
X37950481Y-7513073D01*
X37941858Y-7501447D01*
X37934417Y-7489031D01*
X37928228Y-7475946D01*
X37923351Y-7462317D01*
X37919834Y-7448276D01*
X37917710Y-7433958D01*
X37917000Y-7419500D01*
X37917000Y-7074500D01*
X37917710Y-7060042D01*
X37919834Y-7045724D01*
X37923351Y-7031683D01*
X37928228Y-7018054D01*
X37934417Y-7004969D01*
X37941858Y-6992553D01*
X37950481Y-6980927D01*
X37960202Y-6970202D01*
X37970927Y-6960481D01*
X37982553Y-6951858D01*
X37994969Y-6944417D01*
X38008054Y-6938228D01*
X38021683Y-6933351D01*
X38035724Y-6929834D01*
X38050042Y-6927710D01*
X38064500Y-6927000D01*
X38359500Y-6927000D01*
X38373958Y-6927710D01*
X38373958Y-6927710D01*
G37*
D13*
X38212000Y-7247000D03*
D12*
G36*
X39343958Y-6927710D02*
G01*
X39358276Y-6929834D01*
X39372317Y-6933351D01*
X39385946Y-6938228D01*
X39399031Y-6944417D01*
X39411447Y-6951858D01*
X39423073Y-6960481D01*
X39433798Y-6970202D01*
X39443519Y-6980927D01*
X39452142Y-6992553D01*
X39459583Y-7004969D01*
X39465772Y-7018054D01*
X39470649Y-7031683D01*
X39474166Y-7045724D01*
X39476290Y-7060042D01*
X39477000Y-7074500D01*
X39477000Y-7419500D01*
X39476290Y-7433958D01*
X39474166Y-7448276D01*
X39470649Y-7462317D01*
X39465772Y-7475946D01*
X39459583Y-7489031D01*
X39452142Y-7501447D01*
X39443519Y-7513073D01*
X39433798Y-7523798D01*
X39423073Y-7533519D01*
X39411447Y-7542142D01*
X39399031Y-7549583D01*
X39385946Y-7555772D01*
X39372317Y-7560649D01*
X39358276Y-7564166D01*
X39343958Y-7566290D01*
X39329500Y-7567000D01*
X39034500Y-7567000D01*
X39020042Y-7566290D01*
X39005724Y-7564166D01*
X38991683Y-7560649D01*
X38978054Y-7555772D01*
X38964969Y-7549583D01*
X38952553Y-7542142D01*
X38940927Y-7533519D01*
X38930202Y-7523798D01*
X38920481Y-7513073D01*
X38911858Y-7501447D01*
X38904417Y-7489031D01*
X38898228Y-7475946D01*
X38893351Y-7462317D01*
X38889834Y-7448276D01*
X38887710Y-7433958D01*
X38887000Y-7419500D01*
X38887000Y-7074500D01*
X38887710Y-7060042D01*
X38889834Y-7045724D01*
X38893351Y-7031683D01*
X38898228Y-7018054D01*
X38904417Y-7004969D01*
X38911858Y-6992553D01*
X38920481Y-6980927D01*
X38930202Y-6970202D01*
X38940927Y-6960481D01*
X38952553Y-6951858D01*
X38964969Y-6944417D01*
X38978054Y-6938228D01*
X38991683Y-6933351D01*
X39005724Y-6929834D01*
X39020042Y-6927710D01*
X39034500Y-6927000D01*
X39329500Y-6927000D01*
X39343958Y-6927710D01*
X39343958Y-6927710D01*
G37*
D13*
X39182000Y-7247000D03*
D12*
G36*
X55183958Y-10367710D02*
G01*
X55198276Y-10369834D01*
X55212317Y-10373351D01*
X55225946Y-10378228D01*
X55239031Y-10384417D01*
X55251447Y-10391858D01*
X55263073Y-10400481D01*
X55273798Y-10410202D01*
X55283519Y-10420927D01*
X55292142Y-10432553D01*
X55299583Y-10444969D01*
X55305772Y-10458054D01*
X55310649Y-10471683D01*
X55314166Y-10485724D01*
X55316290Y-10500042D01*
X55317000Y-10514500D01*
X55317000Y-10809500D01*
X55316290Y-10823958D01*
X55314166Y-10838276D01*
X55310649Y-10852317D01*
X55305772Y-10865946D01*
X55299583Y-10879031D01*
X55292142Y-10891447D01*
X55283519Y-10903073D01*
X55273798Y-10913798D01*
X55263073Y-10923519D01*
X55251447Y-10932142D01*
X55239031Y-10939583D01*
X55225946Y-10945772D01*
X55212317Y-10950649D01*
X55198276Y-10954166D01*
X55183958Y-10956290D01*
X55169500Y-10957000D01*
X54824500Y-10957000D01*
X54810042Y-10956290D01*
X54795724Y-10954166D01*
X54781683Y-10950649D01*
X54768054Y-10945772D01*
X54754969Y-10939583D01*
X54742553Y-10932142D01*
X54730927Y-10923519D01*
X54720202Y-10913798D01*
X54710481Y-10903073D01*
X54701858Y-10891447D01*
X54694417Y-10879031D01*
X54688228Y-10865946D01*
X54683351Y-10852317D01*
X54679834Y-10838276D01*
X54677710Y-10823958D01*
X54677000Y-10809500D01*
X54677000Y-10514500D01*
X54677710Y-10500042D01*
X54679834Y-10485724D01*
X54683351Y-10471683D01*
X54688228Y-10458054D01*
X54694417Y-10444969D01*
X54701858Y-10432553D01*
X54710481Y-10420927D01*
X54720202Y-10410202D01*
X54730927Y-10400481D01*
X54742553Y-10391858D01*
X54754969Y-10384417D01*
X54768054Y-10378228D01*
X54781683Y-10373351D01*
X54795724Y-10369834D01*
X54810042Y-10367710D01*
X54824500Y-10367000D01*
X55169500Y-10367000D01*
X55183958Y-10367710D01*
X55183958Y-10367710D01*
G37*
D13*
X54997000Y-10662000D03*
D12*
G36*
X55183958Y-11337710D02*
G01*
X55198276Y-11339834D01*
X55212317Y-11343351D01*
X55225946Y-11348228D01*
X55239031Y-11354417D01*
X55251447Y-11361858D01*
X55263073Y-11370481D01*
X55273798Y-11380202D01*
X55283519Y-11390927D01*
X55292142Y-11402553D01*
X55299583Y-11414969D01*
X55305772Y-11428054D01*
X55310649Y-11441683D01*
X55314166Y-11455724D01*
X55316290Y-11470042D01*
X55317000Y-11484500D01*
X55317000Y-11779500D01*
X55316290Y-11793958D01*
X55314166Y-11808276D01*
X55310649Y-11822317D01*
X55305772Y-11835946D01*
X55299583Y-11849031D01*
X55292142Y-11861447D01*
X55283519Y-11873073D01*
X55273798Y-11883798D01*
X55263073Y-11893519D01*
X55251447Y-11902142D01*
X55239031Y-11909583D01*
X55225946Y-11915772D01*
X55212317Y-11920649D01*
X55198276Y-11924166D01*
X55183958Y-11926290D01*
X55169500Y-11927000D01*
X54824500Y-11927000D01*
X54810042Y-11926290D01*
X54795724Y-11924166D01*
X54781683Y-11920649D01*
X54768054Y-11915772D01*
X54754969Y-11909583D01*
X54742553Y-11902142D01*
X54730927Y-11893519D01*
X54720202Y-11883798D01*
X54710481Y-11873073D01*
X54701858Y-11861447D01*
X54694417Y-11849031D01*
X54688228Y-11835946D01*
X54683351Y-11822317D01*
X54679834Y-11808276D01*
X54677710Y-11793958D01*
X54677000Y-11779500D01*
X54677000Y-11484500D01*
X54677710Y-11470042D01*
X54679834Y-11455724D01*
X54683351Y-11441683D01*
X54688228Y-11428054D01*
X54694417Y-11414969D01*
X54701858Y-11402553D01*
X54710481Y-11390927D01*
X54720202Y-11380202D01*
X54730927Y-11370481D01*
X54742553Y-11361858D01*
X54754969Y-11354417D01*
X54768054Y-11348228D01*
X54781683Y-11343351D01*
X54795724Y-11339834D01*
X54810042Y-11337710D01*
X54824500Y-11337000D01*
X55169500Y-11337000D01*
X55183958Y-11337710D01*
X55183958Y-11337710D01*
G37*
D13*
X54997000Y-11632000D03*
D12*
G36*
X20583958Y-4667710D02*
G01*
X20598276Y-4669834D01*
X20612317Y-4673351D01*
X20625946Y-4678228D01*
X20639031Y-4684417D01*
X20651447Y-4691858D01*
X20663073Y-4700481D01*
X20673798Y-4710202D01*
X20683519Y-4720927D01*
X20692142Y-4732553D01*
X20699583Y-4744969D01*
X20705772Y-4758054D01*
X20710649Y-4771683D01*
X20714166Y-4785724D01*
X20716290Y-4800042D01*
X20717000Y-4814500D01*
X20717000Y-5109500D01*
X20716290Y-5123958D01*
X20714166Y-5138276D01*
X20710649Y-5152317D01*
X20705772Y-5165946D01*
X20699583Y-5179031D01*
X20692142Y-5191447D01*
X20683519Y-5203073D01*
X20673798Y-5213798D01*
X20663073Y-5223519D01*
X20651447Y-5232142D01*
X20639031Y-5239583D01*
X20625946Y-5245772D01*
X20612317Y-5250649D01*
X20598276Y-5254166D01*
X20583958Y-5256290D01*
X20569500Y-5257000D01*
X20224500Y-5257000D01*
X20210042Y-5256290D01*
X20195724Y-5254166D01*
X20181683Y-5250649D01*
X20168054Y-5245772D01*
X20154969Y-5239583D01*
X20142553Y-5232142D01*
X20130927Y-5223519D01*
X20120202Y-5213798D01*
X20110481Y-5203073D01*
X20101858Y-5191447D01*
X20094417Y-5179031D01*
X20088228Y-5165946D01*
X20083351Y-5152317D01*
X20079834Y-5138276D01*
X20077710Y-5123958D01*
X20077000Y-5109500D01*
X20077000Y-4814500D01*
X20077710Y-4800042D01*
X20079834Y-4785724D01*
X20083351Y-4771683D01*
X20088228Y-4758054D01*
X20094417Y-4744969D01*
X20101858Y-4732553D01*
X20110481Y-4720927D01*
X20120202Y-4710202D01*
X20130927Y-4700481D01*
X20142553Y-4691858D01*
X20154969Y-4684417D01*
X20168054Y-4678228D01*
X20181683Y-4673351D01*
X20195724Y-4669834D01*
X20210042Y-4667710D01*
X20224500Y-4667000D01*
X20569500Y-4667000D01*
X20583958Y-4667710D01*
X20583958Y-4667710D01*
G37*
D13*
X20397000Y-4962000D03*
D12*
G36*
X20583958Y-5637710D02*
G01*
X20598276Y-5639834D01*
X20612317Y-5643351D01*
X20625946Y-5648228D01*
X20639031Y-5654417D01*
X20651447Y-5661858D01*
X20663073Y-5670481D01*
X20673798Y-5680202D01*
X20683519Y-5690927D01*
X20692142Y-5702553D01*
X20699583Y-5714969D01*
X20705772Y-5728054D01*
X20710649Y-5741683D01*
X20714166Y-5755724D01*
X20716290Y-5770042D01*
X20717000Y-5784500D01*
X20717000Y-6079500D01*
X20716290Y-6093958D01*
X20714166Y-6108276D01*
X20710649Y-6122317D01*
X20705772Y-6135946D01*
X20699583Y-6149031D01*
X20692142Y-6161447D01*
X20683519Y-6173073D01*
X20673798Y-6183798D01*
X20663073Y-6193519D01*
X20651447Y-6202142D01*
X20639031Y-6209583D01*
X20625946Y-6215772D01*
X20612317Y-6220649D01*
X20598276Y-6224166D01*
X20583958Y-6226290D01*
X20569500Y-6227000D01*
X20224500Y-6227000D01*
X20210042Y-6226290D01*
X20195724Y-6224166D01*
X20181683Y-6220649D01*
X20168054Y-6215772D01*
X20154969Y-6209583D01*
X20142553Y-6202142D01*
X20130927Y-6193519D01*
X20120202Y-6183798D01*
X20110481Y-6173073D01*
X20101858Y-6161447D01*
X20094417Y-6149031D01*
X20088228Y-6135946D01*
X20083351Y-6122317D01*
X20079834Y-6108276D01*
X20077710Y-6093958D01*
X20077000Y-6079500D01*
X20077000Y-5784500D01*
X20077710Y-5770042D01*
X20079834Y-5755724D01*
X20083351Y-5741683D01*
X20088228Y-5728054D01*
X20094417Y-5714969D01*
X20101858Y-5702553D01*
X20110481Y-5690927D01*
X20120202Y-5680202D01*
X20130927Y-5670481D01*
X20142553Y-5661858D01*
X20154969Y-5654417D01*
X20168054Y-5648228D01*
X20181683Y-5643351D01*
X20195724Y-5639834D01*
X20210042Y-5637710D01*
X20224500Y-5637000D01*
X20569500Y-5637000D01*
X20583958Y-5637710D01*
X20583958Y-5637710D01*
G37*
D13*
X20397000Y-5932000D03*
D12*
G36*
X21583958Y-4667710D02*
G01*
X21598276Y-4669834D01*
X21612317Y-4673351D01*
X21625946Y-4678228D01*
X21639031Y-4684417D01*
X21651447Y-4691858D01*
X21663073Y-4700481D01*
X21673798Y-4710202D01*
X21683519Y-4720927D01*
X21692142Y-4732553D01*
X21699583Y-4744969D01*
X21705772Y-4758054D01*
X21710649Y-4771683D01*
X21714166Y-4785724D01*
X21716290Y-4800042D01*
X21717000Y-4814500D01*
X21717000Y-5109500D01*
X21716290Y-5123958D01*
X21714166Y-5138276D01*
X21710649Y-5152317D01*
X21705772Y-5165946D01*
X21699583Y-5179031D01*
X21692142Y-5191447D01*
X21683519Y-5203073D01*
X21673798Y-5213798D01*
X21663073Y-5223519D01*
X21651447Y-5232142D01*
X21639031Y-5239583D01*
X21625946Y-5245772D01*
X21612317Y-5250649D01*
X21598276Y-5254166D01*
X21583958Y-5256290D01*
X21569500Y-5257000D01*
X21224500Y-5257000D01*
X21210042Y-5256290D01*
X21195724Y-5254166D01*
X21181683Y-5250649D01*
X21168054Y-5245772D01*
X21154969Y-5239583D01*
X21142553Y-5232142D01*
X21130927Y-5223519D01*
X21120202Y-5213798D01*
X21110481Y-5203073D01*
X21101858Y-5191447D01*
X21094417Y-5179031D01*
X21088228Y-5165946D01*
X21083351Y-5152317D01*
X21079834Y-5138276D01*
X21077710Y-5123958D01*
X21077000Y-5109500D01*
X21077000Y-4814500D01*
X21077710Y-4800042D01*
X21079834Y-4785724D01*
X21083351Y-4771683D01*
X21088228Y-4758054D01*
X21094417Y-4744969D01*
X21101858Y-4732553D01*
X21110481Y-4720927D01*
X21120202Y-4710202D01*
X21130927Y-4700481D01*
X21142553Y-4691858D01*
X21154969Y-4684417D01*
X21168054Y-4678228D01*
X21181683Y-4673351D01*
X21195724Y-4669834D01*
X21210042Y-4667710D01*
X21224500Y-4667000D01*
X21569500Y-4667000D01*
X21583958Y-4667710D01*
X21583958Y-4667710D01*
G37*
D13*
X21397000Y-4962000D03*
D12*
G36*
X21583958Y-5637710D02*
G01*
X21598276Y-5639834D01*
X21612317Y-5643351D01*
X21625946Y-5648228D01*
X21639031Y-5654417D01*
X21651447Y-5661858D01*
X21663073Y-5670481D01*
X21673798Y-5680202D01*
X21683519Y-5690927D01*
X21692142Y-5702553D01*
X21699583Y-5714969D01*
X21705772Y-5728054D01*
X21710649Y-5741683D01*
X21714166Y-5755724D01*
X21716290Y-5770042D01*
X21717000Y-5784500D01*
X21717000Y-6079500D01*
X21716290Y-6093958D01*
X21714166Y-6108276D01*
X21710649Y-6122317D01*
X21705772Y-6135946D01*
X21699583Y-6149031D01*
X21692142Y-6161447D01*
X21683519Y-6173073D01*
X21673798Y-6183798D01*
X21663073Y-6193519D01*
X21651447Y-6202142D01*
X21639031Y-6209583D01*
X21625946Y-6215772D01*
X21612317Y-6220649D01*
X21598276Y-6224166D01*
X21583958Y-6226290D01*
X21569500Y-6227000D01*
X21224500Y-6227000D01*
X21210042Y-6226290D01*
X21195724Y-6224166D01*
X21181683Y-6220649D01*
X21168054Y-6215772D01*
X21154969Y-6209583D01*
X21142553Y-6202142D01*
X21130927Y-6193519D01*
X21120202Y-6183798D01*
X21110481Y-6173073D01*
X21101858Y-6161447D01*
X21094417Y-6149031D01*
X21088228Y-6135946D01*
X21083351Y-6122317D01*
X21079834Y-6108276D01*
X21077710Y-6093958D01*
X21077000Y-6079500D01*
X21077000Y-5784500D01*
X21077710Y-5770042D01*
X21079834Y-5755724D01*
X21083351Y-5741683D01*
X21088228Y-5728054D01*
X21094417Y-5714969D01*
X21101858Y-5702553D01*
X21110481Y-5690927D01*
X21120202Y-5680202D01*
X21130927Y-5670481D01*
X21142553Y-5661858D01*
X21154969Y-5654417D01*
X21168054Y-5648228D01*
X21181683Y-5643351D01*
X21195724Y-5639834D01*
X21210042Y-5637710D01*
X21224500Y-5637000D01*
X21569500Y-5637000D01*
X21583958Y-5637710D01*
X21583958Y-5637710D01*
G37*
D13*
X21397000Y-5932000D03*
D17*
X1559500Y-6747000D03*
D18*
X4259500Y-7747000D03*
X4259500Y-8397000D03*
X4259500Y-9047000D03*
X4259500Y-6447000D03*
X4259500Y-7097000D03*
D17*
X1559500Y-8747000D03*
D12*
G36*
X38449691Y-3773053D02*
G01*
X38470926Y-3776203D01*
X38491750Y-3781419D01*
X38511962Y-3788651D01*
X38531368Y-3797830D01*
X38549781Y-3808866D01*
X38567024Y-3821654D01*
X38582930Y-3836070D01*
X38597346Y-3851976D01*
X38610134Y-3869219D01*
X38621170Y-3887632D01*
X38630349Y-3907038D01*
X38637581Y-3927250D01*
X38642797Y-3948074D01*
X38645947Y-3969309D01*
X38647000Y-3990750D01*
X38647000Y-4503250D01*
X38645947Y-4524691D01*
X38642797Y-4545926D01*
X38637581Y-4566750D01*
X38630349Y-4586962D01*
X38621170Y-4606368D01*
X38610134Y-4624781D01*
X38597346Y-4642024D01*
X38582930Y-4657930D01*
X38567024Y-4672346D01*
X38549781Y-4685134D01*
X38531368Y-4696170D01*
X38511962Y-4705349D01*
X38491750Y-4712581D01*
X38470926Y-4717797D01*
X38449691Y-4720947D01*
X38428250Y-4722000D01*
X37990750Y-4722000D01*
X37969309Y-4720947D01*
X37948074Y-4717797D01*
X37927250Y-4712581D01*
X37907038Y-4705349D01*
X37887632Y-4696170D01*
X37869219Y-4685134D01*
X37851976Y-4672346D01*
X37836070Y-4657930D01*
X37821654Y-4642024D01*
X37808866Y-4624781D01*
X37797830Y-4606368D01*
X37788651Y-4586962D01*
X37781419Y-4566750D01*
X37776203Y-4545926D01*
X37773053Y-4524691D01*
X37772000Y-4503250D01*
X37772000Y-3990750D01*
X37773053Y-3969309D01*
X37776203Y-3948074D01*
X37781419Y-3927250D01*
X37788651Y-3907038D01*
X37797830Y-3887632D01*
X37808866Y-3869219D01*
X37821654Y-3851976D01*
X37836070Y-3836070D01*
X37851976Y-3821654D01*
X37869219Y-3808866D01*
X37887632Y-3797830D01*
X37907038Y-3788651D01*
X37927250Y-3781419D01*
X37948074Y-3776203D01*
X37969309Y-3773053D01*
X37990750Y-3772000D01*
X38428250Y-3772000D01*
X38449691Y-3773053D01*
X38449691Y-3773053D01*
G37*
D14*
X38209500Y-4247000D03*
D12*
G36*
X40024691Y-3773053D02*
G01*
X40045926Y-3776203D01*
X40066750Y-3781419D01*
X40086962Y-3788651D01*
X40106368Y-3797830D01*
X40124781Y-3808866D01*
X40142024Y-3821654D01*
X40157930Y-3836070D01*
X40172346Y-3851976D01*
X40185134Y-3869219D01*
X40196170Y-3887632D01*
X40205349Y-3907038D01*
X40212581Y-3927250D01*
X40217797Y-3948074D01*
X40220947Y-3969309D01*
X40222000Y-3990750D01*
X40222000Y-4503250D01*
X40220947Y-4524691D01*
X40217797Y-4545926D01*
X40212581Y-4566750D01*
X40205349Y-4586962D01*
X40196170Y-4606368D01*
X40185134Y-4624781D01*
X40172346Y-4642024D01*
X40157930Y-4657930D01*
X40142024Y-4672346D01*
X40124781Y-4685134D01*
X40106368Y-4696170D01*
X40086962Y-4705349D01*
X40066750Y-4712581D01*
X40045926Y-4717797D01*
X40024691Y-4720947D01*
X40003250Y-4722000D01*
X39565750Y-4722000D01*
X39544309Y-4720947D01*
X39523074Y-4717797D01*
X39502250Y-4712581D01*
X39482038Y-4705349D01*
X39462632Y-4696170D01*
X39444219Y-4685134D01*
X39426976Y-4672346D01*
X39411070Y-4657930D01*
X39396654Y-4642024D01*
X39383866Y-4624781D01*
X39372830Y-4606368D01*
X39363651Y-4586962D01*
X39356419Y-4566750D01*
X39351203Y-4545926D01*
X39348053Y-4524691D01*
X39347000Y-4503250D01*
X39347000Y-3990750D01*
X39348053Y-3969309D01*
X39351203Y-3948074D01*
X39356419Y-3927250D01*
X39363651Y-3907038D01*
X39372830Y-3887632D01*
X39383866Y-3869219D01*
X39396654Y-3851976D01*
X39411070Y-3836070D01*
X39426976Y-3821654D01*
X39444219Y-3808866D01*
X39462632Y-3797830D01*
X39482038Y-3788651D01*
X39502250Y-3781419D01*
X39523074Y-3776203D01*
X39544309Y-3773053D01*
X39565750Y-3772000D01*
X40003250Y-3772000D01*
X40024691Y-3773053D01*
X40024691Y-3773053D01*
G37*
D14*
X39784500Y-4247000D03*
D12*
G36*
X38449691Y-5373053D02*
G01*
X38470926Y-5376203D01*
X38491750Y-5381419D01*
X38511962Y-5388651D01*
X38531368Y-5397830D01*
X38549781Y-5408866D01*
X38567024Y-5421654D01*
X38582930Y-5436070D01*
X38597346Y-5451976D01*
X38610134Y-5469219D01*
X38621170Y-5487632D01*
X38630349Y-5507038D01*
X38637581Y-5527250D01*
X38642797Y-5548074D01*
X38645947Y-5569309D01*
X38647000Y-5590750D01*
X38647000Y-6103250D01*
X38645947Y-6124691D01*
X38642797Y-6145926D01*
X38637581Y-6166750D01*
X38630349Y-6186962D01*
X38621170Y-6206368D01*
X38610134Y-6224781D01*
X38597346Y-6242024D01*
X38582930Y-6257930D01*
X38567024Y-6272346D01*
X38549781Y-6285134D01*
X38531368Y-6296170D01*
X38511962Y-6305349D01*
X38491750Y-6312581D01*
X38470926Y-6317797D01*
X38449691Y-6320947D01*
X38428250Y-6322000D01*
X37990750Y-6322000D01*
X37969309Y-6320947D01*
X37948074Y-6317797D01*
X37927250Y-6312581D01*
X37907038Y-6305349D01*
X37887632Y-6296170D01*
X37869219Y-6285134D01*
X37851976Y-6272346D01*
X37836070Y-6257930D01*
X37821654Y-6242024D01*
X37808866Y-6224781D01*
X37797830Y-6206368D01*
X37788651Y-6186962D01*
X37781419Y-6166750D01*
X37776203Y-6145926D01*
X37773053Y-6124691D01*
X37772000Y-6103250D01*
X37772000Y-5590750D01*
X37773053Y-5569309D01*
X37776203Y-5548074D01*
X37781419Y-5527250D01*
X37788651Y-5507038D01*
X37797830Y-5487632D01*
X37808866Y-5469219D01*
X37821654Y-5451976D01*
X37836070Y-5436070D01*
X37851976Y-5421654D01*
X37869219Y-5408866D01*
X37887632Y-5397830D01*
X37907038Y-5388651D01*
X37927250Y-5381419D01*
X37948074Y-5376203D01*
X37969309Y-5373053D01*
X37990750Y-5372000D01*
X38428250Y-5372000D01*
X38449691Y-5373053D01*
X38449691Y-5373053D01*
G37*
D14*
X38209500Y-5847000D03*
D12*
G36*
X40024691Y-5373053D02*
G01*
X40045926Y-5376203D01*
X40066750Y-5381419D01*
X40086962Y-5388651D01*
X40106368Y-5397830D01*
X40124781Y-5408866D01*
X40142024Y-5421654D01*
X40157930Y-5436070D01*
X40172346Y-5451976D01*
X40185134Y-5469219D01*
X40196170Y-5487632D01*
X40205349Y-5507038D01*
X40212581Y-5527250D01*
X40217797Y-5548074D01*
X40220947Y-5569309D01*
X40222000Y-5590750D01*
X40222000Y-6103250D01*
X40220947Y-6124691D01*
X40217797Y-6145926D01*
X40212581Y-6166750D01*
X40205349Y-6186962D01*
X40196170Y-6206368D01*
X40185134Y-6224781D01*
X40172346Y-6242024D01*
X40157930Y-6257930D01*
X40142024Y-6272346D01*
X40124781Y-6285134D01*
X40106368Y-6296170D01*
X40086962Y-6305349D01*
X40066750Y-6312581D01*
X40045926Y-6317797D01*
X40024691Y-6320947D01*
X40003250Y-6322000D01*
X39565750Y-6322000D01*
X39544309Y-6320947D01*
X39523074Y-6317797D01*
X39502250Y-6312581D01*
X39482038Y-6305349D01*
X39462632Y-6296170D01*
X39444219Y-6285134D01*
X39426976Y-6272346D01*
X39411070Y-6257930D01*
X39396654Y-6242024D01*
X39383866Y-6224781D01*
X39372830Y-6206368D01*
X39363651Y-6186962D01*
X39356419Y-6166750D01*
X39351203Y-6145926D01*
X39348053Y-6124691D01*
X39347000Y-6103250D01*
X39347000Y-5590750D01*
X39348053Y-5569309D01*
X39351203Y-5548074D01*
X39356419Y-5527250D01*
X39363651Y-5507038D01*
X39372830Y-5487632D01*
X39383866Y-5469219D01*
X39396654Y-5451976D01*
X39411070Y-5436070D01*
X39426976Y-5421654D01*
X39444219Y-5408866D01*
X39462632Y-5397830D01*
X39482038Y-5388651D01*
X39502250Y-5381419D01*
X39523074Y-5376203D01*
X39544309Y-5373053D01*
X39565750Y-5372000D01*
X40003250Y-5372000D01*
X40024691Y-5373053D01*
X40024691Y-5373053D01*
G37*
D14*
X39784500Y-5847000D03*
D12*
G36*
X40024691Y-9273053D02*
G01*
X40045926Y-9276203D01*
X40066750Y-9281419D01*
X40086962Y-9288651D01*
X40106368Y-9297830D01*
X40124781Y-9308866D01*
X40142024Y-9321654D01*
X40157930Y-9336070D01*
X40172346Y-9351976D01*
X40185134Y-9369219D01*
X40196170Y-9387632D01*
X40205349Y-9407038D01*
X40212581Y-9427250D01*
X40217797Y-9448074D01*
X40220947Y-9469309D01*
X40222000Y-9490750D01*
X40222000Y-10003250D01*
X40220947Y-10024691D01*
X40217797Y-10045926D01*
X40212581Y-10066750D01*
X40205349Y-10086962D01*
X40196170Y-10106368D01*
X40185134Y-10124781D01*
X40172346Y-10142024D01*
X40157930Y-10157930D01*
X40142024Y-10172346D01*
X40124781Y-10185134D01*
X40106368Y-10196170D01*
X40086962Y-10205349D01*
X40066750Y-10212581D01*
X40045926Y-10217797D01*
X40024691Y-10220947D01*
X40003250Y-10222000D01*
X39565750Y-10222000D01*
X39544309Y-10220947D01*
X39523074Y-10217797D01*
X39502250Y-10212581D01*
X39482038Y-10205349D01*
X39462632Y-10196170D01*
X39444219Y-10185134D01*
X39426976Y-10172346D01*
X39411070Y-10157930D01*
X39396654Y-10142024D01*
X39383866Y-10124781D01*
X39372830Y-10106368D01*
X39363651Y-10086962D01*
X39356419Y-10066750D01*
X39351203Y-10045926D01*
X39348053Y-10024691D01*
X39347000Y-10003250D01*
X39347000Y-9490750D01*
X39348053Y-9469309D01*
X39351203Y-9448074D01*
X39356419Y-9427250D01*
X39363651Y-9407038D01*
X39372830Y-9387632D01*
X39383866Y-9369219D01*
X39396654Y-9351976D01*
X39411070Y-9336070D01*
X39426976Y-9321654D01*
X39444219Y-9308866D01*
X39462632Y-9297830D01*
X39482038Y-9288651D01*
X39502250Y-9281419D01*
X39523074Y-9276203D01*
X39544309Y-9273053D01*
X39565750Y-9272000D01*
X40003250Y-9272000D01*
X40024691Y-9273053D01*
X40024691Y-9273053D01*
G37*
D14*
X39784500Y-9747000D03*
D12*
G36*
X38449691Y-9273053D02*
G01*
X38470926Y-9276203D01*
X38491750Y-9281419D01*
X38511962Y-9288651D01*
X38531368Y-9297830D01*
X38549781Y-9308866D01*
X38567024Y-9321654D01*
X38582930Y-9336070D01*
X38597346Y-9351976D01*
X38610134Y-9369219D01*
X38621170Y-9387632D01*
X38630349Y-9407038D01*
X38637581Y-9427250D01*
X38642797Y-9448074D01*
X38645947Y-9469309D01*
X38647000Y-9490750D01*
X38647000Y-10003250D01*
X38645947Y-10024691D01*
X38642797Y-10045926D01*
X38637581Y-10066750D01*
X38630349Y-10086962D01*
X38621170Y-10106368D01*
X38610134Y-10124781D01*
X38597346Y-10142024D01*
X38582930Y-10157930D01*
X38567024Y-10172346D01*
X38549781Y-10185134D01*
X38531368Y-10196170D01*
X38511962Y-10205349D01*
X38491750Y-10212581D01*
X38470926Y-10217797D01*
X38449691Y-10220947D01*
X38428250Y-10222000D01*
X37990750Y-10222000D01*
X37969309Y-10220947D01*
X37948074Y-10217797D01*
X37927250Y-10212581D01*
X37907038Y-10205349D01*
X37887632Y-10196170D01*
X37869219Y-10185134D01*
X37851976Y-10172346D01*
X37836070Y-10157930D01*
X37821654Y-10142024D01*
X37808866Y-10124781D01*
X37797830Y-10106368D01*
X37788651Y-10086962D01*
X37781419Y-10066750D01*
X37776203Y-10045926D01*
X37773053Y-10024691D01*
X37772000Y-10003250D01*
X37772000Y-9490750D01*
X37773053Y-9469309D01*
X37776203Y-9448074D01*
X37781419Y-9427250D01*
X37788651Y-9407038D01*
X37797830Y-9387632D01*
X37808866Y-9369219D01*
X37821654Y-9351976D01*
X37836070Y-9336070D01*
X37851976Y-9321654D01*
X37869219Y-9308866D01*
X37887632Y-9297830D01*
X37907038Y-9288651D01*
X37927250Y-9281419D01*
X37948074Y-9276203D01*
X37969309Y-9273053D01*
X37990750Y-9272000D01*
X38428250Y-9272000D01*
X38449691Y-9273053D01*
X38449691Y-9273053D01*
G37*
D14*
X38209500Y-9747000D03*
D12*
G36*
X40024691Y-10873053D02*
G01*
X40045926Y-10876203D01*
X40066750Y-10881419D01*
X40086962Y-10888651D01*
X40106368Y-10897830D01*
X40124781Y-10908866D01*
X40142024Y-10921654D01*
X40157930Y-10936070D01*
X40172346Y-10951976D01*
X40185134Y-10969219D01*
X40196170Y-10987632D01*
X40205349Y-11007038D01*
X40212581Y-11027250D01*
X40217797Y-11048074D01*
X40220947Y-11069309D01*
X40222000Y-11090750D01*
X40222000Y-11603250D01*
X40220947Y-11624691D01*
X40217797Y-11645926D01*
X40212581Y-11666750D01*
X40205349Y-11686962D01*
X40196170Y-11706368D01*
X40185134Y-11724781D01*
X40172346Y-11742024D01*
X40157930Y-11757930D01*
X40142024Y-11772346D01*
X40124781Y-11785134D01*
X40106368Y-11796170D01*
X40086962Y-11805349D01*
X40066750Y-11812581D01*
X40045926Y-11817797D01*
X40024691Y-11820947D01*
X40003250Y-11822000D01*
X39565750Y-11822000D01*
X39544309Y-11820947D01*
X39523074Y-11817797D01*
X39502250Y-11812581D01*
X39482038Y-11805349D01*
X39462632Y-11796170D01*
X39444219Y-11785134D01*
X39426976Y-11772346D01*
X39411070Y-11757930D01*
X39396654Y-11742024D01*
X39383866Y-11724781D01*
X39372830Y-11706368D01*
X39363651Y-11686962D01*
X39356419Y-11666750D01*
X39351203Y-11645926D01*
X39348053Y-11624691D01*
X39347000Y-11603250D01*
X39347000Y-11090750D01*
X39348053Y-11069309D01*
X39351203Y-11048074D01*
X39356419Y-11027250D01*
X39363651Y-11007038D01*
X39372830Y-10987632D01*
X39383866Y-10969219D01*
X39396654Y-10951976D01*
X39411070Y-10936070D01*
X39426976Y-10921654D01*
X39444219Y-10908866D01*
X39462632Y-10897830D01*
X39482038Y-10888651D01*
X39502250Y-10881419D01*
X39523074Y-10876203D01*
X39544309Y-10873053D01*
X39565750Y-10872000D01*
X40003250Y-10872000D01*
X40024691Y-10873053D01*
X40024691Y-10873053D01*
G37*
D14*
X39784500Y-11347000D03*
D12*
G36*
X38449691Y-10873053D02*
G01*
X38470926Y-10876203D01*
X38491750Y-10881419D01*
X38511962Y-10888651D01*
X38531368Y-10897830D01*
X38549781Y-10908866D01*
X38567024Y-10921654D01*
X38582930Y-10936070D01*
X38597346Y-10951976D01*
X38610134Y-10969219D01*
X38621170Y-10987632D01*
X38630349Y-11007038D01*
X38637581Y-11027250D01*
X38642797Y-11048074D01*
X38645947Y-11069309D01*
X38647000Y-11090750D01*
X38647000Y-11603250D01*
X38645947Y-11624691D01*
X38642797Y-11645926D01*
X38637581Y-11666750D01*
X38630349Y-11686962D01*
X38621170Y-11706368D01*
X38610134Y-11724781D01*
X38597346Y-11742024D01*
X38582930Y-11757930D01*
X38567024Y-11772346D01*
X38549781Y-11785134D01*
X38531368Y-11796170D01*
X38511962Y-11805349D01*
X38491750Y-11812581D01*
X38470926Y-11817797D01*
X38449691Y-11820947D01*
X38428250Y-11822000D01*
X37990750Y-11822000D01*
X37969309Y-11820947D01*
X37948074Y-11817797D01*
X37927250Y-11812581D01*
X37907038Y-11805349D01*
X37887632Y-11796170D01*
X37869219Y-11785134D01*
X37851976Y-11772346D01*
X37836070Y-11757930D01*
X37821654Y-11742024D01*
X37808866Y-11724781D01*
X37797830Y-11706368D01*
X37788651Y-11686962D01*
X37781419Y-11666750D01*
X37776203Y-11645926D01*
X37773053Y-11624691D01*
X37772000Y-11603250D01*
X37772000Y-11090750D01*
X37773053Y-11069309D01*
X37776203Y-11048074D01*
X37781419Y-11027250D01*
X37788651Y-11007038D01*
X37797830Y-10987632D01*
X37808866Y-10969219D01*
X37821654Y-10951976D01*
X37836070Y-10936070D01*
X37851976Y-10921654D01*
X37869219Y-10908866D01*
X37887632Y-10897830D01*
X37907038Y-10888651D01*
X37927250Y-10881419D01*
X37948074Y-10876203D01*
X37969309Y-10873053D01*
X37990750Y-10872000D01*
X38428250Y-10872000D01*
X38449691Y-10873053D01*
X38449691Y-10873053D01*
G37*
D14*
X38209500Y-11347000D03*
D12*
G36*
X22974691Y-5298053D02*
G01*
X22995926Y-5301203D01*
X23016750Y-5306419D01*
X23036962Y-5313651D01*
X23056368Y-5322830D01*
X23074781Y-5333866D01*
X23092024Y-5346654D01*
X23107930Y-5361070D01*
X23122346Y-5376976D01*
X23135134Y-5394219D01*
X23146170Y-5412632D01*
X23155349Y-5432038D01*
X23162581Y-5452250D01*
X23167797Y-5473074D01*
X23170947Y-5494309D01*
X23172000Y-5515750D01*
X23172000Y-5953250D01*
X23170947Y-5974691D01*
X23167797Y-5995926D01*
X23162581Y-6016750D01*
X23155349Y-6036962D01*
X23146170Y-6056368D01*
X23135134Y-6074781D01*
X23122346Y-6092024D01*
X23107930Y-6107930D01*
X23092024Y-6122346D01*
X23074781Y-6135134D01*
X23056368Y-6146170D01*
X23036962Y-6155349D01*
X23016750Y-6162581D01*
X22995926Y-6167797D01*
X22974691Y-6170947D01*
X22953250Y-6172000D01*
X22440750Y-6172000D01*
X22419309Y-6170947D01*
X22398074Y-6167797D01*
X22377250Y-6162581D01*
X22357038Y-6155349D01*
X22337632Y-6146170D01*
X22319219Y-6135134D01*
X22301976Y-6122346D01*
X22286070Y-6107930D01*
X22271654Y-6092024D01*
X22258866Y-6074781D01*
X22247830Y-6056368D01*
X22238651Y-6036962D01*
X22231419Y-6016750D01*
X22226203Y-5995926D01*
X22223053Y-5974691D01*
X22222000Y-5953250D01*
X22222000Y-5515750D01*
X22223053Y-5494309D01*
X22226203Y-5473074D01*
X22231419Y-5452250D01*
X22238651Y-5432038D01*
X22247830Y-5412632D01*
X22258866Y-5394219D01*
X22271654Y-5376976D01*
X22286070Y-5361070D01*
X22301976Y-5346654D01*
X22319219Y-5333866D01*
X22337632Y-5322830D01*
X22357038Y-5313651D01*
X22377250Y-5306419D01*
X22398074Y-5301203D01*
X22419309Y-5298053D01*
X22440750Y-5297000D01*
X22953250Y-5297000D01*
X22974691Y-5298053D01*
X22974691Y-5298053D01*
G37*
D14*
X22697000Y-5734500D03*
D12*
G36*
X22974691Y-3723053D02*
G01*
X22995926Y-3726203D01*
X23016750Y-3731419D01*
X23036962Y-3738651D01*
X23056368Y-3747830D01*
X23074781Y-3758866D01*
X23092024Y-3771654D01*
X23107930Y-3786070D01*
X23122346Y-3801976D01*
X23135134Y-3819219D01*
X23146170Y-3837632D01*
X23155349Y-3857038D01*
X23162581Y-3877250D01*
X23167797Y-3898074D01*
X23170947Y-3919309D01*
X23172000Y-3940750D01*
X23172000Y-4378250D01*
X23170947Y-4399691D01*
X23167797Y-4420926D01*
X23162581Y-4441750D01*
X23155349Y-4461962D01*
X23146170Y-4481368D01*
X23135134Y-4499781D01*
X23122346Y-4517024D01*
X23107930Y-4532930D01*
X23092024Y-4547346D01*
X23074781Y-4560134D01*
X23056368Y-4571170D01*
X23036962Y-4580349D01*
X23016750Y-4587581D01*
X22995926Y-4592797D01*
X22974691Y-4595947D01*
X22953250Y-4597000D01*
X22440750Y-4597000D01*
X22419309Y-4595947D01*
X22398074Y-4592797D01*
X22377250Y-4587581D01*
X22357038Y-4580349D01*
X22337632Y-4571170D01*
X22319219Y-4560134D01*
X22301976Y-4547346D01*
X22286070Y-4532930D01*
X22271654Y-4517024D01*
X22258866Y-4499781D01*
X22247830Y-4481368D01*
X22238651Y-4461962D01*
X22231419Y-4441750D01*
X22226203Y-4420926D01*
X22223053Y-4399691D01*
X22222000Y-4378250D01*
X22222000Y-3940750D01*
X22223053Y-3919309D01*
X22226203Y-3898074D01*
X22231419Y-3877250D01*
X22238651Y-3857038D01*
X22247830Y-3837632D01*
X22258866Y-3819219D01*
X22271654Y-3801976D01*
X22286070Y-3786070D01*
X22301976Y-3771654D01*
X22319219Y-3758866D01*
X22337632Y-3747830D01*
X22357038Y-3738651D01*
X22377250Y-3731419D01*
X22398074Y-3726203D01*
X22419309Y-3723053D01*
X22440750Y-3722000D01*
X22953250Y-3722000D01*
X22974691Y-3723053D01*
X22974691Y-3723053D01*
G37*
D14*
X22697000Y-4159500D03*
D12*
G36*
X29602162Y-9376620D02*
G01*
X29623397Y-9379770D01*
X29644221Y-9384986D01*
X29664433Y-9392218D01*
X29683839Y-9401397D01*
X29702252Y-9412433D01*
X29719495Y-9425221D01*
X29735401Y-9439637D01*
X30044760Y-9748996D01*
X30059176Y-9764902D01*
X30071964Y-9782145D01*
X30083000Y-9800558D01*
X30092179Y-9819964D01*
X30099411Y-9840176D01*
X30104627Y-9861000D01*
X30107777Y-9882235D01*
X30108830Y-9903676D01*
X30107777Y-9925117D01*
X30104627Y-9946352D01*
X30099411Y-9967176D01*
X30092179Y-9987388D01*
X30083000Y-10006794D01*
X30071964Y-10025207D01*
X30059176Y-10042450D01*
X30044760Y-10058356D01*
X29682367Y-10420749D01*
X29666461Y-10435165D01*
X29649218Y-10447953D01*
X29630805Y-10458989D01*
X29611399Y-10468168D01*
X29591187Y-10475400D01*
X29570363Y-10480616D01*
X29549128Y-10483766D01*
X29527687Y-10484819D01*
X29506246Y-10483766D01*
X29485011Y-10480616D01*
X29464187Y-10475400D01*
X29443975Y-10468168D01*
X29424569Y-10458989D01*
X29406156Y-10447953D01*
X29388913Y-10435165D01*
X29373007Y-10420749D01*
X29063648Y-10111390D01*
X29049232Y-10095484D01*
X29036444Y-10078241D01*
X29025408Y-10059828D01*
X29016229Y-10040422D01*
X29008997Y-10020210D01*
X29003781Y-9999386D01*
X29000631Y-9978151D01*
X28999578Y-9956710D01*
X29000631Y-9935269D01*
X29003781Y-9914034D01*
X29008997Y-9893210D01*
X29016229Y-9872998D01*
X29025408Y-9853592D01*
X29036444Y-9835179D01*
X29049232Y-9817936D01*
X29063648Y-9802030D01*
X29426041Y-9439637D01*
X29441947Y-9425221D01*
X29459190Y-9412433D01*
X29477603Y-9401397D01*
X29497009Y-9392218D01*
X29517221Y-9384986D01*
X29538045Y-9379770D01*
X29559280Y-9376620D01*
X29580721Y-9375567D01*
X29602162Y-9376620D01*
X29602162Y-9376620D01*
G37*
D14*
X29554204Y-9930193D03*
D12*
G36*
X28488468Y-8262926D02*
G01*
X28509703Y-8266076D01*
X28530527Y-8271292D01*
X28550739Y-8278524D01*
X28570145Y-8287703D01*
X28588558Y-8298739D01*
X28605801Y-8311527D01*
X28621707Y-8325943D01*
X28931066Y-8635302D01*
X28945482Y-8651208D01*
X28958270Y-8668451D01*
X28969306Y-8686864D01*
X28978485Y-8706270D01*
X28985717Y-8726482D01*
X28990933Y-8747306D01*
X28994083Y-8768541D01*
X28995136Y-8789982D01*
X28994083Y-8811423D01*
X28990933Y-8832658D01*
X28985717Y-8853482D01*
X28978485Y-8873694D01*
X28969306Y-8893100D01*
X28958270Y-8911513D01*
X28945482Y-8928756D01*
X28931066Y-8944662D01*
X28568673Y-9307055D01*
X28552767Y-9321471D01*
X28535524Y-9334259D01*
X28517111Y-9345295D01*
X28497705Y-9354474D01*
X28477493Y-9361706D01*
X28456669Y-9366922D01*
X28435434Y-9370072D01*
X28413993Y-9371125D01*
X28392552Y-9370072D01*
X28371317Y-9366922D01*
X28350493Y-9361706D01*
X28330281Y-9354474D01*
X28310875Y-9345295D01*
X28292462Y-9334259D01*
X28275219Y-9321471D01*
X28259313Y-9307055D01*
X27949954Y-8997696D01*
X27935538Y-8981790D01*
X27922750Y-8964547D01*
X27911714Y-8946134D01*
X27902535Y-8926728D01*
X27895303Y-8906516D01*
X27890087Y-8885692D01*
X27886937Y-8864457D01*
X27885884Y-8843016D01*
X27886937Y-8821575D01*
X27890087Y-8800340D01*
X27895303Y-8779516D01*
X27902535Y-8759304D01*
X27911714Y-8739898D01*
X27922750Y-8721485D01*
X27935538Y-8704242D01*
X27949954Y-8688336D01*
X28312347Y-8325943D01*
X28328253Y-8311527D01*
X28345496Y-8298739D01*
X28363909Y-8287703D01*
X28383315Y-8278524D01*
X28403527Y-8271292D01*
X28424351Y-8266076D01*
X28445586Y-8262926D01*
X28467027Y-8261873D01*
X28488468Y-8262926D01*
X28488468Y-8262926D01*
G37*
D14*
X28440510Y-8816499D03*
D12*
G36*
X32678075Y-8245249D02*
G01*
X32699310Y-8248399D01*
X32720134Y-8253615D01*
X32740346Y-8260847D01*
X32759752Y-8270026D01*
X32778165Y-8281062D01*
X32795408Y-8293850D01*
X32811314Y-8308266D01*
X33173707Y-8670659D01*
X33188123Y-8686565D01*
X33200911Y-8703808D01*
X33211947Y-8722221D01*
X33221126Y-8741627D01*
X33228358Y-8761839D01*
X33233574Y-8782663D01*
X33236724Y-8803898D01*
X33237777Y-8825339D01*
X33236724Y-8846780D01*
X33233574Y-8868015D01*
X33228358Y-8888839D01*
X33221126Y-8909051D01*
X33211947Y-8928457D01*
X33200911Y-8946870D01*
X33188123Y-8964113D01*
X33173707Y-8980019D01*
X32864348Y-9289378D01*
X32848442Y-9303794D01*
X32831199Y-9316582D01*
X32812786Y-9327618D01*
X32793380Y-9336797D01*
X32773168Y-9344029D01*
X32752344Y-9349245D01*
X32731109Y-9352395D01*
X32709668Y-9353448D01*
X32688227Y-9352395D01*
X32666992Y-9349245D01*
X32646168Y-9344029D01*
X32625956Y-9336797D01*
X32606550Y-9327618D01*
X32588137Y-9316582D01*
X32570894Y-9303794D01*
X32554988Y-9289378D01*
X32192595Y-8926985D01*
X32178179Y-8911079D01*
X32165391Y-8893836D01*
X32154355Y-8875423D01*
X32145176Y-8856017D01*
X32137944Y-8835805D01*
X32132728Y-8814981D01*
X32129578Y-8793746D01*
X32128525Y-8772305D01*
X32129578Y-8750864D01*
X32132728Y-8729629D01*
X32137944Y-8708805D01*
X32145176Y-8688593D01*
X32154355Y-8669187D01*
X32165391Y-8650774D01*
X32178179Y-8633531D01*
X32192595Y-8617625D01*
X32501954Y-8308266D01*
X32517860Y-8293850D01*
X32535103Y-8281062D01*
X32553516Y-8270026D01*
X32572922Y-8260847D01*
X32593134Y-8253615D01*
X32613958Y-8248399D01*
X32635193Y-8245249D01*
X32656634Y-8244196D01*
X32678075Y-8245249D01*
X32678075Y-8245249D01*
G37*
D14*
X32683151Y-8798822D03*
D12*
G36*
X33791769Y-7131555D02*
G01*
X33813004Y-7134705D01*
X33833828Y-7139921D01*
X33854040Y-7147153D01*
X33873446Y-7156332D01*
X33891859Y-7167368D01*
X33909102Y-7180156D01*
X33925008Y-7194572D01*
X34287401Y-7556965D01*
X34301817Y-7572871D01*
X34314605Y-7590114D01*
X34325641Y-7608527D01*
X34334820Y-7627933D01*
X34342052Y-7648145D01*
X34347268Y-7668969D01*
X34350418Y-7690204D01*
X34351471Y-7711645D01*
X34350418Y-7733086D01*
X34347268Y-7754321D01*
X34342052Y-7775145D01*
X34334820Y-7795357D01*
X34325641Y-7814763D01*
X34314605Y-7833176D01*
X34301817Y-7850419D01*
X34287401Y-7866325D01*
X33978042Y-8175684D01*
X33962136Y-8190100D01*
X33944893Y-8202888D01*
X33926480Y-8213924D01*
X33907074Y-8223103D01*
X33886862Y-8230335D01*
X33866038Y-8235551D01*
X33844803Y-8238701D01*
X33823362Y-8239754D01*
X33801921Y-8238701D01*
X33780686Y-8235551D01*
X33759862Y-8230335D01*
X33739650Y-8223103D01*
X33720244Y-8213924D01*
X33701831Y-8202888D01*
X33684588Y-8190100D01*
X33668682Y-8175684D01*
X33306289Y-7813291D01*
X33291873Y-7797385D01*
X33279085Y-7780142D01*
X33268049Y-7761729D01*
X33258870Y-7742323D01*
X33251638Y-7722111D01*
X33246422Y-7701287D01*
X33243272Y-7680052D01*
X33242219Y-7658611D01*
X33243272Y-7637170D01*
X33246422Y-7615935D01*
X33251638Y-7595111D01*
X33258870Y-7574899D01*
X33268049Y-7555493D01*
X33279085Y-7537080D01*
X33291873Y-7519837D01*
X33306289Y-7503931D01*
X33615648Y-7194572D01*
X33631554Y-7180156D01*
X33648797Y-7167368D01*
X33667210Y-7156332D01*
X33686616Y-7147153D01*
X33706828Y-7139921D01*
X33727652Y-7134705D01*
X33748887Y-7131555D01*
X33770328Y-7130502D01*
X33791769Y-7131555D01*
X33791769Y-7131555D01*
G37*
D14*
X33796845Y-7685128D03*
D12*
G36*
X31670449Y-5080945D02*
G01*
X31691684Y-5084095D01*
X31712508Y-5089311D01*
X31732720Y-5096543D01*
X31752126Y-5105722D01*
X31770539Y-5116758D01*
X31787782Y-5129546D01*
X31803688Y-5143962D01*
X32113047Y-5453321D01*
X32127463Y-5469227D01*
X32140251Y-5486470D01*
X32151287Y-5504883D01*
X32160466Y-5524289D01*
X32167698Y-5544501D01*
X32172914Y-5565325D01*
X32176064Y-5586560D01*
X32177117Y-5608001D01*
X32176064Y-5629442D01*
X32172914Y-5650677D01*
X32167698Y-5671501D01*
X32160466Y-5691713D01*
X32151287Y-5711119D01*
X32140251Y-5729532D01*
X32127463Y-5746775D01*
X32113047Y-5762681D01*
X31750654Y-6125074D01*
X31734748Y-6139490D01*
X31717505Y-6152278D01*
X31699092Y-6163314D01*
X31679686Y-6172493D01*
X31659474Y-6179725D01*
X31638650Y-6184941D01*
X31617415Y-6188091D01*
X31595974Y-6189144D01*
X31574533Y-6188091D01*
X31553298Y-6184941D01*
X31532474Y-6179725D01*
X31512262Y-6172493D01*
X31492856Y-6163314D01*
X31474443Y-6152278D01*
X31457200Y-6139490D01*
X31441294Y-6125074D01*
X31131935Y-5815715D01*
X31117519Y-5799809D01*
X31104731Y-5782566D01*
X31093695Y-5764153D01*
X31084516Y-5744747D01*
X31077284Y-5724535D01*
X31072068Y-5703711D01*
X31068918Y-5682476D01*
X31067865Y-5661035D01*
X31068918Y-5639594D01*
X31072068Y-5618359D01*
X31077284Y-5597535D01*
X31084516Y-5577323D01*
X31093695Y-5557917D01*
X31104731Y-5539504D01*
X31117519Y-5522261D01*
X31131935Y-5506355D01*
X31494328Y-5143962D01*
X31510234Y-5129546D01*
X31527477Y-5116758D01*
X31545890Y-5105722D01*
X31565296Y-5096543D01*
X31585508Y-5089311D01*
X31606332Y-5084095D01*
X31627567Y-5080945D01*
X31649008Y-5079892D01*
X31670449Y-5080945D01*
X31670449Y-5080945D01*
G37*
D14*
X31622491Y-5634518D03*
D12*
G36*
X32784143Y-6194639D02*
G01*
X32805378Y-6197789D01*
X32826202Y-6203005D01*
X32846414Y-6210237D01*
X32865820Y-6219416D01*
X32884233Y-6230452D01*
X32901476Y-6243240D01*
X32917382Y-6257656D01*
X33226741Y-6567015D01*
X33241157Y-6582921D01*
X33253945Y-6600164D01*
X33264981Y-6618577D01*
X33274160Y-6637983D01*
X33281392Y-6658195D01*
X33286608Y-6679019D01*
X33289758Y-6700254D01*
X33290811Y-6721695D01*
X33289758Y-6743136D01*
X33286608Y-6764371D01*
X33281392Y-6785195D01*
X33274160Y-6805407D01*
X33264981Y-6824813D01*
X33253945Y-6843226D01*
X33241157Y-6860469D01*
X33226741Y-6876375D01*
X32864348Y-7238768D01*
X32848442Y-7253184D01*
X32831199Y-7265972D01*
X32812786Y-7277008D01*
X32793380Y-7286187D01*
X32773168Y-7293419D01*
X32752344Y-7298635D01*
X32731109Y-7301785D01*
X32709668Y-7302838D01*
X32688227Y-7301785D01*
X32666992Y-7298635D01*
X32646168Y-7293419D01*
X32625956Y-7286187D01*
X32606550Y-7277008D01*
X32588137Y-7265972D01*
X32570894Y-7253184D01*
X32554988Y-7238768D01*
X32245629Y-6929409D01*
X32231213Y-6913503D01*
X32218425Y-6896260D01*
X32207389Y-6877847D01*
X32198210Y-6858441D01*
X32190978Y-6838229D01*
X32185762Y-6817405D01*
X32182612Y-6796170D01*
X32181559Y-6774729D01*
X32182612Y-6753288D01*
X32185762Y-6732053D01*
X32190978Y-6711229D01*
X32198210Y-6691017D01*
X32207389Y-6671611D01*
X32218425Y-6653198D01*
X32231213Y-6635955D01*
X32245629Y-6620049D01*
X32608022Y-6257656D01*
X32623928Y-6243240D01*
X32641171Y-6230452D01*
X32659584Y-6219416D01*
X32678990Y-6210237D01*
X32699202Y-6203005D01*
X32720026Y-6197789D01*
X32741261Y-6194639D01*
X32762702Y-6193586D01*
X32784143Y-6194639D01*
X32784143Y-6194639D01*
G37*
D14*
X32736185Y-6748212D03*
D12*
G36*
X29566805Y-5133979D02*
G01*
X29588040Y-5137129D01*
X29608864Y-5142345D01*
X29629076Y-5149577D01*
X29648482Y-5158756D01*
X29666895Y-5169792D01*
X29684138Y-5182580D01*
X29700044Y-5196996D01*
X30062437Y-5559389D01*
X30076853Y-5575295D01*
X30089641Y-5592538D01*
X30100677Y-5610951D01*
X30109856Y-5630357D01*
X30117088Y-5650569D01*
X30122304Y-5671393D01*
X30125454Y-5692628D01*
X30126507Y-5714069D01*
X30125454Y-5735510D01*
X30122304Y-5756745D01*
X30117088Y-5777569D01*
X30109856Y-5797781D01*
X30100677Y-5817187D01*
X30089641Y-5835600D01*
X30076853Y-5852843D01*
X30062437Y-5868749D01*
X29753078Y-6178108D01*
X29737172Y-6192524D01*
X29719929Y-6205312D01*
X29701516Y-6216348D01*
X29682110Y-6225527D01*
X29661898Y-6232759D01*
X29641074Y-6237975D01*
X29619839Y-6241125D01*
X29598398Y-6242178D01*
X29576957Y-6241125D01*
X29555722Y-6237975D01*
X29534898Y-6232759D01*
X29514686Y-6225527D01*
X29495280Y-6216348D01*
X29476867Y-6205312D01*
X29459624Y-6192524D01*
X29443718Y-6178108D01*
X29081325Y-5815715D01*
X29066909Y-5799809D01*
X29054121Y-5782566D01*
X29043085Y-5764153D01*
X29033906Y-5744747D01*
X29026674Y-5724535D01*
X29021458Y-5703711D01*
X29018308Y-5682476D01*
X29017255Y-5661035D01*
X29018308Y-5639594D01*
X29021458Y-5618359D01*
X29026674Y-5597535D01*
X29033906Y-5577323D01*
X29043085Y-5557917D01*
X29054121Y-5539504D01*
X29066909Y-5522261D01*
X29081325Y-5506355D01*
X29390684Y-5196996D01*
X29406590Y-5182580D01*
X29423833Y-5169792D01*
X29442246Y-5158756D01*
X29461652Y-5149577D01*
X29481864Y-5142345D01*
X29502688Y-5137129D01*
X29523923Y-5133979D01*
X29545364Y-5132926D01*
X29566805Y-5133979D01*
X29566805Y-5133979D01*
G37*
D14*
X29571881Y-5687552D03*
D12*
G36*
X30680499Y-4020285D02*
G01*
X30701734Y-4023435D01*
X30722558Y-4028651D01*
X30742770Y-4035883D01*
X30762176Y-4045062D01*
X30780589Y-4056098D01*
X30797832Y-4068886D01*
X30813738Y-4083302D01*
X31176131Y-4445695D01*
X31190547Y-4461601D01*
X31203335Y-4478844D01*
X31214371Y-4497257D01*
X31223550Y-4516663D01*
X31230782Y-4536875D01*
X31235998Y-4557699D01*
X31239148Y-4578934D01*
X31240201Y-4600375D01*
X31239148Y-4621816D01*
X31235998Y-4643051D01*
X31230782Y-4663875D01*
X31223550Y-4684087D01*
X31214371Y-4703493D01*
X31203335Y-4721906D01*
X31190547Y-4739149D01*
X31176131Y-4755055D01*
X30866772Y-5064414D01*
X30850866Y-5078830D01*
X30833623Y-5091618D01*
X30815210Y-5102654D01*
X30795804Y-5111833D01*
X30775592Y-5119065D01*
X30754768Y-5124281D01*
X30733533Y-5127431D01*
X30712092Y-5128484D01*
X30690651Y-5127431D01*
X30669416Y-5124281D01*
X30648592Y-5119065D01*
X30628380Y-5111833D01*
X30608974Y-5102654D01*
X30590561Y-5091618D01*
X30573318Y-5078830D01*
X30557412Y-5064414D01*
X30195019Y-4702021D01*
X30180603Y-4686115D01*
X30167815Y-4668872D01*
X30156779Y-4650459D01*
X30147600Y-4631053D01*
X30140368Y-4610841D01*
X30135152Y-4590017D01*
X30132002Y-4568782D01*
X30130949Y-4547341D01*
X30132002Y-4525900D01*
X30135152Y-4504665D01*
X30140368Y-4483841D01*
X30147600Y-4463629D01*
X30156779Y-4444223D01*
X30167815Y-4425810D01*
X30180603Y-4408567D01*
X30195019Y-4392661D01*
X30504378Y-4083302D01*
X30520284Y-4068886D01*
X30537527Y-4056098D01*
X30555940Y-4045062D01*
X30575346Y-4035883D01*
X30595558Y-4028651D01*
X30616382Y-4023435D01*
X30637617Y-4020285D01*
X30659058Y-4019232D01*
X30680499Y-4020285D01*
X30680499Y-4020285D01*
G37*
D14*
X30685575Y-4573858D03*
D12*
G36*
X28488468Y-6212316D02*
G01*
X28509703Y-6215466D01*
X28530527Y-6220682D01*
X28550739Y-6227914D01*
X28570145Y-6237093D01*
X28588558Y-6248129D01*
X28605801Y-6260917D01*
X28621707Y-6275333D01*
X28984100Y-6637726D01*
X28998516Y-6653632D01*
X29011304Y-6670875D01*
X29022340Y-6689288D01*
X29031519Y-6708694D01*
X29038751Y-6728906D01*
X29043967Y-6749730D01*
X29047117Y-6770965D01*
X29048170Y-6792406D01*
X29047117Y-6813847D01*
X29043967Y-6835082D01*
X29038751Y-6855906D01*
X29031519Y-6876118D01*
X29022340Y-6895524D01*
X29011304Y-6913937D01*
X28998516Y-6931180D01*
X28984100Y-6947086D01*
X28674741Y-7256445D01*
X28658835Y-7270861D01*
X28641592Y-7283649D01*
X28623179Y-7294685D01*
X28603773Y-7303864D01*
X28583561Y-7311096D01*
X28562737Y-7316312D01*
X28541502Y-7319462D01*
X28520061Y-7320515D01*
X28498620Y-7319462D01*
X28477385Y-7316312D01*
X28456561Y-7311096D01*
X28436349Y-7303864D01*
X28416943Y-7294685D01*
X28398530Y-7283649D01*
X28381287Y-7270861D01*
X28365381Y-7256445D01*
X28002988Y-6894052D01*
X27988572Y-6878146D01*
X27975784Y-6860903D01*
X27964748Y-6842490D01*
X27955569Y-6823084D01*
X27948337Y-6802872D01*
X27943121Y-6782048D01*
X27939971Y-6760813D01*
X27938918Y-6739372D01*
X27939971Y-6717931D01*
X27943121Y-6696696D01*
X27948337Y-6675872D01*
X27955569Y-6655660D01*
X27964748Y-6636254D01*
X27975784Y-6617841D01*
X27988572Y-6600598D01*
X28002988Y-6584692D01*
X28312347Y-6275333D01*
X28328253Y-6260917D01*
X28345496Y-6248129D01*
X28363909Y-6237093D01*
X28383315Y-6227914D01*
X28403527Y-6220682D01*
X28424351Y-6215466D01*
X28445586Y-6212316D01*
X28467027Y-6211263D01*
X28488468Y-6212316D01*
X28488468Y-6212316D01*
G37*
D14*
X28493544Y-6765889D03*
D12*
G36*
X27374774Y-7326010D02*
G01*
X27396009Y-7329160D01*
X27416833Y-7334376D01*
X27437045Y-7341608D01*
X27456451Y-7350787D01*
X27474864Y-7361823D01*
X27492107Y-7374611D01*
X27508013Y-7389027D01*
X27870406Y-7751420D01*
X27884822Y-7767326D01*
X27897610Y-7784569D01*
X27908646Y-7802982D01*
X27917825Y-7822388D01*
X27925057Y-7842600D01*
X27930273Y-7863424D01*
X27933423Y-7884659D01*
X27934476Y-7906100D01*
X27933423Y-7927541D01*
X27930273Y-7948776D01*
X27925057Y-7969600D01*
X27917825Y-7989812D01*
X27908646Y-8009218D01*
X27897610Y-8027631D01*
X27884822Y-8044874D01*
X27870406Y-8060780D01*
X27561047Y-8370139D01*
X27545141Y-8384555D01*
X27527898Y-8397343D01*
X27509485Y-8408379D01*
X27490079Y-8417558D01*
X27469867Y-8424790D01*
X27449043Y-8430006D01*
X27427808Y-8433156D01*
X27406367Y-8434209D01*
X27384926Y-8433156D01*
X27363691Y-8430006D01*
X27342867Y-8424790D01*
X27322655Y-8417558D01*
X27303249Y-8408379D01*
X27284836Y-8397343D01*
X27267593Y-8384555D01*
X27251687Y-8370139D01*
X26889294Y-8007746D01*
X26874878Y-7991840D01*
X26862090Y-7974597D01*
X26851054Y-7956184D01*
X26841875Y-7936778D01*
X26834643Y-7916566D01*
X26829427Y-7895742D01*
X26826277Y-7874507D01*
X26825224Y-7853066D01*
X26826277Y-7831625D01*
X26829427Y-7810390D01*
X26834643Y-7789566D01*
X26841875Y-7769354D01*
X26851054Y-7749948D01*
X26862090Y-7731535D01*
X26874878Y-7714292D01*
X26889294Y-7698386D01*
X27198653Y-7389027D01*
X27214559Y-7374611D01*
X27231802Y-7361823D01*
X27250215Y-7350787D01*
X27269621Y-7341608D01*
X27289833Y-7334376D01*
X27310657Y-7329160D01*
X27331892Y-7326010D01*
X27353333Y-7324957D01*
X27374774Y-7326010D01*
X27374774Y-7326010D01*
G37*
D14*
X27379850Y-7879583D03*
M02*
