G04 #@! TF.GenerationSoftware,KiCad,Pcbnew,(5.1.2)-2*
G04 #@! TF.CreationDate,2019-08-07T20:06:56+08:00*
G04 #@! TF.ProjectId,pillf4,70696c6c-6634-42e6-9b69-6361645f7063,rev?*
G04 #@! TF.SameCoordinates,PXffeaaef8PYff89ca48*
G04 #@! TF.FileFunction,Soldermask,Top*
G04 #@! TF.FilePolarity,Negative*
%FSLAX46Y46*%
G04 Gerber Fmt 4.6, Leading zero omitted, Abs format (unit mm)*
G04 Created by KiCad (PCBNEW (5.1.2)-2) date 2019-08-07 20:06:56*
%MOMM*%
%LPD*%
G04 APERTURE LIST*
%ADD10C,0.100000*%
G04 APERTURE END LIST*
D10*
G36*
X42147443Y-13202519D02*
G01*
X42213627Y-13209037D01*
X42383466Y-13260557D01*
X42539991Y-13344222D01*
X42575729Y-13373552D01*
X42677186Y-13456814D01*
X42760448Y-13558271D01*
X42789778Y-13594009D01*
X42873443Y-13750534D01*
X42924963Y-13920373D01*
X42942359Y-14097000D01*
X42924963Y-14273627D01*
X42873443Y-14443466D01*
X42789778Y-14599991D01*
X42760448Y-14635729D01*
X42677186Y-14737186D01*
X42575729Y-14820448D01*
X42539991Y-14849778D01*
X42383466Y-14933443D01*
X42213627Y-14984963D01*
X42147443Y-14991481D01*
X42081260Y-14998000D01*
X41992740Y-14998000D01*
X41926557Y-14991481D01*
X41860373Y-14984963D01*
X41690534Y-14933443D01*
X41534009Y-14849778D01*
X41498271Y-14820448D01*
X41396814Y-14737186D01*
X41313552Y-14635729D01*
X41284222Y-14599991D01*
X41200557Y-14443466D01*
X41149037Y-14273627D01*
X41131641Y-14097000D01*
X41149037Y-13920373D01*
X41200557Y-13750534D01*
X41284222Y-13594009D01*
X41313552Y-13558271D01*
X41396814Y-13456814D01*
X41498271Y-13373552D01*
X41534009Y-13344222D01*
X41690534Y-13260557D01*
X41860373Y-13209037D01*
X41926557Y-13202519D01*
X41992740Y-13196000D01*
X42081260Y-13196000D01*
X42147443Y-13202519D01*
X42147443Y-13202519D01*
G37*
G36*
X31987443Y-13202519D02*
G01*
X32053627Y-13209037D01*
X32223466Y-13260557D01*
X32379991Y-13344222D01*
X32415729Y-13373552D01*
X32517186Y-13456814D01*
X32600448Y-13558271D01*
X32629778Y-13594009D01*
X32713443Y-13750534D01*
X32764963Y-13920373D01*
X32782359Y-14097000D01*
X32764963Y-14273627D01*
X32713443Y-14443466D01*
X32629778Y-14599991D01*
X32600448Y-14635729D01*
X32517186Y-14737186D01*
X32415729Y-14820448D01*
X32379991Y-14849778D01*
X32223466Y-14933443D01*
X32053627Y-14984963D01*
X31987443Y-14991481D01*
X31921260Y-14998000D01*
X31832740Y-14998000D01*
X31766557Y-14991481D01*
X31700373Y-14984963D01*
X31530534Y-14933443D01*
X31374009Y-14849778D01*
X31338271Y-14820448D01*
X31236814Y-14737186D01*
X31153552Y-14635729D01*
X31124222Y-14599991D01*
X31040557Y-14443466D01*
X30989037Y-14273627D01*
X30971641Y-14097000D01*
X30989037Y-13920373D01*
X31040557Y-13750534D01*
X31124222Y-13594009D01*
X31153552Y-13558271D01*
X31236814Y-13456814D01*
X31338271Y-13373552D01*
X31374009Y-13344222D01*
X31530534Y-13260557D01*
X31700373Y-13209037D01*
X31766557Y-13202519D01*
X31832740Y-13196000D01*
X31921260Y-13196000D01*
X31987443Y-13202519D01*
X31987443Y-13202519D01*
G37*
G36*
X59927443Y-13202519D02*
G01*
X59993627Y-13209037D01*
X60163466Y-13260557D01*
X60319991Y-13344222D01*
X60355729Y-13373552D01*
X60457186Y-13456814D01*
X60540448Y-13558271D01*
X60569778Y-13594009D01*
X60653443Y-13750534D01*
X60704963Y-13920373D01*
X60722359Y-14097000D01*
X60704963Y-14273627D01*
X60653443Y-14443466D01*
X60569778Y-14599991D01*
X60540448Y-14635729D01*
X60457186Y-14737186D01*
X60355729Y-14820448D01*
X60319991Y-14849778D01*
X60163466Y-14933443D01*
X59993627Y-14984963D01*
X59927443Y-14991481D01*
X59861260Y-14998000D01*
X59772740Y-14998000D01*
X59706557Y-14991481D01*
X59640373Y-14984963D01*
X59470534Y-14933443D01*
X59314009Y-14849778D01*
X59278271Y-14820448D01*
X59176814Y-14737186D01*
X59093552Y-14635729D01*
X59064222Y-14599991D01*
X58980557Y-14443466D01*
X58929037Y-14273627D01*
X58911641Y-14097000D01*
X58929037Y-13920373D01*
X58980557Y-13750534D01*
X59064222Y-13594009D01*
X59093552Y-13558271D01*
X59176814Y-13456814D01*
X59278271Y-13373552D01*
X59314009Y-13344222D01*
X59470534Y-13260557D01*
X59640373Y-13209037D01*
X59706557Y-13202519D01*
X59772740Y-13196000D01*
X59861260Y-13196000D01*
X59927443Y-13202519D01*
X59927443Y-13202519D01*
G37*
G36*
X54847443Y-13202519D02*
G01*
X54913627Y-13209037D01*
X55083466Y-13260557D01*
X55239991Y-13344222D01*
X55275729Y-13373552D01*
X55377186Y-13456814D01*
X55460448Y-13558271D01*
X55489778Y-13594009D01*
X55573443Y-13750534D01*
X55624963Y-13920373D01*
X55642359Y-14097000D01*
X55624963Y-14273627D01*
X55573443Y-14443466D01*
X55489778Y-14599991D01*
X55460448Y-14635729D01*
X55377186Y-14737186D01*
X55275729Y-14820448D01*
X55239991Y-14849778D01*
X55083466Y-14933443D01*
X54913627Y-14984963D01*
X54847443Y-14991481D01*
X54781260Y-14998000D01*
X54692740Y-14998000D01*
X54626557Y-14991481D01*
X54560373Y-14984963D01*
X54390534Y-14933443D01*
X54234009Y-14849778D01*
X54198271Y-14820448D01*
X54096814Y-14737186D01*
X54013552Y-14635729D01*
X53984222Y-14599991D01*
X53900557Y-14443466D01*
X53849037Y-14273627D01*
X53831641Y-14097000D01*
X53849037Y-13920373D01*
X53900557Y-13750534D01*
X53984222Y-13594009D01*
X54013552Y-13558271D01*
X54096814Y-13456814D01*
X54198271Y-13373552D01*
X54234009Y-13344222D01*
X54390534Y-13260557D01*
X54560373Y-13209037D01*
X54626557Y-13202519D01*
X54692740Y-13196000D01*
X54781260Y-13196000D01*
X54847443Y-13202519D01*
X54847443Y-13202519D01*
G37*
G36*
X52307443Y-13202519D02*
G01*
X52373627Y-13209037D01*
X52543466Y-13260557D01*
X52699991Y-13344222D01*
X52735729Y-13373552D01*
X52837186Y-13456814D01*
X52920448Y-13558271D01*
X52949778Y-13594009D01*
X53033443Y-13750534D01*
X53084963Y-13920373D01*
X53102359Y-14097000D01*
X53084963Y-14273627D01*
X53033443Y-14443466D01*
X52949778Y-14599991D01*
X52920448Y-14635729D01*
X52837186Y-14737186D01*
X52735729Y-14820448D01*
X52699991Y-14849778D01*
X52543466Y-14933443D01*
X52373627Y-14984963D01*
X52307443Y-14991481D01*
X52241260Y-14998000D01*
X52152740Y-14998000D01*
X52086557Y-14991481D01*
X52020373Y-14984963D01*
X51850534Y-14933443D01*
X51694009Y-14849778D01*
X51658271Y-14820448D01*
X51556814Y-14737186D01*
X51473552Y-14635729D01*
X51444222Y-14599991D01*
X51360557Y-14443466D01*
X51309037Y-14273627D01*
X51291641Y-14097000D01*
X51309037Y-13920373D01*
X51360557Y-13750534D01*
X51444222Y-13594009D01*
X51473552Y-13558271D01*
X51556814Y-13456814D01*
X51658271Y-13373552D01*
X51694009Y-13344222D01*
X51850534Y-13260557D01*
X52020373Y-13209037D01*
X52086557Y-13202519D01*
X52152740Y-13196000D01*
X52241260Y-13196000D01*
X52307443Y-13202519D01*
X52307443Y-13202519D01*
G37*
G36*
X49767443Y-13202519D02*
G01*
X49833627Y-13209037D01*
X50003466Y-13260557D01*
X50159991Y-13344222D01*
X50195729Y-13373552D01*
X50297186Y-13456814D01*
X50380448Y-13558271D01*
X50409778Y-13594009D01*
X50493443Y-13750534D01*
X50544963Y-13920373D01*
X50562359Y-14097000D01*
X50544963Y-14273627D01*
X50493443Y-14443466D01*
X50409778Y-14599991D01*
X50380448Y-14635729D01*
X50297186Y-14737186D01*
X50195729Y-14820448D01*
X50159991Y-14849778D01*
X50003466Y-14933443D01*
X49833627Y-14984963D01*
X49767443Y-14991481D01*
X49701260Y-14998000D01*
X49612740Y-14998000D01*
X49546557Y-14991481D01*
X49480373Y-14984963D01*
X49310534Y-14933443D01*
X49154009Y-14849778D01*
X49118271Y-14820448D01*
X49016814Y-14737186D01*
X48933552Y-14635729D01*
X48904222Y-14599991D01*
X48820557Y-14443466D01*
X48769037Y-14273627D01*
X48751641Y-14097000D01*
X48769037Y-13920373D01*
X48820557Y-13750534D01*
X48904222Y-13594009D01*
X48933552Y-13558271D01*
X49016814Y-13456814D01*
X49118271Y-13373552D01*
X49154009Y-13344222D01*
X49310534Y-13260557D01*
X49480373Y-13209037D01*
X49546557Y-13202519D01*
X49612740Y-13196000D01*
X49701260Y-13196000D01*
X49767443Y-13202519D01*
X49767443Y-13202519D01*
G37*
G36*
X47227443Y-13202519D02*
G01*
X47293627Y-13209037D01*
X47463466Y-13260557D01*
X47619991Y-13344222D01*
X47655729Y-13373552D01*
X47757186Y-13456814D01*
X47840448Y-13558271D01*
X47869778Y-13594009D01*
X47953443Y-13750534D01*
X48004963Y-13920373D01*
X48022359Y-14097000D01*
X48004963Y-14273627D01*
X47953443Y-14443466D01*
X47869778Y-14599991D01*
X47840448Y-14635729D01*
X47757186Y-14737186D01*
X47655729Y-14820448D01*
X47619991Y-14849778D01*
X47463466Y-14933443D01*
X47293627Y-14984963D01*
X47227443Y-14991481D01*
X47161260Y-14998000D01*
X47072740Y-14998000D01*
X47006557Y-14991481D01*
X46940373Y-14984963D01*
X46770534Y-14933443D01*
X46614009Y-14849778D01*
X46578271Y-14820448D01*
X46476814Y-14737186D01*
X46393552Y-14635729D01*
X46364222Y-14599991D01*
X46280557Y-14443466D01*
X46229037Y-14273627D01*
X46211641Y-14097000D01*
X46229037Y-13920373D01*
X46280557Y-13750534D01*
X46364222Y-13594009D01*
X46393552Y-13558271D01*
X46476814Y-13456814D01*
X46578271Y-13373552D01*
X46614009Y-13344222D01*
X46770534Y-13260557D01*
X46940373Y-13209037D01*
X47006557Y-13202519D01*
X47072740Y-13196000D01*
X47161260Y-13196000D01*
X47227443Y-13202519D01*
X47227443Y-13202519D01*
G37*
G36*
X44687443Y-13202519D02*
G01*
X44753627Y-13209037D01*
X44923466Y-13260557D01*
X45079991Y-13344222D01*
X45115729Y-13373552D01*
X45217186Y-13456814D01*
X45300448Y-13558271D01*
X45329778Y-13594009D01*
X45413443Y-13750534D01*
X45464963Y-13920373D01*
X45482359Y-14097000D01*
X45464963Y-14273627D01*
X45413443Y-14443466D01*
X45329778Y-14599991D01*
X45300448Y-14635729D01*
X45217186Y-14737186D01*
X45115729Y-14820448D01*
X45079991Y-14849778D01*
X44923466Y-14933443D01*
X44753627Y-14984963D01*
X44687443Y-14991481D01*
X44621260Y-14998000D01*
X44532740Y-14998000D01*
X44466557Y-14991481D01*
X44400373Y-14984963D01*
X44230534Y-14933443D01*
X44074009Y-14849778D01*
X44038271Y-14820448D01*
X43936814Y-14737186D01*
X43853552Y-14635729D01*
X43824222Y-14599991D01*
X43740557Y-14443466D01*
X43689037Y-14273627D01*
X43671641Y-14097000D01*
X43689037Y-13920373D01*
X43740557Y-13750534D01*
X43824222Y-13594009D01*
X43853552Y-13558271D01*
X43936814Y-13456814D01*
X44038271Y-13373552D01*
X44074009Y-13344222D01*
X44230534Y-13260557D01*
X44400373Y-13209037D01*
X44466557Y-13202519D01*
X44532740Y-13196000D01*
X44621260Y-13196000D01*
X44687443Y-13202519D01*
X44687443Y-13202519D01*
G37*
G36*
X39607443Y-13202519D02*
G01*
X39673627Y-13209037D01*
X39843466Y-13260557D01*
X39999991Y-13344222D01*
X40035729Y-13373552D01*
X40137186Y-13456814D01*
X40220448Y-13558271D01*
X40249778Y-13594009D01*
X40333443Y-13750534D01*
X40384963Y-13920373D01*
X40402359Y-14097000D01*
X40384963Y-14273627D01*
X40333443Y-14443466D01*
X40249778Y-14599991D01*
X40220448Y-14635729D01*
X40137186Y-14737186D01*
X40035729Y-14820448D01*
X39999991Y-14849778D01*
X39843466Y-14933443D01*
X39673627Y-14984963D01*
X39607443Y-14991481D01*
X39541260Y-14998000D01*
X39452740Y-14998000D01*
X39386557Y-14991481D01*
X39320373Y-14984963D01*
X39150534Y-14933443D01*
X38994009Y-14849778D01*
X38958271Y-14820448D01*
X38856814Y-14737186D01*
X38773552Y-14635729D01*
X38744222Y-14599991D01*
X38660557Y-14443466D01*
X38609037Y-14273627D01*
X38591641Y-14097000D01*
X38609037Y-13920373D01*
X38660557Y-13750534D01*
X38744222Y-13594009D01*
X38773552Y-13558271D01*
X38856814Y-13456814D01*
X38958271Y-13373552D01*
X38994009Y-13344222D01*
X39150534Y-13260557D01*
X39320373Y-13209037D01*
X39386557Y-13202519D01*
X39452740Y-13196000D01*
X39541260Y-13196000D01*
X39607443Y-13202519D01*
X39607443Y-13202519D01*
G37*
G36*
X37067443Y-13202519D02*
G01*
X37133627Y-13209037D01*
X37303466Y-13260557D01*
X37459991Y-13344222D01*
X37495729Y-13373552D01*
X37597186Y-13456814D01*
X37680448Y-13558271D01*
X37709778Y-13594009D01*
X37793443Y-13750534D01*
X37844963Y-13920373D01*
X37862359Y-14097000D01*
X37844963Y-14273627D01*
X37793443Y-14443466D01*
X37709778Y-14599991D01*
X37680448Y-14635729D01*
X37597186Y-14737186D01*
X37495729Y-14820448D01*
X37459991Y-14849778D01*
X37303466Y-14933443D01*
X37133627Y-14984963D01*
X37067443Y-14991481D01*
X37001260Y-14998000D01*
X36912740Y-14998000D01*
X36846557Y-14991481D01*
X36780373Y-14984963D01*
X36610534Y-14933443D01*
X36454009Y-14849778D01*
X36418271Y-14820448D01*
X36316814Y-14737186D01*
X36233552Y-14635729D01*
X36204222Y-14599991D01*
X36120557Y-14443466D01*
X36069037Y-14273627D01*
X36051641Y-14097000D01*
X36069037Y-13920373D01*
X36120557Y-13750534D01*
X36204222Y-13594009D01*
X36233552Y-13558271D01*
X36316814Y-13456814D01*
X36418271Y-13373552D01*
X36454009Y-13344222D01*
X36610534Y-13260557D01*
X36780373Y-13209037D01*
X36846557Y-13202519D01*
X36912740Y-13196000D01*
X37001260Y-13196000D01*
X37067443Y-13202519D01*
X37067443Y-13202519D01*
G37*
G36*
X34527443Y-13202519D02*
G01*
X34593627Y-13209037D01*
X34763466Y-13260557D01*
X34919991Y-13344222D01*
X34955729Y-13373552D01*
X35057186Y-13456814D01*
X35140448Y-13558271D01*
X35169778Y-13594009D01*
X35253443Y-13750534D01*
X35304963Y-13920373D01*
X35322359Y-14097000D01*
X35304963Y-14273627D01*
X35253443Y-14443466D01*
X35169778Y-14599991D01*
X35140448Y-14635729D01*
X35057186Y-14737186D01*
X34955729Y-14820448D01*
X34919991Y-14849778D01*
X34763466Y-14933443D01*
X34593627Y-14984963D01*
X34527443Y-14991481D01*
X34461260Y-14998000D01*
X34372740Y-14998000D01*
X34306557Y-14991481D01*
X34240373Y-14984963D01*
X34070534Y-14933443D01*
X33914009Y-14849778D01*
X33878271Y-14820448D01*
X33776814Y-14737186D01*
X33693552Y-14635729D01*
X33664222Y-14599991D01*
X33580557Y-14443466D01*
X33529037Y-14273627D01*
X33511641Y-14097000D01*
X33529037Y-13920373D01*
X33580557Y-13750534D01*
X33664222Y-13594009D01*
X33693552Y-13558271D01*
X33776814Y-13456814D01*
X33878271Y-13373552D01*
X33914009Y-13344222D01*
X34070534Y-13260557D01*
X34240373Y-13209037D01*
X34306557Y-13202519D01*
X34372740Y-13196000D01*
X34461260Y-13196000D01*
X34527443Y-13202519D01*
X34527443Y-13202519D01*
G37*
G36*
X57387443Y-13202519D02*
G01*
X57453627Y-13209037D01*
X57623466Y-13260557D01*
X57779991Y-13344222D01*
X57815729Y-13373552D01*
X57917186Y-13456814D01*
X58000448Y-13558271D01*
X58029778Y-13594009D01*
X58113443Y-13750534D01*
X58164963Y-13920373D01*
X58182359Y-14097000D01*
X58164963Y-14273627D01*
X58113443Y-14443466D01*
X58029778Y-14599991D01*
X58000448Y-14635729D01*
X57917186Y-14737186D01*
X57815729Y-14820448D01*
X57779991Y-14849778D01*
X57623466Y-14933443D01*
X57453627Y-14984963D01*
X57387443Y-14991481D01*
X57321260Y-14998000D01*
X57232740Y-14998000D01*
X57166557Y-14991481D01*
X57100373Y-14984963D01*
X56930534Y-14933443D01*
X56774009Y-14849778D01*
X56738271Y-14820448D01*
X56636814Y-14737186D01*
X56553552Y-14635729D01*
X56524222Y-14599991D01*
X56440557Y-14443466D01*
X56389037Y-14273627D01*
X56371641Y-14097000D01*
X56389037Y-13920373D01*
X56440557Y-13750534D01*
X56524222Y-13594009D01*
X56553552Y-13558271D01*
X56636814Y-13456814D01*
X56738271Y-13373552D01*
X56774009Y-13344222D01*
X56930534Y-13260557D01*
X57100373Y-13209037D01*
X57166557Y-13202519D01*
X57232740Y-13196000D01*
X57321260Y-13196000D01*
X57387443Y-13202519D01*
X57387443Y-13202519D01*
G37*
G36*
X4047443Y-13202519D02*
G01*
X4113627Y-13209037D01*
X4283466Y-13260557D01*
X4439991Y-13344222D01*
X4475729Y-13373552D01*
X4577186Y-13456814D01*
X4660448Y-13558271D01*
X4689778Y-13594009D01*
X4773443Y-13750534D01*
X4824963Y-13920373D01*
X4842359Y-14097000D01*
X4824963Y-14273627D01*
X4773443Y-14443466D01*
X4689778Y-14599991D01*
X4660448Y-14635729D01*
X4577186Y-14737186D01*
X4475729Y-14820448D01*
X4439991Y-14849778D01*
X4283466Y-14933443D01*
X4113627Y-14984963D01*
X4047443Y-14991481D01*
X3981260Y-14998000D01*
X3892740Y-14998000D01*
X3826557Y-14991481D01*
X3760373Y-14984963D01*
X3590534Y-14933443D01*
X3434009Y-14849778D01*
X3398271Y-14820448D01*
X3296814Y-14737186D01*
X3213552Y-14635729D01*
X3184222Y-14599991D01*
X3100557Y-14443466D01*
X3049037Y-14273627D01*
X3031641Y-14097000D01*
X3049037Y-13920373D01*
X3100557Y-13750534D01*
X3184222Y-13594009D01*
X3213552Y-13558271D01*
X3296814Y-13456814D01*
X3398271Y-13373552D01*
X3434009Y-13344222D01*
X3590534Y-13260557D01*
X3760373Y-13209037D01*
X3826557Y-13202519D01*
X3892740Y-13196000D01*
X3981260Y-13196000D01*
X4047443Y-13202519D01*
X4047443Y-13202519D01*
G37*
G36*
X2298000Y-14998000D02*
G01*
X496000Y-14998000D01*
X496000Y-13196000D01*
X2298000Y-13196000D01*
X2298000Y-14998000D01*
X2298000Y-14998000D01*
G37*
G36*
X29447443Y-13202519D02*
G01*
X29513627Y-13209037D01*
X29683466Y-13260557D01*
X29839991Y-13344222D01*
X29875729Y-13373552D01*
X29977186Y-13456814D01*
X30060448Y-13558271D01*
X30089778Y-13594009D01*
X30173443Y-13750534D01*
X30224963Y-13920373D01*
X30242359Y-14097000D01*
X30224963Y-14273627D01*
X30173443Y-14443466D01*
X30089778Y-14599991D01*
X30060448Y-14635729D01*
X29977186Y-14737186D01*
X29875729Y-14820448D01*
X29839991Y-14849778D01*
X29683466Y-14933443D01*
X29513627Y-14984963D01*
X29447443Y-14991481D01*
X29381260Y-14998000D01*
X29292740Y-14998000D01*
X29226557Y-14991481D01*
X29160373Y-14984963D01*
X28990534Y-14933443D01*
X28834009Y-14849778D01*
X28798271Y-14820448D01*
X28696814Y-14737186D01*
X28613552Y-14635729D01*
X28584222Y-14599991D01*
X28500557Y-14443466D01*
X28449037Y-14273627D01*
X28431641Y-14097000D01*
X28449037Y-13920373D01*
X28500557Y-13750534D01*
X28584222Y-13594009D01*
X28613552Y-13558271D01*
X28696814Y-13456814D01*
X28798271Y-13373552D01*
X28834009Y-13344222D01*
X28990534Y-13260557D01*
X29160373Y-13209037D01*
X29226557Y-13202519D01*
X29292740Y-13196000D01*
X29381260Y-13196000D01*
X29447443Y-13202519D01*
X29447443Y-13202519D01*
G37*
G36*
X6587443Y-13202519D02*
G01*
X6653627Y-13209037D01*
X6823466Y-13260557D01*
X6979991Y-13344222D01*
X7015729Y-13373552D01*
X7117186Y-13456814D01*
X7200448Y-13558271D01*
X7229778Y-13594009D01*
X7313443Y-13750534D01*
X7364963Y-13920373D01*
X7382359Y-14097000D01*
X7364963Y-14273627D01*
X7313443Y-14443466D01*
X7229778Y-14599991D01*
X7200448Y-14635729D01*
X7117186Y-14737186D01*
X7015729Y-14820448D01*
X6979991Y-14849778D01*
X6823466Y-14933443D01*
X6653627Y-14984963D01*
X6587443Y-14991481D01*
X6521260Y-14998000D01*
X6432740Y-14998000D01*
X6366557Y-14991481D01*
X6300373Y-14984963D01*
X6130534Y-14933443D01*
X5974009Y-14849778D01*
X5938271Y-14820448D01*
X5836814Y-14737186D01*
X5753552Y-14635729D01*
X5724222Y-14599991D01*
X5640557Y-14443466D01*
X5589037Y-14273627D01*
X5571641Y-14097000D01*
X5589037Y-13920373D01*
X5640557Y-13750534D01*
X5724222Y-13594009D01*
X5753552Y-13558271D01*
X5836814Y-13456814D01*
X5938271Y-13373552D01*
X5974009Y-13344222D01*
X6130534Y-13260557D01*
X6300373Y-13209037D01*
X6366557Y-13202519D01*
X6432740Y-13196000D01*
X6521260Y-13196000D01*
X6587443Y-13202519D01*
X6587443Y-13202519D01*
G37*
G36*
X9127443Y-13202519D02*
G01*
X9193627Y-13209037D01*
X9363466Y-13260557D01*
X9519991Y-13344222D01*
X9555729Y-13373552D01*
X9657186Y-13456814D01*
X9740448Y-13558271D01*
X9769778Y-13594009D01*
X9853443Y-13750534D01*
X9904963Y-13920373D01*
X9922359Y-14097000D01*
X9904963Y-14273627D01*
X9853443Y-14443466D01*
X9769778Y-14599991D01*
X9740448Y-14635729D01*
X9657186Y-14737186D01*
X9555729Y-14820448D01*
X9519991Y-14849778D01*
X9363466Y-14933443D01*
X9193627Y-14984963D01*
X9127443Y-14991481D01*
X9061260Y-14998000D01*
X8972740Y-14998000D01*
X8906557Y-14991481D01*
X8840373Y-14984963D01*
X8670534Y-14933443D01*
X8514009Y-14849778D01*
X8478271Y-14820448D01*
X8376814Y-14737186D01*
X8293552Y-14635729D01*
X8264222Y-14599991D01*
X8180557Y-14443466D01*
X8129037Y-14273627D01*
X8111641Y-14097000D01*
X8129037Y-13920373D01*
X8180557Y-13750534D01*
X8264222Y-13594009D01*
X8293552Y-13558271D01*
X8376814Y-13456814D01*
X8478271Y-13373552D01*
X8514009Y-13344222D01*
X8670534Y-13260557D01*
X8840373Y-13209037D01*
X8906557Y-13202519D01*
X8972740Y-13196000D01*
X9061260Y-13196000D01*
X9127443Y-13202519D01*
X9127443Y-13202519D01*
G37*
G36*
X11667443Y-13202519D02*
G01*
X11733627Y-13209037D01*
X11903466Y-13260557D01*
X12059991Y-13344222D01*
X12095729Y-13373552D01*
X12197186Y-13456814D01*
X12280448Y-13558271D01*
X12309778Y-13594009D01*
X12393443Y-13750534D01*
X12444963Y-13920373D01*
X12462359Y-14097000D01*
X12444963Y-14273627D01*
X12393443Y-14443466D01*
X12309778Y-14599991D01*
X12280448Y-14635729D01*
X12197186Y-14737186D01*
X12095729Y-14820448D01*
X12059991Y-14849778D01*
X11903466Y-14933443D01*
X11733627Y-14984963D01*
X11667443Y-14991481D01*
X11601260Y-14998000D01*
X11512740Y-14998000D01*
X11446557Y-14991481D01*
X11380373Y-14984963D01*
X11210534Y-14933443D01*
X11054009Y-14849778D01*
X11018271Y-14820448D01*
X10916814Y-14737186D01*
X10833552Y-14635729D01*
X10804222Y-14599991D01*
X10720557Y-14443466D01*
X10669037Y-14273627D01*
X10651641Y-14097000D01*
X10669037Y-13920373D01*
X10720557Y-13750534D01*
X10804222Y-13594009D01*
X10833552Y-13558271D01*
X10916814Y-13456814D01*
X11018271Y-13373552D01*
X11054009Y-13344222D01*
X11210534Y-13260557D01*
X11380373Y-13209037D01*
X11446557Y-13202519D01*
X11512740Y-13196000D01*
X11601260Y-13196000D01*
X11667443Y-13202519D01*
X11667443Y-13202519D01*
G37*
G36*
X14207443Y-13202519D02*
G01*
X14273627Y-13209037D01*
X14443466Y-13260557D01*
X14599991Y-13344222D01*
X14635729Y-13373552D01*
X14737186Y-13456814D01*
X14820448Y-13558271D01*
X14849778Y-13594009D01*
X14933443Y-13750534D01*
X14984963Y-13920373D01*
X15002359Y-14097000D01*
X14984963Y-14273627D01*
X14933443Y-14443466D01*
X14849778Y-14599991D01*
X14820448Y-14635729D01*
X14737186Y-14737186D01*
X14635729Y-14820448D01*
X14599991Y-14849778D01*
X14443466Y-14933443D01*
X14273627Y-14984963D01*
X14207443Y-14991481D01*
X14141260Y-14998000D01*
X14052740Y-14998000D01*
X13986557Y-14991481D01*
X13920373Y-14984963D01*
X13750534Y-14933443D01*
X13594009Y-14849778D01*
X13558271Y-14820448D01*
X13456814Y-14737186D01*
X13373552Y-14635729D01*
X13344222Y-14599991D01*
X13260557Y-14443466D01*
X13209037Y-14273627D01*
X13191641Y-14097000D01*
X13209037Y-13920373D01*
X13260557Y-13750534D01*
X13344222Y-13594009D01*
X13373552Y-13558271D01*
X13456814Y-13456814D01*
X13558271Y-13373552D01*
X13594009Y-13344222D01*
X13750534Y-13260557D01*
X13920373Y-13209037D01*
X13986557Y-13202519D01*
X14052740Y-13196000D01*
X14141260Y-13196000D01*
X14207443Y-13202519D01*
X14207443Y-13202519D01*
G37*
G36*
X16747443Y-13202519D02*
G01*
X16813627Y-13209037D01*
X16983466Y-13260557D01*
X17139991Y-13344222D01*
X17175729Y-13373552D01*
X17277186Y-13456814D01*
X17360448Y-13558271D01*
X17389778Y-13594009D01*
X17473443Y-13750534D01*
X17524963Y-13920373D01*
X17542359Y-14097000D01*
X17524963Y-14273627D01*
X17473443Y-14443466D01*
X17389778Y-14599991D01*
X17360448Y-14635729D01*
X17277186Y-14737186D01*
X17175729Y-14820448D01*
X17139991Y-14849778D01*
X16983466Y-14933443D01*
X16813627Y-14984963D01*
X16747443Y-14991481D01*
X16681260Y-14998000D01*
X16592740Y-14998000D01*
X16526557Y-14991481D01*
X16460373Y-14984963D01*
X16290534Y-14933443D01*
X16134009Y-14849778D01*
X16098271Y-14820448D01*
X15996814Y-14737186D01*
X15913552Y-14635729D01*
X15884222Y-14599991D01*
X15800557Y-14443466D01*
X15749037Y-14273627D01*
X15731641Y-14097000D01*
X15749037Y-13920373D01*
X15800557Y-13750534D01*
X15884222Y-13594009D01*
X15913552Y-13558271D01*
X15996814Y-13456814D01*
X16098271Y-13373552D01*
X16134009Y-13344222D01*
X16290534Y-13260557D01*
X16460373Y-13209037D01*
X16526557Y-13202519D01*
X16592740Y-13196000D01*
X16681260Y-13196000D01*
X16747443Y-13202519D01*
X16747443Y-13202519D01*
G37*
G36*
X19287443Y-13202519D02*
G01*
X19353627Y-13209037D01*
X19523466Y-13260557D01*
X19679991Y-13344222D01*
X19715729Y-13373552D01*
X19817186Y-13456814D01*
X19900448Y-13558271D01*
X19929778Y-13594009D01*
X20013443Y-13750534D01*
X20064963Y-13920373D01*
X20082359Y-14097000D01*
X20064963Y-14273627D01*
X20013443Y-14443466D01*
X19929778Y-14599991D01*
X19900448Y-14635729D01*
X19817186Y-14737186D01*
X19715729Y-14820448D01*
X19679991Y-14849778D01*
X19523466Y-14933443D01*
X19353627Y-14984963D01*
X19287443Y-14991481D01*
X19221260Y-14998000D01*
X19132740Y-14998000D01*
X19066557Y-14991481D01*
X19000373Y-14984963D01*
X18830534Y-14933443D01*
X18674009Y-14849778D01*
X18638271Y-14820448D01*
X18536814Y-14737186D01*
X18453552Y-14635729D01*
X18424222Y-14599991D01*
X18340557Y-14443466D01*
X18289037Y-14273627D01*
X18271641Y-14097000D01*
X18289037Y-13920373D01*
X18340557Y-13750534D01*
X18424222Y-13594009D01*
X18453552Y-13558271D01*
X18536814Y-13456814D01*
X18638271Y-13373552D01*
X18674009Y-13344222D01*
X18830534Y-13260557D01*
X19000373Y-13209037D01*
X19066557Y-13202519D01*
X19132740Y-13196000D01*
X19221260Y-13196000D01*
X19287443Y-13202519D01*
X19287443Y-13202519D01*
G37*
G36*
X21827443Y-13202519D02*
G01*
X21893627Y-13209037D01*
X22063466Y-13260557D01*
X22219991Y-13344222D01*
X22255729Y-13373552D01*
X22357186Y-13456814D01*
X22440448Y-13558271D01*
X22469778Y-13594009D01*
X22553443Y-13750534D01*
X22604963Y-13920373D01*
X22622359Y-14097000D01*
X22604963Y-14273627D01*
X22553443Y-14443466D01*
X22469778Y-14599991D01*
X22440448Y-14635729D01*
X22357186Y-14737186D01*
X22255729Y-14820448D01*
X22219991Y-14849778D01*
X22063466Y-14933443D01*
X21893627Y-14984963D01*
X21827443Y-14991481D01*
X21761260Y-14998000D01*
X21672740Y-14998000D01*
X21606557Y-14991481D01*
X21540373Y-14984963D01*
X21370534Y-14933443D01*
X21214009Y-14849778D01*
X21178271Y-14820448D01*
X21076814Y-14737186D01*
X20993552Y-14635729D01*
X20964222Y-14599991D01*
X20880557Y-14443466D01*
X20829037Y-14273627D01*
X20811641Y-14097000D01*
X20829037Y-13920373D01*
X20880557Y-13750534D01*
X20964222Y-13594009D01*
X20993552Y-13558271D01*
X21076814Y-13456814D01*
X21178271Y-13373552D01*
X21214009Y-13344222D01*
X21370534Y-13260557D01*
X21540373Y-13209037D01*
X21606557Y-13202519D01*
X21672740Y-13196000D01*
X21761260Y-13196000D01*
X21827443Y-13202519D01*
X21827443Y-13202519D01*
G37*
G36*
X24367443Y-13202519D02*
G01*
X24433627Y-13209037D01*
X24603466Y-13260557D01*
X24759991Y-13344222D01*
X24795729Y-13373552D01*
X24897186Y-13456814D01*
X24980448Y-13558271D01*
X25009778Y-13594009D01*
X25093443Y-13750534D01*
X25144963Y-13920373D01*
X25162359Y-14097000D01*
X25144963Y-14273627D01*
X25093443Y-14443466D01*
X25009778Y-14599991D01*
X24980448Y-14635729D01*
X24897186Y-14737186D01*
X24795729Y-14820448D01*
X24759991Y-14849778D01*
X24603466Y-14933443D01*
X24433627Y-14984963D01*
X24367443Y-14991481D01*
X24301260Y-14998000D01*
X24212740Y-14998000D01*
X24146557Y-14991481D01*
X24080373Y-14984963D01*
X23910534Y-14933443D01*
X23754009Y-14849778D01*
X23718271Y-14820448D01*
X23616814Y-14737186D01*
X23533552Y-14635729D01*
X23504222Y-14599991D01*
X23420557Y-14443466D01*
X23369037Y-14273627D01*
X23351641Y-14097000D01*
X23369037Y-13920373D01*
X23420557Y-13750534D01*
X23504222Y-13594009D01*
X23533552Y-13558271D01*
X23616814Y-13456814D01*
X23718271Y-13373552D01*
X23754009Y-13344222D01*
X23910534Y-13260557D01*
X24080373Y-13209037D01*
X24146557Y-13202519D01*
X24212740Y-13196000D01*
X24301260Y-13196000D01*
X24367443Y-13202519D01*
X24367443Y-13202519D01*
G37*
G36*
X26907443Y-13202519D02*
G01*
X26973627Y-13209037D01*
X27143466Y-13260557D01*
X27299991Y-13344222D01*
X27335729Y-13373552D01*
X27437186Y-13456814D01*
X27520448Y-13558271D01*
X27549778Y-13594009D01*
X27633443Y-13750534D01*
X27684963Y-13920373D01*
X27702359Y-14097000D01*
X27684963Y-14273627D01*
X27633443Y-14443466D01*
X27549778Y-14599991D01*
X27520448Y-14635729D01*
X27437186Y-14737186D01*
X27335729Y-14820448D01*
X27299991Y-14849778D01*
X27143466Y-14933443D01*
X26973627Y-14984963D01*
X26907443Y-14991481D01*
X26841260Y-14998000D01*
X26752740Y-14998000D01*
X26686557Y-14991481D01*
X26620373Y-14984963D01*
X26450534Y-14933443D01*
X26294009Y-14849778D01*
X26258271Y-14820448D01*
X26156814Y-14737186D01*
X26073552Y-14635729D01*
X26044222Y-14599991D01*
X25960557Y-14443466D01*
X25909037Y-14273627D01*
X25891641Y-14097000D01*
X25909037Y-13920373D01*
X25960557Y-13750534D01*
X26044222Y-13594009D01*
X26073552Y-13558271D01*
X26156814Y-13456814D01*
X26258271Y-13373552D01*
X26294009Y-13344222D01*
X26450534Y-13260557D01*
X26620373Y-13209037D01*
X26686557Y-13202519D01*
X26752740Y-13196000D01*
X26841260Y-13196000D01*
X26907443Y-13202519D01*
X26907443Y-13202519D01*
G37*
G36*
X15943999Y-11494666D02*
G01*
X15164767Y-12273898D01*
X14385535Y-11494666D01*
X15164767Y-10715434D01*
X15943999Y-11494666D01*
X15943999Y-11494666D01*
G37*
G36*
X17148977Y-10965855D02*
G01*
X17182955Y-10976163D01*
X17214276Y-10992904D01*
X17246490Y-11019342D01*
X17286341Y-11059193D01*
X17286347Y-11059198D01*
X17684802Y-11457653D01*
X17684807Y-11457659D01*
X17724658Y-11497510D01*
X17751096Y-11529724D01*
X17767837Y-11561045D01*
X17778145Y-11595023D01*
X17781625Y-11630364D01*
X17778145Y-11665705D01*
X17767837Y-11699683D01*
X17751096Y-11731004D01*
X17724658Y-11763218D01*
X17684807Y-11803069D01*
X17684802Y-11803075D01*
X17339381Y-12148496D01*
X17339375Y-12148501D01*
X17299524Y-12188352D01*
X17267310Y-12214790D01*
X17235989Y-12231531D01*
X17202011Y-12241839D01*
X17166670Y-12245319D01*
X17131329Y-12241839D01*
X17097351Y-12231531D01*
X17066030Y-12214790D01*
X17033816Y-12188352D01*
X16993965Y-12148501D01*
X16993959Y-12148496D01*
X16595504Y-11750041D01*
X16595499Y-11750035D01*
X16555648Y-11710184D01*
X16529210Y-11677970D01*
X16512469Y-11646649D01*
X16502161Y-11612671D01*
X16498681Y-11577330D01*
X16502161Y-11541989D01*
X16512469Y-11508011D01*
X16529210Y-11476690D01*
X16555648Y-11444476D01*
X16595499Y-11404625D01*
X16595504Y-11404619D01*
X16940925Y-11059198D01*
X16940931Y-11059193D01*
X16980782Y-11019342D01*
X17012996Y-10992904D01*
X17044317Y-10976163D01*
X17078295Y-10965855D01*
X17113636Y-10962375D01*
X17148977Y-10965855D01*
X17148977Y-10965855D01*
G37*
G36*
X35198000Y-12048000D02*
G01*
X34096000Y-12048000D01*
X34096000Y-10046000D01*
X35198000Y-10046000D01*
X35198000Y-12048000D01*
X35198000Y-12048000D01*
G37*
G36*
X36698000Y-12048000D02*
G01*
X35596000Y-12048000D01*
X35596000Y-10046000D01*
X36698000Y-10046000D01*
X36698000Y-12048000D01*
X36698000Y-12048000D01*
G37*
G36*
X43148000Y-11988000D02*
G01*
X41046000Y-11988000D01*
X41046000Y-3506000D01*
X43148000Y-3506000D01*
X43148000Y-11988000D01*
X43148000Y-11988000D01*
G37*
G36*
X55278938Y-11288716D02*
G01*
X55299557Y-11294971D01*
X55318553Y-11305124D01*
X55335208Y-11318792D01*
X55348876Y-11335447D01*
X55359029Y-11354443D01*
X55365284Y-11375062D01*
X55368000Y-11402640D01*
X55368000Y-11861360D01*
X55365284Y-11888938D01*
X55359029Y-11909557D01*
X55348876Y-11928553D01*
X55335208Y-11945208D01*
X55318553Y-11958876D01*
X55299557Y-11969029D01*
X55278938Y-11975284D01*
X55251360Y-11978000D01*
X54742640Y-11978000D01*
X54715062Y-11975284D01*
X54694443Y-11969029D01*
X54675447Y-11958876D01*
X54658792Y-11945208D01*
X54645124Y-11928553D01*
X54634971Y-11909557D01*
X54628716Y-11888938D01*
X54626000Y-11861360D01*
X54626000Y-11402640D01*
X54628716Y-11375062D01*
X54634971Y-11354443D01*
X54645124Y-11335447D01*
X54658792Y-11318792D01*
X54675447Y-11305124D01*
X54694443Y-11294971D01*
X54715062Y-11288716D01*
X54742640Y-11286000D01*
X55251360Y-11286000D01*
X55278938Y-11288716D01*
X55278938Y-11288716D01*
G37*
G36*
X60635500Y-11208886D02*
G01*
X60636102Y-11221138D01*
X60638649Y-11247000D01*
X60636102Y-11272862D01*
X60635500Y-11285114D01*
X60635500Y-11358406D01*
X60626543Y-11375164D01*
X60622415Y-11386701D01*
X60600483Y-11459000D01*
X60588854Y-11497336D01*
X60528406Y-11610425D01*
X60447054Y-11709554D01*
X60347925Y-11790906D01*
X60234836Y-11851354D01*
X60202904Y-11861040D01*
X60112118Y-11888580D01*
X60048355Y-11894860D01*
X60016474Y-11898000D01*
X59252526Y-11898000D01*
X59220645Y-11894860D01*
X59156882Y-11888580D01*
X59066096Y-11861040D01*
X59034164Y-11851354D01*
X58921075Y-11790906D01*
X58821946Y-11709554D01*
X58740594Y-11610425D01*
X58680146Y-11497336D01*
X58668517Y-11459000D01*
X58646587Y-11386708D01*
X58637213Y-11364075D01*
X58633500Y-11358518D01*
X58633500Y-11285114D01*
X58632898Y-11272862D01*
X58630351Y-11247000D01*
X58632898Y-11221138D01*
X58633500Y-11208886D01*
X58633500Y-9996000D01*
X60635500Y-9996000D01*
X60635500Y-11208886D01*
X60635500Y-11208886D01*
G37*
G36*
X2560500Y-11208886D02*
G01*
X2561102Y-11221138D01*
X2563649Y-11247000D01*
X2561102Y-11272862D01*
X2560500Y-11285114D01*
X2560500Y-11358406D01*
X2551543Y-11375164D01*
X2547415Y-11386701D01*
X2525483Y-11459000D01*
X2513854Y-11497336D01*
X2453406Y-11610425D01*
X2372054Y-11709554D01*
X2272925Y-11790906D01*
X2159836Y-11851354D01*
X2127904Y-11861040D01*
X2037118Y-11888580D01*
X1973355Y-11894860D01*
X1941474Y-11898000D01*
X1177526Y-11898000D01*
X1145645Y-11894860D01*
X1081882Y-11888580D01*
X991096Y-11861040D01*
X959164Y-11851354D01*
X846075Y-11790906D01*
X746946Y-11709554D01*
X665594Y-11610425D01*
X605146Y-11497336D01*
X593517Y-11459000D01*
X571587Y-11386708D01*
X562213Y-11364075D01*
X558500Y-11358518D01*
X558500Y-11285114D01*
X557898Y-11272862D01*
X555351Y-11247000D01*
X557898Y-11221138D01*
X558500Y-11208886D01*
X558500Y-9996000D01*
X2560500Y-9996000D01*
X2560500Y-11208886D01*
X2560500Y-11208886D01*
G37*
G36*
X40126591Y-10825085D02*
G01*
X40160569Y-10835393D01*
X40191890Y-10852134D01*
X40219339Y-10874661D01*
X40241866Y-10902110D01*
X40258607Y-10933431D01*
X40268915Y-10967409D01*
X40273000Y-11008890D01*
X40273000Y-11685110D01*
X40268915Y-11726591D01*
X40258607Y-11760569D01*
X40241866Y-11791890D01*
X40219339Y-11819339D01*
X40191890Y-11841866D01*
X40160569Y-11858607D01*
X40126591Y-11868915D01*
X40085110Y-11873000D01*
X39483890Y-11873000D01*
X39442409Y-11868915D01*
X39408431Y-11858607D01*
X39377110Y-11841866D01*
X39349661Y-11819339D01*
X39327134Y-11791890D01*
X39310393Y-11760569D01*
X39300085Y-11726591D01*
X39296000Y-11685110D01*
X39296000Y-11008890D01*
X39300085Y-10967409D01*
X39310393Y-10933431D01*
X39327134Y-10902110D01*
X39349661Y-10874661D01*
X39377110Y-10852134D01*
X39408431Y-10835393D01*
X39442409Y-10825085D01*
X39483890Y-10821000D01*
X40085110Y-10821000D01*
X40126591Y-10825085D01*
X40126591Y-10825085D01*
G37*
G36*
X38551591Y-10825085D02*
G01*
X38585569Y-10835393D01*
X38616890Y-10852134D01*
X38644339Y-10874661D01*
X38666866Y-10902110D01*
X38683607Y-10933431D01*
X38693915Y-10967409D01*
X38698000Y-11008890D01*
X38698000Y-11685110D01*
X38693915Y-11726591D01*
X38683607Y-11760569D01*
X38666866Y-11791890D01*
X38644339Y-11819339D01*
X38616890Y-11841866D01*
X38585569Y-11858607D01*
X38551591Y-11868915D01*
X38510110Y-11873000D01*
X37908890Y-11873000D01*
X37867409Y-11868915D01*
X37833431Y-11858607D01*
X37802110Y-11841866D01*
X37774661Y-11819339D01*
X37752134Y-11791890D01*
X37735393Y-11760569D01*
X37725085Y-11726591D01*
X37721000Y-11685110D01*
X37721000Y-11008890D01*
X37725085Y-10967409D01*
X37735393Y-10933431D01*
X37752134Y-10902110D01*
X37774661Y-10874661D01*
X37802110Y-10852134D01*
X37833431Y-10835393D01*
X37867409Y-10825085D01*
X37908890Y-10821000D01*
X38510110Y-10821000D01*
X38551591Y-10825085D01*
X38551591Y-10825085D01*
G37*
G36*
X7948000Y-11798000D02*
G01*
X5846000Y-11798000D01*
X5846000Y-9696000D01*
X7948000Y-9696000D01*
X7948000Y-11798000D01*
X7948000Y-11798000D01*
G37*
G36*
X47302355Y-3822083D02*
G01*
X47307029Y-3823501D01*
X47311330Y-3825800D01*
X47317702Y-3831029D01*
X47338076Y-3844643D01*
X47360715Y-3854020D01*
X47384749Y-3858800D01*
X47409253Y-3858800D01*
X47433286Y-3854019D01*
X47455925Y-3844642D01*
X47476298Y-3831029D01*
X47482670Y-3825800D01*
X47486971Y-3823501D01*
X47491645Y-3822083D01*
X47502641Y-3821000D01*
X47791359Y-3821000D01*
X47802355Y-3822083D01*
X47807029Y-3823501D01*
X47811330Y-3825800D01*
X47817702Y-3831029D01*
X47838076Y-3844643D01*
X47860715Y-3854020D01*
X47884749Y-3858800D01*
X47909253Y-3858800D01*
X47933286Y-3854019D01*
X47955925Y-3844642D01*
X47976298Y-3831029D01*
X47982670Y-3825800D01*
X47986971Y-3823501D01*
X47991645Y-3822083D01*
X48002641Y-3821000D01*
X48291359Y-3821000D01*
X48302355Y-3822083D01*
X48307029Y-3823501D01*
X48311330Y-3825800D01*
X48317702Y-3831029D01*
X48338076Y-3844643D01*
X48360715Y-3854020D01*
X48384749Y-3858800D01*
X48409253Y-3858800D01*
X48433286Y-3854019D01*
X48455925Y-3844642D01*
X48476298Y-3831029D01*
X48482670Y-3825800D01*
X48486971Y-3823501D01*
X48491645Y-3822083D01*
X48502641Y-3821000D01*
X48791359Y-3821000D01*
X48802355Y-3822083D01*
X48807029Y-3823501D01*
X48811330Y-3825800D01*
X48817702Y-3831029D01*
X48838076Y-3844643D01*
X48860715Y-3854020D01*
X48884749Y-3858800D01*
X48909253Y-3858800D01*
X48933286Y-3854019D01*
X48955925Y-3844642D01*
X48976298Y-3831029D01*
X48982670Y-3825800D01*
X48986971Y-3823501D01*
X48991645Y-3822083D01*
X49002641Y-3821000D01*
X49291359Y-3821000D01*
X49302355Y-3822083D01*
X49307029Y-3823501D01*
X49311330Y-3825800D01*
X49317702Y-3831029D01*
X49338076Y-3844643D01*
X49360715Y-3854020D01*
X49384749Y-3858800D01*
X49409253Y-3858800D01*
X49433286Y-3854019D01*
X49455925Y-3844642D01*
X49476298Y-3831029D01*
X49482670Y-3825800D01*
X49486971Y-3823501D01*
X49491645Y-3822083D01*
X49502641Y-3821000D01*
X49791359Y-3821000D01*
X49802355Y-3822083D01*
X49807029Y-3823501D01*
X49811330Y-3825800D01*
X49817702Y-3831029D01*
X49838076Y-3844643D01*
X49860715Y-3854020D01*
X49884749Y-3858800D01*
X49909253Y-3858800D01*
X49933286Y-3854019D01*
X49955925Y-3844642D01*
X49976298Y-3831029D01*
X49982670Y-3825800D01*
X49986971Y-3823501D01*
X49991645Y-3822083D01*
X50002641Y-3821000D01*
X50291359Y-3821000D01*
X50302355Y-3822083D01*
X50307029Y-3823501D01*
X50311330Y-3825800D01*
X50317702Y-3831029D01*
X50338076Y-3844643D01*
X50360715Y-3854020D01*
X50384749Y-3858800D01*
X50409253Y-3858800D01*
X50433286Y-3854019D01*
X50455925Y-3844642D01*
X50476298Y-3831029D01*
X50482670Y-3825800D01*
X50486971Y-3823501D01*
X50491645Y-3822083D01*
X50502641Y-3821000D01*
X50791359Y-3821000D01*
X50802355Y-3822083D01*
X50807029Y-3823501D01*
X50811330Y-3825800D01*
X50817702Y-3831029D01*
X50838076Y-3844643D01*
X50860715Y-3854020D01*
X50884749Y-3858800D01*
X50909253Y-3858800D01*
X50933286Y-3854019D01*
X50955925Y-3844642D01*
X50976298Y-3831029D01*
X50982670Y-3825800D01*
X50986971Y-3823501D01*
X50991645Y-3822083D01*
X51002641Y-3821000D01*
X51291359Y-3821000D01*
X51302355Y-3822083D01*
X51307029Y-3823501D01*
X51311330Y-3825800D01*
X51317702Y-3831029D01*
X51338076Y-3844643D01*
X51360715Y-3854020D01*
X51384749Y-3858800D01*
X51409253Y-3858800D01*
X51433286Y-3854019D01*
X51455925Y-3844642D01*
X51476298Y-3831029D01*
X51482670Y-3825800D01*
X51486971Y-3823501D01*
X51491645Y-3822083D01*
X51502641Y-3821000D01*
X51791359Y-3821000D01*
X51802355Y-3822083D01*
X51807029Y-3823501D01*
X51811330Y-3825800D01*
X51817702Y-3831029D01*
X51838076Y-3844643D01*
X51860715Y-3854020D01*
X51884749Y-3858800D01*
X51909253Y-3858800D01*
X51933286Y-3854019D01*
X51955925Y-3844642D01*
X51976298Y-3831029D01*
X51982670Y-3825800D01*
X51986971Y-3823501D01*
X51991645Y-3822083D01*
X52002641Y-3821000D01*
X52291359Y-3821000D01*
X52302355Y-3822083D01*
X52307029Y-3823501D01*
X52311330Y-3825800D01*
X52317702Y-3831029D01*
X52338076Y-3844643D01*
X52360715Y-3854020D01*
X52384749Y-3858800D01*
X52409253Y-3858800D01*
X52433286Y-3854019D01*
X52455925Y-3844642D01*
X52476298Y-3831029D01*
X52482670Y-3825800D01*
X52486971Y-3823501D01*
X52491645Y-3822083D01*
X52502641Y-3821000D01*
X52791359Y-3821000D01*
X52802355Y-3822083D01*
X52807029Y-3823501D01*
X52811331Y-3825800D01*
X52815104Y-3828896D01*
X52818200Y-3832669D01*
X52820499Y-3836971D01*
X52821917Y-3841645D01*
X52823000Y-3852641D01*
X52823000Y-4696001D01*
X52825402Y-4720387D01*
X52832515Y-4743836D01*
X52844066Y-4765447D01*
X52859611Y-4784389D01*
X52878553Y-4799934D01*
X52900164Y-4811485D01*
X52923613Y-4818598D01*
X52947999Y-4821000D01*
X53791359Y-4821000D01*
X53802355Y-4822083D01*
X53807029Y-4823501D01*
X53811331Y-4825800D01*
X53815104Y-4828896D01*
X53818200Y-4832669D01*
X53820499Y-4836971D01*
X53821917Y-4841645D01*
X53823000Y-4852641D01*
X53823000Y-5141359D01*
X53821917Y-5152355D01*
X53820499Y-5157029D01*
X53818200Y-5161330D01*
X53812971Y-5167702D01*
X53799357Y-5188076D01*
X53789980Y-5210715D01*
X53785200Y-5234749D01*
X53785200Y-5259253D01*
X53789981Y-5283286D01*
X53799358Y-5305925D01*
X53812971Y-5326298D01*
X53818200Y-5332670D01*
X53820499Y-5336971D01*
X53821917Y-5341645D01*
X53823000Y-5352641D01*
X53823000Y-5641359D01*
X53821917Y-5652355D01*
X53820499Y-5657029D01*
X53818200Y-5661330D01*
X53812971Y-5667702D01*
X53799357Y-5688076D01*
X53789980Y-5710715D01*
X53785200Y-5734749D01*
X53785200Y-5759253D01*
X53789981Y-5783286D01*
X53799358Y-5805925D01*
X53812971Y-5826298D01*
X53818200Y-5832670D01*
X53820499Y-5836971D01*
X53821917Y-5841645D01*
X53823000Y-5852641D01*
X53823000Y-6141359D01*
X53821917Y-6152355D01*
X53820499Y-6157029D01*
X53818200Y-6161330D01*
X53812971Y-6167702D01*
X53799357Y-6188076D01*
X53789980Y-6210715D01*
X53785200Y-6234749D01*
X53785200Y-6259253D01*
X53789981Y-6283286D01*
X53799358Y-6305925D01*
X53812971Y-6326298D01*
X53818200Y-6332670D01*
X53820499Y-6336971D01*
X53821917Y-6341645D01*
X53823000Y-6352641D01*
X53823000Y-6641359D01*
X53821917Y-6652355D01*
X53820499Y-6657029D01*
X53818200Y-6661330D01*
X53812971Y-6667702D01*
X53799357Y-6688076D01*
X53789980Y-6710715D01*
X53785200Y-6734749D01*
X53785200Y-6759253D01*
X53789981Y-6783286D01*
X53799358Y-6805925D01*
X53812971Y-6826298D01*
X53818200Y-6832670D01*
X53820499Y-6836971D01*
X53821917Y-6841645D01*
X53823000Y-6852641D01*
X53823000Y-7141359D01*
X53821917Y-7152355D01*
X53820499Y-7157029D01*
X53818200Y-7161330D01*
X53812971Y-7167702D01*
X53799357Y-7188076D01*
X53789980Y-7210715D01*
X53785200Y-7234749D01*
X53785200Y-7259253D01*
X53789981Y-7283286D01*
X53799358Y-7305925D01*
X53812971Y-7326298D01*
X53818200Y-7332670D01*
X53820499Y-7336971D01*
X53821917Y-7341645D01*
X53823000Y-7352641D01*
X53823000Y-7641359D01*
X53821917Y-7652355D01*
X53820499Y-7657029D01*
X53818200Y-7661330D01*
X53812971Y-7667702D01*
X53799357Y-7688076D01*
X53789980Y-7710715D01*
X53785200Y-7734749D01*
X53785200Y-7759253D01*
X53789981Y-7783286D01*
X53799358Y-7805925D01*
X53812971Y-7826298D01*
X53818200Y-7832670D01*
X53820499Y-7836971D01*
X53821917Y-7841645D01*
X53823000Y-7852641D01*
X53823000Y-8141359D01*
X53821917Y-8152355D01*
X53820499Y-8157029D01*
X53818200Y-8161330D01*
X53812971Y-8167702D01*
X53799357Y-8188076D01*
X53789980Y-8210715D01*
X53785200Y-8234749D01*
X53785200Y-8259253D01*
X53789981Y-8283286D01*
X53799358Y-8305925D01*
X53812971Y-8326298D01*
X53818200Y-8332670D01*
X53820499Y-8336971D01*
X53821917Y-8341645D01*
X53823000Y-8352641D01*
X53823000Y-8641359D01*
X53821917Y-8652355D01*
X53820499Y-8657029D01*
X53818200Y-8661330D01*
X53812971Y-8667702D01*
X53799357Y-8688076D01*
X53789980Y-8710715D01*
X53785200Y-8734749D01*
X53785200Y-8759253D01*
X53789981Y-8783286D01*
X53799358Y-8805925D01*
X53812971Y-8826298D01*
X53818200Y-8832670D01*
X53820499Y-8836971D01*
X53821917Y-8841645D01*
X53823000Y-8852641D01*
X53823000Y-9141359D01*
X53821917Y-9152355D01*
X53820499Y-9157029D01*
X53818200Y-9161330D01*
X53812971Y-9167702D01*
X53799357Y-9188076D01*
X53789980Y-9210715D01*
X53785200Y-9234749D01*
X53785200Y-9259253D01*
X53789981Y-9283286D01*
X53799358Y-9305925D01*
X53812971Y-9326298D01*
X53818200Y-9332670D01*
X53820499Y-9336971D01*
X53821917Y-9341645D01*
X53823000Y-9352641D01*
X53823000Y-9641359D01*
X53821917Y-9652355D01*
X53820499Y-9657029D01*
X53818200Y-9661330D01*
X53812971Y-9667702D01*
X53799357Y-9688076D01*
X53789980Y-9710715D01*
X53785200Y-9734749D01*
X53785200Y-9759253D01*
X53789981Y-9783286D01*
X53799358Y-9805925D01*
X53812971Y-9826298D01*
X53818200Y-9832670D01*
X53820499Y-9836971D01*
X53821917Y-9841645D01*
X53823000Y-9852641D01*
X53823000Y-10141359D01*
X53821917Y-10152355D01*
X53820499Y-10157029D01*
X53818200Y-10161330D01*
X53812971Y-10167702D01*
X53799357Y-10188076D01*
X53789980Y-10210715D01*
X53785200Y-10234749D01*
X53785200Y-10259253D01*
X53789981Y-10283286D01*
X53799358Y-10305925D01*
X53812971Y-10326298D01*
X53818200Y-10332670D01*
X53820499Y-10336971D01*
X53821917Y-10341645D01*
X53823000Y-10352641D01*
X53823000Y-10641359D01*
X53821917Y-10652355D01*
X53820499Y-10657029D01*
X53818200Y-10661331D01*
X53815104Y-10665104D01*
X53811331Y-10668200D01*
X53807029Y-10670499D01*
X53802355Y-10671917D01*
X53791359Y-10673000D01*
X52947999Y-10673000D01*
X52923613Y-10675402D01*
X52900164Y-10682515D01*
X52878553Y-10694066D01*
X52859611Y-10709611D01*
X52844066Y-10728553D01*
X52832515Y-10750164D01*
X52825402Y-10773613D01*
X52823000Y-10797999D01*
X52823000Y-11641359D01*
X52821917Y-11652355D01*
X52820499Y-11657029D01*
X52818200Y-11661331D01*
X52815104Y-11665104D01*
X52811331Y-11668200D01*
X52807029Y-11670499D01*
X52802355Y-11671917D01*
X52791359Y-11673000D01*
X52502641Y-11673000D01*
X52491645Y-11671917D01*
X52486971Y-11670499D01*
X52482670Y-11668200D01*
X52476298Y-11662971D01*
X52455924Y-11649357D01*
X52433285Y-11639980D01*
X52409251Y-11635200D01*
X52384747Y-11635200D01*
X52360714Y-11639981D01*
X52338075Y-11649358D01*
X52317702Y-11662971D01*
X52311330Y-11668200D01*
X52307029Y-11670499D01*
X52302355Y-11671917D01*
X52291359Y-11673000D01*
X52002641Y-11673000D01*
X51991645Y-11671917D01*
X51986971Y-11670499D01*
X51982670Y-11668200D01*
X51976298Y-11662971D01*
X51955924Y-11649357D01*
X51933285Y-11639980D01*
X51909251Y-11635200D01*
X51884747Y-11635200D01*
X51860714Y-11639981D01*
X51838075Y-11649358D01*
X51817702Y-11662971D01*
X51811330Y-11668200D01*
X51807029Y-11670499D01*
X51802355Y-11671917D01*
X51791359Y-11673000D01*
X51502641Y-11673000D01*
X51491645Y-11671917D01*
X51486971Y-11670499D01*
X51482670Y-11668200D01*
X51476298Y-11662971D01*
X51455924Y-11649357D01*
X51433285Y-11639980D01*
X51409251Y-11635200D01*
X51384747Y-11635200D01*
X51360714Y-11639981D01*
X51338075Y-11649358D01*
X51317702Y-11662971D01*
X51311330Y-11668200D01*
X51307029Y-11670499D01*
X51302355Y-11671917D01*
X51291359Y-11673000D01*
X51002641Y-11673000D01*
X50991645Y-11671917D01*
X50986971Y-11670499D01*
X50982670Y-11668200D01*
X50976298Y-11662971D01*
X50955924Y-11649357D01*
X50933285Y-11639980D01*
X50909251Y-11635200D01*
X50884747Y-11635200D01*
X50860714Y-11639981D01*
X50838075Y-11649358D01*
X50817702Y-11662971D01*
X50811330Y-11668200D01*
X50807029Y-11670499D01*
X50802355Y-11671917D01*
X50791359Y-11673000D01*
X50502641Y-11673000D01*
X50491645Y-11671917D01*
X50486971Y-11670499D01*
X50482670Y-11668200D01*
X50476298Y-11662971D01*
X50455924Y-11649357D01*
X50433285Y-11639980D01*
X50409251Y-11635200D01*
X50384747Y-11635200D01*
X50360714Y-11639981D01*
X50338075Y-11649358D01*
X50317702Y-11662971D01*
X50311330Y-11668200D01*
X50307029Y-11670499D01*
X50302355Y-11671917D01*
X50291359Y-11673000D01*
X50002641Y-11673000D01*
X49991645Y-11671917D01*
X49986971Y-11670499D01*
X49982670Y-11668200D01*
X49976298Y-11662971D01*
X49955924Y-11649357D01*
X49933285Y-11639980D01*
X49909251Y-11635200D01*
X49884747Y-11635200D01*
X49860714Y-11639981D01*
X49838075Y-11649358D01*
X49817702Y-11662971D01*
X49811330Y-11668200D01*
X49807029Y-11670499D01*
X49802355Y-11671917D01*
X49791359Y-11673000D01*
X49502641Y-11673000D01*
X49491645Y-11671917D01*
X49486971Y-11670499D01*
X49482670Y-11668200D01*
X49476298Y-11662971D01*
X49455924Y-11649357D01*
X49433285Y-11639980D01*
X49409251Y-11635200D01*
X49384747Y-11635200D01*
X49360714Y-11639981D01*
X49338075Y-11649358D01*
X49317702Y-11662971D01*
X49311330Y-11668200D01*
X49307029Y-11670499D01*
X49302355Y-11671917D01*
X49291359Y-11673000D01*
X49002641Y-11673000D01*
X48991645Y-11671917D01*
X48986971Y-11670499D01*
X48982670Y-11668200D01*
X48976298Y-11662971D01*
X48955924Y-11649357D01*
X48933285Y-11639980D01*
X48909251Y-11635200D01*
X48884747Y-11635200D01*
X48860714Y-11639981D01*
X48838075Y-11649358D01*
X48817702Y-11662971D01*
X48811330Y-11668200D01*
X48807029Y-11670499D01*
X48802355Y-11671917D01*
X48791359Y-11673000D01*
X48502641Y-11673000D01*
X48491645Y-11671917D01*
X48486971Y-11670499D01*
X48482670Y-11668200D01*
X48476298Y-11662971D01*
X48455924Y-11649357D01*
X48433285Y-11639980D01*
X48409251Y-11635200D01*
X48384747Y-11635200D01*
X48360714Y-11639981D01*
X48338075Y-11649358D01*
X48317702Y-11662971D01*
X48311330Y-11668200D01*
X48307029Y-11670499D01*
X48302355Y-11671917D01*
X48291359Y-11673000D01*
X48002641Y-11673000D01*
X47991645Y-11671917D01*
X47986971Y-11670499D01*
X47982670Y-11668200D01*
X47976298Y-11662971D01*
X47955924Y-11649357D01*
X47933285Y-11639980D01*
X47909251Y-11635200D01*
X47884747Y-11635200D01*
X47860714Y-11639981D01*
X47838075Y-11649358D01*
X47817702Y-11662971D01*
X47811330Y-11668200D01*
X47807029Y-11670499D01*
X47802355Y-11671917D01*
X47791359Y-11673000D01*
X47502641Y-11673000D01*
X47491645Y-11671917D01*
X47486971Y-11670499D01*
X47482670Y-11668200D01*
X47476298Y-11662971D01*
X47455924Y-11649357D01*
X47433285Y-11639980D01*
X47409251Y-11635200D01*
X47384747Y-11635200D01*
X47360714Y-11639981D01*
X47338075Y-11649358D01*
X47317702Y-11662971D01*
X47311330Y-11668200D01*
X47307029Y-11670499D01*
X47302355Y-11671917D01*
X47291359Y-11673000D01*
X47002641Y-11673000D01*
X46991645Y-11671917D01*
X46986971Y-11670499D01*
X46982669Y-11668200D01*
X46978896Y-11665104D01*
X46975800Y-11661331D01*
X46973501Y-11657029D01*
X46972083Y-11652355D01*
X46971000Y-11641359D01*
X46971000Y-10797999D01*
X46968598Y-10773613D01*
X46961485Y-10750164D01*
X46949934Y-10728553D01*
X46934389Y-10709611D01*
X46915447Y-10694066D01*
X46893836Y-10682515D01*
X46870387Y-10675402D01*
X46846001Y-10673000D01*
X46002641Y-10673000D01*
X45991645Y-10671917D01*
X45986971Y-10670499D01*
X45982669Y-10668200D01*
X45978896Y-10665104D01*
X45975800Y-10661331D01*
X45973501Y-10657029D01*
X45972083Y-10652355D01*
X45971000Y-10641359D01*
X45971000Y-10352641D01*
X45972083Y-10341645D01*
X45973501Y-10336971D01*
X45975800Y-10332670D01*
X45981029Y-10326298D01*
X45994643Y-10305924D01*
X46004020Y-10283285D01*
X46008800Y-10259251D01*
X46008800Y-10234747D01*
X46004019Y-10210714D01*
X45994642Y-10188075D01*
X45981029Y-10167702D01*
X45975800Y-10161330D01*
X45973501Y-10157029D01*
X45972083Y-10152355D01*
X45971000Y-10141359D01*
X45971000Y-9852641D01*
X45972083Y-9841645D01*
X45973501Y-9836971D01*
X45975800Y-9832670D01*
X45981029Y-9826298D01*
X45994643Y-9805924D01*
X46004020Y-9783285D01*
X46008800Y-9759251D01*
X46008800Y-9734747D01*
X46004019Y-9710714D01*
X45994642Y-9688075D01*
X45981029Y-9667702D01*
X45975800Y-9661330D01*
X45973501Y-9657029D01*
X45972083Y-9652355D01*
X45971000Y-9641359D01*
X45971000Y-9352641D01*
X45972083Y-9341645D01*
X45973501Y-9336971D01*
X45975800Y-9332670D01*
X45981029Y-9326298D01*
X45994643Y-9305924D01*
X46004020Y-9283285D01*
X46008800Y-9259251D01*
X46008800Y-9234747D01*
X46004019Y-9210714D01*
X45994642Y-9188075D01*
X45981029Y-9167702D01*
X45975800Y-9161330D01*
X45973501Y-9157029D01*
X45972083Y-9152355D01*
X45971000Y-9141359D01*
X45971000Y-8852641D01*
X45972083Y-8841645D01*
X45973501Y-8836971D01*
X45975800Y-8832670D01*
X45981029Y-8826298D01*
X45994643Y-8805924D01*
X46004020Y-8783285D01*
X46008800Y-8759251D01*
X46008800Y-8734747D01*
X46004019Y-8710714D01*
X45994642Y-8688075D01*
X45981029Y-8667702D01*
X45975800Y-8661330D01*
X45973501Y-8657029D01*
X45972083Y-8652355D01*
X45971000Y-8641359D01*
X45971000Y-8352641D01*
X45972083Y-8341645D01*
X45973501Y-8336971D01*
X45975800Y-8332670D01*
X45981029Y-8326298D01*
X45994643Y-8305924D01*
X46004020Y-8283285D01*
X46008800Y-8259251D01*
X46008800Y-8234747D01*
X46004019Y-8210714D01*
X45994642Y-8188075D01*
X45981029Y-8167702D01*
X45975800Y-8161330D01*
X45973501Y-8157029D01*
X45972083Y-8152355D01*
X45971000Y-8141359D01*
X45971000Y-7852641D01*
X45972083Y-7841645D01*
X45973501Y-7836971D01*
X45975800Y-7832670D01*
X45981029Y-7826298D01*
X45994643Y-7805924D01*
X46004020Y-7783285D01*
X46008800Y-7759251D01*
X46008800Y-7734747D01*
X46004019Y-7710714D01*
X45994642Y-7688075D01*
X45981029Y-7667702D01*
X45975800Y-7661330D01*
X45973501Y-7657029D01*
X45972083Y-7652355D01*
X45971000Y-7641359D01*
X45971000Y-7352641D01*
X45972083Y-7341645D01*
X45973501Y-7336971D01*
X45975800Y-7332670D01*
X45981029Y-7326298D01*
X45994643Y-7305924D01*
X46004020Y-7283285D01*
X46008800Y-7259251D01*
X46008800Y-7234747D01*
X46004019Y-7210714D01*
X45994642Y-7188075D01*
X45981029Y-7167702D01*
X45975800Y-7161330D01*
X45973501Y-7157029D01*
X45972083Y-7152355D01*
X45971000Y-7141359D01*
X45971000Y-6852641D01*
X45972083Y-6841645D01*
X45973501Y-6836971D01*
X45975800Y-6832670D01*
X45981029Y-6826298D01*
X45994643Y-6805924D01*
X46004020Y-6783285D01*
X46008800Y-6759251D01*
X46008800Y-6734747D01*
X46004019Y-6710714D01*
X45994642Y-6688075D01*
X45981029Y-6667702D01*
X45975800Y-6661330D01*
X45973501Y-6657029D01*
X45972083Y-6652355D01*
X45971000Y-6641359D01*
X45971000Y-6352641D01*
X45972083Y-6341645D01*
X45973501Y-6336971D01*
X45975800Y-6332670D01*
X45981029Y-6326298D01*
X45994643Y-6305924D01*
X46004020Y-6283285D01*
X46008800Y-6259251D01*
X46008800Y-6234747D01*
X46004019Y-6210714D01*
X45994642Y-6188075D01*
X45981029Y-6167702D01*
X45975800Y-6161330D01*
X45973501Y-6157029D01*
X45972083Y-6152355D01*
X45971000Y-6141359D01*
X45971000Y-5852641D01*
X45972083Y-5841645D01*
X45973501Y-5836971D01*
X45975800Y-5832670D01*
X45981029Y-5826298D01*
X45994643Y-5805924D01*
X46004020Y-5783285D01*
X46008800Y-5759251D01*
X46008800Y-5734747D01*
X46004019Y-5710714D01*
X45994642Y-5688075D01*
X45981029Y-5667702D01*
X45975800Y-5661330D01*
X45973501Y-5657029D01*
X45972083Y-5652355D01*
X45971000Y-5641359D01*
X45971000Y-5352641D01*
X45972083Y-5341645D01*
X45973501Y-5336971D01*
X45975800Y-5332670D01*
X45981029Y-5326298D01*
X45994643Y-5305924D01*
X46004020Y-5283285D01*
X46008800Y-5259251D01*
X46008800Y-5234749D01*
X46910200Y-5234749D01*
X46910200Y-5259253D01*
X46914981Y-5283286D01*
X46924358Y-5305925D01*
X46937971Y-5326298D01*
X46943200Y-5332670D01*
X46945499Y-5336971D01*
X46946917Y-5341645D01*
X46948000Y-5352641D01*
X46948000Y-5641359D01*
X46946917Y-5652355D01*
X46945499Y-5657029D01*
X46943200Y-5661330D01*
X46937971Y-5667702D01*
X46924357Y-5688076D01*
X46914980Y-5710715D01*
X46910200Y-5734749D01*
X46910200Y-5759253D01*
X46914981Y-5783286D01*
X46924358Y-5805925D01*
X46937971Y-5826298D01*
X46943200Y-5832670D01*
X46945499Y-5836971D01*
X46946917Y-5841645D01*
X46948000Y-5852641D01*
X46948000Y-6141359D01*
X46946917Y-6152355D01*
X46945499Y-6157029D01*
X46943200Y-6161330D01*
X46937971Y-6167702D01*
X46924357Y-6188076D01*
X46914980Y-6210715D01*
X46910200Y-6234749D01*
X46910200Y-6259253D01*
X46914981Y-6283286D01*
X46924358Y-6305925D01*
X46937971Y-6326298D01*
X46943200Y-6332670D01*
X46945499Y-6336971D01*
X46946917Y-6341645D01*
X46948000Y-6352641D01*
X46948000Y-6641359D01*
X46946917Y-6652355D01*
X46945499Y-6657029D01*
X46943200Y-6661330D01*
X46937971Y-6667702D01*
X46924357Y-6688076D01*
X46914980Y-6710715D01*
X46910200Y-6734749D01*
X46910200Y-6759253D01*
X46914981Y-6783286D01*
X46924358Y-6805925D01*
X46937971Y-6826298D01*
X46943200Y-6832670D01*
X46945499Y-6836971D01*
X46946917Y-6841645D01*
X46948000Y-6852641D01*
X46948000Y-7141359D01*
X46946917Y-7152355D01*
X46945499Y-7157029D01*
X46943200Y-7161330D01*
X46937971Y-7167702D01*
X46924357Y-7188076D01*
X46914980Y-7210715D01*
X46910200Y-7234749D01*
X46910200Y-7259253D01*
X46914981Y-7283286D01*
X46924358Y-7305925D01*
X46937971Y-7326298D01*
X46943200Y-7332670D01*
X46945499Y-7336971D01*
X46946917Y-7341645D01*
X46948000Y-7352641D01*
X46948000Y-7641359D01*
X46946917Y-7652355D01*
X46945499Y-7657029D01*
X46943200Y-7661330D01*
X46937971Y-7667702D01*
X46924357Y-7688076D01*
X46914980Y-7710715D01*
X46910200Y-7734749D01*
X46910200Y-7759253D01*
X46914981Y-7783286D01*
X46924358Y-7805925D01*
X46937971Y-7826298D01*
X46943200Y-7832670D01*
X46945499Y-7836971D01*
X46946917Y-7841645D01*
X46948000Y-7852641D01*
X46948000Y-8141359D01*
X46946917Y-8152355D01*
X46945499Y-8157029D01*
X46943200Y-8161330D01*
X46937971Y-8167702D01*
X46924357Y-8188076D01*
X46914980Y-8210715D01*
X46910200Y-8234749D01*
X46910200Y-8259253D01*
X46914981Y-8283286D01*
X46924358Y-8305925D01*
X46937971Y-8326298D01*
X46943200Y-8332670D01*
X46945499Y-8336971D01*
X46946917Y-8341645D01*
X46948000Y-8352641D01*
X46948000Y-8641359D01*
X46946917Y-8652355D01*
X46945499Y-8657029D01*
X46943200Y-8661330D01*
X46937971Y-8667702D01*
X46924357Y-8688076D01*
X46914980Y-8710715D01*
X46910200Y-8734749D01*
X46910200Y-8759253D01*
X46914981Y-8783286D01*
X46924358Y-8805925D01*
X46937971Y-8826298D01*
X46943200Y-8832670D01*
X46945499Y-8836971D01*
X46946917Y-8841645D01*
X46948000Y-8852641D01*
X46948000Y-9141359D01*
X46946917Y-9152355D01*
X46945499Y-9157029D01*
X46943200Y-9161330D01*
X46937971Y-9167702D01*
X46924357Y-9188076D01*
X46914980Y-9210715D01*
X46910200Y-9234749D01*
X46910200Y-9259253D01*
X46914981Y-9283286D01*
X46924358Y-9305925D01*
X46937971Y-9326298D01*
X46943200Y-9332670D01*
X46945499Y-9336971D01*
X46946917Y-9341645D01*
X46948000Y-9352641D01*
X46948000Y-9641359D01*
X46946917Y-9652355D01*
X46945499Y-9657029D01*
X46943200Y-9661330D01*
X46937971Y-9667702D01*
X46924357Y-9688076D01*
X46914980Y-9710715D01*
X46910200Y-9734749D01*
X46910200Y-9759253D01*
X46914981Y-9783286D01*
X46924358Y-9805925D01*
X46937971Y-9826298D01*
X46943200Y-9832670D01*
X46945499Y-9836971D01*
X46946917Y-9841645D01*
X46948000Y-9852641D01*
X46948000Y-10141359D01*
X46946917Y-10152355D01*
X46945499Y-10157029D01*
X46943200Y-10161330D01*
X46937971Y-10167702D01*
X46924357Y-10188076D01*
X46914980Y-10210715D01*
X46910200Y-10234749D01*
X46910200Y-10259253D01*
X46914981Y-10283286D01*
X46924358Y-10305925D01*
X46937971Y-10326298D01*
X46943200Y-10332670D01*
X46945499Y-10336971D01*
X46946917Y-10341645D01*
X46948000Y-10352641D01*
X46948000Y-10571001D01*
X46950402Y-10595387D01*
X46957515Y-10618836D01*
X46969066Y-10640447D01*
X46984611Y-10659389D01*
X47003553Y-10674934D01*
X47025164Y-10686485D01*
X47048613Y-10693598D01*
X47072999Y-10696000D01*
X47291359Y-10696000D01*
X47302355Y-10697083D01*
X47307029Y-10698501D01*
X47311330Y-10700800D01*
X47317702Y-10706029D01*
X47338076Y-10719643D01*
X47360715Y-10729020D01*
X47384749Y-10733800D01*
X47409253Y-10733800D01*
X47433286Y-10729019D01*
X47455925Y-10719642D01*
X47476298Y-10706029D01*
X47482670Y-10700800D01*
X47486971Y-10698501D01*
X47491645Y-10697083D01*
X47502641Y-10696000D01*
X47791359Y-10696000D01*
X47802355Y-10697083D01*
X47807029Y-10698501D01*
X47811330Y-10700800D01*
X47817702Y-10706029D01*
X47838076Y-10719643D01*
X47860715Y-10729020D01*
X47884749Y-10733800D01*
X47909253Y-10733800D01*
X47933286Y-10729019D01*
X47955925Y-10719642D01*
X47976298Y-10706029D01*
X47982670Y-10700800D01*
X47986971Y-10698501D01*
X47991645Y-10697083D01*
X48002641Y-10696000D01*
X48291359Y-10696000D01*
X48302355Y-10697083D01*
X48307029Y-10698501D01*
X48311330Y-10700800D01*
X48317702Y-10706029D01*
X48338076Y-10719643D01*
X48360715Y-10729020D01*
X48384749Y-10733800D01*
X48409253Y-10733800D01*
X48433286Y-10729019D01*
X48455925Y-10719642D01*
X48476298Y-10706029D01*
X48482670Y-10700800D01*
X48486971Y-10698501D01*
X48491645Y-10697083D01*
X48502641Y-10696000D01*
X48791359Y-10696000D01*
X48802355Y-10697083D01*
X48807029Y-10698501D01*
X48811330Y-10700800D01*
X48817702Y-10706029D01*
X48838076Y-10719643D01*
X48860715Y-10729020D01*
X48884749Y-10733800D01*
X48909253Y-10733800D01*
X48933286Y-10729019D01*
X48955925Y-10719642D01*
X48976298Y-10706029D01*
X48982670Y-10700800D01*
X48986971Y-10698501D01*
X48991645Y-10697083D01*
X49002641Y-10696000D01*
X49291359Y-10696000D01*
X49302355Y-10697083D01*
X49307029Y-10698501D01*
X49311330Y-10700800D01*
X49317702Y-10706029D01*
X49338076Y-10719643D01*
X49360715Y-10729020D01*
X49384749Y-10733800D01*
X49409253Y-10733800D01*
X49433286Y-10729019D01*
X49455925Y-10719642D01*
X49476298Y-10706029D01*
X49482670Y-10700800D01*
X49486971Y-10698501D01*
X49491645Y-10697083D01*
X49502641Y-10696000D01*
X49791359Y-10696000D01*
X49802355Y-10697083D01*
X49807029Y-10698501D01*
X49811330Y-10700800D01*
X49817702Y-10706029D01*
X49838076Y-10719643D01*
X49860715Y-10729020D01*
X49884749Y-10733800D01*
X49909253Y-10733800D01*
X49933286Y-10729019D01*
X49955925Y-10719642D01*
X49976298Y-10706029D01*
X49982670Y-10700800D01*
X49986971Y-10698501D01*
X49991645Y-10697083D01*
X50002641Y-10696000D01*
X50291359Y-10696000D01*
X50302355Y-10697083D01*
X50307029Y-10698501D01*
X50311330Y-10700800D01*
X50317702Y-10706029D01*
X50338076Y-10719643D01*
X50360715Y-10729020D01*
X50384749Y-10733800D01*
X50409253Y-10733800D01*
X50433286Y-10729019D01*
X50455925Y-10719642D01*
X50476298Y-10706029D01*
X50482670Y-10700800D01*
X50486971Y-10698501D01*
X50491645Y-10697083D01*
X50502641Y-10696000D01*
X50791359Y-10696000D01*
X50802355Y-10697083D01*
X50807029Y-10698501D01*
X50811330Y-10700800D01*
X50817702Y-10706029D01*
X50838076Y-10719643D01*
X50860715Y-10729020D01*
X50884749Y-10733800D01*
X50909253Y-10733800D01*
X50933286Y-10729019D01*
X50955925Y-10719642D01*
X50976298Y-10706029D01*
X50982670Y-10700800D01*
X50986971Y-10698501D01*
X50991645Y-10697083D01*
X51002641Y-10696000D01*
X51291359Y-10696000D01*
X51302355Y-10697083D01*
X51307029Y-10698501D01*
X51311330Y-10700800D01*
X51317702Y-10706029D01*
X51338076Y-10719643D01*
X51360715Y-10729020D01*
X51384749Y-10733800D01*
X51409253Y-10733800D01*
X51433286Y-10729019D01*
X51455925Y-10719642D01*
X51476298Y-10706029D01*
X51482670Y-10700800D01*
X51486971Y-10698501D01*
X51491645Y-10697083D01*
X51502641Y-10696000D01*
X51791359Y-10696000D01*
X51802355Y-10697083D01*
X51807029Y-10698501D01*
X51811330Y-10700800D01*
X51817702Y-10706029D01*
X51838076Y-10719643D01*
X51860715Y-10729020D01*
X51884749Y-10733800D01*
X51909253Y-10733800D01*
X51933286Y-10729019D01*
X51955925Y-10719642D01*
X51976298Y-10706029D01*
X51982670Y-10700800D01*
X51986971Y-10698501D01*
X51991645Y-10697083D01*
X52002641Y-10696000D01*
X52291359Y-10696000D01*
X52302355Y-10697083D01*
X52307029Y-10698501D01*
X52311330Y-10700800D01*
X52317702Y-10706029D01*
X52338076Y-10719643D01*
X52360715Y-10729020D01*
X52384749Y-10733800D01*
X52409253Y-10733800D01*
X52433286Y-10729019D01*
X52455925Y-10719642D01*
X52476298Y-10706029D01*
X52482670Y-10700800D01*
X52486971Y-10698501D01*
X52491645Y-10697083D01*
X52502641Y-10696000D01*
X52721001Y-10696000D01*
X52745387Y-10693598D01*
X52768836Y-10686485D01*
X52790447Y-10674934D01*
X52809389Y-10659389D01*
X52824934Y-10640447D01*
X52836485Y-10618836D01*
X52843598Y-10595387D01*
X52846000Y-10571001D01*
X52846000Y-10352641D01*
X52847083Y-10341645D01*
X52848501Y-10336971D01*
X52850800Y-10332670D01*
X52856029Y-10326298D01*
X52869643Y-10305924D01*
X52879020Y-10283285D01*
X52883800Y-10259251D01*
X52883800Y-10234747D01*
X52879019Y-10210714D01*
X52869642Y-10188075D01*
X52856029Y-10167702D01*
X52850800Y-10161330D01*
X52848501Y-10157029D01*
X52847083Y-10152355D01*
X52846000Y-10141359D01*
X52846000Y-9852641D01*
X52847083Y-9841645D01*
X52848501Y-9836971D01*
X52850800Y-9832670D01*
X52856029Y-9826298D01*
X52869643Y-9805924D01*
X52879020Y-9783285D01*
X52883800Y-9759251D01*
X52883800Y-9734747D01*
X52879019Y-9710714D01*
X52869642Y-9688075D01*
X52856029Y-9667702D01*
X52850800Y-9661330D01*
X52848501Y-9657029D01*
X52847083Y-9652355D01*
X52846000Y-9641359D01*
X52846000Y-9352641D01*
X52847083Y-9341645D01*
X52848501Y-9336971D01*
X52850800Y-9332670D01*
X52856029Y-9326298D01*
X52869643Y-9305924D01*
X52879020Y-9283285D01*
X52883800Y-9259251D01*
X52883800Y-9234747D01*
X52879019Y-9210714D01*
X52869642Y-9188075D01*
X52856029Y-9167702D01*
X52850800Y-9161330D01*
X52848501Y-9157029D01*
X52847083Y-9152355D01*
X52846000Y-9141359D01*
X52846000Y-8852641D01*
X52847083Y-8841645D01*
X52848501Y-8836971D01*
X52850800Y-8832670D01*
X52856029Y-8826298D01*
X52869643Y-8805924D01*
X52879020Y-8783285D01*
X52883800Y-8759251D01*
X52883800Y-8734747D01*
X52879019Y-8710714D01*
X52869642Y-8688075D01*
X52856029Y-8667702D01*
X52850800Y-8661330D01*
X52848501Y-8657029D01*
X52847083Y-8652355D01*
X52846000Y-8641359D01*
X52846000Y-8352641D01*
X52847083Y-8341645D01*
X52848501Y-8336971D01*
X52850800Y-8332670D01*
X52856029Y-8326298D01*
X52869643Y-8305924D01*
X52879020Y-8283285D01*
X52883800Y-8259251D01*
X52883800Y-8234747D01*
X52879019Y-8210714D01*
X52869642Y-8188075D01*
X52856029Y-8167702D01*
X52850800Y-8161330D01*
X52848501Y-8157029D01*
X52847083Y-8152355D01*
X52846000Y-8141359D01*
X52846000Y-7852641D01*
X52847083Y-7841645D01*
X52848501Y-7836971D01*
X52850800Y-7832670D01*
X52856029Y-7826298D01*
X52869643Y-7805924D01*
X52879020Y-7783285D01*
X52883800Y-7759251D01*
X52883800Y-7734747D01*
X52879019Y-7710714D01*
X52869642Y-7688075D01*
X52856029Y-7667702D01*
X52850800Y-7661330D01*
X52848501Y-7657029D01*
X52847083Y-7652355D01*
X52846000Y-7641359D01*
X52846000Y-7352641D01*
X52847083Y-7341645D01*
X52848501Y-7336971D01*
X52850800Y-7332670D01*
X52856029Y-7326298D01*
X52869643Y-7305924D01*
X52879020Y-7283285D01*
X52883800Y-7259251D01*
X52883800Y-7234747D01*
X52879019Y-7210714D01*
X52869642Y-7188075D01*
X52856029Y-7167702D01*
X52850800Y-7161330D01*
X52848501Y-7157029D01*
X52847083Y-7152355D01*
X52846000Y-7141359D01*
X52846000Y-6852641D01*
X52847083Y-6841645D01*
X52848501Y-6836971D01*
X52850800Y-6832670D01*
X52856029Y-6826298D01*
X52869643Y-6805924D01*
X52879020Y-6783285D01*
X52883800Y-6759251D01*
X52883800Y-6734747D01*
X52879019Y-6710714D01*
X52869642Y-6688075D01*
X52856029Y-6667702D01*
X52850800Y-6661330D01*
X52848501Y-6657029D01*
X52847083Y-6652355D01*
X52846000Y-6641359D01*
X52846000Y-6352641D01*
X52847083Y-6341645D01*
X52848501Y-6336971D01*
X52850800Y-6332670D01*
X52856029Y-6326298D01*
X52869643Y-6305924D01*
X52879020Y-6283285D01*
X52883800Y-6259251D01*
X52883800Y-6234747D01*
X52879019Y-6210714D01*
X52869642Y-6188075D01*
X52856029Y-6167702D01*
X52850800Y-6161330D01*
X52848501Y-6157029D01*
X52847083Y-6152355D01*
X52846000Y-6141359D01*
X52846000Y-5852641D01*
X52847083Y-5841645D01*
X52848501Y-5836971D01*
X52850800Y-5832670D01*
X52856029Y-5826298D01*
X52869643Y-5805924D01*
X52879020Y-5783285D01*
X52883800Y-5759251D01*
X52883800Y-5734747D01*
X52879019Y-5710714D01*
X52869642Y-5688075D01*
X52856029Y-5667702D01*
X52850800Y-5661330D01*
X52848501Y-5657029D01*
X52847083Y-5652355D01*
X52846000Y-5641359D01*
X52846000Y-5352641D01*
X52847083Y-5341645D01*
X52848501Y-5336971D01*
X52850800Y-5332670D01*
X52856029Y-5326298D01*
X52869643Y-5305924D01*
X52879020Y-5283285D01*
X52883800Y-5259251D01*
X52883800Y-5234747D01*
X52879019Y-5210714D01*
X52869642Y-5188075D01*
X52856029Y-5167702D01*
X52850800Y-5161330D01*
X52848501Y-5157029D01*
X52847083Y-5152355D01*
X52846000Y-5141359D01*
X52846000Y-4922999D01*
X52843598Y-4898613D01*
X52836485Y-4875164D01*
X52824934Y-4853553D01*
X52809389Y-4834611D01*
X52790447Y-4819066D01*
X52768836Y-4807515D01*
X52745387Y-4800402D01*
X52721001Y-4798000D01*
X52502641Y-4798000D01*
X52491645Y-4796917D01*
X52486971Y-4795499D01*
X52482670Y-4793200D01*
X52476298Y-4787971D01*
X52455924Y-4774357D01*
X52433285Y-4764980D01*
X52409251Y-4760200D01*
X52384747Y-4760200D01*
X52360714Y-4764981D01*
X52338075Y-4774358D01*
X52317702Y-4787971D01*
X52311330Y-4793200D01*
X52307029Y-4795499D01*
X52302355Y-4796917D01*
X52291359Y-4798000D01*
X52002641Y-4798000D01*
X51991645Y-4796917D01*
X51986971Y-4795499D01*
X51982670Y-4793200D01*
X51976298Y-4787971D01*
X51955924Y-4774357D01*
X51933285Y-4764980D01*
X51909251Y-4760200D01*
X51884747Y-4760200D01*
X51860714Y-4764981D01*
X51838075Y-4774358D01*
X51817702Y-4787971D01*
X51811330Y-4793200D01*
X51807029Y-4795499D01*
X51802355Y-4796917D01*
X51791359Y-4798000D01*
X51502641Y-4798000D01*
X51491645Y-4796917D01*
X51486971Y-4795499D01*
X51482670Y-4793200D01*
X51476298Y-4787971D01*
X51455924Y-4774357D01*
X51433285Y-4764980D01*
X51409251Y-4760200D01*
X51384747Y-4760200D01*
X51360714Y-4764981D01*
X51338075Y-4774358D01*
X51317702Y-4787971D01*
X51311330Y-4793200D01*
X51307029Y-4795499D01*
X51302355Y-4796917D01*
X51291359Y-4798000D01*
X51002641Y-4798000D01*
X50991645Y-4796917D01*
X50986971Y-4795499D01*
X50982670Y-4793200D01*
X50976298Y-4787971D01*
X50955924Y-4774357D01*
X50933285Y-4764980D01*
X50909251Y-4760200D01*
X50884747Y-4760200D01*
X50860714Y-4764981D01*
X50838075Y-4774358D01*
X50817702Y-4787971D01*
X50811330Y-4793200D01*
X50807029Y-4795499D01*
X50802355Y-4796917D01*
X50791359Y-4798000D01*
X50502641Y-4798000D01*
X50491645Y-4796917D01*
X50486971Y-4795499D01*
X50482670Y-4793200D01*
X50476298Y-4787971D01*
X50455924Y-4774357D01*
X50433285Y-4764980D01*
X50409251Y-4760200D01*
X50384747Y-4760200D01*
X50360714Y-4764981D01*
X50338075Y-4774358D01*
X50317702Y-4787971D01*
X50311330Y-4793200D01*
X50307029Y-4795499D01*
X50302355Y-4796917D01*
X50291359Y-4798000D01*
X50002641Y-4798000D01*
X49991645Y-4796917D01*
X49986971Y-4795499D01*
X49982670Y-4793200D01*
X49976298Y-4787971D01*
X49955924Y-4774357D01*
X49933285Y-4764980D01*
X49909251Y-4760200D01*
X49884747Y-4760200D01*
X49860714Y-4764981D01*
X49838075Y-4774358D01*
X49817702Y-4787971D01*
X49811330Y-4793200D01*
X49807029Y-4795499D01*
X49802355Y-4796917D01*
X49791359Y-4798000D01*
X49502641Y-4798000D01*
X49491645Y-4796917D01*
X49486971Y-4795499D01*
X49482670Y-4793200D01*
X49476298Y-4787971D01*
X49455924Y-4774357D01*
X49433285Y-4764980D01*
X49409251Y-4760200D01*
X49384747Y-4760200D01*
X49360714Y-4764981D01*
X49338075Y-4774358D01*
X49317702Y-4787971D01*
X49311330Y-4793200D01*
X49307029Y-4795499D01*
X49302355Y-4796917D01*
X49291359Y-4798000D01*
X49002641Y-4798000D01*
X48991645Y-4796917D01*
X48986971Y-4795499D01*
X48982670Y-4793200D01*
X48976298Y-4787971D01*
X48955924Y-4774357D01*
X48933285Y-4764980D01*
X48909251Y-4760200D01*
X48884747Y-4760200D01*
X48860714Y-4764981D01*
X48838075Y-4774358D01*
X48817702Y-4787971D01*
X48811330Y-4793200D01*
X48807029Y-4795499D01*
X48802355Y-4796917D01*
X48791359Y-4798000D01*
X48502641Y-4798000D01*
X48491645Y-4796917D01*
X48486971Y-4795499D01*
X48482670Y-4793200D01*
X48476298Y-4787971D01*
X48455924Y-4774357D01*
X48433285Y-4764980D01*
X48409251Y-4760200D01*
X48384747Y-4760200D01*
X48360714Y-4764981D01*
X48338075Y-4774358D01*
X48317702Y-4787971D01*
X48311330Y-4793200D01*
X48307029Y-4795499D01*
X48302355Y-4796917D01*
X48291359Y-4798000D01*
X48002641Y-4798000D01*
X47991645Y-4796917D01*
X47986971Y-4795499D01*
X47982670Y-4793200D01*
X47976298Y-4787971D01*
X47955924Y-4774357D01*
X47933285Y-4764980D01*
X47909251Y-4760200D01*
X47884747Y-4760200D01*
X47860714Y-4764981D01*
X47838075Y-4774358D01*
X47817702Y-4787971D01*
X47811330Y-4793200D01*
X47807029Y-4795499D01*
X47802355Y-4796917D01*
X47791359Y-4798000D01*
X47502641Y-4798000D01*
X47491645Y-4796917D01*
X47486971Y-4795499D01*
X47482670Y-4793200D01*
X47476298Y-4787971D01*
X47455924Y-4774357D01*
X47433285Y-4764980D01*
X47409251Y-4760200D01*
X47384747Y-4760200D01*
X47360714Y-4764981D01*
X47338075Y-4774358D01*
X47317702Y-4787971D01*
X47311330Y-4793200D01*
X47307029Y-4795499D01*
X47302355Y-4796917D01*
X47291359Y-4798000D01*
X47072999Y-4798000D01*
X47048613Y-4800402D01*
X47025164Y-4807515D01*
X47003553Y-4819066D01*
X46984611Y-4834611D01*
X46969066Y-4853553D01*
X46957515Y-4875164D01*
X46950402Y-4898613D01*
X46948000Y-4922999D01*
X46948000Y-5141359D01*
X46946917Y-5152355D01*
X46945499Y-5157029D01*
X46943200Y-5161330D01*
X46937971Y-5167702D01*
X46924357Y-5188076D01*
X46914980Y-5210715D01*
X46910200Y-5234749D01*
X46008800Y-5234749D01*
X46008800Y-5234747D01*
X46004019Y-5210714D01*
X45994642Y-5188075D01*
X45981029Y-5167702D01*
X45975800Y-5161330D01*
X45973501Y-5157029D01*
X45972083Y-5152355D01*
X45971000Y-5141359D01*
X45971000Y-4852641D01*
X45972083Y-4841645D01*
X45973501Y-4836971D01*
X45975800Y-4832669D01*
X45978896Y-4828896D01*
X45982669Y-4825800D01*
X45986971Y-4823501D01*
X45991645Y-4822083D01*
X46002641Y-4821000D01*
X46846001Y-4821000D01*
X46870387Y-4818598D01*
X46893836Y-4811485D01*
X46915447Y-4799934D01*
X46934389Y-4784389D01*
X46949934Y-4765447D01*
X46961485Y-4743836D01*
X46968598Y-4720387D01*
X46971000Y-4696001D01*
X46971000Y-3852641D01*
X46972083Y-3841645D01*
X46973501Y-3836971D01*
X46975800Y-3832669D01*
X46978896Y-3828896D01*
X46982669Y-3825800D01*
X46986971Y-3823501D01*
X46991645Y-3822083D01*
X47002641Y-3821000D01*
X47291359Y-3821000D01*
X47302355Y-3822083D01*
X47302355Y-3822083D01*
G37*
G36*
X30499944Y-10352861D02*
G01*
X30533922Y-10363169D01*
X30565243Y-10379910D01*
X30597457Y-10406348D01*
X30637308Y-10446199D01*
X30637314Y-10446204D01*
X31035769Y-10844659D01*
X31035774Y-10844665D01*
X31075625Y-10884516D01*
X31102063Y-10916730D01*
X31118804Y-10948051D01*
X31129112Y-10982029D01*
X31132592Y-11017370D01*
X31129112Y-11052711D01*
X31118804Y-11086689D01*
X31102063Y-11118010D01*
X31075625Y-11150224D01*
X31035774Y-11190075D01*
X31035769Y-11190081D01*
X30690348Y-11535502D01*
X30690342Y-11535507D01*
X30650491Y-11575358D01*
X30618277Y-11601796D01*
X30586956Y-11618537D01*
X30552978Y-11628845D01*
X30517637Y-11632325D01*
X30482296Y-11628845D01*
X30448318Y-11618537D01*
X30416997Y-11601796D01*
X30384783Y-11575358D01*
X30344932Y-11535507D01*
X30344926Y-11535502D01*
X29946471Y-11137047D01*
X29946466Y-11137041D01*
X29906615Y-11097190D01*
X29880177Y-11064976D01*
X29863436Y-11033655D01*
X29853128Y-10999677D01*
X29849648Y-10964336D01*
X29853128Y-10928995D01*
X29863436Y-10895017D01*
X29880177Y-10863696D01*
X29906615Y-10831482D01*
X29946466Y-10791631D01*
X29946471Y-10791625D01*
X30291892Y-10446204D01*
X30291898Y-10446199D01*
X30331749Y-10406348D01*
X30363963Y-10379910D01*
X30395284Y-10363169D01*
X30429262Y-10352861D01*
X30464603Y-10349381D01*
X30499944Y-10352861D01*
X30499944Y-10352861D01*
G37*
G36*
X11913490Y-10716848D02*
G01*
X11134258Y-11496080D01*
X9647920Y-10009742D01*
X10427152Y-9230510D01*
X11913490Y-10716848D01*
X11913490Y-10716848D01*
G37*
G36*
X19657813Y-10531438D02*
G01*
X19678432Y-10537693D01*
X19697428Y-10547846D01*
X19718849Y-10565426D01*
X20078574Y-10925151D01*
X20096154Y-10946572D01*
X20106307Y-10965568D01*
X20112562Y-10986187D01*
X20114673Y-11007625D01*
X20112562Y-11029063D01*
X20106307Y-11049682D01*
X20096154Y-11068678D01*
X20078574Y-11090099D01*
X19754205Y-11414468D01*
X19732784Y-11432048D01*
X19713788Y-11442201D01*
X19693169Y-11448456D01*
X19671731Y-11450567D01*
X19650293Y-11448456D01*
X19629674Y-11442201D01*
X19610678Y-11432048D01*
X19589257Y-11414468D01*
X19229532Y-11054743D01*
X19211952Y-11033322D01*
X19201799Y-11014326D01*
X19195544Y-10993707D01*
X19193433Y-10972269D01*
X19195544Y-10950831D01*
X19201799Y-10930212D01*
X19211952Y-10911216D01*
X19229532Y-10889795D01*
X19553901Y-10565426D01*
X19575322Y-10547846D01*
X19594318Y-10537693D01*
X19614937Y-10531438D01*
X19636375Y-10529327D01*
X19657813Y-10531438D01*
X19657813Y-10531438D01*
G37*
G36*
X16933948Y-10504716D02*
G01*
X16154716Y-11283948D01*
X15375484Y-10504716D01*
X16154716Y-9725484D01*
X16933948Y-10504716D01*
X16933948Y-10504716D01*
G37*
G36*
X18262671Y-9852161D02*
G01*
X18296649Y-9862469D01*
X18327970Y-9879210D01*
X18360184Y-9905648D01*
X18400035Y-9945499D01*
X18400041Y-9945504D01*
X18798496Y-10343959D01*
X18798501Y-10343965D01*
X18838352Y-10383816D01*
X18864790Y-10416030D01*
X18881531Y-10447351D01*
X18891839Y-10481329D01*
X18895319Y-10516670D01*
X18891839Y-10552011D01*
X18881531Y-10585989D01*
X18864790Y-10617310D01*
X18838352Y-10649524D01*
X18798501Y-10689375D01*
X18798496Y-10689381D01*
X18453075Y-11034802D01*
X18453069Y-11034807D01*
X18413218Y-11074658D01*
X18381004Y-11101096D01*
X18349683Y-11117837D01*
X18315705Y-11128145D01*
X18280364Y-11131625D01*
X18245023Y-11128145D01*
X18211045Y-11117837D01*
X18179724Y-11101096D01*
X18147510Y-11074658D01*
X18107659Y-11034807D01*
X18107653Y-11034802D01*
X17709198Y-10636347D01*
X17709193Y-10636341D01*
X17669342Y-10596490D01*
X17642904Y-10564276D01*
X17626163Y-10532955D01*
X17615855Y-10498977D01*
X17612375Y-10463636D01*
X17615855Y-10428295D01*
X17626163Y-10394317D01*
X17642904Y-10362996D01*
X17669342Y-10330782D01*
X17709193Y-10290931D01*
X17709198Y-10290925D01*
X18054619Y-9945504D01*
X18054625Y-9945499D01*
X18094476Y-9905648D01*
X18126690Y-9879210D01*
X18158011Y-9862469D01*
X18191989Y-9852161D01*
X18227330Y-9848681D01*
X18262671Y-9852161D01*
X18262671Y-9852161D01*
G37*
G36*
X57160848Y-4500820D02*
G01*
X57160850Y-4500821D01*
X57160851Y-4500821D01*
X57302074Y-4559317D01*
X57302077Y-4559319D01*
X57429169Y-4644239D01*
X57537261Y-4752331D01*
X57604286Y-4852641D01*
X57622183Y-4879426D01*
X57675444Y-5008011D01*
X57680680Y-5020652D01*
X57710500Y-5170569D01*
X57710500Y-5323431D01*
X57680888Y-5472303D01*
X57680679Y-5473351D01*
X57622183Y-5614574D01*
X57622181Y-5614577D01*
X57537261Y-5741669D01*
X57429169Y-5849761D01*
X57366205Y-5891832D01*
X57302074Y-5934683D01*
X57251772Y-5955519D01*
X57230164Y-5967068D01*
X57211222Y-5982614D01*
X57195677Y-6001556D01*
X57184126Y-6023166D01*
X57177013Y-6046615D01*
X57174611Y-6071001D01*
X57177013Y-6095387D01*
X57184126Y-6118836D01*
X57195677Y-6140447D01*
X57211223Y-6159389D01*
X57230165Y-6174934D01*
X57251775Y-6186485D01*
X57275224Y-6193598D01*
X57299610Y-6196000D01*
X57660500Y-6196000D01*
X57660500Y-9298000D01*
X57299610Y-9298000D01*
X57275224Y-9300402D01*
X57251775Y-9307515D01*
X57230164Y-9319066D01*
X57211222Y-9334611D01*
X57195677Y-9353553D01*
X57184126Y-9375164D01*
X57177013Y-9398613D01*
X57174611Y-9422999D01*
X57177013Y-9447385D01*
X57184126Y-9470834D01*
X57195677Y-9492445D01*
X57211222Y-9511387D01*
X57230164Y-9526932D01*
X57251772Y-9538481D01*
X57302074Y-9559317D01*
X57330189Y-9578103D01*
X57429169Y-9644239D01*
X57537261Y-9752331D01*
X57598133Y-9843433D01*
X57622183Y-9879426D01*
X57673932Y-10004361D01*
X57680680Y-10020652D01*
X57710500Y-10170569D01*
X57710500Y-10323431D01*
X57682612Y-10463636D01*
X57680679Y-10473351D01*
X57622183Y-10614574D01*
X57622181Y-10614577D01*
X57537261Y-10741669D01*
X57429169Y-10849761D01*
X57325638Y-10918938D01*
X57302074Y-10934683D01*
X57160851Y-10993179D01*
X57160850Y-10993179D01*
X57160848Y-10993180D01*
X57010931Y-11023000D01*
X56858069Y-11023000D01*
X56708152Y-10993180D01*
X56708150Y-10993179D01*
X56708149Y-10993179D01*
X56566926Y-10934683D01*
X56543362Y-10918938D01*
X56439831Y-10849761D01*
X56331739Y-10741669D01*
X56246819Y-10614577D01*
X56246817Y-10614574D01*
X56188321Y-10473351D01*
X56186389Y-10463636D01*
X56158500Y-10323431D01*
X56158500Y-10170569D01*
X56188320Y-10020652D01*
X56195068Y-10004361D01*
X56246817Y-9879426D01*
X56270867Y-9843433D01*
X56331739Y-9752331D01*
X56439831Y-9644239D01*
X56538811Y-9578103D01*
X56566926Y-9559317D01*
X56617228Y-9538481D01*
X56638836Y-9526932D01*
X56657778Y-9511386D01*
X56673323Y-9492444D01*
X56684874Y-9470834D01*
X56691987Y-9447385D01*
X56694389Y-9422999D01*
X56691987Y-9398613D01*
X56684874Y-9375164D01*
X56673323Y-9353553D01*
X56657777Y-9334611D01*
X56638835Y-9319066D01*
X56617225Y-9307515D01*
X56593776Y-9300402D01*
X56569390Y-9298000D01*
X56208500Y-9298000D01*
X56208500Y-6196000D01*
X56569390Y-6196000D01*
X56593776Y-6193598D01*
X56617225Y-6186485D01*
X56638836Y-6174934D01*
X56657778Y-6159389D01*
X56673323Y-6140447D01*
X56684874Y-6118836D01*
X56691987Y-6095387D01*
X56694389Y-6071001D01*
X56691987Y-6046615D01*
X56684874Y-6023166D01*
X56673323Y-6001555D01*
X56657778Y-5982613D01*
X56638836Y-5967068D01*
X56617228Y-5955519D01*
X56566926Y-5934683D01*
X56502795Y-5891832D01*
X56439831Y-5849761D01*
X56331739Y-5741669D01*
X56246819Y-5614577D01*
X56246817Y-5614574D01*
X56188321Y-5473351D01*
X56188113Y-5472303D01*
X56158500Y-5323431D01*
X56158500Y-5170569D01*
X56188320Y-5020652D01*
X56193556Y-5008011D01*
X56246817Y-4879426D01*
X56264714Y-4852641D01*
X56331739Y-4752331D01*
X56439831Y-4644239D01*
X56566923Y-4559319D01*
X56566926Y-4559317D01*
X56708149Y-4500821D01*
X56708150Y-4500821D01*
X56708152Y-4500820D01*
X56858069Y-4471000D01*
X57010931Y-4471000D01*
X57160848Y-4500820D01*
X57160848Y-4500820D01*
G37*
G36*
X4485848Y-4500820D02*
G01*
X4485850Y-4500821D01*
X4485851Y-4500821D01*
X4627074Y-4559317D01*
X4627077Y-4559319D01*
X4754169Y-4644239D01*
X4862261Y-4752331D01*
X4929286Y-4852641D01*
X4947183Y-4879426D01*
X5000444Y-5008011D01*
X5005680Y-5020652D01*
X5035500Y-5170569D01*
X5035500Y-5323431D01*
X5005888Y-5472303D01*
X5005679Y-5473351D01*
X4947183Y-5614574D01*
X4947181Y-5614577D01*
X4862261Y-5741669D01*
X4754169Y-5849761D01*
X4691205Y-5891832D01*
X4627074Y-5934683D01*
X4576772Y-5955519D01*
X4555164Y-5967068D01*
X4536222Y-5982614D01*
X4520677Y-6001556D01*
X4509126Y-6023166D01*
X4502013Y-6046615D01*
X4499611Y-6071001D01*
X4502013Y-6095387D01*
X4509126Y-6118836D01*
X4520677Y-6140447D01*
X4536223Y-6159389D01*
X4555165Y-6174934D01*
X4576775Y-6186485D01*
X4600224Y-6193598D01*
X4624610Y-6196000D01*
X4985500Y-6196000D01*
X4985500Y-9298000D01*
X4624610Y-9298000D01*
X4600224Y-9300402D01*
X4576775Y-9307515D01*
X4555164Y-9319066D01*
X4536222Y-9334611D01*
X4520677Y-9353553D01*
X4509126Y-9375164D01*
X4502013Y-9398613D01*
X4499611Y-9422999D01*
X4502013Y-9447385D01*
X4509126Y-9470834D01*
X4520677Y-9492445D01*
X4536222Y-9511387D01*
X4555164Y-9526932D01*
X4576772Y-9538481D01*
X4627074Y-9559317D01*
X4655189Y-9578103D01*
X4754169Y-9644239D01*
X4862261Y-9752331D01*
X4923133Y-9843433D01*
X4947183Y-9879426D01*
X4998932Y-10004361D01*
X5005680Y-10020652D01*
X5035500Y-10170569D01*
X5035500Y-10323431D01*
X5007612Y-10463636D01*
X5005679Y-10473351D01*
X4947183Y-10614574D01*
X4947181Y-10614577D01*
X4862261Y-10741669D01*
X4754169Y-10849761D01*
X4650638Y-10918938D01*
X4627074Y-10934683D01*
X4485851Y-10993179D01*
X4485850Y-10993179D01*
X4485848Y-10993180D01*
X4335931Y-11023000D01*
X4183069Y-11023000D01*
X4033152Y-10993180D01*
X4033150Y-10993179D01*
X4033149Y-10993179D01*
X3891926Y-10934683D01*
X3868362Y-10918938D01*
X3764831Y-10849761D01*
X3656739Y-10741669D01*
X3571819Y-10614577D01*
X3571817Y-10614574D01*
X3513321Y-10473351D01*
X3511389Y-10463636D01*
X3483500Y-10323431D01*
X3483500Y-10170569D01*
X3513320Y-10020652D01*
X3520068Y-10004361D01*
X3571817Y-9879426D01*
X3595867Y-9843433D01*
X3656739Y-9752331D01*
X3764831Y-9644239D01*
X3863811Y-9578103D01*
X3891926Y-9559317D01*
X3942228Y-9538481D01*
X3963836Y-9526932D01*
X3982778Y-9511386D01*
X3998323Y-9492444D01*
X4009874Y-9470834D01*
X4016987Y-9447385D01*
X4019389Y-9422999D01*
X4016987Y-9398613D01*
X4009874Y-9375164D01*
X3998323Y-9353553D01*
X3982777Y-9334611D01*
X3963835Y-9319066D01*
X3942225Y-9307515D01*
X3918776Y-9300402D01*
X3894390Y-9298000D01*
X3533500Y-9298000D01*
X3533500Y-6196000D01*
X3894390Y-6196000D01*
X3918776Y-6193598D01*
X3942225Y-6186485D01*
X3963836Y-6174934D01*
X3982778Y-6159389D01*
X3998323Y-6140447D01*
X4009874Y-6118836D01*
X4016987Y-6095387D01*
X4019389Y-6071001D01*
X4016987Y-6046615D01*
X4009874Y-6023166D01*
X3998323Y-6001555D01*
X3982778Y-5982613D01*
X3963836Y-5967068D01*
X3942228Y-5955519D01*
X3891926Y-5934683D01*
X3827795Y-5891832D01*
X3764831Y-5849761D01*
X3656739Y-5741669D01*
X3571819Y-5614577D01*
X3571817Y-5614574D01*
X3513321Y-5473351D01*
X3513113Y-5472303D01*
X3483500Y-5323431D01*
X3483500Y-5170569D01*
X3513320Y-5020652D01*
X3518556Y-5008011D01*
X3571817Y-4879426D01*
X3589714Y-4852641D01*
X3656739Y-4752331D01*
X3764831Y-4644239D01*
X3891923Y-4559319D01*
X3891926Y-4559317D01*
X4033149Y-4500821D01*
X4033150Y-4500821D01*
X4033152Y-4500820D01*
X4183069Y-4471000D01*
X4335931Y-4471000D01*
X4485848Y-4500820D01*
X4485848Y-4500820D01*
G37*
G36*
X55278938Y-10318716D02*
G01*
X55299557Y-10324971D01*
X55318553Y-10335124D01*
X55335208Y-10348792D01*
X55348876Y-10365447D01*
X55359029Y-10384443D01*
X55365284Y-10405062D01*
X55368000Y-10432640D01*
X55368000Y-10891360D01*
X55365284Y-10918938D01*
X55359029Y-10939557D01*
X55348876Y-10958553D01*
X55335208Y-10975208D01*
X55318553Y-10988876D01*
X55299557Y-10999029D01*
X55278938Y-11005284D01*
X55251360Y-11008000D01*
X54742640Y-11008000D01*
X54715062Y-11005284D01*
X54694443Y-10999029D01*
X54675447Y-10988876D01*
X54658792Y-10975208D01*
X54645124Y-10958553D01*
X54634971Y-10939557D01*
X54628716Y-10918938D01*
X54626000Y-10891360D01*
X54626000Y-10432640D01*
X54628716Y-10405062D01*
X54634971Y-10384443D01*
X54645124Y-10365447D01*
X54658792Y-10348792D01*
X54675447Y-10335124D01*
X54694443Y-10324971D01*
X54715062Y-10318716D01*
X54742640Y-10316000D01*
X55251360Y-10316000D01*
X55278938Y-10318716D01*
X55278938Y-10318716D01*
G37*
G36*
X20343707Y-9845544D02*
G01*
X20364326Y-9851799D01*
X20383322Y-9861952D01*
X20404743Y-9879532D01*
X20764468Y-10239257D01*
X20782048Y-10260678D01*
X20792201Y-10279674D01*
X20798456Y-10300293D01*
X20800567Y-10321731D01*
X20798456Y-10343169D01*
X20792201Y-10363788D01*
X20782048Y-10382784D01*
X20764468Y-10404205D01*
X20440099Y-10728574D01*
X20418678Y-10746154D01*
X20399682Y-10756307D01*
X20379063Y-10762562D01*
X20357625Y-10764673D01*
X20336187Y-10762562D01*
X20315568Y-10756307D01*
X20296572Y-10746154D01*
X20275151Y-10728574D01*
X19915426Y-10368849D01*
X19897846Y-10347428D01*
X19887693Y-10328432D01*
X19881438Y-10307813D01*
X19879327Y-10286375D01*
X19881438Y-10264937D01*
X19887693Y-10244318D01*
X19897846Y-10225322D01*
X19915426Y-10203901D01*
X20239795Y-9879532D01*
X20261216Y-9861952D01*
X20280212Y-9851799D01*
X20300831Y-9845544D01*
X20322269Y-9843433D01*
X20343707Y-9845544D01*
X20343707Y-9845544D01*
G37*
G36*
X29616062Y-9292201D02*
G01*
X29650040Y-9302509D01*
X29681361Y-9319250D01*
X29713575Y-9345688D01*
X29753426Y-9385539D01*
X29753432Y-9385544D01*
X30098853Y-9730965D01*
X30098858Y-9730971D01*
X30138709Y-9770822D01*
X30165147Y-9803036D01*
X30181888Y-9834357D01*
X30192196Y-9868335D01*
X30195676Y-9903676D01*
X30192196Y-9939017D01*
X30181888Y-9972995D01*
X30165147Y-10004316D01*
X30138709Y-10036530D01*
X30098858Y-10076381D01*
X30098853Y-10076387D01*
X29700398Y-10474842D01*
X29700392Y-10474847D01*
X29660541Y-10514698D01*
X29628327Y-10541136D01*
X29597006Y-10557877D01*
X29563028Y-10568185D01*
X29527687Y-10571665D01*
X29492346Y-10568185D01*
X29458368Y-10557877D01*
X29427047Y-10541136D01*
X29394833Y-10514698D01*
X29354982Y-10474847D01*
X29354976Y-10474842D01*
X29009555Y-10129421D01*
X29009550Y-10129415D01*
X28969699Y-10089564D01*
X28943261Y-10057350D01*
X28926520Y-10026029D01*
X28916212Y-9992051D01*
X28912732Y-9956710D01*
X28916212Y-9921369D01*
X28926520Y-9887391D01*
X28943261Y-9856070D01*
X28969699Y-9823856D01*
X29009550Y-9784005D01*
X29009555Y-9783999D01*
X29408010Y-9385544D01*
X29408016Y-9385539D01*
X29447867Y-9345688D01*
X29480081Y-9319250D01*
X29511402Y-9302509D01*
X29545380Y-9292201D01*
X29580721Y-9288721D01*
X29616062Y-9292201D01*
X29616062Y-9292201D01*
G37*
G36*
X31613638Y-9239167D02*
G01*
X31647616Y-9249475D01*
X31678937Y-9266216D01*
X31711151Y-9292654D01*
X31751002Y-9332505D01*
X31751008Y-9332510D01*
X32149463Y-9730965D01*
X32149468Y-9730971D01*
X32189319Y-9770822D01*
X32215757Y-9803036D01*
X32232498Y-9834357D01*
X32242806Y-9868335D01*
X32246286Y-9903676D01*
X32242806Y-9939017D01*
X32232498Y-9972995D01*
X32215757Y-10004316D01*
X32189319Y-10036530D01*
X32149468Y-10076381D01*
X32149463Y-10076387D01*
X31804042Y-10421808D01*
X31804036Y-10421813D01*
X31764185Y-10461664D01*
X31731971Y-10488102D01*
X31700650Y-10504843D01*
X31666672Y-10515151D01*
X31631331Y-10518631D01*
X31595990Y-10515151D01*
X31562012Y-10504843D01*
X31530691Y-10488102D01*
X31498477Y-10461664D01*
X31458626Y-10421813D01*
X31458620Y-10421808D01*
X31060165Y-10023353D01*
X31060160Y-10023347D01*
X31020309Y-9983496D01*
X30993871Y-9951282D01*
X30977130Y-9919961D01*
X30966822Y-9885983D01*
X30963342Y-9850642D01*
X30966822Y-9815301D01*
X30977130Y-9781323D01*
X30993871Y-9750002D01*
X31020309Y-9717788D01*
X31060160Y-9677937D01*
X31060165Y-9677931D01*
X31405586Y-9332510D01*
X31405592Y-9332505D01*
X31445443Y-9292654D01*
X31477657Y-9266216D01*
X31508978Y-9249475D01*
X31542956Y-9239167D01*
X31578297Y-9235687D01*
X31613638Y-9239167D01*
X31613638Y-9239167D01*
G37*
G36*
X17923898Y-9514767D02*
G01*
X17144666Y-10293999D01*
X16365434Y-9514767D01*
X17144666Y-8735535D01*
X17923898Y-9514767D01*
X17923898Y-9514767D01*
G37*
G36*
X35931996Y-8846737D02*
G01*
X35948215Y-8851657D01*
X35972248Y-8856437D01*
X35996752Y-8856437D01*
X36020785Y-8851657D01*
X36037004Y-8846737D01*
X36053140Y-8845148D01*
X36940860Y-8845148D01*
X36956996Y-8846737D01*
X36973215Y-8851657D01*
X36997248Y-8856437D01*
X37021752Y-8856437D01*
X37045785Y-8851657D01*
X37062004Y-8846737D01*
X37078140Y-8845148D01*
X37415860Y-8845148D01*
X37431999Y-8846737D01*
X37441608Y-8849652D01*
X37450472Y-8854390D01*
X37458237Y-8860763D01*
X37464610Y-8868528D01*
X37469348Y-8877392D01*
X37472263Y-8887001D01*
X37473852Y-8903140D01*
X37473852Y-9373813D01*
X37476254Y-9398199D01*
X37483367Y-9421648D01*
X37494918Y-9443259D01*
X37510463Y-9462201D01*
X37529405Y-9477746D01*
X37551016Y-9489297D01*
X37574465Y-9496410D01*
X37598851Y-9498812D01*
X37623237Y-9496410D01*
X37646686Y-9489297D01*
X37668297Y-9477746D01*
X37687239Y-9462201D01*
X37702784Y-9443259D01*
X37714335Y-9421648D01*
X37721448Y-9398199D01*
X37723248Y-9386065D01*
X37725085Y-9367409D01*
X37735393Y-9333431D01*
X37752134Y-9302110D01*
X37774661Y-9274661D01*
X37802110Y-9252134D01*
X37833431Y-9235393D01*
X37867409Y-9225085D01*
X37908890Y-9221000D01*
X38510110Y-9221000D01*
X38551591Y-9225085D01*
X38585569Y-9235393D01*
X38616890Y-9252134D01*
X38644339Y-9274661D01*
X38666866Y-9302110D01*
X38683607Y-9333431D01*
X38693915Y-9367409D01*
X38698000Y-9408890D01*
X38698000Y-10085110D01*
X38693915Y-10126591D01*
X38683607Y-10160569D01*
X38666866Y-10191890D01*
X38644339Y-10219339D01*
X38616890Y-10241866D01*
X38585569Y-10258607D01*
X38551591Y-10268915D01*
X38510110Y-10273000D01*
X37908890Y-10273000D01*
X37867409Y-10268915D01*
X37833431Y-10258607D01*
X37802110Y-10241866D01*
X37774661Y-10219339D01*
X37752134Y-10191890D01*
X37735393Y-10160569D01*
X37725085Y-10126591D01*
X37721000Y-10085110D01*
X37721000Y-9625938D01*
X37718598Y-9601552D01*
X37711485Y-9578103D01*
X37699934Y-9556492D01*
X37684389Y-9537550D01*
X37665447Y-9522005D01*
X37643836Y-9510454D01*
X37620387Y-9503341D01*
X37596001Y-9500939D01*
X37571615Y-9503341D01*
X37548166Y-9510454D01*
X37526555Y-9522005D01*
X37507613Y-9537550D01*
X37492068Y-9556492D01*
X37480517Y-9578103D01*
X37473404Y-9601552D01*
X37472915Y-9604848D01*
X37469348Y-9616608D01*
X37464610Y-9625472D01*
X37458237Y-9633237D01*
X37450472Y-9639610D01*
X37441608Y-9644348D01*
X37431999Y-9647263D01*
X37415860Y-9648852D01*
X37078140Y-9648852D01*
X37062004Y-9647263D01*
X37045785Y-9642343D01*
X37021752Y-9637563D01*
X36997248Y-9637563D01*
X36973215Y-9642343D01*
X36956996Y-9647263D01*
X36940860Y-9648852D01*
X36053140Y-9648852D01*
X36037004Y-9647263D01*
X36020785Y-9642343D01*
X35996752Y-9637563D01*
X35972248Y-9637563D01*
X35948215Y-9642343D01*
X35931996Y-9647263D01*
X35915860Y-9648852D01*
X35578140Y-9648852D01*
X35562001Y-9647263D01*
X35552392Y-9644348D01*
X35543528Y-9639610D01*
X35535763Y-9633237D01*
X35529390Y-9625472D01*
X35524652Y-9616608D01*
X35521737Y-9606999D01*
X35520148Y-9590860D01*
X35520148Y-8903140D01*
X35521737Y-8887001D01*
X35524652Y-8877392D01*
X35529390Y-8868528D01*
X35535763Y-8860763D01*
X35543528Y-8854390D01*
X35552392Y-8849652D01*
X35562001Y-8846737D01*
X35578140Y-8845148D01*
X35915860Y-8845148D01*
X35931996Y-8846737D01*
X35931996Y-8846737D01*
G37*
G36*
X40126591Y-9225085D02*
G01*
X40160569Y-9235393D01*
X40191890Y-9252134D01*
X40219339Y-9274661D01*
X40241866Y-9302110D01*
X40258607Y-9333431D01*
X40268915Y-9367409D01*
X40273000Y-9408890D01*
X40273000Y-10085110D01*
X40268915Y-10126591D01*
X40258607Y-10160569D01*
X40241866Y-10191890D01*
X40219339Y-10219339D01*
X40191890Y-10241866D01*
X40160569Y-10258607D01*
X40126591Y-10268915D01*
X40085110Y-10273000D01*
X39483890Y-10273000D01*
X39442409Y-10268915D01*
X39408431Y-10258607D01*
X39377110Y-10241866D01*
X39349661Y-10219339D01*
X39327134Y-10191890D01*
X39310393Y-10160569D01*
X39300085Y-10126591D01*
X39296000Y-10085110D01*
X39296000Y-9408890D01*
X39300085Y-9367409D01*
X39310393Y-9333431D01*
X39327134Y-9302110D01*
X39349661Y-9274661D01*
X39377110Y-9252134D01*
X39408431Y-9235393D01*
X39442409Y-9225085D01*
X39483890Y-9221000D01*
X40085110Y-9221000D01*
X40126591Y-9225085D01*
X40126591Y-9225085D01*
G37*
G36*
X55278938Y-9088716D02*
G01*
X55299557Y-9094971D01*
X55318553Y-9105124D01*
X55335208Y-9118792D01*
X55348876Y-9135447D01*
X55359029Y-9154443D01*
X55365284Y-9175062D01*
X55368000Y-9202640D01*
X55368000Y-9661360D01*
X55365284Y-9688938D01*
X55359029Y-9709557D01*
X55348876Y-9728553D01*
X55335208Y-9745208D01*
X55318553Y-9758876D01*
X55299557Y-9769029D01*
X55278938Y-9775284D01*
X55251360Y-9778000D01*
X54742640Y-9778000D01*
X54715062Y-9775284D01*
X54694443Y-9769029D01*
X54675447Y-9758876D01*
X54658792Y-9745208D01*
X54645124Y-9728553D01*
X54634971Y-9709557D01*
X54628716Y-9688938D01*
X54626000Y-9661360D01*
X54626000Y-9202640D01*
X54628716Y-9175062D01*
X54634971Y-9154443D01*
X54645124Y-9135447D01*
X54658792Y-9118792D01*
X54675447Y-9105124D01*
X54694443Y-9094971D01*
X54715062Y-9088716D01*
X54742640Y-9086000D01*
X55251360Y-9086000D01*
X55278938Y-9088716D01*
X55278938Y-9088716D01*
G37*
G36*
X2560500Y-9548000D02*
G01*
X558500Y-9548000D01*
X558500Y-7946000D01*
X2560500Y-7946000D01*
X2560500Y-9548000D01*
X2560500Y-9548000D01*
G37*
G36*
X60635500Y-9548000D02*
G01*
X58633500Y-9548000D01*
X58633500Y-7946000D01*
X60635500Y-7946000D01*
X60635500Y-9548000D01*
X60635500Y-9548000D01*
G37*
G36*
X28502368Y-8178507D02*
G01*
X28536346Y-8188815D01*
X28567667Y-8205556D01*
X28599881Y-8231994D01*
X28639732Y-8271845D01*
X28639738Y-8271850D01*
X28985159Y-8617271D01*
X28985164Y-8617277D01*
X29025015Y-8657128D01*
X29051453Y-8689342D01*
X29068194Y-8720663D01*
X29078502Y-8754641D01*
X29081982Y-8789982D01*
X29078502Y-8825323D01*
X29068194Y-8859301D01*
X29051453Y-8890622D01*
X29025015Y-8922836D01*
X28985164Y-8962687D01*
X28985159Y-8962693D01*
X28586704Y-9361148D01*
X28586698Y-9361153D01*
X28546847Y-9401004D01*
X28514633Y-9427442D01*
X28483312Y-9444183D01*
X28449334Y-9454491D01*
X28413993Y-9457971D01*
X28378652Y-9454491D01*
X28344674Y-9444183D01*
X28313353Y-9427442D01*
X28281139Y-9401004D01*
X28241288Y-9361153D01*
X28241282Y-9361148D01*
X27895861Y-9015727D01*
X27895856Y-9015721D01*
X27856005Y-8975870D01*
X27829567Y-8943656D01*
X27812826Y-8912335D01*
X27802518Y-8878357D01*
X27799038Y-8843016D01*
X27802518Y-8807675D01*
X27812826Y-8773697D01*
X27829567Y-8742376D01*
X27856005Y-8710162D01*
X27895856Y-8670311D01*
X27895861Y-8670305D01*
X28294316Y-8271850D01*
X28294322Y-8271845D01*
X28334173Y-8231994D01*
X28366387Y-8205556D01*
X28397708Y-8188815D01*
X28431686Y-8178507D01*
X28467027Y-8175027D01*
X28502368Y-8178507D01*
X28502368Y-8178507D01*
G37*
G36*
X32691975Y-8160830D02*
G01*
X32725953Y-8171138D01*
X32757274Y-8187879D01*
X32789488Y-8214317D01*
X32829339Y-8254168D01*
X32829345Y-8254173D01*
X33227800Y-8652628D01*
X33227805Y-8652634D01*
X33267656Y-8692485D01*
X33294094Y-8724699D01*
X33310835Y-8756020D01*
X33321143Y-8789998D01*
X33324623Y-8825339D01*
X33321143Y-8860680D01*
X33310835Y-8894658D01*
X33294094Y-8925979D01*
X33267656Y-8958193D01*
X33227805Y-8998044D01*
X33227800Y-8998050D01*
X32882379Y-9343471D01*
X32882373Y-9343476D01*
X32842522Y-9383327D01*
X32810308Y-9409765D01*
X32778987Y-9426506D01*
X32745009Y-9436814D01*
X32709668Y-9440294D01*
X32674327Y-9436814D01*
X32640349Y-9426506D01*
X32609028Y-9409765D01*
X32576814Y-9383327D01*
X32536963Y-9343476D01*
X32536957Y-9343471D01*
X32138502Y-8945016D01*
X32138497Y-8945010D01*
X32098646Y-8905159D01*
X32072208Y-8872945D01*
X32055467Y-8841624D01*
X32045159Y-8807646D01*
X32041679Y-8772305D01*
X32045159Y-8736964D01*
X32055467Y-8702986D01*
X32072208Y-8671665D01*
X32098646Y-8639451D01*
X32138497Y-8599600D01*
X32138502Y-8599594D01*
X32483923Y-8254173D01*
X32483929Y-8254168D01*
X32523780Y-8214317D01*
X32555994Y-8187879D01*
X32587315Y-8171138D01*
X32621293Y-8160830D01*
X32656634Y-8157350D01*
X32691975Y-8160830D01*
X32691975Y-8160830D01*
G37*
G36*
X55278938Y-8118716D02*
G01*
X55299557Y-8124971D01*
X55318553Y-8135124D01*
X55335208Y-8148792D01*
X55348876Y-8165447D01*
X55359029Y-8184443D01*
X55365284Y-8205062D01*
X55368000Y-8232640D01*
X55368000Y-8691360D01*
X55365284Y-8718938D01*
X55359029Y-8739557D01*
X55348876Y-8758553D01*
X55335208Y-8775208D01*
X55318553Y-8788876D01*
X55299557Y-8799029D01*
X55278938Y-8805284D01*
X55251360Y-8808000D01*
X54742640Y-8808000D01*
X54715062Y-8805284D01*
X54694443Y-8799029D01*
X54675447Y-8788876D01*
X54658792Y-8775208D01*
X54645124Y-8758553D01*
X54634971Y-8739557D01*
X54628716Y-8718938D01*
X54626000Y-8691360D01*
X54626000Y-8232640D01*
X54628716Y-8205062D01*
X54634971Y-8184443D01*
X54645124Y-8165447D01*
X54658792Y-8148792D01*
X54675447Y-8135124D01*
X54694443Y-8124971D01*
X54715062Y-8118716D01*
X54742640Y-8116000D01*
X55251360Y-8116000D01*
X55278938Y-8118716D01*
X55278938Y-8118716D01*
G37*
G36*
X30903564Y-6736389D02*
G01*
X31094833Y-6815615D01*
X31094835Y-6815616D01*
X31266973Y-6930635D01*
X31413365Y-7077027D01*
X31518752Y-7234749D01*
X31528385Y-7249167D01*
X31607611Y-7440436D01*
X31648000Y-7643484D01*
X31648000Y-7850516D01*
X31607611Y-8053564D01*
X31537513Y-8222796D01*
X31528384Y-8244835D01*
X31413365Y-8416973D01*
X31266973Y-8563365D01*
X31094835Y-8678384D01*
X31094834Y-8678385D01*
X31094833Y-8678385D01*
X30903564Y-8757611D01*
X30700516Y-8798000D01*
X30493484Y-8798000D01*
X30290436Y-8757611D01*
X30099167Y-8678385D01*
X30099166Y-8678385D01*
X30099165Y-8678384D01*
X29927027Y-8563365D01*
X29780635Y-8416973D01*
X29665616Y-8244835D01*
X29656487Y-8222796D01*
X29586389Y-8053564D01*
X29546000Y-7850516D01*
X29546000Y-7643484D01*
X29586389Y-7440436D01*
X29665615Y-7249167D01*
X29675249Y-7234749D01*
X29780635Y-7077027D01*
X29927027Y-6930635D01*
X30099165Y-6815616D01*
X30099167Y-6815615D01*
X30290436Y-6736389D01*
X30493484Y-6696000D01*
X30700516Y-6696000D01*
X30903564Y-6736389D01*
X30903564Y-6736389D01*
G37*
G36*
X19898000Y-8708000D02*
G01*
X19296000Y-8708000D01*
X19296000Y-6786000D01*
X19898000Y-6786000D01*
X19898000Y-8708000D01*
X19898000Y-8708000D01*
G37*
G36*
X21098000Y-8708000D02*
G01*
X20496000Y-8708000D01*
X20496000Y-6786000D01*
X21098000Y-6786000D01*
X21098000Y-8708000D01*
X21098000Y-8708000D01*
G37*
G36*
X27388674Y-7241591D02*
G01*
X27422652Y-7251899D01*
X27453973Y-7268640D01*
X27486187Y-7295078D01*
X27526038Y-7334929D01*
X27526044Y-7334934D01*
X27924499Y-7733389D01*
X27924504Y-7733395D01*
X27964355Y-7773246D01*
X27990793Y-7805460D01*
X28007534Y-7836781D01*
X28017842Y-7870759D01*
X28021322Y-7906100D01*
X28017842Y-7941441D01*
X28007534Y-7975419D01*
X27990793Y-8006740D01*
X27964355Y-8038954D01*
X27924504Y-8078805D01*
X27924499Y-8078811D01*
X27579078Y-8424232D01*
X27579072Y-8424237D01*
X27539221Y-8464088D01*
X27507007Y-8490526D01*
X27475686Y-8507267D01*
X27441708Y-8517575D01*
X27406367Y-8521055D01*
X27371026Y-8517575D01*
X27337048Y-8507267D01*
X27305727Y-8490526D01*
X27273513Y-8464088D01*
X27233662Y-8424237D01*
X27233656Y-8424232D01*
X26835201Y-8025777D01*
X26835196Y-8025771D01*
X26795345Y-7985920D01*
X26768907Y-7953706D01*
X26752166Y-7922385D01*
X26741858Y-7888407D01*
X26738378Y-7853066D01*
X26741858Y-7817725D01*
X26752166Y-7783747D01*
X26768907Y-7752426D01*
X26795345Y-7720212D01*
X26835196Y-7680361D01*
X26835201Y-7680355D01*
X27180622Y-7334934D01*
X27180628Y-7334929D01*
X27220479Y-7295078D01*
X27252693Y-7268640D01*
X27284014Y-7251899D01*
X27317992Y-7241591D01*
X27353333Y-7238111D01*
X27388674Y-7241591D01*
X27388674Y-7241591D01*
G37*
G36*
X33805669Y-7047136D02*
G01*
X33839647Y-7057444D01*
X33870968Y-7074185D01*
X33903182Y-7100623D01*
X33943033Y-7140474D01*
X33943039Y-7140479D01*
X34341494Y-7538934D01*
X34341499Y-7538940D01*
X34381350Y-7578791D01*
X34407788Y-7611005D01*
X34424529Y-7642326D01*
X34434837Y-7676304D01*
X34438317Y-7711645D01*
X34434837Y-7746986D01*
X34424529Y-7780964D01*
X34407788Y-7812285D01*
X34381350Y-7844499D01*
X34341499Y-7884350D01*
X34341494Y-7884356D01*
X33996073Y-8229777D01*
X33996067Y-8229782D01*
X33956216Y-8269633D01*
X33924002Y-8296071D01*
X33892681Y-8312812D01*
X33858703Y-8323120D01*
X33823362Y-8326600D01*
X33788021Y-8323120D01*
X33754043Y-8312812D01*
X33722722Y-8296071D01*
X33690508Y-8269633D01*
X33650657Y-8229782D01*
X33650651Y-8229777D01*
X33252196Y-7831322D01*
X33252191Y-7831316D01*
X33212340Y-7791465D01*
X33185902Y-7759251D01*
X33169161Y-7727930D01*
X33158853Y-7693952D01*
X33155373Y-7658611D01*
X33158853Y-7623270D01*
X33169161Y-7589292D01*
X33185902Y-7557971D01*
X33212340Y-7525757D01*
X33252191Y-7485906D01*
X33252196Y-7485900D01*
X33597617Y-7140479D01*
X33597623Y-7140474D01*
X33637474Y-7100623D01*
X33669688Y-7074185D01*
X33701009Y-7057444D01*
X33734987Y-7047136D01*
X33770328Y-7043656D01*
X33805669Y-7047136D01*
X33805669Y-7047136D01*
G37*
G36*
X39438938Y-6878716D02*
G01*
X39459557Y-6884971D01*
X39478553Y-6895124D01*
X39495208Y-6908792D01*
X39508876Y-6925447D01*
X39519029Y-6944443D01*
X39525284Y-6965062D01*
X39528000Y-6992640D01*
X39528000Y-7501360D01*
X39525284Y-7528938D01*
X39519029Y-7549557D01*
X39508876Y-7568553D01*
X39495208Y-7585208D01*
X39478553Y-7598876D01*
X39459557Y-7609029D01*
X39438938Y-7615284D01*
X39411360Y-7618000D01*
X38952640Y-7618000D01*
X38925062Y-7615284D01*
X38904443Y-7609029D01*
X38885447Y-7598876D01*
X38868792Y-7585208D01*
X38855124Y-7568553D01*
X38844971Y-7549557D01*
X38838716Y-7528938D01*
X38836000Y-7501360D01*
X38836000Y-6992640D01*
X38838716Y-6965062D01*
X38844971Y-6944443D01*
X38855124Y-6925447D01*
X38868792Y-6908792D01*
X38885447Y-6895124D01*
X38904443Y-6884971D01*
X38925062Y-6878716D01*
X38952640Y-6876000D01*
X39411360Y-6876000D01*
X39438938Y-6878716D01*
X39438938Y-6878716D01*
G37*
G36*
X38468938Y-6878716D02*
G01*
X38489557Y-6884971D01*
X38508553Y-6895124D01*
X38525208Y-6908792D01*
X38538876Y-6925447D01*
X38549029Y-6944443D01*
X38555284Y-6965062D01*
X38558000Y-6992640D01*
X38558000Y-7501360D01*
X38555284Y-7528938D01*
X38549029Y-7549557D01*
X38538876Y-7568553D01*
X38525208Y-7585208D01*
X38508553Y-7598876D01*
X38489557Y-7609029D01*
X38468938Y-7615284D01*
X38441360Y-7618000D01*
X37982640Y-7618000D01*
X37955062Y-7615284D01*
X37934443Y-7609029D01*
X37915447Y-7598876D01*
X37898792Y-7585208D01*
X37885124Y-7568553D01*
X37874971Y-7549557D01*
X37868716Y-7528938D01*
X37866000Y-7501360D01*
X37866000Y-6992640D01*
X37868716Y-6965062D01*
X37874971Y-6944443D01*
X37885124Y-6925447D01*
X37898792Y-6908792D01*
X37915447Y-6895124D01*
X37934443Y-6884971D01*
X37955062Y-6878716D01*
X37982640Y-6876000D01*
X38441360Y-6876000D01*
X38468938Y-6878716D01*
X38468938Y-6878716D01*
G37*
G36*
X2560500Y-7548000D02*
G01*
X558500Y-7548000D01*
X558500Y-5946000D01*
X2560500Y-5946000D01*
X2560500Y-7548000D01*
X2560500Y-7548000D01*
G37*
G36*
X60635500Y-7548000D02*
G01*
X58633500Y-7548000D01*
X58633500Y-5946000D01*
X60635500Y-5946000D01*
X60635500Y-7548000D01*
X60635500Y-7548000D01*
G37*
G36*
X28502368Y-6127897D02*
G01*
X28536346Y-6138205D01*
X28567667Y-6154946D01*
X28599881Y-6181384D01*
X28639732Y-6221235D01*
X28639738Y-6221240D01*
X29038193Y-6619695D01*
X29038198Y-6619701D01*
X29078049Y-6659552D01*
X29104487Y-6691766D01*
X29121228Y-6723087D01*
X29131536Y-6757065D01*
X29135016Y-6792406D01*
X29131536Y-6827747D01*
X29121228Y-6861725D01*
X29104487Y-6893046D01*
X29078049Y-6925260D01*
X29038198Y-6965111D01*
X29038193Y-6965117D01*
X28692772Y-7310538D01*
X28692766Y-7310543D01*
X28652915Y-7350394D01*
X28620701Y-7376832D01*
X28589380Y-7393573D01*
X28555402Y-7403881D01*
X28520061Y-7407361D01*
X28484720Y-7403881D01*
X28450742Y-7393573D01*
X28419421Y-7376832D01*
X28387207Y-7350394D01*
X28347356Y-7310543D01*
X28347350Y-7310538D01*
X27948895Y-6912083D01*
X27948890Y-6912077D01*
X27909039Y-6872226D01*
X27882601Y-6840012D01*
X27865860Y-6808691D01*
X27855552Y-6774713D01*
X27852072Y-6739372D01*
X27855552Y-6704031D01*
X27865860Y-6670053D01*
X27882601Y-6638732D01*
X27909039Y-6606518D01*
X27948890Y-6566667D01*
X27948895Y-6566661D01*
X28294316Y-6221240D01*
X28294322Y-6221235D01*
X28334173Y-6181384D01*
X28366387Y-6154946D01*
X28397708Y-6138205D01*
X28431686Y-6127897D01*
X28467027Y-6124417D01*
X28502368Y-6127897D01*
X28502368Y-6127897D01*
G37*
G36*
X32798043Y-6110220D02*
G01*
X32832021Y-6120528D01*
X32863342Y-6137269D01*
X32895556Y-6163707D01*
X32935407Y-6203558D01*
X32935413Y-6203563D01*
X33280834Y-6548984D01*
X33280839Y-6548990D01*
X33320690Y-6588841D01*
X33347128Y-6621055D01*
X33363869Y-6652376D01*
X33374177Y-6686354D01*
X33377657Y-6721695D01*
X33374177Y-6757036D01*
X33363869Y-6791014D01*
X33347128Y-6822335D01*
X33320690Y-6854549D01*
X33280839Y-6894400D01*
X33280834Y-6894406D01*
X32882379Y-7292861D01*
X32882373Y-7292866D01*
X32842522Y-7332717D01*
X32810308Y-7359155D01*
X32778987Y-7375896D01*
X32745009Y-7386204D01*
X32709668Y-7389684D01*
X32674327Y-7386204D01*
X32640349Y-7375896D01*
X32609028Y-7359155D01*
X32576814Y-7332717D01*
X32536963Y-7292866D01*
X32536957Y-7292861D01*
X32191536Y-6947440D01*
X32191531Y-6947434D01*
X32151680Y-6907583D01*
X32125242Y-6875369D01*
X32108501Y-6844048D01*
X32098193Y-6810070D01*
X32094713Y-6774729D01*
X32098193Y-6739388D01*
X32108501Y-6705410D01*
X32125242Y-6674089D01*
X32151680Y-6641875D01*
X32191531Y-6602024D01*
X32191536Y-6602018D01*
X32589991Y-6203563D01*
X32589997Y-6203558D01*
X32629848Y-6163707D01*
X32662062Y-6137269D01*
X32693383Y-6120528D01*
X32727361Y-6110220D01*
X32762702Y-6106740D01*
X32798043Y-6110220D01*
X32798043Y-6110220D01*
G37*
G36*
X10428566Y-5979233D02*
G01*
X9649334Y-6758465D01*
X8870102Y-5979233D01*
X9649334Y-5200001D01*
X10428566Y-5979233D01*
X10428566Y-5979233D01*
G37*
G36*
X38551591Y-5325085D02*
G01*
X38585569Y-5335393D01*
X38616890Y-5352134D01*
X38644339Y-5374661D01*
X38666866Y-5402110D01*
X38683607Y-5433431D01*
X38693915Y-5467409D01*
X38698000Y-5508890D01*
X38698000Y-6185110D01*
X38693915Y-6226591D01*
X38683607Y-6260569D01*
X38666866Y-6291890D01*
X38644339Y-6319339D01*
X38616890Y-6341866D01*
X38585569Y-6358607D01*
X38551591Y-6368915D01*
X38510110Y-6373000D01*
X37908890Y-6373000D01*
X37867409Y-6368915D01*
X37833431Y-6358607D01*
X37802110Y-6341866D01*
X37774661Y-6319339D01*
X37752134Y-6291890D01*
X37735393Y-6260569D01*
X37725085Y-6226591D01*
X37723248Y-6207935D01*
X37718468Y-6183902D01*
X37709090Y-6161263D01*
X37695477Y-6140889D01*
X37678150Y-6123562D01*
X37657775Y-6109948D01*
X37635137Y-6100571D01*
X37611103Y-6095790D01*
X37586599Y-6095790D01*
X37562566Y-6100570D01*
X37539927Y-6109948D01*
X37519553Y-6123561D01*
X37502226Y-6140888D01*
X37488612Y-6161263D01*
X37479235Y-6183901D01*
X37474454Y-6207935D01*
X37473852Y-6220187D01*
X37473852Y-6590860D01*
X37472263Y-6606999D01*
X37469348Y-6616608D01*
X37464610Y-6625472D01*
X37458237Y-6633237D01*
X37450472Y-6639610D01*
X37441608Y-6644348D01*
X37431999Y-6647263D01*
X37415860Y-6648852D01*
X37078140Y-6648852D01*
X37062004Y-6647263D01*
X37045785Y-6642343D01*
X37021752Y-6637563D01*
X36997248Y-6637563D01*
X36973215Y-6642343D01*
X36956996Y-6647263D01*
X36940860Y-6648852D01*
X36053140Y-6648852D01*
X36037004Y-6647263D01*
X36020785Y-6642343D01*
X35996752Y-6637563D01*
X35972248Y-6637563D01*
X35948215Y-6642343D01*
X35931996Y-6647263D01*
X35915860Y-6648852D01*
X35578140Y-6648852D01*
X35562001Y-6647263D01*
X35552392Y-6644348D01*
X35543528Y-6639610D01*
X35535763Y-6633237D01*
X35529390Y-6625472D01*
X35524652Y-6616608D01*
X35521737Y-6606999D01*
X35520148Y-6590860D01*
X35520148Y-5903140D01*
X35521737Y-5887001D01*
X35524652Y-5877392D01*
X35529390Y-5868528D01*
X35535763Y-5860763D01*
X35543528Y-5854390D01*
X35552392Y-5849652D01*
X35562001Y-5846737D01*
X35578140Y-5845148D01*
X35915860Y-5845148D01*
X35931996Y-5846737D01*
X35948215Y-5851657D01*
X35972248Y-5856437D01*
X35996752Y-5856437D01*
X36020785Y-5851657D01*
X36037004Y-5846737D01*
X36053140Y-5845148D01*
X36940860Y-5845148D01*
X36956996Y-5846737D01*
X36973215Y-5851657D01*
X36997248Y-5856437D01*
X37021752Y-5856437D01*
X37045785Y-5851657D01*
X37062004Y-5846737D01*
X37078140Y-5845148D01*
X37415860Y-5845148D01*
X37431999Y-5846737D01*
X37441608Y-5849652D01*
X37450472Y-5854390D01*
X37458237Y-5860763D01*
X37464610Y-5868528D01*
X37469348Y-5877392D01*
X37474212Y-5893428D01*
X37476384Y-5904347D01*
X37485762Y-5926986D01*
X37499375Y-5947360D01*
X37516702Y-5964687D01*
X37537077Y-5978301D01*
X37559716Y-5987679D01*
X37583749Y-5992459D01*
X37608253Y-5992459D01*
X37632286Y-5987679D01*
X37654925Y-5978301D01*
X37675299Y-5964688D01*
X37692626Y-5947361D01*
X37706240Y-5926986D01*
X37715618Y-5904347D01*
X37720398Y-5880314D01*
X37721000Y-5868062D01*
X37721000Y-5508890D01*
X37725085Y-5467409D01*
X37735393Y-5433431D01*
X37752134Y-5402110D01*
X37774661Y-5374661D01*
X37802110Y-5352134D01*
X37833431Y-5335393D01*
X37867409Y-5325085D01*
X37908890Y-5321000D01*
X38510110Y-5321000D01*
X38551591Y-5325085D01*
X38551591Y-5325085D01*
G37*
G36*
X40126591Y-5325085D02*
G01*
X40160569Y-5335393D01*
X40191890Y-5352134D01*
X40219339Y-5374661D01*
X40241866Y-5402110D01*
X40258607Y-5433431D01*
X40268915Y-5467409D01*
X40273000Y-5508890D01*
X40273000Y-6185110D01*
X40268915Y-6226591D01*
X40258607Y-6260569D01*
X40241866Y-6291890D01*
X40219339Y-6319339D01*
X40191890Y-6341866D01*
X40160569Y-6358607D01*
X40126591Y-6368915D01*
X40085110Y-6373000D01*
X39483890Y-6373000D01*
X39442409Y-6368915D01*
X39408431Y-6358607D01*
X39377110Y-6341866D01*
X39349661Y-6319339D01*
X39327134Y-6291890D01*
X39310393Y-6260569D01*
X39300085Y-6226591D01*
X39296000Y-6185110D01*
X39296000Y-5508890D01*
X39300085Y-5467409D01*
X39310393Y-5433431D01*
X39327134Y-5402110D01*
X39349661Y-5374661D01*
X39377110Y-5352134D01*
X39408431Y-5335393D01*
X39442409Y-5325085D01*
X39483890Y-5321000D01*
X40085110Y-5321000D01*
X40126591Y-5325085D01*
X40126591Y-5325085D01*
G37*
G36*
X29580705Y-5049560D02*
G01*
X29614683Y-5059868D01*
X29646004Y-5076609D01*
X29678218Y-5103047D01*
X29718069Y-5142898D01*
X29718075Y-5142903D01*
X30116530Y-5541358D01*
X30116535Y-5541364D01*
X30156386Y-5581215D01*
X30182824Y-5613429D01*
X30199565Y-5644750D01*
X30209873Y-5678728D01*
X30213353Y-5714069D01*
X30209873Y-5749410D01*
X30199565Y-5783388D01*
X30182824Y-5814709D01*
X30156386Y-5846923D01*
X30116535Y-5886774D01*
X30116530Y-5886780D01*
X29771109Y-6232201D01*
X29771103Y-6232206D01*
X29731252Y-6272057D01*
X29699038Y-6298495D01*
X29667717Y-6315236D01*
X29633739Y-6325544D01*
X29598398Y-6329024D01*
X29563057Y-6325544D01*
X29529079Y-6315236D01*
X29497758Y-6298495D01*
X29465544Y-6272057D01*
X29425693Y-6232206D01*
X29425687Y-6232201D01*
X29027232Y-5833746D01*
X29027227Y-5833740D01*
X28987376Y-5793889D01*
X28960938Y-5761675D01*
X28944197Y-5730354D01*
X28933889Y-5696376D01*
X28930409Y-5661035D01*
X28933889Y-5625694D01*
X28944197Y-5591716D01*
X28960938Y-5560395D01*
X28987376Y-5528181D01*
X29027227Y-5488330D01*
X29027232Y-5488324D01*
X29372653Y-5142903D01*
X29372659Y-5142898D01*
X29412510Y-5103047D01*
X29444724Y-5076609D01*
X29476045Y-5059868D01*
X29510023Y-5049560D01*
X29545364Y-5046080D01*
X29580705Y-5049560D01*
X29580705Y-5049560D01*
G37*
G36*
X20678938Y-5588716D02*
G01*
X20699557Y-5594971D01*
X20718553Y-5605124D01*
X20735208Y-5618792D01*
X20748876Y-5635447D01*
X20759029Y-5654443D01*
X20765284Y-5675062D01*
X20768000Y-5702640D01*
X20768000Y-6161360D01*
X20765284Y-6188938D01*
X20759029Y-6209557D01*
X20748876Y-6228553D01*
X20735208Y-6245208D01*
X20718553Y-6258876D01*
X20699557Y-6269029D01*
X20678938Y-6275284D01*
X20651360Y-6278000D01*
X20142640Y-6278000D01*
X20115062Y-6275284D01*
X20094443Y-6269029D01*
X20075447Y-6258876D01*
X20058792Y-6245208D01*
X20045124Y-6228553D01*
X20034971Y-6209557D01*
X20028716Y-6188938D01*
X20026000Y-6161360D01*
X20026000Y-5702640D01*
X20028716Y-5675062D01*
X20034971Y-5654443D01*
X20045124Y-5635447D01*
X20058792Y-5618792D01*
X20075447Y-5605124D01*
X20094443Y-5594971D01*
X20115062Y-5588716D01*
X20142640Y-5586000D01*
X20651360Y-5586000D01*
X20678938Y-5588716D01*
X20678938Y-5588716D01*
G37*
G36*
X21678938Y-5588716D02*
G01*
X21699557Y-5594971D01*
X21718553Y-5605124D01*
X21735208Y-5618792D01*
X21748876Y-5635447D01*
X21759029Y-5654443D01*
X21765284Y-5675062D01*
X21768000Y-5702640D01*
X21768000Y-6161360D01*
X21765284Y-6188938D01*
X21759029Y-6209557D01*
X21748876Y-6228553D01*
X21735208Y-6245208D01*
X21718553Y-6258876D01*
X21699557Y-6269029D01*
X21678938Y-6275284D01*
X21651360Y-6278000D01*
X21142640Y-6278000D01*
X21115062Y-6275284D01*
X21094443Y-6269029D01*
X21075447Y-6258876D01*
X21058792Y-6245208D01*
X21045124Y-6228553D01*
X21034971Y-6209557D01*
X21028716Y-6188938D01*
X21026000Y-6161360D01*
X21026000Y-5702640D01*
X21028716Y-5675062D01*
X21034971Y-5654443D01*
X21045124Y-5635447D01*
X21058792Y-5618792D01*
X21075447Y-5605124D01*
X21094443Y-5594971D01*
X21115062Y-5588716D01*
X21142640Y-5586000D01*
X21651360Y-5586000D01*
X21678938Y-5588716D01*
X21678938Y-5588716D01*
G37*
G36*
X31684349Y-4996526D02*
G01*
X31718327Y-5006834D01*
X31749648Y-5023575D01*
X31781862Y-5050013D01*
X31821713Y-5089864D01*
X31821719Y-5089869D01*
X32167140Y-5435290D01*
X32167145Y-5435296D01*
X32206996Y-5475147D01*
X32233434Y-5507361D01*
X32250175Y-5538682D01*
X32260483Y-5572660D01*
X32263963Y-5608001D01*
X32260483Y-5643342D01*
X32250175Y-5677320D01*
X32233434Y-5708641D01*
X32206996Y-5740855D01*
X32167145Y-5780706D01*
X32167140Y-5780712D01*
X31768685Y-6179167D01*
X31768679Y-6179172D01*
X31728828Y-6219023D01*
X31696614Y-6245461D01*
X31665293Y-6262202D01*
X31631315Y-6272510D01*
X31595974Y-6275990D01*
X31560633Y-6272510D01*
X31526655Y-6262202D01*
X31495334Y-6245461D01*
X31463120Y-6219023D01*
X31423269Y-6179172D01*
X31423263Y-6179167D01*
X31077842Y-5833746D01*
X31077837Y-5833740D01*
X31037986Y-5793889D01*
X31011548Y-5761675D01*
X30994807Y-5730354D01*
X30984499Y-5696376D01*
X30981019Y-5661035D01*
X30984499Y-5625694D01*
X30994807Y-5591716D01*
X31011548Y-5560395D01*
X31037986Y-5528181D01*
X31077837Y-5488330D01*
X31077842Y-5488324D01*
X31476297Y-5089869D01*
X31476303Y-5089864D01*
X31516154Y-5050013D01*
X31548368Y-5023575D01*
X31579689Y-5006834D01*
X31613667Y-4996526D01*
X31649008Y-4993046D01*
X31684349Y-4996526D01*
X31684349Y-4996526D01*
G37*
G36*
X17146080Y-5484258D02*
G01*
X16366848Y-6263490D01*
X14880510Y-4777152D01*
X15659742Y-3997920D01*
X17146080Y-5484258D01*
X17146080Y-5484258D01*
G37*
G36*
X23076591Y-5250085D02*
G01*
X23110569Y-5260393D01*
X23141890Y-5277134D01*
X23169339Y-5299661D01*
X23191866Y-5327110D01*
X23208607Y-5358431D01*
X23218915Y-5392409D01*
X23223000Y-5433890D01*
X23223000Y-6035110D01*
X23218915Y-6076591D01*
X23208607Y-6110569D01*
X23191866Y-6141890D01*
X23169339Y-6169339D01*
X23141890Y-6191866D01*
X23110569Y-6208607D01*
X23076591Y-6218915D01*
X23035110Y-6223000D01*
X22358890Y-6223000D01*
X22317409Y-6218915D01*
X22283431Y-6208607D01*
X22252110Y-6191866D01*
X22224661Y-6169339D01*
X22202134Y-6141890D01*
X22185393Y-6110569D01*
X22175085Y-6076591D01*
X22171000Y-6035110D01*
X22171000Y-5433890D01*
X22175085Y-5392409D01*
X22185393Y-5358431D01*
X22202134Y-5327110D01*
X22224661Y-5299661D01*
X22252110Y-5277134D01*
X22283431Y-5260393D01*
X22317409Y-5250085D01*
X22358890Y-5246000D01*
X23035110Y-5246000D01*
X23076591Y-5250085D01*
X23076591Y-5250085D01*
G37*
G36*
X55376591Y-5150085D02*
G01*
X55410569Y-5160393D01*
X55441890Y-5177134D01*
X55469339Y-5199661D01*
X55491866Y-5227110D01*
X55508607Y-5258431D01*
X55518915Y-5292409D01*
X55523000Y-5333890D01*
X55523000Y-5935110D01*
X55518915Y-5976591D01*
X55508607Y-6010569D01*
X55491866Y-6041890D01*
X55469339Y-6069339D01*
X55441890Y-6091866D01*
X55410569Y-6108607D01*
X55376591Y-6118915D01*
X55335110Y-6123000D01*
X54658890Y-6123000D01*
X54617409Y-6118915D01*
X54583431Y-6108607D01*
X54552110Y-6091866D01*
X54524661Y-6069339D01*
X54502134Y-6041890D01*
X54485393Y-6010569D01*
X54475085Y-5976591D01*
X54471000Y-5935110D01*
X54471000Y-5333890D01*
X54475085Y-5292409D01*
X54485393Y-5258431D01*
X54502134Y-5227110D01*
X54524661Y-5199661D01*
X54552110Y-5177134D01*
X54583431Y-5160393D01*
X54617409Y-5150085D01*
X54658890Y-5146000D01*
X55335110Y-5146000D01*
X55376591Y-5150085D01*
X55376591Y-5150085D01*
G37*
G36*
X7948000Y-5798000D02*
G01*
X5846000Y-5798000D01*
X5846000Y-3696000D01*
X7948000Y-3696000D01*
X7948000Y-5798000D01*
X7948000Y-5798000D01*
G37*
G36*
X11418516Y-4989284D02*
G01*
X10639284Y-5768516D01*
X9860052Y-4989284D01*
X10639284Y-4210052D01*
X11418516Y-4989284D01*
X11418516Y-4989284D01*
G37*
G36*
X18315705Y-4465855D02*
G01*
X18349683Y-4476163D01*
X18381004Y-4492904D01*
X18413218Y-4519342D01*
X18453069Y-4559193D01*
X18453075Y-4559198D01*
X18798496Y-4904619D01*
X18798501Y-4904625D01*
X18838352Y-4944476D01*
X18864790Y-4976690D01*
X18881531Y-5008011D01*
X18891839Y-5041989D01*
X18895319Y-5077330D01*
X18891839Y-5112671D01*
X18881531Y-5146649D01*
X18864790Y-5177970D01*
X18838352Y-5210184D01*
X18798501Y-5250035D01*
X18798496Y-5250041D01*
X18400041Y-5648496D01*
X18400035Y-5648501D01*
X18360184Y-5688352D01*
X18327970Y-5714790D01*
X18296649Y-5731531D01*
X18262671Y-5741839D01*
X18227330Y-5745319D01*
X18191989Y-5741839D01*
X18158011Y-5731531D01*
X18126690Y-5714790D01*
X18094476Y-5688352D01*
X18054625Y-5648501D01*
X18054619Y-5648496D01*
X17709198Y-5303075D01*
X17709193Y-5303069D01*
X17669342Y-5263218D01*
X17642904Y-5231004D01*
X17626163Y-5199683D01*
X17615855Y-5165705D01*
X17612375Y-5130364D01*
X17615855Y-5095023D01*
X17626163Y-5061045D01*
X17642904Y-5029724D01*
X17669342Y-4997510D01*
X17709193Y-4957659D01*
X17709198Y-4957653D01*
X18107653Y-4559198D01*
X18107659Y-4559193D01*
X18147510Y-4519342D01*
X18179724Y-4492904D01*
X18211045Y-4476163D01*
X18245023Y-4465855D01*
X18280364Y-4462375D01*
X18315705Y-4465855D01*
X18315705Y-4465855D01*
G37*
G36*
X60048355Y-3599140D02*
G01*
X60112118Y-3605420D01*
X60202904Y-3632960D01*
X60234836Y-3642646D01*
X60347925Y-3703094D01*
X60447054Y-3784446D01*
X60528406Y-3883575D01*
X60588854Y-3996664D01*
X60589664Y-3999334D01*
X60622413Y-4107292D01*
X60631787Y-4129925D01*
X60635500Y-4135482D01*
X60635500Y-4208886D01*
X60636102Y-4221138D01*
X60638649Y-4247000D01*
X60636102Y-4272862D01*
X60635500Y-4285114D01*
X60635500Y-5498000D01*
X58633500Y-5498000D01*
X58633500Y-4285114D01*
X58632898Y-4272862D01*
X58630351Y-4247000D01*
X58632898Y-4221138D01*
X58633500Y-4208886D01*
X58633500Y-4135594D01*
X58642457Y-4118836D01*
X58646585Y-4107299D01*
X58679336Y-3999334D01*
X58680146Y-3996664D01*
X58740594Y-3883575D01*
X58821946Y-3784446D01*
X58921075Y-3703094D01*
X59034164Y-3642646D01*
X59066096Y-3632960D01*
X59156882Y-3605420D01*
X59220645Y-3599140D01*
X59252526Y-3596000D01*
X60016474Y-3596000D01*
X60048355Y-3599140D01*
X60048355Y-3599140D01*
G37*
G36*
X1973355Y-3599140D02*
G01*
X2037118Y-3605420D01*
X2127904Y-3632960D01*
X2159836Y-3642646D01*
X2272925Y-3703094D01*
X2372054Y-3784446D01*
X2453406Y-3883575D01*
X2513854Y-3996664D01*
X2514664Y-3999334D01*
X2547413Y-4107292D01*
X2556787Y-4129925D01*
X2560500Y-4135482D01*
X2560500Y-4208886D01*
X2561102Y-4221138D01*
X2563649Y-4247000D01*
X2561102Y-4272862D01*
X2560500Y-4285114D01*
X2560500Y-5498000D01*
X558500Y-5498000D01*
X558500Y-4285114D01*
X557898Y-4272862D01*
X555351Y-4247000D01*
X557898Y-4221138D01*
X558500Y-4208886D01*
X558500Y-4135594D01*
X567457Y-4118836D01*
X571585Y-4107299D01*
X604336Y-3999334D01*
X605146Y-3996664D01*
X665594Y-3883575D01*
X746946Y-3784446D01*
X846075Y-3703094D01*
X959164Y-3642646D01*
X991096Y-3632960D01*
X1081882Y-3605420D01*
X1145645Y-3599140D01*
X1177526Y-3596000D01*
X1941474Y-3596000D01*
X1973355Y-3599140D01*
X1973355Y-3599140D01*
G37*
G36*
X35198000Y-5446000D02*
G01*
X34096000Y-5446000D01*
X34096000Y-3444000D01*
X35198000Y-3444000D01*
X35198000Y-5446000D01*
X35198000Y-5446000D01*
G37*
G36*
X36698000Y-5446000D02*
G01*
X35596000Y-5446000D01*
X35596000Y-3444000D01*
X36698000Y-3444000D01*
X36698000Y-5446000D01*
X36698000Y-5446000D01*
G37*
G36*
X20678938Y-4618716D02*
G01*
X20699557Y-4624971D01*
X20718553Y-4635124D01*
X20735208Y-4648792D01*
X20748876Y-4665447D01*
X20759029Y-4684443D01*
X20765284Y-4705062D01*
X20768000Y-4732640D01*
X20768000Y-5191360D01*
X20765284Y-5218938D01*
X20759029Y-5239557D01*
X20748876Y-5258553D01*
X20735208Y-5275208D01*
X20718553Y-5288876D01*
X20699557Y-5299029D01*
X20678938Y-5305284D01*
X20651360Y-5308000D01*
X20142640Y-5308000D01*
X20115062Y-5305284D01*
X20094443Y-5299029D01*
X20075447Y-5288876D01*
X20058792Y-5275208D01*
X20045124Y-5258553D01*
X20034971Y-5239557D01*
X20028716Y-5218938D01*
X20026000Y-5191360D01*
X20026000Y-4732640D01*
X20028716Y-4705062D01*
X20034971Y-4684443D01*
X20045124Y-4665447D01*
X20058792Y-4648792D01*
X20075447Y-4635124D01*
X20094443Y-4624971D01*
X20115062Y-4618716D01*
X20142640Y-4616000D01*
X20651360Y-4616000D01*
X20678938Y-4618716D01*
X20678938Y-4618716D01*
G37*
G36*
X21678938Y-4618716D02*
G01*
X21699557Y-4624971D01*
X21718553Y-4635124D01*
X21735208Y-4648792D01*
X21748876Y-4665447D01*
X21759029Y-4684443D01*
X21765284Y-4705062D01*
X21768000Y-4732640D01*
X21768000Y-5191360D01*
X21765284Y-5218938D01*
X21759029Y-5239557D01*
X21748876Y-5258553D01*
X21735208Y-5275208D01*
X21718553Y-5288876D01*
X21699557Y-5299029D01*
X21678938Y-5305284D01*
X21651360Y-5308000D01*
X21142640Y-5308000D01*
X21115062Y-5305284D01*
X21094443Y-5299029D01*
X21075447Y-5288876D01*
X21058792Y-5275208D01*
X21045124Y-5258553D01*
X21034971Y-5239557D01*
X21028716Y-5218938D01*
X21026000Y-5191360D01*
X21026000Y-4732640D01*
X21028716Y-4705062D01*
X21034971Y-4684443D01*
X21045124Y-4665447D01*
X21058792Y-4648792D01*
X21075447Y-4635124D01*
X21094443Y-4624971D01*
X21115062Y-4618716D01*
X21142640Y-4616000D01*
X21651360Y-4616000D01*
X21678938Y-4618716D01*
X21678938Y-4618716D01*
G37*
G36*
X30694399Y-3935866D02*
G01*
X30728377Y-3946174D01*
X30759698Y-3962915D01*
X30791912Y-3989353D01*
X30831763Y-4029204D01*
X30831769Y-4029209D01*
X31230224Y-4427664D01*
X31230229Y-4427670D01*
X31270080Y-4467521D01*
X31296518Y-4499735D01*
X31313259Y-4531056D01*
X31323567Y-4565034D01*
X31327047Y-4600375D01*
X31323567Y-4635716D01*
X31313259Y-4669694D01*
X31296518Y-4701015D01*
X31270080Y-4733229D01*
X31230229Y-4773080D01*
X31230224Y-4773086D01*
X30884803Y-5118507D01*
X30884797Y-5118512D01*
X30844946Y-5158363D01*
X30812732Y-5184801D01*
X30781411Y-5201542D01*
X30747433Y-5211850D01*
X30712092Y-5215330D01*
X30676751Y-5211850D01*
X30642773Y-5201542D01*
X30611452Y-5184801D01*
X30579238Y-5158363D01*
X30539387Y-5118512D01*
X30539381Y-5118507D01*
X30140926Y-4720052D01*
X30140921Y-4720046D01*
X30101070Y-4680195D01*
X30074632Y-4647981D01*
X30057891Y-4616660D01*
X30047583Y-4582682D01*
X30044103Y-4547341D01*
X30047583Y-4512000D01*
X30057891Y-4478022D01*
X30074632Y-4446701D01*
X30101070Y-4414487D01*
X30140921Y-4374636D01*
X30140926Y-4374630D01*
X30486347Y-4029209D01*
X30486353Y-4029204D01*
X30526204Y-3989353D01*
X30558418Y-3962915D01*
X30589739Y-3946174D01*
X30623717Y-3935866D01*
X30659058Y-3932386D01*
X30694399Y-3935866D01*
X30694399Y-3935866D01*
G37*
G36*
X12408465Y-3999334D02*
G01*
X11629233Y-4778566D01*
X10850001Y-3999334D01*
X11629233Y-3220102D01*
X12408465Y-3999334D01*
X12408465Y-3999334D01*
G37*
G36*
X38551591Y-3725085D02*
G01*
X38585569Y-3735393D01*
X38616890Y-3752134D01*
X38644339Y-3774661D01*
X38666866Y-3802110D01*
X38683607Y-3833431D01*
X38693915Y-3867409D01*
X38698000Y-3908890D01*
X38698000Y-4585110D01*
X38693915Y-4626591D01*
X38683607Y-4660569D01*
X38666866Y-4691890D01*
X38644339Y-4719339D01*
X38616890Y-4741866D01*
X38585569Y-4758607D01*
X38551591Y-4768915D01*
X38510110Y-4773000D01*
X37908890Y-4773000D01*
X37867409Y-4768915D01*
X37833431Y-4758607D01*
X37802110Y-4741866D01*
X37774661Y-4719339D01*
X37752134Y-4691890D01*
X37735393Y-4660569D01*
X37725085Y-4626591D01*
X37721000Y-4585110D01*
X37721000Y-3908890D01*
X37725085Y-3867409D01*
X37735393Y-3833431D01*
X37752134Y-3802110D01*
X37774661Y-3774661D01*
X37802110Y-3752134D01*
X37833431Y-3735393D01*
X37867409Y-3725085D01*
X37908890Y-3721000D01*
X38510110Y-3721000D01*
X38551591Y-3725085D01*
X38551591Y-3725085D01*
G37*
G36*
X40126591Y-3725085D02*
G01*
X40160569Y-3735393D01*
X40191890Y-3752134D01*
X40219339Y-3774661D01*
X40241866Y-3802110D01*
X40258607Y-3833431D01*
X40268915Y-3867409D01*
X40273000Y-3908890D01*
X40273000Y-4585110D01*
X40268915Y-4626591D01*
X40258607Y-4660569D01*
X40241866Y-4691890D01*
X40219339Y-4719339D01*
X40191890Y-4741866D01*
X40160569Y-4758607D01*
X40126591Y-4768915D01*
X40085110Y-4773000D01*
X39483890Y-4773000D01*
X39442409Y-4768915D01*
X39408431Y-4758607D01*
X39377110Y-4741866D01*
X39349661Y-4719339D01*
X39327134Y-4691890D01*
X39310393Y-4660569D01*
X39300085Y-4626591D01*
X39296000Y-4585110D01*
X39296000Y-3908890D01*
X39300085Y-3867409D01*
X39310393Y-3833431D01*
X39327134Y-3802110D01*
X39349661Y-3774661D01*
X39377110Y-3752134D01*
X39408431Y-3735393D01*
X39442409Y-3725085D01*
X39483890Y-3721000D01*
X40085110Y-3721000D01*
X40126591Y-3725085D01*
X40126591Y-3725085D01*
G37*
G36*
X23076591Y-3675085D02*
G01*
X23110569Y-3685393D01*
X23141890Y-3702134D01*
X23169339Y-3724661D01*
X23191866Y-3752110D01*
X23208607Y-3783431D01*
X23218915Y-3817409D01*
X23223000Y-3858890D01*
X23223000Y-4460110D01*
X23218915Y-4501591D01*
X23208607Y-4535569D01*
X23191866Y-4566890D01*
X23169339Y-4594339D01*
X23141890Y-4616866D01*
X23110569Y-4633607D01*
X23076591Y-4643915D01*
X23035110Y-4648000D01*
X22358890Y-4648000D01*
X22317409Y-4643915D01*
X22283431Y-4633607D01*
X22252110Y-4616866D01*
X22224661Y-4594339D01*
X22202134Y-4566890D01*
X22185393Y-4535569D01*
X22175085Y-4501591D01*
X22171000Y-4460110D01*
X22171000Y-3858890D01*
X22175085Y-3817409D01*
X22185393Y-3783431D01*
X22202134Y-3752110D01*
X22224661Y-3724661D01*
X22252110Y-3702134D01*
X22283431Y-3685393D01*
X22317409Y-3675085D01*
X22358890Y-3671000D01*
X23035110Y-3671000D01*
X23076591Y-3675085D01*
X23076591Y-3675085D01*
G37*
G36*
X17202011Y-3352161D02*
G01*
X17235989Y-3362469D01*
X17267310Y-3379210D01*
X17299524Y-3405648D01*
X17339375Y-3445499D01*
X17339381Y-3445504D01*
X17684802Y-3790925D01*
X17684807Y-3790931D01*
X17724658Y-3830782D01*
X17751096Y-3862996D01*
X17767837Y-3894317D01*
X17778145Y-3928295D01*
X17781625Y-3963636D01*
X17778145Y-3998977D01*
X17767837Y-4032955D01*
X17751096Y-4064276D01*
X17724658Y-4096490D01*
X17684807Y-4136341D01*
X17684802Y-4136347D01*
X17286347Y-4534802D01*
X17286341Y-4534807D01*
X17246490Y-4574658D01*
X17214276Y-4601096D01*
X17182955Y-4617837D01*
X17148977Y-4628145D01*
X17113636Y-4631625D01*
X17078295Y-4628145D01*
X17044317Y-4617837D01*
X17012996Y-4601096D01*
X16980782Y-4574658D01*
X16940931Y-4534807D01*
X16940925Y-4534802D01*
X16595504Y-4189381D01*
X16595499Y-4189375D01*
X16555648Y-4149524D01*
X16529210Y-4117310D01*
X16512469Y-4085989D01*
X16502161Y-4052011D01*
X16498681Y-4016670D01*
X16502161Y-3981329D01*
X16512469Y-3947351D01*
X16529210Y-3916030D01*
X16555648Y-3883816D01*
X16595499Y-3843965D01*
X16595504Y-3843959D01*
X16993959Y-3445504D01*
X16993965Y-3445499D01*
X17033816Y-3405648D01*
X17066030Y-3379210D01*
X17097351Y-3362469D01*
X17131329Y-3352161D01*
X17166670Y-3348681D01*
X17202011Y-3352161D01*
X17202011Y-3352161D01*
G37*
G36*
X55376591Y-3575085D02*
G01*
X55410569Y-3585393D01*
X55441890Y-3602134D01*
X55469339Y-3624661D01*
X55491866Y-3652110D01*
X55508607Y-3683431D01*
X55518915Y-3717409D01*
X55523000Y-3758890D01*
X55523000Y-4360110D01*
X55518915Y-4401591D01*
X55508607Y-4435569D01*
X55491866Y-4466890D01*
X55469339Y-4494339D01*
X55441890Y-4516866D01*
X55410569Y-4533607D01*
X55376591Y-4543915D01*
X55335110Y-4548000D01*
X54658890Y-4548000D01*
X54617409Y-4543915D01*
X54583431Y-4533607D01*
X54552110Y-4516866D01*
X54524661Y-4494339D01*
X54502134Y-4466890D01*
X54485393Y-4435569D01*
X54475085Y-4401591D01*
X54471000Y-4360110D01*
X54471000Y-3758890D01*
X54475085Y-3717409D01*
X54485393Y-3683431D01*
X54502134Y-3652110D01*
X54524661Y-3624661D01*
X54552110Y-3602134D01*
X54583431Y-3585393D01*
X54617409Y-3575085D01*
X54658890Y-3571000D01*
X55335110Y-3571000D01*
X55376591Y-3575085D01*
X55376591Y-3575085D01*
G37*
G36*
X1507443Y-502519D02*
G01*
X1573627Y-509037D01*
X1743466Y-560557D01*
X1899991Y-644222D01*
X1935729Y-673552D01*
X2037186Y-756814D01*
X2116224Y-853124D01*
X2149778Y-894009D01*
X2161859Y-916611D01*
X2221054Y-1027355D01*
X2233443Y-1050534D01*
X2284963Y-1220373D01*
X2302359Y-1397000D01*
X2284963Y-1573627D01*
X2233443Y-1743466D01*
X2149778Y-1899991D01*
X2120448Y-1935729D01*
X2037186Y-2037186D01*
X1935729Y-2120448D01*
X1899991Y-2149778D01*
X1743466Y-2233443D01*
X1573627Y-2284963D01*
X1507443Y-2291481D01*
X1441260Y-2298000D01*
X1352740Y-2298000D01*
X1286557Y-2291481D01*
X1220373Y-2284963D01*
X1050534Y-2233443D01*
X894009Y-2149778D01*
X858271Y-2120448D01*
X756814Y-2037186D01*
X673552Y-1935729D01*
X644222Y-1899991D01*
X560557Y-1743466D01*
X509037Y-1573627D01*
X491641Y-1397000D01*
X509037Y-1220373D01*
X560557Y-1050534D01*
X572947Y-1027355D01*
X632141Y-916611D01*
X644222Y-894009D01*
X677776Y-853124D01*
X756814Y-756814D01*
X858271Y-673552D01*
X894009Y-644222D01*
X1050534Y-560557D01*
X1220373Y-509037D01*
X1286557Y-502519D01*
X1352740Y-496000D01*
X1441260Y-496000D01*
X1507443Y-502519D01*
X1507443Y-502519D01*
G37*
G36*
X37067443Y-502519D02*
G01*
X37133627Y-509037D01*
X37303466Y-560557D01*
X37459991Y-644222D01*
X37495729Y-673552D01*
X37597186Y-756814D01*
X37676224Y-853124D01*
X37709778Y-894009D01*
X37721859Y-916611D01*
X37781054Y-1027355D01*
X37793443Y-1050534D01*
X37844963Y-1220373D01*
X37862359Y-1397000D01*
X37844963Y-1573627D01*
X37793443Y-1743466D01*
X37709778Y-1899991D01*
X37680448Y-1935729D01*
X37597186Y-2037186D01*
X37495729Y-2120448D01*
X37459991Y-2149778D01*
X37303466Y-2233443D01*
X37133627Y-2284963D01*
X37067443Y-2291481D01*
X37001260Y-2298000D01*
X36912740Y-2298000D01*
X36846557Y-2291481D01*
X36780373Y-2284963D01*
X36610534Y-2233443D01*
X36454009Y-2149778D01*
X36418271Y-2120448D01*
X36316814Y-2037186D01*
X36233552Y-1935729D01*
X36204222Y-1899991D01*
X36120557Y-1743466D01*
X36069037Y-1573627D01*
X36051641Y-1397000D01*
X36069037Y-1220373D01*
X36120557Y-1050534D01*
X36132947Y-1027355D01*
X36192141Y-916611D01*
X36204222Y-894009D01*
X36237776Y-853124D01*
X36316814Y-756814D01*
X36418271Y-673552D01*
X36454009Y-644222D01*
X36610534Y-560557D01*
X36780373Y-509037D01*
X36846557Y-502519D01*
X36912740Y-496000D01*
X37001260Y-496000D01*
X37067443Y-502519D01*
X37067443Y-502519D01*
G37*
G36*
X14207443Y-502519D02*
G01*
X14273627Y-509037D01*
X14443466Y-560557D01*
X14599991Y-644222D01*
X14635729Y-673552D01*
X14737186Y-756814D01*
X14816224Y-853124D01*
X14849778Y-894009D01*
X14861859Y-916611D01*
X14921054Y-1027355D01*
X14933443Y-1050534D01*
X14984963Y-1220373D01*
X15002359Y-1397000D01*
X14984963Y-1573627D01*
X14933443Y-1743466D01*
X14849778Y-1899991D01*
X14820448Y-1935729D01*
X14737186Y-2037186D01*
X14635729Y-2120448D01*
X14599991Y-2149778D01*
X14443466Y-2233443D01*
X14273627Y-2284963D01*
X14207443Y-2291481D01*
X14141260Y-2298000D01*
X14052740Y-2298000D01*
X13986557Y-2291481D01*
X13920373Y-2284963D01*
X13750534Y-2233443D01*
X13594009Y-2149778D01*
X13558271Y-2120448D01*
X13456814Y-2037186D01*
X13373552Y-1935729D01*
X13344222Y-1899991D01*
X13260557Y-1743466D01*
X13209037Y-1573627D01*
X13191641Y-1397000D01*
X13209037Y-1220373D01*
X13260557Y-1050534D01*
X13272947Y-1027355D01*
X13332141Y-916611D01*
X13344222Y-894009D01*
X13377776Y-853124D01*
X13456814Y-756814D01*
X13558271Y-673552D01*
X13594009Y-644222D01*
X13750534Y-560557D01*
X13920373Y-509037D01*
X13986557Y-502519D01*
X14052740Y-496000D01*
X14141260Y-496000D01*
X14207443Y-502519D01*
X14207443Y-502519D01*
G37*
G36*
X16747443Y-502519D02*
G01*
X16813627Y-509037D01*
X16983466Y-560557D01*
X17139991Y-644222D01*
X17175729Y-673552D01*
X17277186Y-756814D01*
X17356224Y-853124D01*
X17389778Y-894009D01*
X17401859Y-916611D01*
X17461054Y-1027355D01*
X17473443Y-1050534D01*
X17524963Y-1220373D01*
X17542359Y-1397000D01*
X17524963Y-1573627D01*
X17473443Y-1743466D01*
X17389778Y-1899991D01*
X17360448Y-1935729D01*
X17277186Y-2037186D01*
X17175729Y-2120448D01*
X17139991Y-2149778D01*
X16983466Y-2233443D01*
X16813627Y-2284963D01*
X16747443Y-2291481D01*
X16681260Y-2298000D01*
X16592740Y-2298000D01*
X16526557Y-2291481D01*
X16460373Y-2284963D01*
X16290534Y-2233443D01*
X16134009Y-2149778D01*
X16098271Y-2120448D01*
X15996814Y-2037186D01*
X15913552Y-1935729D01*
X15884222Y-1899991D01*
X15800557Y-1743466D01*
X15749037Y-1573627D01*
X15731641Y-1397000D01*
X15749037Y-1220373D01*
X15800557Y-1050534D01*
X15812947Y-1027355D01*
X15872141Y-916611D01*
X15884222Y-894009D01*
X15917776Y-853124D01*
X15996814Y-756814D01*
X16098271Y-673552D01*
X16134009Y-644222D01*
X16290534Y-560557D01*
X16460373Y-509037D01*
X16526557Y-502519D01*
X16592740Y-496000D01*
X16681260Y-496000D01*
X16747443Y-502519D01*
X16747443Y-502519D01*
G37*
G36*
X19287443Y-502519D02*
G01*
X19353627Y-509037D01*
X19523466Y-560557D01*
X19679991Y-644222D01*
X19715729Y-673552D01*
X19817186Y-756814D01*
X19896224Y-853124D01*
X19929778Y-894009D01*
X19941859Y-916611D01*
X20001054Y-1027355D01*
X20013443Y-1050534D01*
X20064963Y-1220373D01*
X20082359Y-1397000D01*
X20064963Y-1573627D01*
X20013443Y-1743466D01*
X19929778Y-1899991D01*
X19900448Y-1935729D01*
X19817186Y-2037186D01*
X19715729Y-2120448D01*
X19679991Y-2149778D01*
X19523466Y-2233443D01*
X19353627Y-2284963D01*
X19287443Y-2291481D01*
X19221260Y-2298000D01*
X19132740Y-2298000D01*
X19066557Y-2291481D01*
X19000373Y-2284963D01*
X18830534Y-2233443D01*
X18674009Y-2149778D01*
X18638271Y-2120448D01*
X18536814Y-2037186D01*
X18453552Y-1935729D01*
X18424222Y-1899991D01*
X18340557Y-1743466D01*
X18289037Y-1573627D01*
X18271641Y-1397000D01*
X18289037Y-1220373D01*
X18340557Y-1050534D01*
X18352947Y-1027355D01*
X18412141Y-916611D01*
X18424222Y-894009D01*
X18457776Y-853124D01*
X18536814Y-756814D01*
X18638271Y-673552D01*
X18674009Y-644222D01*
X18830534Y-560557D01*
X19000373Y-509037D01*
X19066557Y-502519D01*
X19132740Y-496000D01*
X19221260Y-496000D01*
X19287443Y-502519D01*
X19287443Y-502519D01*
G37*
G36*
X21827443Y-502519D02*
G01*
X21893627Y-509037D01*
X22063466Y-560557D01*
X22219991Y-644222D01*
X22255729Y-673552D01*
X22357186Y-756814D01*
X22436224Y-853124D01*
X22469778Y-894009D01*
X22481859Y-916611D01*
X22541054Y-1027355D01*
X22553443Y-1050534D01*
X22604963Y-1220373D01*
X22622359Y-1397000D01*
X22604963Y-1573627D01*
X22553443Y-1743466D01*
X22469778Y-1899991D01*
X22440448Y-1935729D01*
X22357186Y-2037186D01*
X22255729Y-2120448D01*
X22219991Y-2149778D01*
X22063466Y-2233443D01*
X21893627Y-2284963D01*
X21827443Y-2291481D01*
X21761260Y-2298000D01*
X21672740Y-2298000D01*
X21606557Y-2291481D01*
X21540373Y-2284963D01*
X21370534Y-2233443D01*
X21214009Y-2149778D01*
X21178271Y-2120448D01*
X21076814Y-2037186D01*
X20993552Y-1935729D01*
X20964222Y-1899991D01*
X20880557Y-1743466D01*
X20829037Y-1573627D01*
X20811641Y-1397000D01*
X20829037Y-1220373D01*
X20880557Y-1050534D01*
X20892947Y-1027355D01*
X20952141Y-916611D01*
X20964222Y-894009D01*
X20997776Y-853124D01*
X21076814Y-756814D01*
X21178271Y-673552D01*
X21214009Y-644222D01*
X21370534Y-560557D01*
X21540373Y-509037D01*
X21606557Y-502519D01*
X21672740Y-496000D01*
X21761260Y-496000D01*
X21827443Y-502519D01*
X21827443Y-502519D01*
G37*
G36*
X26907443Y-502519D02*
G01*
X26973627Y-509037D01*
X27143466Y-560557D01*
X27299991Y-644222D01*
X27335729Y-673552D01*
X27437186Y-756814D01*
X27516224Y-853124D01*
X27549778Y-894009D01*
X27561859Y-916611D01*
X27621054Y-1027355D01*
X27633443Y-1050534D01*
X27684963Y-1220373D01*
X27702359Y-1397000D01*
X27684963Y-1573627D01*
X27633443Y-1743466D01*
X27549778Y-1899991D01*
X27520448Y-1935729D01*
X27437186Y-2037186D01*
X27335729Y-2120448D01*
X27299991Y-2149778D01*
X27143466Y-2233443D01*
X26973627Y-2284963D01*
X26907443Y-2291481D01*
X26841260Y-2298000D01*
X26752740Y-2298000D01*
X26686557Y-2291481D01*
X26620373Y-2284963D01*
X26450534Y-2233443D01*
X26294009Y-2149778D01*
X26258271Y-2120448D01*
X26156814Y-2037186D01*
X26073552Y-1935729D01*
X26044222Y-1899991D01*
X25960557Y-1743466D01*
X25909037Y-1573627D01*
X25891641Y-1397000D01*
X25909037Y-1220373D01*
X25960557Y-1050534D01*
X25972947Y-1027355D01*
X26032141Y-916611D01*
X26044222Y-894009D01*
X26077776Y-853124D01*
X26156814Y-756814D01*
X26258271Y-673552D01*
X26294009Y-644222D01*
X26450534Y-560557D01*
X26620373Y-509037D01*
X26686557Y-502519D01*
X26752740Y-496000D01*
X26841260Y-496000D01*
X26907443Y-502519D01*
X26907443Y-502519D01*
G37*
G36*
X29447443Y-502519D02*
G01*
X29513627Y-509037D01*
X29683466Y-560557D01*
X29839991Y-644222D01*
X29875729Y-673552D01*
X29977186Y-756814D01*
X30056224Y-853124D01*
X30089778Y-894009D01*
X30101859Y-916611D01*
X30161054Y-1027355D01*
X30173443Y-1050534D01*
X30224963Y-1220373D01*
X30242359Y-1397000D01*
X30224963Y-1573627D01*
X30173443Y-1743466D01*
X30089778Y-1899991D01*
X30060448Y-1935729D01*
X29977186Y-2037186D01*
X29875729Y-2120448D01*
X29839991Y-2149778D01*
X29683466Y-2233443D01*
X29513627Y-2284963D01*
X29447443Y-2291481D01*
X29381260Y-2298000D01*
X29292740Y-2298000D01*
X29226557Y-2291481D01*
X29160373Y-2284963D01*
X28990534Y-2233443D01*
X28834009Y-2149778D01*
X28798271Y-2120448D01*
X28696814Y-2037186D01*
X28613552Y-1935729D01*
X28584222Y-1899991D01*
X28500557Y-1743466D01*
X28449037Y-1573627D01*
X28431641Y-1397000D01*
X28449037Y-1220373D01*
X28500557Y-1050534D01*
X28512947Y-1027355D01*
X28572141Y-916611D01*
X28584222Y-894009D01*
X28617776Y-853124D01*
X28696814Y-756814D01*
X28798271Y-673552D01*
X28834009Y-644222D01*
X28990534Y-560557D01*
X29160373Y-509037D01*
X29226557Y-502519D01*
X29292740Y-496000D01*
X29381260Y-496000D01*
X29447443Y-502519D01*
X29447443Y-502519D01*
G37*
G36*
X31987443Y-502519D02*
G01*
X32053627Y-509037D01*
X32223466Y-560557D01*
X32379991Y-644222D01*
X32415729Y-673552D01*
X32517186Y-756814D01*
X32596224Y-853124D01*
X32629778Y-894009D01*
X32641859Y-916611D01*
X32701054Y-1027355D01*
X32713443Y-1050534D01*
X32764963Y-1220373D01*
X32782359Y-1397000D01*
X32764963Y-1573627D01*
X32713443Y-1743466D01*
X32629778Y-1899991D01*
X32600448Y-1935729D01*
X32517186Y-2037186D01*
X32415729Y-2120448D01*
X32379991Y-2149778D01*
X32223466Y-2233443D01*
X32053627Y-2284963D01*
X31987443Y-2291481D01*
X31921260Y-2298000D01*
X31832740Y-2298000D01*
X31766557Y-2291481D01*
X31700373Y-2284963D01*
X31530534Y-2233443D01*
X31374009Y-2149778D01*
X31338271Y-2120448D01*
X31236814Y-2037186D01*
X31153552Y-1935729D01*
X31124222Y-1899991D01*
X31040557Y-1743466D01*
X30989037Y-1573627D01*
X30971641Y-1397000D01*
X30989037Y-1220373D01*
X31040557Y-1050534D01*
X31052947Y-1027355D01*
X31112141Y-916611D01*
X31124222Y-894009D01*
X31157776Y-853124D01*
X31236814Y-756814D01*
X31338271Y-673552D01*
X31374009Y-644222D01*
X31530534Y-560557D01*
X31700373Y-509037D01*
X31766557Y-502519D01*
X31832740Y-496000D01*
X31921260Y-496000D01*
X31987443Y-502519D01*
X31987443Y-502519D01*
G37*
G36*
X34527443Y-502519D02*
G01*
X34593627Y-509037D01*
X34763466Y-560557D01*
X34919991Y-644222D01*
X34955729Y-673552D01*
X35057186Y-756814D01*
X35136224Y-853124D01*
X35169778Y-894009D01*
X35181859Y-916611D01*
X35241054Y-1027355D01*
X35253443Y-1050534D01*
X35304963Y-1220373D01*
X35322359Y-1397000D01*
X35304963Y-1573627D01*
X35253443Y-1743466D01*
X35169778Y-1899991D01*
X35140448Y-1935729D01*
X35057186Y-2037186D01*
X34955729Y-2120448D01*
X34919991Y-2149778D01*
X34763466Y-2233443D01*
X34593627Y-2284963D01*
X34527443Y-2291481D01*
X34461260Y-2298000D01*
X34372740Y-2298000D01*
X34306557Y-2291481D01*
X34240373Y-2284963D01*
X34070534Y-2233443D01*
X33914009Y-2149778D01*
X33878271Y-2120448D01*
X33776814Y-2037186D01*
X33693552Y-1935729D01*
X33664222Y-1899991D01*
X33580557Y-1743466D01*
X33529037Y-1573627D01*
X33511641Y-1397000D01*
X33529037Y-1220373D01*
X33580557Y-1050534D01*
X33592947Y-1027355D01*
X33652141Y-916611D01*
X33664222Y-894009D01*
X33697776Y-853124D01*
X33776814Y-756814D01*
X33878271Y-673552D01*
X33914009Y-644222D01*
X34070534Y-560557D01*
X34240373Y-509037D01*
X34306557Y-502519D01*
X34372740Y-496000D01*
X34461260Y-496000D01*
X34527443Y-502519D01*
X34527443Y-502519D01*
G37*
G36*
X44687443Y-502519D02*
G01*
X44753627Y-509037D01*
X44923466Y-560557D01*
X45079991Y-644222D01*
X45115729Y-673552D01*
X45217186Y-756814D01*
X45296224Y-853124D01*
X45329778Y-894009D01*
X45341859Y-916611D01*
X45401054Y-1027355D01*
X45413443Y-1050534D01*
X45464963Y-1220373D01*
X45482359Y-1397000D01*
X45464963Y-1573627D01*
X45413443Y-1743466D01*
X45329778Y-1899991D01*
X45300448Y-1935729D01*
X45217186Y-2037186D01*
X45115729Y-2120448D01*
X45079991Y-2149778D01*
X44923466Y-2233443D01*
X44753627Y-2284963D01*
X44687443Y-2291481D01*
X44621260Y-2298000D01*
X44532740Y-2298000D01*
X44466557Y-2291481D01*
X44400373Y-2284963D01*
X44230534Y-2233443D01*
X44074009Y-2149778D01*
X44038271Y-2120448D01*
X43936814Y-2037186D01*
X43853552Y-1935729D01*
X43824222Y-1899991D01*
X43740557Y-1743466D01*
X43689037Y-1573627D01*
X43671641Y-1397000D01*
X43689037Y-1220373D01*
X43740557Y-1050534D01*
X43752947Y-1027355D01*
X43812141Y-916611D01*
X43824222Y-894009D01*
X43857776Y-853124D01*
X43936814Y-756814D01*
X44038271Y-673552D01*
X44074009Y-644222D01*
X44230534Y-560557D01*
X44400373Y-509037D01*
X44466557Y-502519D01*
X44532740Y-496000D01*
X44621260Y-496000D01*
X44687443Y-502519D01*
X44687443Y-502519D01*
G37*
G36*
X39607443Y-502519D02*
G01*
X39673627Y-509037D01*
X39843466Y-560557D01*
X39999991Y-644222D01*
X40035729Y-673552D01*
X40137186Y-756814D01*
X40216224Y-853124D01*
X40249778Y-894009D01*
X40261859Y-916611D01*
X40321054Y-1027355D01*
X40333443Y-1050534D01*
X40384963Y-1220373D01*
X40402359Y-1397000D01*
X40384963Y-1573627D01*
X40333443Y-1743466D01*
X40249778Y-1899991D01*
X40220448Y-1935729D01*
X40137186Y-2037186D01*
X40035729Y-2120448D01*
X39999991Y-2149778D01*
X39843466Y-2233443D01*
X39673627Y-2284963D01*
X39607443Y-2291481D01*
X39541260Y-2298000D01*
X39452740Y-2298000D01*
X39386557Y-2291481D01*
X39320373Y-2284963D01*
X39150534Y-2233443D01*
X38994009Y-2149778D01*
X38958271Y-2120448D01*
X38856814Y-2037186D01*
X38773552Y-1935729D01*
X38744222Y-1899991D01*
X38660557Y-1743466D01*
X38609037Y-1573627D01*
X38591641Y-1397000D01*
X38609037Y-1220373D01*
X38660557Y-1050534D01*
X38672947Y-1027355D01*
X38732141Y-916611D01*
X38744222Y-894009D01*
X38777776Y-853124D01*
X38856814Y-756814D01*
X38958271Y-673552D01*
X38994009Y-644222D01*
X39150534Y-560557D01*
X39320373Y-509037D01*
X39386557Y-502519D01*
X39452740Y-496000D01*
X39541260Y-496000D01*
X39607443Y-502519D01*
X39607443Y-502519D01*
G37*
G36*
X42147443Y-502519D02*
G01*
X42213627Y-509037D01*
X42383466Y-560557D01*
X42539991Y-644222D01*
X42575729Y-673552D01*
X42677186Y-756814D01*
X42756224Y-853124D01*
X42789778Y-894009D01*
X42801859Y-916611D01*
X42861054Y-1027355D01*
X42873443Y-1050534D01*
X42924963Y-1220373D01*
X42942359Y-1397000D01*
X42924963Y-1573627D01*
X42873443Y-1743466D01*
X42789778Y-1899991D01*
X42760448Y-1935729D01*
X42677186Y-2037186D01*
X42575729Y-2120448D01*
X42539991Y-2149778D01*
X42383466Y-2233443D01*
X42213627Y-2284963D01*
X42147443Y-2291481D01*
X42081260Y-2298000D01*
X41992740Y-2298000D01*
X41926557Y-2291481D01*
X41860373Y-2284963D01*
X41690534Y-2233443D01*
X41534009Y-2149778D01*
X41498271Y-2120448D01*
X41396814Y-2037186D01*
X41313552Y-1935729D01*
X41284222Y-1899991D01*
X41200557Y-1743466D01*
X41149037Y-1573627D01*
X41131641Y-1397000D01*
X41149037Y-1220373D01*
X41200557Y-1050534D01*
X41212947Y-1027355D01*
X41272141Y-916611D01*
X41284222Y-894009D01*
X41317776Y-853124D01*
X41396814Y-756814D01*
X41498271Y-673552D01*
X41534009Y-644222D01*
X41690534Y-560557D01*
X41860373Y-509037D01*
X41926557Y-502519D01*
X41992740Y-496000D01*
X42081260Y-496000D01*
X42147443Y-502519D01*
X42147443Y-502519D01*
G37*
G36*
X47227443Y-502519D02*
G01*
X47293627Y-509037D01*
X47463466Y-560557D01*
X47619991Y-644222D01*
X47655729Y-673552D01*
X47757186Y-756814D01*
X47836224Y-853124D01*
X47869778Y-894009D01*
X47881859Y-916611D01*
X47941054Y-1027355D01*
X47953443Y-1050534D01*
X48004963Y-1220373D01*
X48022359Y-1397000D01*
X48004963Y-1573627D01*
X47953443Y-1743466D01*
X47869778Y-1899991D01*
X47840448Y-1935729D01*
X47757186Y-2037186D01*
X47655729Y-2120448D01*
X47619991Y-2149778D01*
X47463466Y-2233443D01*
X47293627Y-2284963D01*
X47227443Y-2291481D01*
X47161260Y-2298000D01*
X47072740Y-2298000D01*
X47006557Y-2291481D01*
X46940373Y-2284963D01*
X46770534Y-2233443D01*
X46614009Y-2149778D01*
X46578271Y-2120448D01*
X46476814Y-2037186D01*
X46393552Y-1935729D01*
X46364222Y-1899991D01*
X46280557Y-1743466D01*
X46229037Y-1573627D01*
X46211641Y-1397000D01*
X46229037Y-1220373D01*
X46280557Y-1050534D01*
X46292947Y-1027355D01*
X46352141Y-916611D01*
X46364222Y-894009D01*
X46397776Y-853124D01*
X46476814Y-756814D01*
X46578271Y-673552D01*
X46614009Y-644222D01*
X46770534Y-560557D01*
X46940373Y-509037D01*
X47006557Y-502519D01*
X47072740Y-496000D01*
X47161260Y-496000D01*
X47227443Y-502519D01*
X47227443Y-502519D01*
G37*
G36*
X11667443Y-502519D02*
G01*
X11733627Y-509037D01*
X11903466Y-560557D01*
X12059991Y-644222D01*
X12095729Y-673552D01*
X12197186Y-756814D01*
X12276224Y-853124D01*
X12309778Y-894009D01*
X12321859Y-916611D01*
X12381054Y-1027355D01*
X12393443Y-1050534D01*
X12444963Y-1220373D01*
X12462359Y-1397000D01*
X12444963Y-1573627D01*
X12393443Y-1743466D01*
X12309778Y-1899991D01*
X12280448Y-1935729D01*
X12197186Y-2037186D01*
X12095729Y-2120448D01*
X12059991Y-2149778D01*
X11903466Y-2233443D01*
X11733627Y-2284963D01*
X11667443Y-2291481D01*
X11601260Y-2298000D01*
X11512740Y-2298000D01*
X11446557Y-2291481D01*
X11380373Y-2284963D01*
X11210534Y-2233443D01*
X11054009Y-2149778D01*
X11018271Y-2120448D01*
X10916814Y-2037186D01*
X10833552Y-1935729D01*
X10804222Y-1899991D01*
X10720557Y-1743466D01*
X10669037Y-1573627D01*
X10651641Y-1397000D01*
X10669037Y-1220373D01*
X10720557Y-1050534D01*
X10732947Y-1027355D01*
X10792141Y-916611D01*
X10804222Y-894009D01*
X10837776Y-853124D01*
X10916814Y-756814D01*
X11018271Y-673552D01*
X11054009Y-644222D01*
X11210534Y-560557D01*
X11380373Y-509037D01*
X11446557Y-502519D01*
X11512740Y-496000D01*
X11601260Y-496000D01*
X11667443Y-502519D01*
X11667443Y-502519D01*
G37*
G36*
X24367443Y-502519D02*
G01*
X24433627Y-509037D01*
X24603466Y-560557D01*
X24759991Y-644222D01*
X24795729Y-673552D01*
X24897186Y-756814D01*
X24976224Y-853124D01*
X25009778Y-894009D01*
X25021859Y-916611D01*
X25081054Y-1027355D01*
X25093443Y-1050534D01*
X25144963Y-1220373D01*
X25162359Y-1397000D01*
X25144963Y-1573627D01*
X25093443Y-1743466D01*
X25009778Y-1899991D01*
X24980448Y-1935729D01*
X24897186Y-2037186D01*
X24795729Y-2120448D01*
X24759991Y-2149778D01*
X24603466Y-2233443D01*
X24433627Y-2284963D01*
X24367443Y-2291481D01*
X24301260Y-2298000D01*
X24212740Y-2298000D01*
X24146557Y-2291481D01*
X24080373Y-2284963D01*
X23910534Y-2233443D01*
X23754009Y-2149778D01*
X23718271Y-2120448D01*
X23616814Y-2037186D01*
X23533552Y-1935729D01*
X23504222Y-1899991D01*
X23420557Y-1743466D01*
X23369037Y-1573627D01*
X23351641Y-1397000D01*
X23369037Y-1220373D01*
X23420557Y-1050534D01*
X23432947Y-1027355D01*
X23492141Y-916611D01*
X23504222Y-894009D01*
X23537776Y-853124D01*
X23616814Y-756814D01*
X23718271Y-673552D01*
X23754009Y-644222D01*
X23910534Y-560557D01*
X24080373Y-509037D01*
X24146557Y-502519D01*
X24212740Y-496000D01*
X24301260Y-496000D01*
X24367443Y-502519D01*
X24367443Y-502519D01*
G37*
G36*
X6587443Y-502519D02*
G01*
X6653627Y-509037D01*
X6823466Y-560557D01*
X6979991Y-644222D01*
X7015729Y-673552D01*
X7117186Y-756814D01*
X7196224Y-853124D01*
X7229778Y-894009D01*
X7241859Y-916611D01*
X7301054Y-1027355D01*
X7313443Y-1050534D01*
X7364963Y-1220373D01*
X7382359Y-1397000D01*
X7364963Y-1573627D01*
X7313443Y-1743466D01*
X7229778Y-1899991D01*
X7200448Y-1935729D01*
X7117186Y-2037186D01*
X7015729Y-2120448D01*
X6979991Y-2149778D01*
X6823466Y-2233443D01*
X6653627Y-2284963D01*
X6587443Y-2291481D01*
X6521260Y-2298000D01*
X6432740Y-2298000D01*
X6366557Y-2291481D01*
X6300373Y-2284963D01*
X6130534Y-2233443D01*
X5974009Y-2149778D01*
X5938271Y-2120448D01*
X5836814Y-2037186D01*
X5753552Y-1935729D01*
X5724222Y-1899991D01*
X5640557Y-1743466D01*
X5589037Y-1573627D01*
X5571641Y-1397000D01*
X5589037Y-1220373D01*
X5640557Y-1050534D01*
X5652947Y-1027355D01*
X5712141Y-916611D01*
X5724222Y-894009D01*
X5757776Y-853124D01*
X5836814Y-756814D01*
X5938271Y-673552D01*
X5974009Y-644222D01*
X6130534Y-560557D01*
X6300373Y-509037D01*
X6366557Y-502519D01*
X6432740Y-496000D01*
X6521260Y-496000D01*
X6587443Y-502519D01*
X6587443Y-502519D01*
G37*
G36*
X9127443Y-502519D02*
G01*
X9193627Y-509037D01*
X9363466Y-560557D01*
X9519991Y-644222D01*
X9555729Y-673552D01*
X9657186Y-756814D01*
X9736224Y-853124D01*
X9769778Y-894009D01*
X9781859Y-916611D01*
X9841054Y-1027355D01*
X9853443Y-1050534D01*
X9904963Y-1220373D01*
X9922359Y-1397000D01*
X9904963Y-1573627D01*
X9853443Y-1743466D01*
X9769778Y-1899991D01*
X9740448Y-1935729D01*
X9657186Y-2037186D01*
X9555729Y-2120448D01*
X9519991Y-2149778D01*
X9363466Y-2233443D01*
X9193627Y-2284963D01*
X9127443Y-2291481D01*
X9061260Y-2298000D01*
X8972740Y-2298000D01*
X8906557Y-2291481D01*
X8840373Y-2284963D01*
X8670534Y-2233443D01*
X8514009Y-2149778D01*
X8478271Y-2120448D01*
X8376814Y-2037186D01*
X8293552Y-1935729D01*
X8264222Y-1899991D01*
X8180557Y-1743466D01*
X8129037Y-1573627D01*
X8111641Y-1397000D01*
X8129037Y-1220373D01*
X8180557Y-1050534D01*
X8192947Y-1027355D01*
X8252141Y-916611D01*
X8264222Y-894009D01*
X8297776Y-853124D01*
X8376814Y-756814D01*
X8478271Y-673552D01*
X8514009Y-644222D01*
X8670534Y-560557D01*
X8840373Y-509037D01*
X8906557Y-502519D01*
X8972740Y-496000D01*
X9061260Y-496000D01*
X9127443Y-502519D01*
X9127443Y-502519D01*
G37*
G36*
X60718000Y-2298000D02*
G01*
X58916000Y-2298000D01*
X58916000Y-496000D01*
X60718000Y-496000D01*
X60718000Y-2298000D01*
X60718000Y-2298000D01*
G37*
G36*
X49767443Y-502519D02*
G01*
X49833627Y-509037D01*
X50003466Y-560557D01*
X50159991Y-644222D01*
X50195729Y-673552D01*
X50297186Y-756814D01*
X50376224Y-853124D01*
X50409778Y-894009D01*
X50421859Y-916611D01*
X50481054Y-1027355D01*
X50493443Y-1050534D01*
X50544963Y-1220373D01*
X50562359Y-1397000D01*
X50544963Y-1573627D01*
X50493443Y-1743466D01*
X50409778Y-1899991D01*
X50380448Y-1935729D01*
X50297186Y-2037186D01*
X50195729Y-2120448D01*
X50159991Y-2149778D01*
X50003466Y-2233443D01*
X49833627Y-2284963D01*
X49767443Y-2291481D01*
X49701260Y-2298000D01*
X49612740Y-2298000D01*
X49546557Y-2291481D01*
X49480373Y-2284963D01*
X49310534Y-2233443D01*
X49154009Y-2149778D01*
X49118271Y-2120448D01*
X49016814Y-2037186D01*
X48933552Y-1935729D01*
X48904222Y-1899991D01*
X48820557Y-1743466D01*
X48769037Y-1573627D01*
X48751641Y-1397000D01*
X48769037Y-1220373D01*
X48820557Y-1050534D01*
X48832947Y-1027355D01*
X48892141Y-916611D01*
X48904222Y-894009D01*
X48937776Y-853124D01*
X49016814Y-756814D01*
X49118271Y-673552D01*
X49154009Y-644222D01*
X49310534Y-560557D01*
X49480373Y-509037D01*
X49546557Y-502519D01*
X49612740Y-496000D01*
X49701260Y-496000D01*
X49767443Y-502519D01*
X49767443Y-502519D01*
G37*
G36*
X53916996Y-146737D02*
G01*
X53933215Y-151657D01*
X53957248Y-156437D01*
X53981752Y-156437D01*
X54005785Y-151657D01*
X54022004Y-146737D01*
X54038140Y-145148D01*
X54375860Y-145148D01*
X54391999Y-146737D01*
X54401608Y-149652D01*
X54410472Y-154390D01*
X54418237Y-160763D01*
X54424610Y-168528D01*
X54429348Y-177392D01*
X54432263Y-187001D01*
X54433852Y-203140D01*
X54433852Y-383583D01*
X54436254Y-407969D01*
X54443367Y-431418D01*
X54454918Y-453029D01*
X54470463Y-471971D01*
X54489405Y-487516D01*
X54511016Y-499067D01*
X54534465Y-506180D01*
X54571103Y-507980D01*
X54692740Y-496000D01*
X54781260Y-496000D01*
X54847443Y-502519D01*
X54913627Y-509037D01*
X55083466Y-560557D01*
X55239991Y-644222D01*
X55275729Y-673552D01*
X55377186Y-756814D01*
X55456224Y-853124D01*
X55489778Y-894009D01*
X55489779Y-894011D01*
X55491523Y-896136D01*
X55508850Y-913463D01*
X55529224Y-927077D01*
X55551863Y-936454D01*
X55575896Y-941235D01*
X55600401Y-941235D01*
X55624434Y-936455D01*
X55647073Y-927078D01*
X55667447Y-913464D01*
X55684774Y-896137D01*
X55698388Y-875763D01*
X55707765Y-853124D01*
X55712546Y-829091D01*
X55713148Y-816838D01*
X55713148Y-203140D01*
X55714737Y-187001D01*
X55717652Y-177392D01*
X55722390Y-168528D01*
X55728763Y-160763D01*
X55736528Y-154390D01*
X55745392Y-149652D01*
X55755001Y-146737D01*
X55771140Y-145148D01*
X56458860Y-145148D01*
X56474996Y-146737D01*
X56491215Y-151657D01*
X56515248Y-156437D01*
X56539752Y-156437D01*
X56563785Y-151657D01*
X56580004Y-146737D01*
X56596140Y-145148D01*
X56933860Y-145148D01*
X56949999Y-146737D01*
X56959608Y-149652D01*
X56968472Y-154390D01*
X56976237Y-160763D01*
X56982610Y-168528D01*
X56987348Y-177392D01*
X56990263Y-187001D01*
X56991852Y-203140D01*
X56991852Y-381811D01*
X56994254Y-406197D01*
X57001367Y-429646D01*
X57012918Y-451257D01*
X57028463Y-470199D01*
X57047405Y-485744D01*
X57069016Y-497295D01*
X57092465Y-504408D01*
X57116851Y-506810D01*
X57129090Y-506209D01*
X57220135Y-497242D01*
X57232741Y-496000D01*
X57321260Y-496000D01*
X57387443Y-502519D01*
X57453627Y-509037D01*
X57623466Y-560557D01*
X57779991Y-644222D01*
X57815729Y-673552D01*
X57917186Y-756814D01*
X57996224Y-853124D01*
X58029778Y-894009D01*
X58041859Y-916611D01*
X58101054Y-1027355D01*
X58113443Y-1050534D01*
X58164963Y-1220373D01*
X58182359Y-1397000D01*
X58164963Y-1573627D01*
X58113443Y-1743466D01*
X58029778Y-1899991D01*
X58000448Y-1935729D01*
X57917186Y-2037186D01*
X57815729Y-2120448D01*
X57779991Y-2149778D01*
X57623466Y-2233443D01*
X57453627Y-2284963D01*
X57387443Y-2291481D01*
X57321260Y-2298000D01*
X57232740Y-2298000D01*
X57166557Y-2291481D01*
X57100373Y-2284963D01*
X56930534Y-2233443D01*
X56774009Y-2149778D01*
X56738271Y-2120448D01*
X56636814Y-2037186D01*
X56553552Y-1935729D01*
X56524222Y-1899991D01*
X56440557Y-1743466D01*
X56389037Y-1573627D01*
X56371641Y-1397000D01*
X56389037Y-1220373D01*
X56422477Y-1110136D01*
X56427257Y-1086102D01*
X56427257Y-1061598D01*
X56422476Y-1037565D01*
X56413099Y-1014926D01*
X56399485Y-994552D01*
X56382158Y-977225D01*
X56361783Y-963611D01*
X56339145Y-954234D01*
X56302860Y-948852D01*
X55771140Y-948852D01*
X55755006Y-947263D01*
X55755003Y-947262D01*
X55755002Y-947262D01*
X55745389Y-944346D01*
X55745388Y-944346D01*
X55744328Y-944024D01*
X55720294Y-939244D01*
X55695790Y-939244D01*
X55671757Y-944024D01*
X55649118Y-953402D01*
X55628744Y-967015D01*
X55611417Y-984342D01*
X55597803Y-1004717D01*
X55588425Y-1027355D01*
X55583645Y-1051389D01*
X55583645Y-1075893D01*
X55588423Y-1099918D01*
X55624963Y-1220373D01*
X55642359Y-1397000D01*
X55624963Y-1573627D01*
X55573443Y-1743466D01*
X55489778Y-1899991D01*
X55460448Y-1935729D01*
X55377186Y-2037186D01*
X55275729Y-2120448D01*
X55239991Y-2149778D01*
X55083466Y-2233443D01*
X54913627Y-2284963D01*
X54847443Y-2291481D01*
X54781260Y-2298000D01*
X54692740Y-2298000D01*
X54626557Y-2291481D01*
X54560373Y-2284963D01*
X54390534Y-2233443D01*
X54234009Y-2149778D01*
X54198271Y-2120448D01*
X54096814Y-2037186D01*
X54013552Y-1935729D01*
X53984222Y-1899991D01*
X53900557Y-1743466D01*
X53849037Y-1573627D01*
X53831641Y-1397000D01*
X53849037Y-1220373D01*
X53882477Y-1110136D01*
X53887257Y-1086102D01*
X53887257Y-1061598D01*
X53882476Y-1037565D01*
X53873099Y-1014926D01*
X53859485Y-994552D01*
X53842158Y-977225D01*
X53821783Y-963611D01*
X53799145Y-954234D01*
X53762860Y-948852D01*
X53213140Y-948852D01*
X53187487Y-946326D01*
X53182114Y-945257D01*
X53157610Y-945258D01*
X53133577Y-950040D01*
X53110939Y-959418D01*
X53090565Y-973032D01*
X53073239Y-990360D01*
X53059626Y-1010735D01*
X53050249Y-1033374D01*
X53045469Y-1057408D01*
X53045470Y-1081912D01*
X53050250Y-1105938D01*
X53084963Y-1220373D01*
X53102359Y-1397000D01*
X53084963Y-1573627D01*
X53033443Y-1743466D01*
X52949778Y-1899991D01*
X52920448Y-1935729D01*
X52837186Y-2037186D01*
X52735729Y-2120448D01*
X52699991Y-2149778D01*
X52543466Y-2233443D01*
X52373627Y-2284963D01*
X52307443Y-2291481D01*
X52241260Y-2298000D01*
X52152740Y-2298000D01*
X52086557Y-2291481D01*
X52020373Y-2284963D01*
X51850534Y-2233443D01*
X51694009Y-2149778D01*
X51658271Y-2120448D01*
X51556814Y-2037186D01*
X51473552Y-1935729D01*
X51444222Y-1899991D01*
X51360557Y-1743466D01*
X51309037Y-1573627D01*
X51291641Y-1397000D01*
X51309037Y-1220373D01*
X51360557Y-1050534D01*
X51372947Y-1027355D01*
X51432141Y-916611D01*
X51444222Y-894009D01*
X51477776Y-853124D01*
X51556814Y-756814D01*
X51658271Y-673552D01*
X51694009Y-644222D01*
X51850534Y-560557D01*
X52020373Y-509037D01*
X52086557Y-502519D01*
X52152740Y-496000D01*
X52241260Y-496000D01*
X52307443Y-502519D01*
X52373627Y-509037D01*
X52543466Y-560557D01*
X52699991Y-644222D01*
X52735729Y-673552D01*
X52837186Y-756814D01*
X52912081Y-848076D01*
X52933524Y-874204D01*
X52950850Y-891530D01*
X52971224Y-905144D01*
X52993863Y-914521D01*
X53017896Y-919302D01*
X53042400Y-919302D01*
X53066434Y-914522D01*
X53089073Y-905145D01*
X53109447Y-891531D01*
X53126774Y-874204D01*
X53140388Y-853830D01*
X53149765Y-831191D01*
X53154546Y-807158D01*
X53155148Y-794905D01*
X53155148Y-203140D01*
X53156737Y-187001D01*
X53159652Y-177392D01*
X53164390Y-168528D01*
X53170763Y-160763D01*
X53178528Y-154390D01*
X53187392Y-149652D01*
X53197001Y-146737D01*
X53213140Y-145148D01*
X53900860Y-145148D01*
X53916996Y-146737D01*
X53916996Y-146737D01*
G37*
G36*
X4047443Y-502519D02*
G01*
X4113627Y-509037D01*
X4283466Y-560557D01*
X4439991Y-644222D01*
X4475729Y-673552D01*
X4577186Y-756814D01*
X4656224Y-853124D01*
X4689778Y-894009D01*
X4701859Y-916611D01*
X4761054Y-1027355D01*
X4773443Y-1050534D01*
X4824963Y-1220373D01*
X4842359Y-1397000D01*
X4824963Y-1573627D01*
X4773443Y-1743466D01*
X4689778Y-1899991D01*
X4660448Y-1935729D01*
X4577186Y-2037186D01*
X4475729Y-2120448D01*
X4439991Y-2149778D01*
X4283466Y-2233443D01*
X4113627Y-2284963D01*
X4047443Y-2291481D01*
X3981260Y-2298000D01*
X3892740Y-2298000D01*
X3826557Y-2291481D01*
X3760373Y-2284963D01*
X3590534Y-2233443D01*
X3434009Y-2149778D01*
X3398271Y-2120448D01*
X3296814Y-2037186D01*
X3213552Y-1935729D01*
X3184222Y-1899991D01*
X3100557Y-1743466D01*
X3049037Y-1573627D01*
X3031641Y-1397000D01*
X3049037Y-1220373D01*
X3100557Y-1050534D01*
X3112947Y-1027355D01*
X3172141Y-916611D01*
X3184222Y-894009D01*
X3217776Y-853124D01*
X3296814Y-756814D01*
X3398271Y-673552D01*
X3434009Y-644222D01*
X3590534Y-560557D01*
X3760373Y-509037D01*
X3826557Y-502519D01*
X3892740Y-496000D01*
X3981260Y-496000D01*
X4047443Y-502519D01*
X4047443Y-502519D01*
G37*
M02*
